G04*
G04 #@! TF.GenerationSoftware,Altium Limited,Altium Designer,25.8.1 (18)*
G04*
G04 Layer_Physical_Order=2*
G04 Layer_Color=16711680*
%FSLAX44Y44*%
%MOMM*%
G71*
G04*
G04 #@! TF.SameCoordinates,5D46F635-8B12-49F8-90BD-38314D954B60*
G04*
G04*
G04 #@! TF.FilePolarity,Positive*
G04*
G01*
G75*
%ADD11C,0.2000*%
%ADD13C,0.2540*%
%ADD17R,5.0000X1.6000*%
%ADD78C,1.5700*%
%ADD79C,2.4500*%
%ADD82C,1.4000*%
%ADD83R,1.4000X1.4000*%
%ADD84C,3.2500*%
%ADD92C,0.1000*%
%ADD95C,0.5000*%
%ADD96C,0.3000*%
%ADD97C,0.4000*%
%ADD98C,0.1500*%
%ADD101C,1.0000*%
%ADD104C,2.0000*%
G04:AMPARAMS|DCode=105|XSize=1.6mm|YSize=1.6mm|CornerRadius=0.4mm|HoleSize=0mm|Usage=FLASHONLY|Rotation=270.000|XOffset=0mm|YOffset=0mm|HoleType=Round|Shape=RoundedRectangle|*
%AMROUNDEDRECTD105*
21,1,1.6000,0.8000,0,0,270.0*
21,1,0.8000,1.6000,0,0,270.0*
1,1,0.8000,-0.4000,-0.4000*
1,1,0.8000,-0.4000,0.4000*
1,1,0.8000,0.4000,0.4000*
1,1,0.8000,0.4000,-0.4000*
%
%ADD105ROUNDEDRECTD105*%
%ADD106C,1.6000*%
%ADD107C,1.0000*%
%ADD108C,1.2700*%
%ADD109C,0.3000*%
%ADD110C,0.5000*%
%ADD111C,0.6000*%
%ADD112C,0.2000*%
D11*
X267715Y175360D02*
X272695Y180340D01*
X275590D01*
X252992Y175360D02*
X267715D01*
X251279Y185794D02*
X255635Y190150D01*
X258530D01*
X247276Y185794D02*
X251279D01*
X247722Y170090D02*
X252992Y175360D01*
X245039Y170090D02*
X247722D01*
X242570Y190500D02*
X247276Y185794D01*
X203200Y190500D02*
X242570D01*
D13*
X711200Y691001D02*
Y698576D01*
X497840Y563880D02*
X521332Y540388D01*
X497840Y563880D02*
Y575310D01*
X285640Y233680D02*
X520700Y468740D01*
Y516890D01*
X705891Y691001D02*
X711200D01*
X380400Y641834D02*
X410094Y612140D01*
X467360D01*
X576580Y594360D02*
X592940Y578000D01*
X713590D01*
X737870Y553720D01*
X737121Y515620D02*
X739140D01*
X732151Y520590D02*
X737121Y515620D01*
X642620Y520590D02*
X732151D01*
X533550Y550502D02*
Y556938D01*
X523436Y540388D02*
X533550Y550502D01*
X527050Y563438D02*
X533550Y556938D01*
X527050Y563438D02*
Y615950D01*
X470050Y658208D02*
Y686191D01*
X463202Y651360D02*
X470050Y658208D01*
X459062Y651360D02*
X463202D01*
X521332Y540388D02*
X523436D01*
X668020Y281940D02*
Y283959D01*
X671830Y287769D01*
Y314960D01*
X581660Y407670D02*
X651510Y337820D01*
X581660Y407670D02*
Y438150D01*
X562689Y457121D02*
X581660Y438150D01*
X562689Y457121D02*
Y559991D01*
X542290Y580390D02*
X562689Y559991D01*
X344320Y670410D02*
X354330Y660400D01*
X306070Y708660D02*
X335130Y679600D01*
X344320Y670410D02*
Y675048D01*
X335130Y679600D02*
X339768D01*
X344320Y675048D01*
X253558Y660400D02*
X339090D01*
X362392Y748030D02*
X459062Y651360D01*
X157480Y748030D02*
X362392D01*
X143510Y708660D02*
X306070D01*
X137160Y770890D02*
Y779548D01*
X121418Y795290D02*
X137160Y779548D01*
X119610Y757016D02*
Y786110D01*
X118200Y787520D02*
X119610Y786110D01*
X33020Y610870D02*
Y615752D01*
X12470Y636302D02*
X33020Y615752D01*
Y610870D02*
X36130Y607760D01*
X278388D01*
X11820Y754162D02*
X52948Y795290D01*
X11820Y722590D02*
Y754162D01*
X52948Y795290D02*
X121418D01*
X11820Y722590D02*
X21060Y713350D01*
X464820Y691421D02*
Y693420D01*
Y691421D02*
X470050Y686191D01*
X139700Y725170D02*
X143510D01*
X130210Y734660D02*
X139700Y725170D01*
X114892Y734660D02*
X130210D01*
X110340Y730108D02*
X114892Y734660D01*
X110340Y723021D02*
Y730108D01*
Y723021D02*
X115658Y717703D01*
Y701394D02*
Y717703D01*
Y701394D02*
X145632Y671420D01*
X153939D01*
X167640Y657719D01*
Y649188D02*
Y657719D01*
X166152Y647700D02*
X167640Y649188D01*
X149079Y647700D02*
X166152D01*
X135705Y661074D02*
X149079Y647700D01*
X29687Y661074D02*
X135705D01*
X12470Y643858D02*
X29687Y661074D01*
X12470Y636302D02*
Y643858D01*
X278388Y607760D02*
X312462Y641834D01*
X380400D01*
X107300Y744706D02*
X119610Y757016D01*
X107300Y715073D02*
X107888Y714485D01*
X107300Y715073D02*
Y744706D01*
X157860Y656510D02*
X158750Y655620D01*
X149940Y656510D02*
X157860D01*
X139700Y666750D02*
X149940Y656510D01*
X53340Y666750D02*
X139700D01*
X113030Y621030D02*
X141559Y649559D01*
X129380Y653304D02*
X139176D01*
X142240Y650240D01*
X21060Y713350D02*
X25637D01*
X36558Y683532D02*
Y702428D01*
X25637Y713350D02*
X36558Y702428D01*
X167640Y627380D02*
X179070Y615950D01*
X275590D01*
X135740Y705442D02*
X140292Y700890D01*
X118110Y726890D02*
X135740Y709260D01*
X144110Y700890D02*
X184600Y660400D01*
X135740Y705442D02*
Y709260D01*
X140292Y700890D02*
X144110D01*
X245788Y652630D02*
X253558Y660400D01*
X239352Y652630D02*
X245788D01*
X238234Y653748D02*
X239352Y652630D01*
X186953Y653748D02*
X238234D01*
X152361Y688340D02*
X186953Y653748D01*
X139700Y688340D02*
X152361D01*
X184600Y660400D02*
X242570D01*
X36558Y683532D02*
X53340Y666750D01*
X185420Y731520D02*
X207010D01*
X111840Y650320D02*
X113030Y651510D01*
X111840Y642700D02*
Y650320D01*
X102870Y633730D02*
X111840Y642700D01*
X754380Y797560D02*
X784637D01*
X769178Y768350D02*
X784860D01*
X769028Y768200D02*
X769178Y768350D01*
X762442D02*
X762592Y768200D01*
X769028D01*
X756390Y768350D02*
X762442D01*
X681107Y652725D02*
X682209Y653828D01*
X700541Y656868D02*
X702088Y655320D01*
X680577Y656495D02*
X680950Y656868D01*
X696044Y653828D02*
X697147Y652725D01*
X682209Y653828D02*
X696044D01*
X680950Y656868D02*
X700541D01*
X638246Y654930D02*
X658574D01*
X702088Y655320D02*
X703121D01*
X660779Y652725D02*
X681107D01*
X658574Y654930D02*
X660779Y652725D01*
X679545Y656495D02*
X680577D01*
X713847Y687193D02*
X722536D01*
X724007Y685722D01*
X713684Y701059D02*
X715091D01*
X711200Y698576D02*
X713684Y701059D01*
X707043Y689850D02*
X711190D01*
X713847Y687193D01*
X705891Y691001D02*
X707043Y689850D01*
X763270Y721360D02*
X778510D01*
X786130Y713740D01*
X750513Y609600D02*
X777240D01*
X724881Y616751D02*
X743362D01*
X750513Y609600D01*
X721540Y613410D02*
X724881Y616751D01*
X701040Y613410D02*
X721540D01*
X784860Y768350D02*
X798830Y782320D01*
X752580Y772160D02*
X756390Y768350D01*
X721360Y773660D02*
X722860Y772160D01*
X752580D01*
X680720Y711041D02*
X692309Y722630D01*
X696339D01*
X700500Y718469D01*
X803680Y791440D02*
X816610Y778510D01*
X790757Y791440D02*
X803680D01*
X784637Y797560D02*
X790757Y791440D01*
X572770Y177800D02*
X575519D01*
X580599Y172720D01*
X635000D01*
X292515Y74930D02*
X342900D01*
X275080Y92365D02*
X292515Y74930D01*
X300990Y48260D02*
X302260Y46990D01*
X292100Y48260D02*
X300990D01*
X279400Y60960D02*
X292100Y48260D01*
D17*
X29420Y160260D02*
D03*
Y215660D02*
D03*
D78*
X902970Y918230D02*
D03*
Y938530D02*
D03*
X767270Y918230D02*
D03*
Y938530D02*
D03*
D79*
X912620Y862330D02*
D03*
X757620D02*
D03*
D82*
X892270Y803930D02*
D03*
X879570Y829330D02*
D03*
X866870Y803930D02*
D03*
X854170Y829330D02*
D03*
X841470Y803930D02*
D03*
X828770Y829330D02*
D03*
X816070Y803930D02*
D03*
X803370Y829330D02*
D03*
X790670Y803930D02*
D03*
D83*
X777970Y829330D02*
D03*
D84*
Y892830D02*
D03*
X892270D02*
D03*
D92*
X666750Y751840D02*
X760730D01*
X715285Y707099D02*
X740976Y732790D01*
X715082Y707099D02*
X715285D01*
X700500Y712781D02*
Y718469D01*
X702310Y710430D02*
Y710971D01*
X700500Y712781D02*
X702310Y710971D01*
X788526Y737186D02*
Y738014D01*
D95*
X198913Y200850D02*
X262467D01*
X17272Y215660D02*
Y230886D01*
X29210Y160260D02*
Y215660D01*
X294884Y195082D02*
X317246Y172720D01*
X268236Y195082D02*
X294884D01*
X262467Y200850D02*
X268236Y195082D01*
X302514Y475996D02*
X355854D01*
X227838Y401320D02*
X302514Y475996D01*
X457293Y647090D02*
X470510D01*
X471170Y646430D01*
X537210Y559317D02*
Y572742D01*
Y559317D02*
X539750Y556777D01*
Y546100D02*
Y556777D01*
X535390Y541740D02*
X539750Y546100D01*
X535390Y193833D02*
Y541740D01*
X537210Y191103D02*
Y192013D01*
X535390Y193833D02*
X537210Y192013D01*
Y191103D02*
X540543Y187770D01*
X544830Y199030D02*
X545740Y198120D01*
X544830Y199030D02*
Y237490D01*
X533290Y576662D02*
X537210Y572742D01*
X534560Y585388D02*
Y610732D01*
X536050Y612222D01*
Y619678D01*
X533290Y584118D02*
X534560Y585388D01*
X533290Y576662D02*
Y584118D01*
X540543Y187770D02*
X562420D01*
X534560Y621168D02*
Y671050D01*
X507110Y698500D02*
X534560Y671050D01*
Y621168D02*
X536050Y619678D01*
X632460Y257810D02*
Y297180D01*
X562420Y187770D02*
X632460Y257810D01*
X544830Y237490D02*
X560115Y252775D01*
Y256310D01*
X557074Y269240D02*
X564686Y276852D01*
X569509Y265705D02*
Y266502D01*
X573796Y276852D02*
X581850Y268799D01*
Y258704D02*
Y268799D01*
X560115Y256310D02*
X569509Y265705D01*
X564686Y276852D02*
X573796D01*
X597010Y551084D02*
Y557448D01*
X618504Y529590D02*
X843280D01*
X597010Y551084D02*
X618504Y529590D01*
X495300Y669290D02*
Y713768D01*
X497840Y716308D01*
Y728980D01*
X584480Y566076D02*
X586563D01*
X589919Y562720D02*
X591738D01*
X597010Y557448D01*
X586563Y566076D02*
X589919Y562720D01*
X502708Y758061D02*
Y774488D01*
X496570Y751923D02*
X502708Y758061D01*
X496570Y750570D02*
Y751923D01*
X96520Y777240D02*
X110490D01*
X69850Y750570D02*
X96520Y777240D01*
X454905Y649478D02*
X457293Y647090D01*
X248675Y649478D02*
X454905D01*
X247557Y648360D02*
X248675Y649478D01*
X237583Y648360D02*
X247557D01*
X158640Y630572D02*
Y631108D01*
X163912Y636380D01*
X164448D01*
X140098Y612030D02*
X158640Y630572D01*
X164448Y636380D02*
X177546Y649478D01*
X49640Y612030D02*
X140098D01*
X21590Y640080D02*
X49640Y612030D01*
X177546Y649478D02*
X236465D01*
X237583Y648360D01*
X306070Y560070D02*
X326390Y580390D01*
Y608330D01*
X76513Y809947D02*
X77470Y808990D01*
X76513Y809947D02*
Y818837D01*
X76200Y819150D02*
X76513Y818837D01*
X739140Y926132D02*
Y971161D01*
X674370Y974090D02*
X736211D01*
X657860Y990600D02*
X674370Y974090D01*
X736211D02*
X739140Y971161D01*
X721583Y834390D02*
X736600D01*
X737191Y834981D01*
X730624Y797934D02*
X746620Y813930D01*
X730624Y797186D02*
Y797934D01*
X599440Y947420D02*
X618490Y966470D01*
Y982980D01*
X626110Y990600D01*
X657860D01*
X708470Y895462D02*
X739140Y926132D01*
X708470Y847503D02*
Y895462D01*
Y847503D02*
X721583Y834390D01*
X627380Y807720D02*
Y861060D01*
X726984Y960664D01*
X414020Y113030D02*
X426720Y100330D01*
X650240D01*
X793750Y243840D01*
Y346710D01*
X855510Y408470D01*
Y804032D01*
X845612Y813930D02*
X855510Y804032D01*
X746620Y813930D02*
X845612D01*
X775177Y696150D02*
X781240Y690087D01*
X769737Y696150D02*
X775177D01*
X781240Y684647D02*
X783590Y682297D01*
X757503Y708384D02*
X769737Y696150D01*
X781240Y684647D02*
Y690087D01*
X732790Y640080D02*
X779780D01*
X783590Y643890D02*
Y682297D01*
X779780Y640080D02*
X783590Y643890D01*
X748239Y693286D02*
X755724Y685800D01*
X770890D01*
X748239Y693286D02*
Y695069D01*
X727778Y701132D02*
X742176D01*
X748239Y695069D01*
X727706Y701059D02*
X727778Y701132D01*
X715091Y701059D02*
X727706D01*
X707989Y607631D02*
X739584D01*
X701631Y601273D02*
X707989Y607631D01*
X690173Y601273D02*
X701631D01*
X688700Y599800D02*
X690173Y601273D01*
X819150Y431800D02*
X836930D01*
X806450Y419100D02*
X819150Y431800D01*
X21590Y728980D02*
X53340Y760730D01*
X29210Y215660D02*
X29420D01*
X17272D02*
X29210D01*
Y160260D02*
X29420D01*
X97790Y38100D02*
X147320D01*
X87630Y27940D02*
X97790Y38100D01*
X560223Y237077D02*
X581850Y258704D01*
X560223Y224993D02*
Y237077D01*
X558750Y223520D02*
X560223Y224993D01*
X554990Y269240D02*
X557074D01*
X63104Y200294D02*
X66040Y197358D01*
X195421Y197358D02*
X198913Y200850D01*
X66040Y197358D02*
X195421D01*
X268224Y559562D02*
Y572008D01*
X328930Y632714D01*
X334264Y358648D02*
Y423672D01*
X366268Y455676D01*
X411988Y731012D02*
X477774D01*
X239776Y865378D02*
Y875030D01*
X225806Y889000D02*
X239776Y875030D01*
X137160Y889000D02*
X225806D01*
X76200Y819150D02*
Y821234D01*
X78740Y823774D01*
Y845820D01*
D96*
X57150Y699770D02*
Y760730D01*
X306230Y204310D02*
X312752D01*
X291258Y219282D02*
X306230Y204310D01*
X312752D02*
X323110Y193952D01*
Y193040D02*
Y193952D01*
X202332Y218333D02*
X203382Y217283D01*
X214365Y229870D02*
X250767D01*
X263427Y217210D02*
X272598D01*
X56420Y206833D02*
X67921Y218333D01*
X202332D01*
X250767Y229870D02*
X263427Y217210D01*
X208782Y235452D02*
X214365Y229870D01*
X489370Y617886D02*
Y623196D01*
X492380Y626206D01*
Y636740D01*
X475360Y603877D02*
X489370Y617886D01*
X475360Y517270D02*
Y603877D01*
X350520Y392430D02*
X475360Y517270D01*
X324914Y431833D02*
X471860Y578779D01*
Y605326D01*
X475360Y608826D01*
X247713Y257873D02*
X324914Y335074D01*
Y431833D01*
X274320Y323850D02*
X275590Y322580D01*
X270510Y323850D02*
X274320D01*
X239524Y292864D02*
X270510Y323850D01*
X239524Y254559D02*
Y292864D01*
Y254559D02*
X244210Y249873D01*
X250838D01*
X252355Y251391D01*
X256471D01*
X257810Y252730D01*
X247524Y257873D02*
X247713D01*
X473026Y648286D02*
X477093D01*
X477777Y648970D02*
X488347D01*
X490887Y651510D01*
X471170Y646430D02*
X473026Y648286D01*
X477093D02*
X477777Y648970D01*
X500349Y651510D02*
X504430Y655592D01*
X490887Y651510D02*
X500349D01*
X463550Y707390D02*
Y708660D01*
Y707390D02*
X478403Y692537D01*
Y674873D02*
Y692537D01*
Y674873D02*
X491986Y661290D01*
X499321D01*
X508794Y670763D01*
X516129D01*
X524510Y662382D01*
Y655320D02*
Y662382D01*
X515225Y646035D02*
X524510Y655320D01*
X490361Y646035D02*
X515225D01*
X475360Y631033D02*
X490361Y646035D01*
X475360Y608826D02*
Y631033D01*
X492380Y636740D02*
X493675Y638035D01*
X504430Y655592D02*
X505643D01*
X274669Y219282D02*
X291258D01*
X272598Y217210D02*
X274669Y219282D01*
X505643Y655592D02*
X512815Y662763D01*
X598659Y260839D02*
X624460Y286640D01*
X596174Y260839D02*
X598659D01*
X661670Y323850D02*
Y480060D01*
X575660Y281352D02*
X596174Y260839D01*
X643000Y305180D02*
X661670Y323850D01*
X629146Y305180D02*
X643000D01*
X624460Y300494D02*
X629146Y305180D01*
X624460Y286640D02*
Y300494D01*
X588010Y553720D02*
X661670Y480060D01*
X550630Y259403D02*
X551117Y259890D01*
X550630Y257152D02*
Y259403D01*
X553879Y281352D02*
X575660D01*
X545640Y265367D02*
X549291Y261716D01*
Y260386D02*
X549786Y259890D01*
X545640Y265367D02*
Y273113D01*
X549786Y259890D02*
X551117D01*
X545640Y273113D02*
X553879Y281352D01*
X549291Y260386D02*
Y261716D01*
X591820Y655320D02*
X632460Y695960D01*
Y721360D01*
X604520Y709860D02*
Y769835D01*
X643293Y717501D02*
X646647Y714147D01*
X505460Y711200D02*
X527050D01*
X548640Y732790D01*
X213360Y822960D02*
X222250Y831850D01*
X259080D01*
X604520Y769835D02*
X656835Y822150D01*
X687286D01*
X733465Y775970D01*
X765810D01*
X646647Y714147D02*
X660748D01*
X670720Y682460D02*
X672059Y681121D01*
Y677600D02*
Y681121D01*
Y677600D02*
X683686Y665973D01*
X692831D01*
X697713Y670854D01*
X699607D01*
X719796D01*
X727710Y662940D01*
X494030Y243840D02*
X502334Y235536D01*
X513764D02*
X515620Y233680D01*
X502334Y235536D02*
X513764D01*
X483870Y292100D02*
X486495D01*
X492845Y285750D01*
X521970D01*
X458470Y274320D02*
X513080D01*
X207010Y27940D02*
X241300D01*
X46990Y187960D02*
X207010Y27940D01*
X46990Y187960D02*
Y197402D01*
X56420Y206832D01*
Y206833D01*
D97*
X307462Y195458D02*
X308610Y194310D01*
X302382Y195458D02*
X307462D01*
X297758Y200082D02*
X302382Y195458D01*
X274387Y200082D02*
X297758D01*
X268619Y205850D02*
X274387Y200082D01*
X232728Y205850D02*
X268619D01*
X211625Y226952D02*
X232728Y205850D01*
X205261Y226952D02*
X211625D01*
X195580Y236634D02*
X205261Y226952D01*
X195580Y236634D02*
Y237490D01*
X187080Y233668D02*
Y258200D01*
Y233668D02*
X192791Y227957D01*
Y226333D02*
Y227957D01*
X187080Y258200D02*
X204470Y275590D01*
X258451Y291471D02*
X259599Y292619D01*
X258451Y287661D02*
Y291471D01*
X250190Y279400D02*
X258451Y287661D01*
X217988Y274772D02*
Y410307D01*
Y274772D02*
X235524Y257236D01*
Y252902D02*
X242554Y245873D01*
X235524Y252902D02*
Y257236D01*
X217988Y410307D02*
X237100Y429419D01*
X479360Y601873D02*
X497369Y619882D01*
X479360Y451420D02*
Y601873D01*
X276860Y248920D02*
X479360Y451420D01*
X505870Y596314D02*
X506340Y595843D01*
X502374Y628612D02*
X505870Y625117D01*
Y596314D02*
Y625117D01*
X502374Y628612D02*
Y630236D01*
X506340Y570620D02*
Y595843D01*
Y570620D02*
X521970Y554990D01*
X246887Y245873D02*
X270510Y222250D01*
X242554Y245873D02*
X246887D01*
X134660Y915670D02*
X393700D01*
X447040Y862330D01*
X466090D01*
X8050Y630508D02*
X205488Y433070D01*
X8050Y789060D02*
X134660Y915670D01*
X8050Y630508D02*
Y789060D01*
X205488Y433070D02*
X228600D01*
X394970Y726440D02*
X461132Y660278D01*
X552640Y578200D02*
Y615760D01*
Y578200D02*
X573977Y556863D01*
X543560Y624840D02*
X552640Y615760D01*
X613020Y713941D02*
X628939Y729860D01*
X613020Y698110D02*
Y713941D01*
X586776Y671866D02*
X613020Y698110D01*
X635981Y729860D02*
X638521Y727320D01*
X628939Y729860D02*
X635981D01*
X638521Y727320D02*
X642230D01*
X586776Y666602D02*
Y671866D01*
X642230Y727320D02*
X666750Y751840D01*
X576477Y656304D02*
X586776Y666602D01*
X237100Y429419D02*
Y444110D01*
X394970Y601980D01*
X322580Y685800D02*
X336550Y671830D01*
X237490Y685800D02*
X322580D01*
X246380Y756920D02*
X309880D01*
X375920Y822960D01*
X401320Y843280D02*
X402468Y842132D01*
Y838322D02*
Y842132D01*
Y838322D02*
X417830Y822960D01*
X436880Y816610D02*
X438504D01*
X444854Y810260D01*
X477520D01*
X151130Y764540D02*
Y817712D01*
X127310Y841532D02*
X151130Y817712D01*
X127310Y841532D02*
Y893080D01*
X394970Y726440D02*
Y837609D01*
X392820Y846801D02*
X394970Y848951D01*
X392820Y839759D02*
Y846801D01*
Y839759D02*
X394970Y837609D01*
Y848951D02*
Y886107D01*
X393938Y899160D02*
X429321Y863777D01*
X133390Y899160D02*
X393938D01*
X429321Y821072D02*
Y863777D01*
X428380Y813089D02*
Y820131D01*
X429321Y821072D01*
Y811469D02*
Y812148D01*
X428380Y813089D02*
X429321Y812148D01*
X557140Y613800D02*
X576580Y594360D01*
X557140Y613800D02*
Y791600D01*
X461010Y763270D02*
X462158Y764418D01*
X465289D01*
X501678Y800807D01*
Y834362D01*
X495300Y853440D02*
X557140Y791600D01*
X566627Y664001D02*
X576926Y674300D01*
X566627Y652224D02*
Y664001D01*
Y652224D02*
X572397Y646454D01*
X394793Y886283D02*
X394970Y886107D01*
X127310Y893080D02*
X133390Y899160D01*
X429321Y811469D02*
X464820Y775970D01*
X655320Y973736D02*
Y975360D01*
Y973736D02*
X660400Y968656D01*
Y941070D02*
Y968656D01*
X679450Y868680D02*
Y891540D01*
Y868680D02*
X725170Y822960D01*
X737235Y871855D02*
X737870Y872490D01*
X736600Y851790D02*
X737235Y852425D01*
Y871855D01*
X685858Y646058D02*
X693421Y638495D01*
X686780Y626568D02*
X693629D01*
X695293Y624903D01*
X707292Y642580D02*
X714415D01*
X685427Y646058D02*
X685858D01*
X697147Y652725D02*
X707292Y642580D01*
X693421Y638495D02*
X697545D01*
X675789Y637559D02*
X686780Y626568D01*
X659130Y676910D02*
X679545Y656495D01*
X572397Y646454D02*
X609664D01*
X675680Y712470D01*
Y714591D01*
X741460Y737870D02*
X766806D01*
X693460Y730250D02*
X733840D01*
X741460Y737870D01*
X766806D02*
X775696Y746760D01*
X775970D01*
X689570Y726360D02*
X693460Y730250D01*
X687449Y726360D02*
X689570D01*
X675680Y714591D02*
X687449Y726360D01*
X728980Y538590D02*
Y539805D01*
X699770Y569015D02*
Y570230D01*
Y569015D02*
X728980Y539805D01*
X687559Y675323D02*
X689224Y676988D01*
Y687382D02*
X691515Y689673D01*
Y703632D01*
X689224Y676988D02*
Y687382D01*
X733857Y668814D02*
X736210Y666461D01*
X724189Y654440D02*
X731231D01*
X703121Y655320D02*
X723309D01*
X733857Y668814D02*
Y683826D01*
X723309Y655320D02*
X724189Y654440D01*
X731231D02*
X736210Y659419D01*
Y666461D01*
X714415Y642580D02*
X726765Y630230D01*
X747963Y617481D02*
X773101D01*
X813001Y585860D02*
X845531D01*
X773719Y618100D02*
X780761D01*
X813001Y585860D01*
X724901Y625730D02*
X739714D01*
X773101Y617481D02*
X773719Y618100D01*
X713091Y637540D02*
X724901Y625730D01*
X739714D02*
X747963Y617481D01*
X697545Y638495D02*
X698500Y637540D01*
X629920Y647700D02*
X631016D01*
X698693Y637347D02*
X698887Y637540D01*
X713091D01*
X631016Y647700D02*
X638246Y654930D01*
X845820Y618490D02*
X846968Y617342D01*
Y609722D02*
Y617342D01*
Y609722D02*
X850510Y606180D01*
Y590839D02*
Y606180D01*
X845531Y585860D02*
X850510Y590839D01*
X726765Y630230D02*
X806140D01*
X842010Y594360D01*
X784130Y732790D02*
X788526Y737186D01*
X786130Y740410D02*
X788526Y738014D01*
X711930Y763810D02*
X772850D01*
X786130Y740410D02*
Y750530D01*
X772850Y763810D02*
X786130Y750530D01*
X659130Y816610D02*
X711930Y763810D01*
X691515Y703632D02*
X692528Y704645D01*
Y714632D01*
X563880Y808990D02*
X565150Y810260D01*
Y831850D02*
X566420Y833120D01*
X565150Y810260D02*
Y831850D01*
X733857Y683826D02*
X738174Y688142D01*
Y690497D01*
X718820Y851790D02*
X719455Y852425D01*
Y871855D01*
X720090Y872490D01*
X361950Y294640D02*
X389890D01*
X407670Y276860D01*
D98*
X315860Y186268D02*
Y197313D01*
X305091Y201560D02*
X311613D01*
X315860Y186268D02*
X325846Y176282D01*
X285618Y203332D02*
X303319D01*
X311613Y201560D02*
X315860Y197313D01*
X303319Y203332D02*
X305091Y201560D01*
X279018Y209932D02*
X285618Y203332D01*
X290611Y186400D02*
X310770Y166241D01*
X281692Y186400D02*
X290611D01*
X278467Y209932D02*
X279018D01*
X740976Y732790D02*
X784130D01*
X457200Y275590D02*
X458470Y274320D01*
X513080D02*
X514350Y273050D01*
X241566Y178780D02*
X254300D01*
X213766Y178206D02*
X240993D01*
X241566Y178780D01*
X257070Y181550D02*
X265908D01*
X270510Y154940D02*
X284480D01*
X254300Y178780D02*
X257070Y181550D01*
X263217Y167450D02*
X276132D01*
X262277Y166510D02*
X263217Y167450D01*
X284480Y154940D02*
X287020Y157480D01*
X276132Y167450D02*
X278289Y169606D01*
X272028Y188940D02*
X279152D01*
X265908Y181550D02*
X266990Y182632D01*
Y183902D01*
X272028Y188940D01*
X279152D02*
X281692Y186400D01*
X278289Y169606D02*
X291039D01*
X296525Y164120D01*
X287020Y157480D02*
X314168D01*
X325846Y169158D01*
Y176282D01*
X296525Y164120D02*
X309891D01*
X310770Y164999D02*
Y166241D01*
X309891Y164120D02*
X310770Y164999D01*
X212090Y176530D02*
X213766Y178206D01*
D101*
X206738Y873760D02*
X229598Y850900D01*
X309880D01*
D104*
X55150Y934720D02*
D03*
Y985520D02*
D03*
D105*
X21590Y728980D02*
D03*
D106*
Y703580D02*
D03*
Y678180D02*
D03*
D107*
X308610Y194310D02*
D03*
X195580Y237490D02*
D03*
X323110Y193040D02*
D03*
X192791Y226333D02*
D03*
X259599Y292619D02*
D03*
X250190Y279400D02*
D03*
X204470Y275590D02*
D03*
X208782Y235452D02*
D03*
X497369Y619882D02*
D03*
X276860Y248920D02*
D03*
X502374Y630236D02*
D03*
X275590Y322580D02*
D03*
X257810Y252730D02*
D03*
X247524Y257873D02*
D03*
X463550Y708660D02*
D03*
X493675Y638035D02*
D03*
X350520Y392430D02*
D03*
X466090Y862330D02*
D03*
X228600Y433070D02*
D03*
X737870Y553720D02*
D03*
X739140Y515620D02*
D03*
X642620Y520590D02*
D03*
X520700Y516890D02*
D03*
X285640Y233680D02*
D03*
X521970Y554990D02*
D03*
X461132Y660278D02*
D03*
X497840Y575310D02*
D03*
X527050Y615950D02*
D03*
X512815Y662763D02*
D03*
X668020Y281940D02*
D03*
X671830Y314960D02*
D03*
X651510Y337820D02*
D03*
X632460Y297180D02*
D03*
X542290Y580390D02*
D03*
X507110Y698500D02*
D03*
X543560Y624840D02*
D03*
X495300Y669290D02*
D03*
X497840Y728980D02*
D03*
X550630Y257152D02*
D03*
X588010Y553720D02*
D03*
X591820Y655320D02*
D03*
X632460Y721360D02*
D03*
X502708Y774488D02*
D03*
X643293Y717501D02*
D03*
X604520Y709860D02*
D03*
X496570Y750570D02*
D03*
X394970Y601980D02*
D03*
X336550Y671830D02*
D03*
X237490Y685800D02*
D03*
X246380Y756920D02*
D03*
X375920Y822960D02*
D03*
X401320Y843280D02*
D03*
X417830Y822960D02*
D03*
X436880Y816610D02*
D03*
X477520Y810260D02*
D03*
X118200Y787520D02*
D03*
X573977Y556863D02*
D03*
X461010Y763270D02*
D03*
X501678Y834362D02*
D03*
X579120Y591820D02*
D03*
X495300Y853440D02*
D03*
X394793Y886283D02*
D03*
X464820Y693420D02*
D03*
X157480Y748030D02*
D03*
X143510Y725170D02*
D03*
X467360Y612140D02*
D03*
X158750Y655620D02*
D03*
X167640Y627380D02*
D03*
X339090Y660400D02*
D03*
X151130Y764540D02*
D03*
X464820Y775970D02*
D03*
X354330Y660400D02*
D03*
X143510Y708660D02*
D03*
X139700Y688340D02*
D03*
X242570Y660400D02*
D03*
X107888Y714485D02*
D03*
X118110Y726890D02*
D03*
X275590Y615950D02*
D03*
X137160Y770890D02*
D03*
X185420Y731520D02*
D03*
X306070Y560070D02*
D03*
X326390Y608330D02*
D03*
X505460Y711200D02*
D03*
X548640Y732790D02*
D03*
X259080Y831850D02*
D03*
X213360Y822960D02*
D03*
X77470Y808990D02*
D03*
X113030Y621030D02*
D03*
X129380Y653304D02*
D03*
X113030Y651510D02*
D03*
X102870Y633730D02*
D03*
X207010Y731520D02*
D03*
X655320Y975360D02*
D03*
X660400Y941070D02*
D03*
X679450Y891540D02*
D03*
X725170Y822960D02*
D03*
X737191Y834981D02*
D03*
X730624Y797186D02*
D03*
X599440Y947420D02*
D03*
X414020Y113030D02*
D03*
X765810Y775970D02*
D03*
X660748Y714147D02*
D03*
X670720Y682460D02*
D03*
X685427Y646058D02*
D03*
X728980Y538590D02*
D03*
X699770Y570230D02*
D03*
X727710Y662940D02*
D03*
X699607Y670854D02*
D03*
X777240Y609600D02*
D03*
X701040Y613410D02*
D03*
X698693Y637347D02*
D03*
X845820Y618490D02*
D03*
X629920Y647700D02*
D03*
X842010Y594360D02*
D03*
D108*
X203382Y217283D02*
D03*
X278467Y209932D02*
D03*
X355854Y475996D02*
D03*
X227838Y401320D02*
D03*
X471170Y646430D02*
D03*
X545740Y198120D02*
D03*
X569509Y266502D02*
D03*
X584480Y566076D02*
D03*
X110490Y777240D02*
D03*
X736600Y851790D02*
D03*
X754380Y797560D02*
D03*
X675789Y637559D02*
D03*
X775970Y746760D02*
D03*
X576926Y674300D02*
D03*
X695293Y624903D02*
D03*
X760730Y751840D02*
D03*
X576477Y656304D02*
D03*
X732790Y640080D02*
D03*
X757503Y708384D02*
D03*
X770890Y685800D02*
D03*
X724007Y685722D02*
D03*
X705891Y691001D02*
D03*
X739584Y607631D02*
D03*
X688700Y599800D02*
D03*
X836930Y431800D02*
D03*
X806450Y419100D02*
D03*
X515620Y233680D02*
D03*
X494030Y243840D02*
D03*
X57150Y760730D02*
D03*
X53340D02*
D03*
X57150Y699770D02*
D03*
X275590Y180340D02*
D03*
X258530Y190150D02*
D03*
X245039Y170090D02*
D03*
X203200Y190500D02*
D03*
X17272Y230886D02*
D03*
X147320Y38100D02*
D03*
X87630Y27940D02*
D03*
X843280Y529590D02*
D03*
X763270Y721360D02*
D03*
X786130Y713740D02*
D03*
X687559Y675323D02*
D03*
X721360Y773660D02*
D03*
X566420Y833120D02*
D03*
X563880Y808990D02*
D03*
X738174Y690497D02*
D03*
X718820Y851790D02*
D03*
X720090Y872490D02*
D03*
X737870D02*
D03*
X659130Y676910D02*
D03*
X726984Y960664D02*
D03*
X816610Y778510D02*
D03*
X798830Y782320D02*
D03*
X627380Y807720D02*
D03*
X361950Y294640D02*
D03*
X407670Y276860D02*
D03*
X558750Y223520D02*
D03*
X554990Y269240D02*
D03*
X483870Y292100D02*
D03*
X521970Y285750D02*
D03*
X572770Y177800D02*
D03*
X635000Y172720D02*
D03*
X457200Y275590D02*
D03*
X514350Y273050D02*
D03*
X241300Y27940D02*
D03*
X63104Y200294D02*
D03*
X270510Y154940D02*
D03*
X262277Y166510D02*
D03*
X212090Y176530D02*
D03*
X342900Y74930D02*
D03*
X275080Y92365D02*
D03*
X302260Y46990D02*
D03*
X279400Y60960D02*
D03*
X69850Y750570D02*
D03*
X317246Y172720D02*
D03*
X268224Y559562D02*
D03*
X328930Y632714D02*
D03*
X334264Y358648D02*
D03*
X366268Y455676D02*
D03*
X21590Y640080D02*
D03*
X477774Y731012D02*
D03*
X411988D02*
D03*
X239776Y865378D02*
D03*
X137160Y889000D02*
D03*
X78740Y845820D02*
D03*
X206738Y873760D02*
D03*
X309880Y850900D02*
D03*
D109*
X270510Y222250D02*
D03*
X715082Y707099D02*
D03*
X702310Y710430D02*
D03*
D110*
X659130Y816610D02*
D03*
D111*
X692528Y714632D02*
D03*
D112*
X680720Y711041D02*
D03*
M02*
