G04*
G04 #@! TF.GenerationSoftware,Altium Limited,Altium Designer,25.8.1 (18)*
G04*
G04 Layer_Color=8388736*
%FSLAX44Y44*%
%MOMM*%
G71*
G04*
G04 #@! TF.SameCoordinates,5D46F635-8B12-49F8-90BD-38314D954B60*
G04*
G04*
G04 #@! TF.FilePolarity,Negative*
G04*
G01*
G75*
%ADD16R,5.0000X1.2000*%
%ADD17R,5.0000X1.6000*%
%ADD20R,1.3098X0.9061*%
G04:AMPARAMS|DCode=21|XSize=1.5mm|YSize=0.45mm|CornerRadius=0.0495mm|HoleSize=0mm|Usage=FLASHONLY|Rotation=0.000|XOffset=0mm|YOffset=0mm|HoleType=Round|Shape=RoundedRectangle|*
%AMROUNDEDRECTD21*
21,1,1.5000,0.3510,0,0,0.0*
21,1,1.4010,0.4500,0,0,0.0*
1,1,0.0990,0.7005,-0.1755*
1,1,0.0990,-0.7005,-0.1755*
1,1,0.0990,-0.7005,0.1755*
1,1,0.0990,0.7005,0.1755*
%
%ADD21ROUNDEDRECTD21*%
%ADD22R,1.2000X0.3000*%
%ADD23R,0.3000X1.2000*%
G04:AMPARAMS|DCode=24|XSize=0.8611mm|YSize=0.2393mm|CornerRadius=0.1196mm|HoleSize=0mm|Usage=FLASHONLY|Rotation=0.000|XOffset=0mm|YOffset=0mm|HoleType=Round|Shape=RoundedRectangle|*
%AMROUNDEDRECTD24*
21,1,0.8611,0.0000,0,0,0.0*
21,1,0.6218,0.2393,0,0,0.0*
1,1,0.2393,0.3109,0.0000*
1,1,0.2393,-0.3109,0.0000*
1,1,0.2393,-0.3109,0.0000*
1,1,0.2393,0.3109,0.0000*
%
%ADD24ROUNDEDRECTD24*%
%ADD26R,1.0000X1.8000*%
%ADD27R,1.4000X1.2000*%
%ADD29R,0.9500X1.3500*%
%ADD30R,0.9061X1.3098*%
%ADD31R,1.5562X1.4546*%
%ADD32R,0.9500X1.4000*%
%ADD34R,1.3061X1.5098*%
%ADD35R,0.9500X1.7000*%
%ADD36R,1.2000X1.2000*%
%ADD37R,1.3000X0.7000*%
%ADD39R,1.7000X0.9500*%
%ADD40R,1.5098X1.3061*%
%ADD41R,1.3500X0.9500*%
%ADD42R,1.0000X0.7000*%
%ADD43R,1.3000X1.6500*%
%ADD44R,1.5500X1.4250*%
%ADD45R,1.3800X0.4500*%
%ADD46R,1.9000X1.8000*%
%ADD47R,1.9000X1.0000*%
%ADD50R,1.4000X0.9500*%
%ADD52R,1.1000X1.0000*%
G04:AMPARAMS|DCode=53|XSize=0.2393mm|YSize=0.8611mm|CornerRadius=0.1196mm|HoleSize=0mm|Usage=FLASHONLY|Rotation=0.000|XOffset=0mm|YOffset=0mm|HoleType=Round|Shape=RoundedRectangle|*
%AMROUNDEDRECTD53*
21,1,0.2393,0.6218,0,0,0.0*
21,1,0.0000,0.8611,0,0,0.0*
1,1,0.2393,0.0000,-0.3109*
1,1,0.2393,0.0000,-0.3109*
1,1,0.2393,0.0000,0.3109*
1,1,0.2393,0.0000,0.3109*
%
%ADD53ROUNDEDRECTD53*%
%ADD54R,0.8611X0.2393*%
%ADD55R,2.1590X1.5240*%
%ADD56R,1.7200X3.2000*%
%ADD58R,1.0000X1.4000*%
%ADD61R,1.5562X1.2552*%
%ADD62R,0.6600X0.4100*%
%ADD63R,1.6000X5.7000*%
%ADD64C,0.1650*%
%ADD65R,2.2032X1.4032*%
%ADD66R,1.4032X2.2032*%
%ADD67R,1.5532X1.6532*%
%ADD68R,1.7032X1.7532*%
%ADD69R,2.6000X2.6000*%
%ADD70R,1.4532X1.6532*%
%ADD71R,1.6532X1.5032*%
%ADD72O,1.7532X0.4532*%
%ADD73O,0.4532X1.7532*%
%ADD74R,0.9232X0.9232*%
%ADD75R,1.5532X1.0532*%
%ADD76R,1.7532X1.4532*%
%ADD77R,1.7032X2.9032*%
%ADD78C,1.5700*%
%ADD79C,2.4500*%
%ADD80C,2.2032*%
G04:AMPARAMS|DCode=81|XSize=1.8032mm|YSize=1.8032mm|CornerRadius=0.5016mm|HoleSize=0mm|Usage=FLASHONLY|Rotation=270.000|XOffset=0mm|YOffset=0mm|HoleType=Round|Shape=RoundedRectangle|*
%AMROUNDEDRECTD81*
21,1,1.8032,0.8000,0,0,270.0*
21,1,0.8000,1.8032,0,0,270.0*
1,1,1.0032,-0.4000,-0.4000*
1,1,1.0032,-0.4000,0.4000*
1,1,1.0032,0.4000,0.4000*
1,1,1.0032,0.4000,-0.4000*
%
%ADD81ROUNDEDRECTD81*%
%ADD82C,1.4000*%
%ADD83R,1.4000X1.4000*%
%ADD84C,3.2500*%
%ADD85C,1.8032*%
%ADD86C,1.2032*%
%ADD87C,1.4732*%
%ADD88C,0.5032*%
%ADD89C,0.7032*%
%ADD90C,0.8032*%
%ADD91C,0.4032*%
D16*
X29420Y187960D02*
D03*
D17*
Y160260D02*
D03*
Y215660D02*
D03*
D20*
X367030Y442101D02*
D03*
X238760Y895491D02*
D03*
X257810Y645301D02*
D03*
X369570Y352779D02*
D03*
X307340Y962801D02*
D03*
Y947279D02*
D03*
X238760Y879969D02*
D03*
X194310Y816469D02*
D03*
Y831991D02*
D03*
X191770Y645160D02*
D03*
Y629639D02*
D03*
X226060Y645301D02*
D03*
Y629779D02*
D03*
X257810D02*
D03*
X288290Y645301D02*
D03*
Y629779D02*
D03*
X33020Y535940D02*
D03*
Y520419D02*
D03*
X17780Y437869D02*
D03*
Y453390D02*
D03*
X356870Y505601D02*
D03*
Y490079D02*
D03*
X367030Y426579D02*
D03*
X369570Y368300D02*
D03*
X600710Y979311D02*
D03*
Y963789D02*
D03*
D21*
X479850Y861770D02*
D03*
X483450Y604070D02*
D03*
X480910Y688190D02*
D03*
X479850Y855270D02*
D03*
Y767640D02*
D03*
X421850Y848770D02*
D03*
Y835770D02*
D03*
Y842270D02*
D03*
Y761140D02*
D03*
X422910Y681690D02*
D03*
Y668690D02*
D03*
Y675190D02*
D03*
X425450Y584570D02*
D03*
Y597570D02*
D03*
Y591070D02*
D03*
X421850Y754640D02*
D03*
Y748140D02*
D03*
Y881270D02*
D03*
X479850D02*
D03*
Y874770D02*
D03*
Y868270D02*
D03*
Y848770D02*
D03*
Y842270D02*
D03*
Y835770D02*
D03*
X421850Y855270D02*
D03*
Y861770D02*
D03*
Y868270D02*
D03*
Y874770D02*
D03*
X480910Y714190D02*
D03*
Y707690D02*
D03*
Y701190D02*
D03*
Y694690D02*
D03*
Y681690D02*
D03*
Y675190D02*
D03*
Y668690D02*
D03*
X422910Y688190D02*
D03*
Y694690D02*
D03*
Y701190D02*
D03*
Y707690D02*
D03*
Y714190D02*
D03*
X483450Y630070D02*
D03*
Y623570D02*
D03*
Y617070D02*
D03*
Y610570D02*
D03*
Y597570D02*
D03*
Y591070D02*
D03*
Y584570D02*
D03*
X425450Y604070D02*
D03*
Y610570D02*
D03*
Y617070D02*
D03*
Y623570D02*
D03*
Y630070D02*
D03*
X479850Y793640D02*
D03*
Y787140D02*
D03*
Y780640D02*
D03*
Y774140D02*
D03*
Y761140D02*
D03*
Y754640D02*
D03*
Y748140D02*
D03*
X421850Y767640D02*
D03*
Y774140D02*
D03*
Y780640D02*
D03*
Y787140D02*
D03*
Y793640D02*
D03*
D22*
X713800Y557460D02*
D03*
Y562460D02*
D03*
Y567460D02*
D03*
Y572460D02*
D03*
Y577460D02*
D03*
Y582460D02*
D03*
Y587460D02*
D03*
Y592460D02*
D03*
Y597460D02*
D03*
Y602460D02*
D03*
Y607460D02*
D03*
Y612460D02*
D03*
Y617460D02*
D03*
Y622460D02*
D03*
Y627460D02*
D03*
Y632460D02*
D03*
Y637460D02*
D03*
Y642460D02*
D03*
Y647460D02*
D03*
Y652460D02*
D03*
Y657460D02*
D03*
Y662460D02*
D03*
Y667460D02*
D03*
Y672460D02*
D03*
Y677460D02*
D03*
X558800D02*
D03*
Y672460D02*
D03*
Y667460D02*
D03*
Y662460D02*
D03*
Y657460D02*
D03*
Y652460D02*
D03*
Y647460D02*
D03*
Y642460D02*
D03*
Y637460D02*
D03*
Y632460D02*
D03*
Y627460D02*
D03*
Y622460D02*
D03*
Y617460D02*
D03*
Y612460D02*
D03*
Y607460D02*
D03*
Y602460D02*
D03*
Y597460D02*
D03*
Y592460D02*
D03*
Y587460D02*
D03*
Y582460D02*
D03*
Y577460D02*
D03*
Y572460D02*
D03*
Y567460D02*
D03*
Y562460D02*
D03*
Y557460D02*
D03*
X653130Y286500D02*
D03*
X538130Y236500D02*
D03*
X653130Y291500D02*
D03*
Y281500D02*
D03*
Y276500D02*
D03*
Y271500D02*
D03*
Y266500D02*
D03*
Y261500D02*
D03*
Y256500D02*
D03*
Y251500D02*
D03*
Y246500D02*
D03*
Y241500D02*
D03*
Y236500D02*
D03*
Y231500D02*
D03*
Y226500D02*
D03*
Y221500D02*
D03*
Y216500D02*
D03*
X538130D02*
D03*
Y221500D02*
D03*
Y226500D02*
D03*
Y231500D02*
D03*
Y241500D02*
D03*
Y246500D02*
D03*
Y251500D02*
D03*
Y256500D02*
D03*
Y261500D02*
D03*
Y266500D02*
D03*
Y271500D02*
D03*
Y276500D02*
D03*
Y281500D02*
D03*
Y286500D02*
D03*
Y291500D02*
D03*
D23*
X696300Y694960D02*
D03*
X691300D02*
D03*
X686300D02*
D03*
X681300D02*
D03*
X676300D02*
D03*
X671300D02*
D03*
X666300D02*
D03*
X661300D02*
D03*
X656300D02*
D03*
X651300D02*
D03*
X646300D02*
D03*
X641300D02*
D03*
X636300D02*
D03*
X631300D02*
D03*
X626300D02*
D03*
X621300D02*
D03*
X616300D02*
D03*
X611300D02*
D03*
X606300D02*
D03*
X601300D02*
D03*
X596300D02*
D03*
X591300D02*
D03*
X586300D02*
D03*
X581300D02*
D03*
X576300D02*
D03*
Y539960D02*
D03*
X581300D02*
D03*
X586300D02*
D03*
X591300D02*
D03*
X596300D02*
D03*
X601300D02*
D03*
X606300D02*
D03*
X611300D02*
D03*
X616300D02*
D03*
X621300D02*
D03*
X626300D02*
D03*
X631300D02*
D03*
X636300D02*
D03*
X641300D02*
D03*
X646300D02*
D03*
X651300D02*
D03*
X656300D02*
D03*
X661300D02*
D03*
X666300D02*
D03*
X671300D02*
D03*
X676300D02*
D03*
X681300D02*
D03*
X686300D02*
D03*
X691300D02*
D03*
X696300D02*
D03*
X628130Y196500D02*
D03*
X563130Y311500D02*
D03*
Y196500D02*
D03*
X558130Y311500D02*
D03*
X568130D02*
D03*
X573130D02*
D03*
X578130D02*
D03*
X583130D02*
D03*
X588130D02*
D03*
X593130D02*
D03*
X598130D02*
D03*
X603130D02*
D03*
X608130D02*
D03*
X613130D02*
D03*
X618130D02*
D03*
X623130D02*
D03*
X628130D02*
D03*
X633130D02*
D03*
Y196500D02*
D03*
X623130D02*
D03*
X618130D02*
D03*
X613130D02*
D03*
X608130D02*
D03*
X603130D02*
D03*
X598130D02*
D03*
X593130D02*
D03*
X588130D02*
D03*
X583130D02*
D03*
X578130D02*
D03*
X573130D02*
D03*
X568130D02*
D03*
X558130D02*
D03*
D24*
X745695Y741560D02*
D03*
Y746560D02*
D03*
Y721560D02*
D03*
Y736560D02*
D03*
Y726560D02*
D03*
Y731560D02*
D03*
X707185Y721560D02*
D03*
Y726560D02*
D03*
Y731560D02*
D03*
Y736560D02*
D03*
Y741560D02*
D03*
D26*
X566420Y419100D02*
D03*
X541420D02*
D03*
X234750Y45720D02*
D03*
X209750D02*
D03*
X563880Y132080D02*
D03*
X538880D02*
D03*
D27*
X747620Y577850D02*
D03*
X769620Y593850D02*
D03*
Y577850D02*
D03*
X747620Y593850D02*
D03*
X675230Y981200D02*
D03*
X697230D02*
D03*
Y965200D02*
D03*
X675230D02*
D03*
X478380Y327660D02*
D03*
X500380D02*
D03*
Y311660D02*
D03*
X478380D02*
D03*
D29*
X750810Y668020D02*
D03*
X738110Y617220D02*
D03*
X584440Y828040D02*
D03*
X612260Y786130D02*
D03*
X484110Y218440D02*
D03*
X477760Y264160D02*
D03*
X492760D02*
D03*
X499110Y218440D02*
D03*
X753110Y617220D02*
D03*
X627260Y786130D02*
D03*
X599440Y828040D02*
D03*
X765810Y668020D02*
D03*
D30*
X647419Y833120D02*
D03*
X531849Y831850D02*
D03*
X609459Y478790D02*
D03*
X575029Y342900D02*
D03*
X437590Y138510D02*
D03*
X289000Y30560D02*
D03*
X624981Y478790D02*
D03*
X422068Y138510D02*
D03*
X662940Y833120D02*
D03*
X547370Y831850D02*
D03*
X273478Y30560D02*
D03*
X590550Y342900D02*
D03*
D31*
X574040Y919480D02*
D03*
X488950Y919112D02*
D03*
X537210D02*
D03*
X448310Y918744D02*
D03*
X574040Y937996D02*
D03*
X537210Y937628D02*
D03*
X448310Y937260D02*
D03*
X488950Y937628D02*
D03*
D32*
X891540Y584200D02*
D03*
X881380Y523240D02*
D03*
X862880D02*
D03*
X873040Y584200D02*
D03*
D34*
X450850Y556260D02*
D03*
X470371D02*
D03*
D35*
X444500Y210820D02*
D03*
X416500D02*
D03*
D36*
X274320Y942340D02*
D03*
X232410Y786130D02*
D03*
X186690Y782320D02*
D03*
X274320Y963340D02*
D03*
X232410Y765130D02*
D03*
X186690Y761320D02*
D03*
D37*
X278130Y824890D02*
D03*
X238760Y823620D02*
D03*
X278130Y843890D02*
D03*
X238760Y842620D02*
D03*
D39*
Y937230D02*
D03*
Y965230D02*
D03*
D40*
X402590Y560070D02*
D03*
Y540549D02*
D03*
D41*
X342900Y574160D02*
D03*
X374650D02*
D03*
Y589160D02*
D03*
X342900D02*
D03*
D42*
X172720Y861720D02*
D03*
Y880720D02*
D03*
Y871220D02*
D03*
X150730Y861720D02*
D03*
Y871220D02*
D03*
Y880720D02*
D03*
D43*
X27590Y858505D02*
D03*
Y791005D02*
D03*
D44*
X53340Y849630D02*
D03*
Y799880D02*
D03*
D45*
X54190Y811755D02*
D03*
Y818255D02*
D03*
Y824755D02*
D03*
Y831255D02*
D03*
Y837755D02*
D03*
D46*
X27590Y836255D02*
D03*
D47*
Y809255D02*
D03*
D50*
X154940Y590910D02*
D03*
Y572410D02*
D03*
D52*
X250190Y142240D02*
D03*
X231190Y157240D02*
D03*
X250190D02*
D03*
X231190Y142240D02*
D03*
D53*
X738940Y714805D02*
D03*
X733940D02*
D03*
X713940Y753315D02*
D03*
X718940D02*
D03*
X723940D02*
D03*
X728940D02*
D03*
X733940D02*
D03*
X738940D02*
D03*
X728940Y714805D02*
D03*
X723940D02*
D03*
X718940D02*
D03*
X713940D02*
D03*
D54*
X707185Y746560D02*
D03*
D55*
X280035Y712470D02*
D03*
Y737870D02*
D03*
X362585D02*
D03*
Y712470D02*
D03*
D56*
X135590Y952500D02*
D03*
X199690D02*
D03*
D58*
X306080Y887730D02*
D03*
X339080D02*
D03*
D61*
X638810Y956310D02*
D03*
Y976820D02*
D03*
D62*
X360680Y71060D02*
D03*
Y60960D02*
D03*
D63*
X381090Y176530D02*
D03*
X334090D02*
D03*
D64*
X263235Y220980D02*
G03*
X263235Y220980I-825J0D01*
G01*
X258235D02*
G03*
X258235Y220980I-825J0D01*
G01*
X253235D02*
G03*
X253235Y220980I-825J0D01*
G01*
X248235D02*
G03*
X248235Y220980I-825J0D01*
G01*
X243235D02*
G03*
X243235Y220980I-825J0D01*
G01*
X238235D02*
G03*
X238235Y220980I-825J0D01*
G01*
X233235D02*
G03*
X233235Y220980I-825J0D01*
G01*
X228235D02*
G03*
X228235Y220980I-825J0D01*
G01*
X223235D02*
G03*
X223235Y220980I-825J0D01*
G01*
X263235Y200980D02*
G03*
X263235Y200980I-825J0D01*
G01*
X258235D02*
G03*
X258235Y200980I-825J0D01*
G01*
X248235D02*
G03*
X248235Y200980I-825J0D01*
G01*
X243235D02*
G03*
X243235Y200980I-825J0D01*
G01*
X233235D02*
G03*
X233235Y200980I-825J0D01*
G01*
X228235D02*
G03*
X228235Y200980I-825J0D01*
G01*
X223235D02*
G03*
X223235Y200980I-825J0D01*
G01*
X263235Y205980D02*
G03*
X263235Y205980I-825J0D01*
G01*
X258235D02*
G03*
X258235Y205980I-825J0D01*
G01*
X253235D02*
G03*
X253235Y205980I-825J0D01*
G01*
X248235D02*
G03*
X248235Y205980I-825J0D01*
G01*
X243235D02*
G03*
X243235Y205980I-825J0D01*
G01*
X238235D02*
G03*
X238235Y205980I-825J0D01*
G01*
X233235D02*
G03*
X233235Y205980I-825J0D01*
G01*
X228235D02*
G03*
X228235Y205980I-825J0D01*
G01*
X223235D02*
G03*
X223235Y205980I-825J0D01*
G01*
X263235Y210980D02*
G03*
X263235Y210980I-825J0D01*
G01*
X258235D02*
G03*
X258235Y210980I-825J0D01*
G01*
X253235D02*
G03*
X253235Y210980I-825J0D01*
G01*
X248235D02*
G03*
X248235Y210980I-825J0D01*
G01*
X243235D02*
G03*
X243235Y210980I-825J0D01*
G01*
X238235D02*
G03*
X238235Y210980I-825J0D01*
G01*
X233235D02*
G03*
X233235Y210980I-825J0D01*
G01*
X228235D02*
G03*
X228235Y210980I-825J0D01*
G01*
X258235Y215980D02*
G03*
X258235Y215980I-825J0D01*
G01*
X253235D02*
G03*
X253235Y215980I-825J0D01*
G01*
X248235D02*
G03*
X248235Y215980I-825J0D01*
G01*
X243235D02*
G03*
X243235Y215980I-825J0D01*
G01*
X238235D02*
G03*
X238235Y215980I-825J0D01*
G01*
X233235D02*
G03*
X233235Y215980I-825J0D01*
G01*
X228235D02*
G03*
X228235Y215980I-825J0D01*
G01*
X223235D02*
G03*
X223235Y215980I-825J0D01*
G01*
X263235Y225980D02*
G03*
X263235Y225980I-825J0D01*
G01*
X258235D02*
G03*
X258235Y225980I-825J0D01*
G01*
X253235D02*
G03*
X253235Y225980I-825J0D01*
G01*
X248235D02*
G03*
X248235Y225980I-825J0D01*
G01*
X243235D02*
G03*
X243235Y225980I-825J0D01*
G01*
X238235D02*
G03*
X238235Y225980I-825J0D01*
G01*
X233235D02*
G03*
X233235Y225980I-825J0D01*
G01*
X228235D02*
G03*
X228235Y225980I-825J0D01*
G01*
X258235Y230980D02*
G03*
X258235Y230980I-825J0D01*
G01*
X253235D02*
G03*
X253235Y230980I-825J0D01*
G01*
X248235D02*
G03*
X248235Y230980I-825J0D01*
G01*
X243235D02*
G03*
X243235Y230980I-825J0D01*
G01*
X238235D02*
G03*
X238235Y230980I-825J0D01*
G01*
X233235D02*
G03*
X233235Y230980I-825J0D01*
G01*
X228235D02*
G03*
X228235Y230980I-825J0D01*
G01*
X223235D02*
G03*
X223235Y230980I-825J0D01*
G01*
X263235Y235980D02*
G03*
X263235Y235980I-825J0D01*
G01*
X258235D02*
G03*
X258235Y235980I-825J0D01*
G01*
X253235D02*
G03*
X253235Y235980I-825J0D01*
G01*
X248235D02*
G03*
X248235Y235980I-825J0D01*
G01*
X243235D02*
G03*
X243235Y235980I-825J0D01*
G01*
X238235D02*
G03*
X238235Y235980I-825J0D01*
G01*
X233235D02*
G03*
X233235Y235980I-825J0D01*
G01*
X228235D02*
G03*
X228235Y235980I-825J0D01*
G01*
X223235D02*
G03*
X223235Y235980I-825J0D01*
G01*
X263235Y240980D02*
G03*
X263235Y240980I-825J0D01*
G01*
X258235D02*
G03*
X258235Y240980I-825J0D01*
G01*
X253235D02*
G03*
X253235Y240980I-825J0D01*
G01*
X243235D02*
G03*
X243235Y240980I-825J0D01*
G01*
X238235D02*
G03*
X238235Y240980I-825J0D01*
G01*
X228235D02*
G03*
X228235Y240980I-825J0D01*
G01*
X223235D02*
G03*
X223235Y240980I-825J0D01*
G01*
D65*
X248910Y312630D02*
D03*
Y332630D02*
D03*
Y352630D02*
D03*
Y372630D02*
D03*
Y392630D02*
D03*
Y412630D02*
D03*
Y432630D02*
D03*
Y452630D02*
D03*
X88910D02*
D03*
Y412630D02*
D03*
Y432630D02*
D03*
Y392630D02*
D03*
Y372630D02*
D03*
Y352630D02*
D03*
Y332630D02*
D03*
Y312630D02*
D03*
D66*
X218910Y297830D02*
D03*
X198910D02*
D03*
X178910D02*
D03*
X158910D02*
D03*
X138910D02*
D03*
X118910D02*
D03*
D67*
X548650Y486410D02*
D03*
X545470Y454660D02*
D03*
X565150Y486410D02*
D03*
X561970Y454660D02*
D03*
X557530Y57150D02*
D03*
X542300Y91440D02*
D03*
X287730Y273130D02*
D03*
X245200Y74930D02*
D03*
X558800Y91440D02*
D03*
X541030Y57150D02*
D03*
X261700Y74930D02*
D03*
X271230Y273130D02*
D03*
D68*
X811310Y734060D02*
D03*
X811530Y676910D02*
D03*
X810040Y617220D02*
D03*
X808990Y562610D02*
D03*
Y510540D02*
D03*
X693200Y248920D02*
D03*
X692040Y292100D02*
D03*
X695740Y203200D02*
D03*
X394410Y308690D02*
D03*
X116060Y237570D02*
D03*
X117890Y204470D02*
D03*
X116620Y171450D02*
D03*
X116280Y94060D02*
D03*
X114790Y129620D02*
D03*
X31530Y71120D02*
D03*
X111540Y58420D02*
D03*
X110980Y25480D02*
D03*
X34070Y24130D02*
D03*
X376410Y308690D02*
D03*
X826990Y562610D02*
D03*
Y510540D02*
D03*
X128980Y25480D02*
D03*
X129540Y58420D02*
D03*
X132790Y129620D02*
D03*
X134280Y94060D02*
D03*
X134620Y171450D02*
D03*
X135890Y204470D02*
D03*
X52070Y24130D02*
D03*
X49530Y71120D02*
D03*
X134060Y237570D02*
D03*
X710040Y292100D02*
D03*
X711200Y248920D02*
D03*
X713740Y203200D02*
D03*
X829310Y734060D02*
D03*
X829530Y676910D02*
D03*
X828040Y617220D02*
D03*
D69*
X726440Y734060D02*
D03*
D70*
X803920Y453390D02*
D03*
X626120Y142240D02*
D03*
X372110Y255270D02*
D03*
X355610D02*
D03*
X642620Y142240D02*
D03*
X820420Y453390D02*
D03*
D71*
X284480Y589660D02*
D03*
X254000D02*
D03*
X313690Y573660D02*
D03*
X223520Y589280D02*
D03*
X187960Y588390D02*
D03*
X313690Y589660D02*
D03*
X284480Y573660D02*
D03*
X254000D02*
D03*
X223520Y573280D02*
D03*
X187960Y572390D02*
D03*
D72*
X159630Y729890D02*
D03*
X79130Y699890D02*
D03*
X159630Y734890D02*
D03*
Y724890D02*
D03*
Y719890D02*
D03*
Y714890D02*
D03*
Y709890D02*
D03*
Y704890D02*
D03*
Y699890D02*
D03*
Y694890D02*
D03*
Y689890D02*
D03*
Y684890D02*
D03*
Y679890D02*
D03*
X79130D02*
D03*
Y684890D02*
D03*
Y689890D02*
D03*
Y694890D02*
D03*
Y704890D02*
D03*
Y709890D02*
D03*
Y714890D02*
D03*
Y719890D02*
D03*
Y724890D02*
D03*
Y729890D02*
D03*
Y734890D02*
D03*
D73*
X141880Y667140D02*
D03*
X96880Y747640D02*
D03*
X91880D02*
D03*
X101880D02*
D03*
X106880D02*
D03*
X111880D02*
D03*
X116880D02*
D03*
X121880D02*
D03*
X126880D02*
D03*
X131880D02*
D03*
X136880D02*
D03*
X141880D02*
D03*
X146880D02*
D03*
Y667140D02*
D03*
X136880D02*
D03*
X131880D02*
D03*
X126880D02*
D03*
X121880D02*
D03*
X116880D02*
D03*
X111880D02*
D03*
X106880D02*
D03*
X101880D02*
D03*
X96880D02*
D03*
X91880D02*
D03*
D74*
X334720Y88980D02*
D03*
Y51040D02*
D03*
Y98980D02*
D03*
Y61040D02*
D03*
D75*
X278130Y893440D02*
D03*
Y876940D02*
D03*
D76*
X156210Y828130D02*
D03*
Y807630D02*
D03*
X118110Y828130D02*
D03*
Y807630D02*
D03*
D77*
X365100Y636270D02*
D03*
X346100D02*
D03*
D78*
X902970Y918230D02*
D03*
Y938530D02*
D03*
X767270Y918230D02*
D03*
Y938530D02*
D03*
D79*
X912620Y862330D02*
D03*
X757620D02*
D03*
D80*
X55150Y934720D02*
D03*
Y985520D02*
D03*
D81*
X21590Y728980D02*
D03*
D82*
X892270Y803930D02*
D03*
X879570Y829330D02*
D03*
X866870Y803930D02*
D03*
X854170Y829330D02*
D03*
X841470Y803930D02*
D03*
X828770Y829330D02*
D03*
X816070Y803930D02*
D03*
X803370Y829330D02*
D03*
X790670Y803930D02*
D03*
D83*
X777970Y829330D02*
D03*
D84*
Y892830D02*
D03*
X892270D02*
D03*
D85*
X21590Y703580D02*
D03*
Y678180D02*
D03*
D86*
X308610Y194310D02*
D03*
X195580Y237490D02*
D03*
X323110Y193040D02*
D03*
X192791Y226333D02*
D03*
X259599Y292619D02*
D03*
X250190Y279400D02*
D03*
X204470Y275590D02*
D03*
X208782Y235452D02*
D03*
X497369Y619882D02*
D03*
X276860Y248920D02*
D03*
X502374Y630236D02*
D03*
X275590Y322580D02*
D03*
X257810Y252730D02*
D03*
X247524Y257873D02*
D03*
X463550Y708660D02*
D03*
X493675Y638035D02*
D03*
X350520Y392430D02*
D03*
X466090Y862330D02*
D03*
X228600Y433070D02*
D03*
X737870Y553720D02*
D03*
X739140Y515620D02*
D03*
X642620Y520590D02*
D03*
X520700Y516890D02*
D03*
X285640Y233680D02*
D03*
X521970Y554990D02*
D03*
X461132Y660278D02*
D03*
X497840Y575310D02*
D03*
X527050Y615950D02*
D03*
X512815Y662763D02*
D03*
X668020Y281940D02*
D03*
X671830Y314960D02*
D03*
X651510Y337820D02*
D03*
X632460Y297180D02*
D03*
X542290Y580390D02*
D03*
X507110Y698500D02*
D03*
X543560Y624840D02*
D03*
X495300Y669290D02*
D03*
X497840Y728980D02*
D03*
X550630Y257152D02*
D03*
X588010Y553720D02*
D03*
X591820Y655320D02*
D03*
X632460Y721360D02*
D03*
X502708Y774488D02*
D03*
X643293Y717501D02*
D03*
X604520Y709860D02*
D03*
X496570Y750570D02*
D03*
X394970Y601980D02*
D03*
X336550Y671830D02*
D03*
X237490Y685800D02*
D03*
X246380Y756920D02*
D03*
X375920Y822960D02*
D03*
X401320Y843280D02*
D03*
X417830Y822960D02*
D03*
X436880Y816610D02*
D03*
X477520Y810260D02*
D03*
X118200Y787520D02*
D03*
X573977Y556863D02*
D03*
X461010Y763270D02*
D03*
X501678Y834362D02*
D03*
X579120Y591820D02*
D03*
X495300Y853440D02*
D03*
X394793Y886283D02*
D03*
X464820Y693420D02*
D03*
X157480Y748030D02*
D03*
X143510Y725170D02*
D03*
X467360Y612140D02*
D03*
X158750Y655620D02*
D03*
X167640Y627380D02*
D03*
X339090Y660400D02*
D03*
X151130Y764540D02*
D03*
X464820Y775970D02*
D03*
X354330Y660400D02*
D03*
X143510Y708660D02*
D03*
X139700Y688340D02*
D03*
X242570Y660400D02*
D03*
X107888Y714485D02*
D03*
X118110Y726890D02*
D03*
X275590Y615950D02*
D03*
X137160Y770890D02*
D03*
X185420Y731520D02*
D03*
X306070Y560070D02*
D03*
X326390Y608330D02*
D03*
X505460Y711200D02*
D03*
X548640Y732790D02*
D03*
X259080Y831850D02*
D03*
X213360Y822960D02*
D03*
X77470Y808990D02*
D03*
X113030Y621030D02*
D03*
X129380Y653304D02*
D03*
X113030Y651510D02*
D03*
X102870Y633730D02*
D03*
X207010Y731520D02*
D03*
X655320Y975360D02*
D03*
X660400Y941070D02*
D03*
X679450Y891540D02*
D03*
X725170Y822960D02*
D03*
X737191Y834981D02*
D03*
X730624Y797186D02*
D03*
X599440Y947420D02*
D03*
X414020Y113030D02*
D03*
X765810Y775970D02*
D03*
X660748Y714147D02*
D03*
X670720Y682460D02*
D03*
X685427Y646058D02*
D03*
X728980Y538590D02*
D03*
X699770Y570230D02*
D03*
X727710Y662940D02*
D03*
X699607Y670854D02*
D03*
X777240Y609600D02*
D03*
X701040Y613410D02*
D03*
X698693Y637347D02*
D03*
X845820Y618490D02*
D03*
X629920Y647700D02*
D03*
X842010Y594360D02*
D03*
D87*
X203382Y217283D02*
D03*
X278467Y209932D02*
D03*
X355854Y475996D02*
D03*
X227838Y401320D02*
D03*
X471170Y646430D02*
D03*
X545740Y198120D02*
D03*
X569509Y266502D02*
D03*
X584480Y566076D02*
D03*
X110490Y777240D02*
D03*
X736600Y851790D02*
D03*
X754380Y797560D02*
D03*
X675789Y637559D02*
D03*
X775970Y746760D02*
D03*
X576926Y674300D02*
D03*
X695293Y624903D02*
D03*
X760730Y751840D02*
D03*
X576477Y656304D02*
D03*
X732790Y640080D02*
D03*
X757503Y708384D02*
D03*
X770890Y685800D02*
D03*
X724007Y685722D02*
D03*
X705891Y691001D02*
D03*
X739584Y607631D02*
D03*
X688700Y599800D02*
D03*
X836930Y431800D02*
D03*
X806450Y419100D02*
D03*
X515620Y233680D02*
D03*
X494030Y243840D02*
D03*
X57150Y760730D02*
D03*
X53340D02*
D03*
X57150Y699770D02*
D03*
X275590Y180340D02*
D03*
X258530Y190150D02*
D03*
X245039Y170090D02*
D03*
X203200Y190500D02*
D03*
X17272Y230886D02*
D03*
X147320Y38100D02*
D03*
X87630Y27940D02*
D03*
X843280Y529590D02*
D03*
X763270Y721360D02*
D03*
X786130Y713740D02*
D03*
X687559Y675323D02*
D03*
X721360Y773660D02*
D03*
X566420Y833120D02*
D03*
X563880Y808990D02*
D03*
X738174Y690497D02*
D03*
X718820Y851790D02*
D03*
X720090Y872490D02*
D03*
X737870D02*
D03*
X659130Y676910D02*
D03*
X726984Y960664D02*
D03*
X816610Y778510D02*
D03*
X798830Y782320D02*
D03*
X627380Y807720D02*
D03*
X361950Y294640D02*
D03*
X407670Y276860D02*
D03*
X558750Y223520D02*
D03*
X554990Y269240D02*
D03*
X483870Y292100D02*
D03*
X521970Y285750D02*
D03*
X572770Y177800D02*
D03*
X635000Y172720D02*
D03*
X457200Y275590D02*
D03*
X514350Y273050D02*
D03*
X241300Y27940D02*
D03*
X63104Y200294D02*
D03*
X270510Y154940D02*
D03*
X262277Y166510D02*
D03*
X212090Y176530D02*
D03*
X342900Y74930D02*
D03*
X275080Y92365D02*
D03*
X302260Y46990D02*
D03*
X279400Y60960D02*
D03*
X69850Y750570D02*
D03*
X317246Y172720D02*
D03*
X268224Y559562D02*
D03*
X328930Y632714D02*
D03*
X334264Y358648D02*
D03*
X366268Y455676D02*
D03*
X21590Y640080D02*
D03*
X477774Y731012D02*
D03*
X411988D02*
D03*
X239776Y865378D02*
D03*
X137160Y889000D02*
D03*
X78740Y845820D02*
D03*
X206738Y873760D02*
D03*
X309880Y850900D02*
D03*
D88*
X270510Y222250D02*
D03*
X715082Y707099D02*
D03*
X702310Y710430D02*
D03*
D89*
X659130Y816610D02*
D03*
D90*
X692528Y714632D02*
D03*
D91*
X680720Y711041D02*
D03*
M02*
