G04*
G04 #@! TF.GenerationSoftware,Altium Limited,Altium Designer,25.8.1 (18)*
G04*
G04 Layer_Physical_Order=2*
G04 Layer_Color=16711680*
%FSLAX44Y44*%
%MOMM*%
G71*
G04*
G04 #@! TF.SameCoordinates,F31D41C2-E8F0-4E3F-8BC2-1775C9FB2E47*
G04*
G04*
G04 #@! TF.FilePolarity,Positive*
G04*
G01*
G75*
%ADD13C,0.2540*%
%ADD78C,2.4500*%
%ADD80C,1.5700*%
%ADD85C,3.2500*%
%ADD86R,1.4000X1.4000*%
%ADD87C,1.4000*%
%ADD90C,0.3000*%
%ADD91C,0.5000*%
%ADD92C,0.4000*%
%ADD94R,1.5500X1.5500*%
%ADD95C,1.5500*%
%ADD96C,8.0000*%
%ADD97C,2.0000*%
G04:AMPARAMS|DCode=98|XSize=1.6mm|YSize=1.6mm|CornerRadius=0.4mm|HoleSize=0mm|Usage=FLASHONLY|Rotation=0.000|XOffset=0mm|YOffset=0mm|HoleType=Round|Shape=RoundedRectangle|*
%AMROUNDEDRECTD98*
21,1,1.6000,0.8000,0,0,0.0*
21,1,0.8000,1.6000,0,0,0.0*
1,1,0.8000,0.4000,-0.4000*
1,1,0.8000,-0.4000,-0.4000*
1,1,0.8000,-0.4000,0.4000*
1,1,0.8000,0.4000,0.4000*
%
%ADD98ROUNDEDRECTD98*%
%ADD99C,1.6000*%
%ADD100R,1.5500X1.5500*%
%ADD101C,1.0000*%
%ADD102C,0.5000*%
G36*
X989330Y0D02*
X0D01*
Y989330D01*
X989330D01*
Y0D01*
D02*
G37*
%LPC*%
G36*
X411480Y958696D02*
Y952500D01*
X417676D01*
X417236Y954140D01*
X416244Y955860D01*
X414840Y957263D01*
X413120Y958256D01*
X411480Y958696D01*
D02*
G37*
G36*
X408940D02*
X407300Y958256D01*
X405580Y957263D01*
X404176Y955860D01*
X403184Y954140D01*
X402744Y952500D01*
X408940D01*
Y958696D01*
D02*
G37*
G36*
X449506Y982129D02*
X243914D01*
X242345Y981817D01*
X241015Y980928D01*
X200302Y940214D01*
X199413Y938885D01*
X199101Y937316D01*
Y918638D01*
X72962Y792498D01*
X72073Y791169D01*
X71761Y789600D01*
Y603681D01*
X72073Y602113D01*
X72962Y600783D01*
X113203Y560542D01*
X114533Y559653D01*
X116101Y559341D01*
X181430D01*
X182999Y559653D01*
X184328Y560542D01*
X194998Y571211D01*
X210392D01*
X234965Y546639D01*
X234470Y544794D01*
Y542326D01*
X235109Y539943D01*
X236342Y537807D01*
X238087Y536062D01*
X240223Y534828D01*
X242606Y534190D01*
X245074D01*
X247457Y534828D01*
X249593Y536062D01*
X251338Y537807D01*
X252572Y539943D01*
X253210Y542326D01*
Y544794D01*
X252572Y547177D01*
X251338Y549313D01*
X249593Y551058D01*
X247457Y552291D01*
X245074Y552930D01*
X242606D01*
X240761Y552435D01*
X214988Y578208D01*
X213659Y579097D01*
X212090Y579409D01*
X193300D01*
X191732Y579097D01*
X190402Y578208D01*
X182277Y570084D01*
X181061Y571017D01*
X181451Y571693D01*
X182090Y574076D01*
Y576544D01*
X181451Y578927D01*
X180218Y581063D01*
X178473Y582808D01*
X176337Y584041D01*
X173954Y584680D01*
X171486D01*
X169103Y584041D01*
X166967Y582808D01*
X165222Y581063D01*
X163988Y578927D01*
X163350Y576544D01*
Y574076D01*
X163988Y571693D01*
X165222Y569557D01*
X165720Y569059D01*
X165090Y567539D01*
X117799D01*
X89612Y595726D01*
X90067Y597421D01*
X90614Y597568D01*
X92333Y598560D01*
X93737Y599964D01*
X94633Y601515D01*
X133457D01*
X138979Y595993D01*
X139978Y595325D01*
X141157Y595091D01*
X186111D01*
X187006Y593540D01*
X188410Y592136D01*
X190130Y591144D01*
X191770Y590704D01*
Y598170D01*
Y605636D01*
X190130Y605196D01*
X188410Y604203D01*
X187006Y602800D01*
X186111Y601249D01*
X142432D01*
X136910Y606771D01*
X135911Y607439D01*
X134733Y607673D01*
X94633D01*
X93737Y609223D01*
X92333Y610627D01*
X90614Y611620D01*
X88974Y612060D01*
Y604594D01*
X86434D01*
Y612060D01*
X84794Y611620D01*
X83074Y610627D01*
X81670Y609223D01*
X81479Y608892D01*
X79959Y609299D01*
Y685420D01*
X96900D01*
Y703960D01*
X79959D01*
Y787902D01*
X206098Y914042D01*
X206987Y915371D01*
X207299Y916940D01*
Y935619D01*
X238782Y967102D01*
X240477Y966647D01*
X240624Y966100D01*
X241616Y964380D01*
X243020Y962977D01*
X244571Y962081D01*
Y912439D01*
X243020Y911544D01*
X241616Y910140D01*
X240624Y908420D01*
X240184Y906780D01*
X255116D01*
X254676Y908420D01*
X253683Y910140D01*
X252280Y911544D01*
X250729Y912439D01*
Y962081D01*
X252280Y962977D01*
X253683Y964380D01*
X254676Y966100D01*
X255116Y967740D01*
X247650D01*
Y970280D01*
X255116D01*
X254676Y971920D01*
X254393Y972411D01*
X255270Y973931D01*
X447808D01*
X453665Y968074D01*
X453130Y966460D01*
X452143Y966196D01*
X450657Y965337D01*
X449443Y964123D01*
X448584Y962637D01*
X448140Y960978D01*
Y959262D01*
X448584Y957603D01*
X449443Y956117D01*
X450657Y954903D01*
X451581Y954369D01*
Y936620D01*
X451121Y936160D01*
X449992D01*
X448333Y935716D01*
X446847Y934857D01*
X445633Y933643D01*
X444774Y932157D01*
X444330Y930498D01*
Y928782D01*
X444774Y927123D01*
X445633Y925637D01*
X446847Y924423D01*
X448333Y923564D01*
X449992Y923120D01*
X451708D01*
X453367Y923564D01*
X454853Y924423D01*
X456067Y925637D01*
X456926Y927123D01*
X457370Y928782D01*
Y930498D01*
X456926Y932157D01*
X456524Y932853D01*
X456837Y933167D01*
X457505Y934166D01*
X457739Y935344D01*
Y954369D01*
X458663Y954903D01*
X459877Y956117D01*
X460736Y957603D01*
X461000Y958590D01*
X462614Y959125D01*
X470868Y950872D01*
X472198Y949983D01*
X473766Y949671D01*
X665438D01*
X666557Y948553D01*
X668043Y947694D01*
X669702Y947250D01*
X671418D01*
X673077Y947694D01*
X674563Y948553D01*
X675777Y949767D01*
X676636Y951253D01*
X677080Y952912D01*
Y954628D01*
X676636Y956287D01*
X675777Y957773D01*
X674563Y958987D01*
X673077Y959846D01*
X671418Y960290D01*
X669702D01*
X668043Y959846D01*
X666557Y958987D01*
X665438Y957869D01*
X475464D01*
X452405Y980928D01*
X451075Y981817D01*
X449506Y982129D01*
D02*
G37*
G36*
X60477Y942430D02*
X57443D01*
X54513Y941645D01*
X51887Y940128D01*
X49742Y937983D01*
X48225Y935357D01*
X47440Y932427D01*
Y929393D01*
X48225Y926463D01*
X49742Y923837D01*
X51887Y921692D01*
X54513Y920175D01*
X57443Y919390D01*
X60477D01*
X63407Y920175D01*
X66034Y921692D01*
X68178Y923837D01*
X69695Y926463D01*
X70480Y929393D01*
Y932427D01*
X69695Y935357D01*
X68178Y937983D01*
X66034Y940128D01*
X63407Y941645D01*
X60477Y942430D01*
D02*
G37*
G36*
X255116Y904240D02*
X248920D01*
Y898044D01*
X250560Y898484D01*
X252280Y899476D01*
X253683Y900880D01*
X254676Y902600D01*
X255116Y904240D01*
D02*
G37*
G36*
X246380D02*
X240184D01*
X240624Y902600D01*
X241616Y900880D01*
X243020Y899476D01*
X244740Y898484D01*
X246380Y898044D01*
Y904240D01*
D02*
G37*
G36*
X454790Y898020D02*
X445770D01*
Y889000D01*
X454790D01*
Y898020D01*
D02*
G37*
G36*
X443230D02*
X434210D01*
Y889000D01*
X443230D01*
Y898020D01*
D02*
G37*
G36*
X417676Y949960D02*
X402744D01*
X403184Y948320D01*
X404176Y946600D01*
X405580Y945197D01*
X407131Y944301D01*
Y920150D01*
X407365Y918971D01*
X408033Y917972D01*
X409671Y916334D01*
Y892119D01*
X408120Y891224D01*
X406716Y889820D01*
X405724Y888100D01*
X405284Y886460D01*
X420216D01*
X419776Y888100D01*
X418783Y889820D01*
X417380Y891224D01*
X415829Y892119D01*
Y917610D01*
X415595Y918788D01*
X414927Y919787D01*
X413289Y921425D01*
Y944301D01*
X414840Y945197D01*
X416244Y946600D01*
X417236Y948320D01*
X417676Y949960D01*
D02*
G37*
G36*
X60611Y892650D02*
X60230D01*
Y881380D01*
X71500D01*
Y881761D01*
X70645Y884950D01*
X68994Y887810D01*
X66660Y890145D01*
X63800Y891795D01*
X60611Y892650D01*
D02*
G37*
G36*
X57690D02*
X57309D01*
X54120Y891795D01*
X51260Y890145D01*
X48925Y887810D01*
X47275Y884950D01*
X46420Y881761D01*
Y881380D01*
X57690D01*
Y892650D01*
D02*
G37*
G36*
X471120Y897000D02*
X468680D01*
X466322Y896368D01*
X464208Y895148D01*
X462482Y893422D01*
X461262Y891308D01*
X460630Y888950D01*
Y886510D01*
X461262Y884152D01*
X461641Y883494D01*
X456310Y878163D01*
X454790Y878793D01*
Y886460D01*
X445770D01*
Y877440D01*
X453437D01*
X454067Y875920D01*
X385447Y807300D01*
X384831Y806377D01*
X384614Y805289D01*
Y713757D01*
X308221Y637364D01*
X306928Y637710D01*
X305212D01*
X303553Y637266D01*
X302067Y636407D01*
X300853Y635193D01*
X299994Y633707D01*
X299550Y632048D01*
Y630332D01*
X299994Y628673D01*
X300032Y628608D01*
X298816Y627674D01*
X293542Y632948D01*
X292212Y633837D01*
X290644Y634149D01*
X246510D01*
X244942Y633837D01*
X243612Y632948D01*
X243412Y632749D01*
X236303D01*
X234734Y632437D01*
X233405Y631548D01*
X229149Y627293D01*
X228188Y627550D01*
X226472D01*
X224813Y627106D01*
X223327Y626247D01*
X222113Y625033D01*
X221254Y623547D01*
X220810Y621888D01*
Y620172D01*
X221254Y618513D01*
X222113Y617027D01*
X223327Y615813D01*
X224813Y614954D01*
X225470Y614778D01*
X226234Y613062D01*
X226186Y612978D01*
X225746Y611338D01*
X233212D01*
Y610068D01*
X234482D01*
Y602602D01*
X236122Y603042D01*
X237842Y604035D01*
X239245Y605438D01*
X239774Y606354D01*
X251003D01*
X252110Y605247D01*
X251721Y603794D01*
X257917D01*
Y609990D01*
X256465Y609601D01*
X254456Y611610D01*
X253457Y612278D01*
X252278Y612512D01*
X240363D01*
X240238Y612978D01*
X239245Y614698D01*
X237842Y616101D01*
X236122Y617094D01*
X234580Y617507D01*
X234303Y617744D01*
X233880Y618386D01*
X233570Y619128D01*
X233850Y620172D01*
Y620401D01*
X238001Y624551D01*
X245110D01*
X246679Y624863D01*
X248008Y625752D01*
X248208Y625951D01*
X265430D01*
X266307Y624431D01*
X266024Y623940D01*
X265584Y622300D01*
X280516D01*
X280076Y623940D01*
X279793Y624431D01*
X280670Y625951D01*
X288946D01*
X295625Y619272D01*
X296955Y618383D01*
X298524Y618071D01*
X299742D01*
X300505Y616551D01*
X299994Y615667D01*
X299550Y614008D01*
Y612292D01*
X299994Y610633D01*
X300853Y609147D01*
X302067Y607933D01*
X303553Y607074D01*
X305212Y606630D01*
X306928D01*
X308587Y607074D01*
X310073Y607933D01*
X311287Y609147D01*
X311956Y610305D01*
X323590D01*
X324679Y610522D01*
X325601Y611138D01*
X338209Y623746D01*
X339502Y623400D01*
X341218D01*
X342877Y623844D01*
X344363Y624703D01*
X345577Y625917D01*
X346436Y627403D01*
X346880Y629062D01*
Y630778D01*
X346436Y632437D01*
X345577Y633923D01*
X344363Y635137D01*
X342877Y635996D01*
X341890Y636260D01*
X341355Y637874D01*
X499822Y796341D01*
X575199D01*
X575780Y794937D01*
X417362Y636519D01*
X383011D01*
X381443Y636207D01*
X380113Y635318D01*
X299169Y554375D01*
X297152Y554507D01*
X296954Y554764D01*
X295588Y555813D01*
X293997Y556472D01*
X292290Y556696D01*
X289560D01*
Y546100D01*
Y534763D01*
X289835Y534099D01*
X287512Y531776D01*
X278757D01*
X277189Y531464D01*
X275859Y530576D01*
X267423Y522140D01*
X265842D01*
X264183Y521696D01*
X262697Y520837D01*
X261483Y519623D01*
X260624Y518137D01*
X260180Y516478D01*
Y514762D01*
X260624Y513103D01*
X261483Y511617D01*
X262697Y510403D01*
X264183Y509544D01*
X265842Y509100D01*
X267558D01*
X269217Y509544D01*
X270703Y510403D01*
X271917Y511617D01*
X272776Y513103D01*
X273220Y514762D01*
Y516343D01*
X280455Y523579D01*
X289209D01*
X290778Y523891D01*
X292108Y524779D01*
X303208Y535880D01*
X304097Y537209D01*
X304409Y538778D01*
Y540095D01*
X305929Y540503D01*
X306072Y540255D01*
X307845Y538482D01*
X310015Y537229D01*
X312437Y536580D01*
X314943D01*
X317365Y537229D01*
X319535Y538482D01*
X321308Y540255D01*
X322561Y542425D01*
X323210Y544847D01*
Y547353D01*
X322561Y549775D01*
X321308Y551945D01*
X319535Y553718D01*
X317365Y554971D01*
X314943Y555620D01*
X314157D01*
X313528Y557140D01*
X384709Y628321D01*
X419060D01*
X419878Y628484D01*
X420626Y627083D01*
X407312Y613768D01*
X406423Y612439D01*
X406111Y610870D01*
Y607102D01*
X404993Y605983D01*
X404134Y604497D01*
X403690Y602838D01*
Y601122D01*
X404134Y599463D01*
X404993Y597977D01*
X406207Y596763D01*
X407693Y595904D01*
X409352Y595460D01*
X411068D01*
X412727Y595904D01*
X414213Y596763D01*
X415427Y597977D01*
X416286Y599463D01*
X416730Y601122D01*
Y602838D01*
X416286Y604497D01*
X415427Y605983D01*
X414309Y607102D01*
Y609172D01*
X549960Y744823D01*
X551655Y744369D01*
X551802Y743822D01*
X552408Y742772D01*
X551543Y741907D01*
X550875Y740908D01*
X550641Y739730D01*
Y711779D01*
X549090Y710883D01*
X547687Y709480D01*
X546694Y707760D01*
X546254Y706120D01*
X561186D01*
X560746Y707760D01*
X559753Y709480D01*
X558350Y710883D01*
X556799Y711779D01*
Y738099D01*
X557558Y738900D01*
Y746732D01*
X558828D01*
Y748002D01*
X566294D01*
X565854Y749642D01*
X564862Y751361D01*
X563458Y752765D01*
X561738Y753758D01*
X561191Y753905D01*
X560737Y755600D01*
X574369Y769232D01*
X575983Y768697D01*
X576247Y767710D01*
X577106Y766224D01*
X578320Y765010D01*
X579807Y764151D01*
X581465Y763707D01*
X582163D01*
X582593Y763062D01*
X595993Y749663D01*
X596992Y748995D01*
X598170Y748761D01*
X612739D01*
X613273Y747837D01*
X614487Y746623D01*
X615973Y745764D01*
X617632Y745320D01*
X619348D01*
X621007Y745764D01*
X622493Y746623D01*
X623707Y747837D01*
X624566Y749323D01*
X625010Y750982D01*
Y752698D01*
X624566Y754357D01*
X623707Y755843D01*
X622493Y757057D01*
X621007Y757916D01*
X619348Y758360D01*
X617632D01*
X615973Y757916D01*
X614487Y757057D01*
X613273Y755843D01*
X612739Y754919D01*
X599445D01*
X587760Y766604D01*
X588399Y767710D01*
X588843Y769369D01*
Y771085D01*
X588399Y772744D01*
X587540Y774230D01*
X586326Y775444D01*
X584840Y776303D01*
X583853Y776567D01*
X583318Y778181D01*
X588438Y783301D01*
X624798D01*
X625917Y782183D01*
X627403Y781324D01*
X629062Y780880D01*
X630778D01*
X632437Y781324D01*
X633923Y782183D01*
X635137Y783397D01*
X635996Y784883D01*
X636440Y786542D01*
Y788258D01*
X635996Y789917D01*
X635137Y791403D01*
X633923Y792617D01*
X632999Y793151D01*
Y801365D01*
X658511Y826876D01*
X659542Y826600D01*
X661258D01*
X662917Y827044D01*
X664403Y827903D01*
X665617Y829117D01*
X666476Y830603D01*
X666920Y832262D01*
Y833978D01*
X666476Y835637D01*
X665965Y836521D01*
X666728Y838041D01*
X691059D01*
X720469Y808632D01*
X721798Y807743D01*
X723367Y807431D01*
X757762D01*
X839311Y725882D01*
Y722608D01*
X837791Y721845D01*
X836907Y722356D01*
X835248Y722800D01*
X833532D01*
X831873Y722356D01*
X830387Y721497D01*
X829173Y720283D01*
X828639Y719359D01*
X760730D01*
X759552Y719125D01*
X758553Y718457D01*
X736496Y696401D01*
X735465Y696677D01*
X733749D01*
X732090Y696233D01*
X730604Y695374D01*
X729390Y694160D01*
X728531Y692674D01*
X728087Y691015D01*
Y689299D01*
X728531Y687640D01*
X729390Y686154D01*
X730604Y684940D01*
X732090Y684081D01*
X733749Y683637D01*
X735465D01*
X737124Y684081D01*
X738610Y684940D01*
X739824Y686154D01*
X740683Y687640D01*
X741127Y689299D01*
Y691015D01*
X740851Y692046D01*
X762005Y713201D01*
X828639D01*
X829173Y712277D01*
X830387Y711063D01*
X831873Y710204D01*
X833532Y709760D01*
X835248D01*
X836907Y710204D01*
X837791Y710715D01*
X839311Y709952D01*
Y706761D01*
X835031Y702480D01*
X834802D01*
X833143Y702036D01*
X831657Y701177D01*
X830443Y699963D01*
X829584Y698477D01*
X829140Y696818D01*
Y695102D01*
X829584Y693443D01*
X830443Y691957D01*
X831657Y690743D01*
X833143Y689884D01*
X834802Y689440D01*
X836518D01*
X838177Y689884D01*
X839663Y690743D01*
X840877Y691957D01*
X841736Y693443D01*
X842180Y695102D01*
Y696818D01*
X841923Y697779D01*
X846308Y702165D01*
X847197Y703494D01*
X847509Y705063D01*
Y727580D01*
X847197Y729148D01*
X846308Y730478D01*
X762358Y814428D01*
X761029Y815317D01*
X759460Y815629D01*
X725065D01*
X695655Y845038D01*
X694325Y845927D01*
X692757Y846239D01*
X639425D01*
X638647Y847759D01*
X638958Y848190D01*
X639668D01*
X641327Y848634D01*
X642813Y849493D01*
X644027Y850707D01*
X644886Y852193D01*
X645330Y853852D01*
Y855568D01*
X644886Y857227D01*
X644027Y858713D01*
X642813Y859927D01*
X641327Y860786D01*
X639668Y861230D01*
X637952D01*
X636293Y860786D01*
X634807Y859927D01*
X633593Y858713D01*
X632734Y857227D01*
X632290Y855568D01*
Y853987D01*
X582842Y804539D01*
X498124D01*
X496555Y804227D01*
X495225Y803338D01*
X318156Y626269D01*
X312398D01*
X311635Y627789D01*
X312146Y628673D01*
X312590Y630332D01*
Y632048D01*
X312244Y633341D01*
X389470Y710567D01*
X390087Y711490D01*
X390303Y712579D01*
Y804110D01*
X465664Y879471D01*
X466322Y879092D01*
X468680Y878460D01*
X471120D01*
X473478Y879092D01*
X475592Y880312D01*
X477318Y882038D01*
X478538Y884152D01*
X479170Y886510D01*
Y888950D01*
X478538Y891308D01*
X477318Y893422D01*
X475592Y895148D01*
X473478Y896368D01*
X471120Y897000D01*
D02*
G37*
G36*
X420216Y883920D02*
X414020D01*
Y877724D01*
X415660Y878164D01*
X417380Y879156D01*
X418783Y880560D01*
X419776Y882280D01*
X420216Y883920D01*
D02*
G37*
G36*
X411480D02*
X405284D01*
X405724Y882280D01*
X406716Y880560D01*
X408120Y879156D01*
X409840Y878164D01*
X411480Y877724D01*
Y883920D01*
D02*
G37*
G36*
X443230Y886460D02*
X434210D01*
Y877440D01*
X443230D01*
Y886460D01*
D02*
G37*
G36*
X714974Y894560D02*
X712506D01*
X710123Y893922D01*
X707987Y892688D01*
X706242Y890943D01*
X705008Y888807D01*
X704370Y886424D01*
Y883956D01*
X705008Y881573D01*
X706242Y879437D01*
X707987Y877692D01*
X710123Y876459D01*
X712506Y875820D01*
X714974D01*
X717357Y876459D01*
X719493Y877692D01*
X721238Y879437D01*
X722471Y881573D01*
X723110Y883956D01*
Y886424D01*
X722471Y888807D01*
X721238Y890943D01*
X719493Y892688D01*
X717357Y893922D01*
X714974Y894560D01*
D02*
G37*
G36*
X71500Y878840D02*
X60230D01*
Y867570D01*
X60611D01*
X63800Y868425D01*
X66660Y870076D01*
X68994Y872410D01*
X70645Y875270D01*
X71500Y878459D01*
Y878840D01*
D02*
G37*
G36*
X57690D02*
X46420D01*
Y878459D01*
X47275Y875270D01*
X48925Y872410D01*
X51260Y870076D01*
X54120Y868425D01*
X57309Y867570D01*
X57690D01*
Y878840D01*
D02*
G37*
G36*
X714974Y859000D02*
X712506D01*
X710123Y858362D01*
X707987Y857128D01*
X706242Y855383D01*
X705008Y853247D01*
X704370Y850864D01*
Y848396D01*
X705008Y846013D01*
X706242Y843877D01*
X707987Y842132D01*
X710123Y840899D01*
X712506Y840260D01*
X714974D01*
X717357Y840899D01*
X719493Y842132D01*
X721238Y843877D01*
X722471Y846013D01*
X723110Y848396D01*
Y850864D01*
X722471Y853247D01*
X721238Y855383D01*
X719493Y857128D01*
X717357Y858362D01*
X714974Y859000D01*
D02*
G37*
G36*
X327908Y879470D02*
X326390D01*
Y838200D01*
X367660D01*
Y839718D01*
X366932Y845247D01*
X365489Y850633D01*
X363355Y855785D01*
X360567Y860615D01*
X357172Y865039D01*
X353229Y868982D01*
X348805Y872377D01*
X343975Y875165D01*
X338823Y877299D01*
X333437Y878742D01*
X327908Y879470D01*
D02*
G37*
G36*
X323850D02*
X322332D01*
X316803Y878742D01*
X311417Y877299D01*
X306265Y875165D01*
X301435Y872377D01*
X297011Y868982D01*
X293068Y865039D01*
X289673Y860615D01*
X286885Y855785D01*
X284751Y850633D01*
X283308Y845247D01*
X282580Y839718D01*
Y838200D01*
X323850D01*
Y879470D01*
D02*
G37*
G36*
X367660Y835660D02*
X326390D01*
Y794390D01*
X327908D01*
X333437Y795118D01*
X338823Y796561D01*
X343975Y798695D01*
X348805Y801483D01*
X353229Y804878D01*
X357172Y808821D01*
X360567Y813245D01*
X363355Y818075D01*
X365489Y823227D01*
X366932Y828613D01*
X367660Y834142D01*
Y835660D01*
D02*
G37*
G36*
X323850D02*
X282580D01*
Y834142D01*
X283308Y828613D01*
X284751Y823227D01*
X286885Y818075D01*
X289673Y813245D01*
X293068Y808821D01*
X297011Y804878D01*
X301435Y801483D01*
X306265Y798695D01*
X311417Y796561D01*
X316803Y795118D01*
X322332Y794390D01*
X323850D01*
Y835660D01*
D02*
G37*
G36*
X566294Y745462D02*
X560098D01*
Y739266D01*
X561738Y739706D01*
X563458Y740698D01*
X564862Y742102D01*
X565854Y743822D01*
X566294Y745462D01*
D02*
G37*
G36*
X135478Y774870D02*
X133762D01*
X132103Y774426D01*
X130617Y773567D01*
X129403Y772353D01*
X128544Y770867D01*
X128100Y769208D01*
Y767492D01*
X128544Y765833D01*
X129403Y764347D01*
X130617Y763133D01*
X132103Y762274D01*
X133762Y761830D01*
X135344D01*
X164742Y732432D01*
X166071Y731543D01*
X167640Y731231D01*
X306028D01*
X307147Y730113D01*
X308633Y729254D01*
X310292Y728810D01*
X312008D01*
X313667Y729254D01*
X315153Y730113D01*
X316367Y731327D01*
X317226Y732813D01*
X317670Y734472D01*
Y736188D01*
X317226Y737847D01*
X316367Y739333D01*
X315153Y740547D01*
X313667Y741406D01*
X312008Y741850D01*
X310292D01*
X308633Y741406D01*
X307147Y740547D01*
X306028Y739429D01*
X169338D01*
X141140Y767626D01*
Y769208D01*
X140696Y770867D01*
X139837Y772353D01*
X138623Y773567D01*
X137137Y774426D01*
X135478Y774870D01*
D02*
G37*
G36*
X101188Y738040D02*
X99472D01*
X97813Y737596D01*
X96327Y736737D01*
X95113Y735523D01*
X94254Y734037D01*
X93810Y732378D01*
Y730662D01*
X94254Y729003D01*
X95113Y727517D01*
X96327Y726303D01*
X97813Y725444D01*
X99472Y725000D01*
X101188D01*
X102219Y725276D01*
X110853Y716643D01*
X111852Y715975D01*
X113030Y715741D01*
X267299D01*
X267833Y714817D01*
X269047Y713603D01*
X270533Y712744D01*
X272192Y712300D01*
X273908D01*
X275567Y712744D01*
X277053Y713603D01*
X278267Y714817D01*
X279126Y716303D01*
X279570Y717962D01*
Y719678D01*
X279126Y721337D01*
X278267Y722823D01*
X277053Y724037D01*
X275567Y724896D01*
X273908Y725340D01*
X272192D01*
X270533Y724896D01*
X269047Y724037D01*
X267833Y722823D01*
X267299Y721899D01*
X114305D01*
X106574Y729631D01*
X106850Y730662D01*
Y732378D01*
X106406Y734037D01*
X105547Y735523D01*
X104333Y736737D01*
X102847Y737596D01*
X101188Y738040D01*
D02*
G37*
G36*
X652744Y721840D02*
X650276D01*
X647893Y721201D01*
X645757Y719968D01*
X644012Y718223D01*
X642778Y716087D01*
X642140Y713704D01*
Y711236D01*
X642778Y708853D01*
X644012Y706717D01*
X645757Y704972D01*
X647893Y703738D01*
X650276Y703100D01*
X652744D01*
X655127Y703738D01*
X657263Y704972D01*
X659008Y706717D01*
X660241Y708853D01*
X660880Y711236D01*
Y713704D01*
X660241Y716087D01*
X659008Y718223D01*
X657263Y719968D01*
X655127Y721201D01*
X652744Y721840D01*
D02*
G37*
G36*
X561186Y703580D02*
X554990D01*
Y697384D01*
X556630Y697824D01*
X558350Y698817D01*
X559753Y700220D01*
X560746Y701940D01*
X561186Y703580D01*
D02*
G37*
G36*
X552450D02*
X546254D01*
X546694Y701940D01*
X547687Y700220D01*
X549090Y698817D01*
X550810Y697824D01*
X552450Y697384D01*
Y703580D01*
D02*
G37*
G36*
X114250Y703960D02*
X111810D01*
X109452Y703328D01*
X107338Y702108D01*
X105612Y700382D01*
X104392Y698268D01*
X103760Y695910D01*
Y693470D01*
X104392Y691112D01*
X105612Y688998D01*
X107338Y687272D01*
X109452Y686052D01*
X111810Y685420D01*
X114250D01*
X116608Y686052D01*
X118722Y687272D01*
X120448Y688998D01*
X121668Y691112D01*
X122300Y693470D01*
Y695910D01*
X121668Y698268D01*
X120448Y700382D01*
X118722Y702108D01*
X116608Y703328D01*
X114250Y703960D01*
D02*
G37*
G36*
X708624Y723110D02*
X706156D01*
X703773Y722471D01*
X701637Y721238D01*
X699892Y719493D01*
X698659Y717357D01*
X698020Y714974D01*
Y712506D01*
X698659Y710123D01*
X699892Y707987D01*
X701637Y706242D01*
X703773Y705008D01*
X706156Y704370D01*
X708624D01*
X709742Y704670D01*
X713201Y701210D01*
Y691551D01*
X712277Y691017D01*
X711063Y689803D01*
X710204Y688317D01*
X709760Y686658D01*
Y684942D01*
X710204Y683283D01*
X711063Y681797D01*
X712277Y680583D01*
X713763Y679724D01*
X715422Y679280D01*
X717138D01*
X718797Y679724D01*
X720283Y680583D01*
X721497Y681797D01*
X722356Y683283D01*
X722800Y684942D01*
Y686658D01*
X722356Y688317D01*
X721497Y689803D01*
X720283Y691017D01*
X719359Y691551D01*
Y702486D01*
X719125Y703664D01*
X718457Y704663D01*
X714978Y708142D01*
X716122Y710123D01*
X716760Y712506D01*
Y714974D01*
X716122Y717357D01*
X714888Y719493D01*
X713143Y721238D01*
X711007Y722471D01*
X708624Y723110D01*
D02*
G37*
G36*
X727298Y680890D02*
X725582D01*
X723923Y680446D01*
X722437Y679587D01*
X721223Y678373D01*
X720689Y677449D01*
X713108D01*
X713068Y677476D01*
X711889Y677711D01*
X705245D01*
X704067Y677476D01*
X704026Y677449D01*
X698588D01*
X697410Y677215D01*
X696411Y676547D01*
X660363Y640499D01*
X659695Y639500D01*
X659484Y638439D01*
X649333Y628287D01*
X649333Y628287D01*
X648319Y627274D01*
X647288Y627550D01*
X645572D01*
X643913Y627106D01*
X642427Y626247D01*
X641566Y625387D01*
X638205D01*
X637239Y626353D01*
Y627483D01*
X636794Y629141D01*
X635936Y630628D01*
X634722Y631842D01*
X633235Y632700D01*
X631577Y633144D01*
X629860D01*
X628202Y632700D01*
X626715Y631842D01*
X625501Y630628D01*
X624643Y629141D01*
X624199Y627483D01*
Y625766D01*
X624643Y624108D01*
X625501Y622621D01*
X626715Y621407D01*
X628202Y620549D01*
X629860Y620104D01*
X631577D01*
X633235Y620549D01*
X633932Y620951D01*
X634753Y620130D01*
X635752Y619463D01*
X636930Y619228D01*
X640163D01*
X640354Y618513D01*
X641213Y617027D01*
X642427Y615813D01*
X642517Y615122D01*
X631809Y604414D01*
X630778Y604690D01*
X629062D01*
X627403Y604246D01*
X625917Y603387D01*
X624703Y602173D01*
X623844Y600687D01*
X623400Y599028D01*
Y597312D01*
X623844Y595653D01*
X624703Y594167D01*
X625917Y592953D01*
X627403Y592094D01*
X629062Y591650D01*
X630778D01*
X632437Y592094D01*
X633923Y592953D01*
X635137Y594167D01*
X635996Y595653D01*
X636440Y597312D01*
Y599028D01*
X636164Y600059D01*
X653687Y617583D01*
X654355Y618582D01*
X654589Y619760D01*
Y624835D01*
X662768Y633014D01*
X664464Y632560D01*
X664484Y632483D01*
X665343Y630997D01*
X666557Y629783D01*
X668043Y628924D01*
X669702Y628480D01*
X670831D01*
X672565Y626746D01*
Y624386D01*
X671767Y623587D01*
X671554Y623219D01*
X669799D01*
X669655Y623468D01*
X668441Y624682D01*
X666955Y625540D01*
X665296Y625985D01*
X663580D01*
X661921Y625540D01*
X660435Y624682D01*
X659221Y623468D01*
X658362Y621981D01*
X657918Y620323D01*
Y618606D01*
X658362Y616948D01*
X659221Y615461D01*
X660435Y614247D01*
X661921Y613389D01*
X663580Y612945D01*
X665296D01*
X666327Y613221D01*
X670161Y609387D01*
X671160Y608719D01*
X672338Y608485D01*
X680306D01*
X681484Y608719D01*
X682483Y609387D01*
X709685Y636589D01*
X710353Y637588D01*
X710447Y638063D01*
X712190Y639806D01*
X712857Y640805D01*
X713092Y641983D01*
Y644195D01*
X713868Y644403D01*
X715355Y645261D01*
X716569Y646475D01*
X717428Y647962D01*
X717872Y649620D01*
Y650803D01*
X719325Y651499D01*
X720221Y650603D01*
X721220Y649935D01*
X722399Y649701D01*
X728309D01*
X728843Y648777D01*
X730057Y647563D01*
X731543Y646704D01*
X733202Y646260D01*
X734918D01*
X736577Y646704D01*
X738063Y647563D01*
X738970Y648469D01*
X740276Y648096D01*
X740499Y647944D01*
X741004Y646060D01*
X741997Y644340D01*
X743400Y642936D01*
X745120Y641944D01*
X746185Y641658D01*
Y637576D01*
X746419Y636397D01*
X747087Y635398D01*
X801913Y580572D01*
X801524Y579120D01*
X807720D01*
Y585316D01*
X806268Y584927D01*
X752343Y638851D01*
Y642754D01*
X752660Y642936D01*
X754063Y644340D01*
X755056Y646060D01*
X755496Y647700D01*
X748030D01*
Y648970D01*
X746760D01*
Y656436D01*
X745120Y655996D01*
X743400Y655004D01*
X742081Y653684D01*
X741690Y653672D01*
X740480Y654013D01*
X740136Y655297D01*
X739277Y656783D01*
X738063Y657997D01*
X736577Y658856D01*
X734918Y659300D01*
X733202D01*
X731543Y658856D01*
X730057Y657997D01*
X728843Y656783D01*
X728309Y655859D01*
X723674D01*
X714811Y664722D01*
X715087Y665753D01*
Y667470D01*
X714643Y669128D01*
X714272Y669771D01*
X715149Y671291D01*
X720689D01*
X721223Y670367D01*
X722437Y669153D01*
X723923Y668294D01*
X725582Y667850D01*
X727298D01*
X728957Y668294D01*
X730443Y669153D01*
X731657Y670367D01*
X732516Y671853D01*
X732960Y673512D01*
Y675228D01*
X732516Y676887D01*
X731657Y678373D01*
X730443Y679587D01*
X728957Y680446D01*
X727298Y680890D01*
D02*
G37*
G36*
X749300Y656436D02*
Y650240D01*
X755496D01*
X755056Y651880D01*
X754063Y653600D01*
X752660Y655004D01*
X750940Y655996D01*
X749300Y656436D01*
D02*
G37*
G36*
X172684Y659610D02*
X170216D01*
X167833Y658971D01*
X165697Y657738D01*
X163952Y655993D01*
X162719Y653857D01*
X162080Y651474D01*
Y649006D01*
X162719Y646623D01*
X163952Y644487D01*
X165697Y642742D01*
X167833Y641508D01*
X170216Y640870D01*
X172684D01*
X175067Y641508D01*
X177203Y642742D01*
X178948Y644487D01*
X180182Y646623D01*
X180820Y649006D01*
Y651474D01*
X180182Y653857D01*
X178948Y655993D01*
X177203Y657738D01*
X175067Y658971D01*
X172684Y659610D01*
D02*
G37*
G36*
X642584Y658340D02*
X640116D01*
X637733Y657701D01*
X635597Y656468D01*
X633852Y654723D01*
X632618Y652587D01*
X631980Y650204D01*
Y647736D01*
X632618Y645353D01*
X633852Y643217D01*
X635597Y641472D01*
X637733Y640238D01*
X640116Y639600D01*
X642584D01*
X644967Y640238D01*
X647103Y641472D01*
X648848Y643217D01*
X650081Y645353D01*
X650720Y647736D01*
Y650204D01*
X650081Y652587D01*
X648848Y654723D01*
X647103Y656468D01*
X644967Y657701D01*
X642584Y658340D01*
D02*
G37*
G36*
X141828Y680890D02*
X140112D01*
X138453Y680446D01*
X136967Y679587D01*
X135753Y678373D01*
X134894Y676887D01*
X134450Y675228D01*
Y673512D01*
X134894Y671853D01*
X135753Y670367D01*
X136967Y669153D01*
X137891Y668619D01*
Y644520D01*
X137431Y644060D01*
X136302D01*
X134643Y643616D01*
X133157Y642757D01*
X131943Y641543D01*
X131084Y640057D01*
X130640Y638398D01*
Y636682D01*
X131084Y635023D01*
X131943Y633537D01*
X133157Y632323D01*
X134643Y631464D01*
X136302Y631020D01*
X138018D01*
X139677Y631464D01*
X141163Y632323D01*
X142377Y633537D01*
X143236Y635023D01*
X143680Y636682D01*
Y638398D01*
X143236Y640057D01*
X142833Y640753D01*
X143147Y641067D01*
X143815Y642066D01*
X144049Y643244D01*
Y668619D01*
X144973Y669153D01*
X146187Y670367D01*
X147046Y671853D01*
X147490Y673512D01*
Y675228D01*
X147046Y676887D01*
X146187Y678373D01*
X144973Y679587D01*
X143487Y680446D01*
X141828Y680890D01*
D02*
G37*
G36*
X727674Y641830D02*
X725206D01*
X722823Y641191D01*
X720687Y639958D01*
X718942Y638213D01*
X717709Y636077D01*
X717070Y633694D01*
Y631226D01*
X717709Y628843D01*
X718942Y626707D01*
X720687Y624962D01*
X722823Y623728D01*
X725206Y623090D01*
X727674D01*
X730057Y623728D01*
X732193Y624962D01*
X733938Y626707D01*
X735172Y628843D01*
X735810Y631226D01*
Y633694D01*
X735172Y636077D01*
X733938Y638213D01*
X732193Y639958D01*
X730057Y641191D01*
X727674Y641830D01*
D02*
G37*
G36*
X271780Y619760D02*
X265584D01*
X266024Y618120D01*
X267017Y616400D01*
X268420Y614996D01*
X270140Y614004D01*
X271780Y613564D01*
Y619760D01*
D02*
G37*
G36*
X172684Y626590D02*
X170216D01*
X167833Y625951D01*
X165697Y624718D01*
X163952Y622973D01*
X162719Y620837D01*
X162080Y618454D01*
Y615986D01*
X162719Y613603D01*
X163952Y611467D01*
X165697Y609722D01*
X167833Y608489D01*
X170216Y607850D01*
X172684D01*
X175067Y608489D01*
X177203Y609722D01*
X178948Y611467D01*
X180182Y613603D01*
X180820Y615986D01*
Y618454D01*
X180182Y620837D01*
X178948Y622973D01*
X177203Y624718D01*
X175067Y625951D01*
X172684Y626590D01*
D02*
G37*
G36*
X260457Y609990D02*
Y603794D01*
X266653D01*
X266213Y605435D01*
X265220Y607154D01*
X263817Y608558D01*
X262097Y609551D01*
X260457Y609990D01*
D02*
G37*
G36*
X231942Y608798D02*
X225746D01*
X226186Y607158D01*
X227178Y605438D01*
X228582Y604035D01*
X230302Y603042D01*
X231942Y602602D01*
Y608798D01*
D02*
G37*
G36*
X194310Y605636D02*
Y599440D01*
X200506D01*
X200066Y601080D01*
X199074Y602800D01*
X197670Y604203D01*
X195950Y605196D01*
X194310Y605636D01*
D02*
G37*
G36*
X266653Y601254D02*
X260457D01*
Y595059D01*
X262097Y595498D01*
X263817Y596491D01*
X265220Y597895D01*
X266213Y599614D01*
X266653Y601254D01*
D02*
G37*
G36*
X257917D02*
X251721D01*
X252161Y599614D01*
X253153Y597895D01*
X254557Y596491D01*
X256277Y595498D01*
X257917Y595059D01*
Y601254D01*
D02*
G37*
G36*
X200506Y596900D02*
X194310D01*
Y590704D01*
X195950Y591144D01*
X197670Y592136D01*
X199074Y593540D01*
X200066Y595260D01*
X200506Y596900D01*
D02*
G37*
G36*
X654050Y595296D02*
Y589100D01*
X660246D01*
X659806Y590740D01*
X658813Y592460D01*
X657410Y593863D01*
X655690Y594856D01*
X654050Y595296D01*
D02*
G37*
G36*
X651510D02*
X649870Y594856D01*
X648150Y593863D01*
X646747Y592460D01*
X645754Y590740D01*
X645314Y589100D01*
X651510D01*
Y595296D01*
D02*
G37*
G36*
X810260Y585316D02*
Y579120D01*
X816456D01*
X816016Y580760D01*
X815023Y582480D01*
X813620Y583884D01*
X811900Y584876D01*
X810260Y585316D01*
D02*
G37*
G36*
X280516Y619760D02*
X274320D01*
Y613564D01*
X275772Y613953D01*
X287751Y601975D01*
Y582239D01*
X286200Y581343D01*
X284797Y579940D01*
X283804Y578220D01*
X283624Y577549D01*
X281929Y577095D01*
X281490Y577533D01*
X279770Y578526D01*
X278130Y578966D01*
Y571500D01*
X276860D01*
Y570230D01*
X269394D01*
X269834Y568590D01*
X270826Y566870D01*
X272230Y565466D01*
X271493Y564137D01*
X270692Y563337D01*
X269240Y563726D01*
Y557530D01*
X275436D01*
X275047Y558982D01*
X277698Y561633D01*
X278365Y562632D01*
X278600Y563811D01*
Y564160D01*
X279770Y564474D01*
X281490Y565466D01*
X282894Y566870D01*
X283886Y568590D01*
X284066Y569261D01*
X285761Y569715D01*
X286200Y569277D01*
X287920Y568284D01*
X289560Y567844D01*
Y575310D01*
X290830D01*
Y576580D01*
X298296D01*
X297856Y578220D01*
X296863Y579940D01*
X295460Y581343D01*
X293909Y582239D01*
Y603250D01*
X293675Y604428D01*
X293007Y605427D01*
X280127Y618308D01*
X280516Y619760D01*
D02*
G37*
G36*
X275590Y578966D02*
X273950Y578526D01*
X272230Y577533D01*
X270826Y576130D01*
X269834Y574410D01*
X269394Y572770D01*
X275590D01*
Y578966D01*
D02*
G37*
G36*
X816456Y576580D02*
X810260D01*
Y570384D01*
X811900Y570824D01*
X813620Y571816D01*
X815023Y573220D01*
X816016Y574940D01*
X816456Y576580D01*
D02*
G37*
G36*
X807720D02*
X801524D01*
X801964Y574940D01*
X802956Y573220D01*
X804360Y571816D01*
X806080Y570824D01*
X807720Y570384D01*
Y576580D01*
D02*
G37*
G36*
X298296Y574040D02*
X292100D01*
Y567844D01*
X293740Y568284D01*
X295460Y569277D01*
X296863Y570680D01*
X297856Y572400D01*
X298296Y574040D01*
D02*
G37*
G36*
X266700Y563726D02*
X265060Y563286D01*
X263340Y562294D01*
X261936Y560890D01*
X260944Y559170D01*
X260504Y557530D01*
X266700D01*
Y563726D01*
D02*
G37*
G36*
X275436Y554990D02*
X269240D01*
Y548794D01*
X270880Y549234D01*
X272600Y550227D01*
X274004Y551630D01*
X274996Y553350D01*
X275436Y554990D01*
D02*
G37*
G36*
X266700D02*
X260504D01*
X260944Y553350D01*
X261936Y551630D01*
X263340Y550227D01*
X265060Y549234D01*
X266700Y548794D01*
Y554990D01*
D02*
G37*
G36*
X287020Y556696D02*
X284290D01*
X282583Y556472D01*
X280992Y555813D01*
X279626Y554764D01*
X278577Y553398D01*
X277918Y551807D01*
X277694Y550100D01*
Y547370D01*
X287020D01*
Y556696D01*
D02*
G37*
G36*
X103728Y555160D02*
X102012D01*
X100353Y554716D01*
X98867Y553857D01*
X97653Y552643D01*
X96794Y551157D01*
X96350Y549498D01*
Y547782D01*
X96626Y546751D01*
X67915Y518039D01*
X65089D01*
X64907Y518353D01*
X63693Y519567D01*
X62207Y520426D01*
X60548Y520870D01*
X58832D01*
X57173Y520426D01*
X55687Y519567D01*
X54473Y518353D01*
X53614Y516867D01*
X53170Y515208D01*
Y513492D01*
X53614Y511833D01*
X54473Y510347D01*
X55687Y509133D01*
X57173Y508274D01*
X58832Y507830D01*
X60548D01*
X62207Y508274D01*
X63693Y509133D01*
X64907Y510347D01*
X65766Y511833D01*
X65778Y511881D01*
X69190D01*
X70368Y512115D01*
X71367Y512783D01*
X100981Y542396D01*
X102012Y542120D01*
X103728D01*
X105387Y542564D01*
X106873Y543423D01*
X108087Y544637D01*
X108946Y546123D01*
X109390Y547782D01*
Y549498D01*
X108946Y551157D01*
X108087Y552643D01*
X106873Y553857D01*
X105387Y554716D01*
X103728Y555160D01*
D02*
G37*
G36*
X340343Y555620D02*
X337837D01*
X335415Y554971D01*
X333245Y553718D01*
X331472Y551945D01*
X330219Y549775D01*
X329570Y547353D01*
Y544847D01*
X330219Y542425D01*
X331472Y540255D01*
X333245Y538482D01*
X335415Y537229D01*
X337837Y536580D01*
X340343D01*
X342765Y537229D01*
X344935Y538482D01*
X346708Y540255D01*
X347961Y542425D01*
X348610Y544847D01*
Y547353D01*
X347961Y549775D01*
X346708Y551945D01*
X344935Y553718D01*
X342765Y554971D01*
X340343Y555620D01*
D02*
G37*
G36*
X287020Y544830D02*
X277694D01*
Y542100D01*
X277918Y540393D01*
X278577Y538802D01*
X279626Y537436D01*
X280992Y536387D01*
X282583Y535728D01*
X284290Y535504D01*
X287020D01*
Y544830D01*
D02*
G37*
G36*
X208244Y552930D02*
X205776D01*
X203393Y552291D01*
X201257Y551058D01*
X199512Y549313D01*
X198279Y547177D01*
X197640Y544794D01*
Y542326D01*
X198279Y539943D01*
X199512Y537807D01*
X201257Y536062D01*
X203393Y534828D01*
X205776Y534190D01*
X208244D01*
X210627Y534828D01*
X212763Y536062D01*
X214508Y537807D01*
X215742Y539943D01*
X216380Y542326D01*
Y544794D01*
X215742Y547177D01*
X214508Y549313D01*
X212763Y551058D01*
X210627Y552291D01*
X208244Y552930D01*
D02*
G37*
G36*
X124410Y518540D02*
X121970D01*
X119612Y517908D01*
X117498Y516688D01*
X115772Y514962D01*
X114552Y512848D01*
X113920Y510490D01*
Y508050D01*
X114552Y505692D01*
X115772Y503578D01*
X117498Y501852D01*
X119612Y500632D01*
X121970Y500000D01*
X124410D01*
X126768Y500632D01*
X128882Y501852D01*
X130608Y503578D01*
X131828Y505692D01*
X132460Y508050D01*
Y510490D01*
X131828Y512848D01*
X130608Y514962D01*
X128882Y516688D01*
X126768Y517908D01*
X124410Y518540D01*
D02*
G37*
G36*
X132460Y493140D02*
X113920D01*
Y474600D01*
X132460D01*
Y493140D01*
D02*
G37*
G36*
X101188Y472610D02*
X99472D01*
X97813Y472166D01*
X96327Y471307D01*
X95113Y470093D01*
X94254Y468607D01*
X93810Y466948D01*
Y465232D01*
X94086Y464201D01*
X38463Y408577D01*
X37795Y407578D01*
X37561Y406400D01*
Y391831D01*
X36637Y391297D01*
X35423Y390083D01*
X34564Y388597D01*
X34120Y386938D01*
Y385222D01*
X34564Y383563D01*
X35423Y382077D01*
X36637Y380863D01*
X38123Y380004D01*
X39782Y379560D01*
X41498D01*
X43157Y380004D01*
X44643Y380863D01*
X45857Y382077D01*
X46716Y383563D01*
X47160Y385222D01*
Y386938D01*
X46716Y388597D01*
X45857Y390083D01*
X44643Y391297D01*
X43719Y391831D01*
Y405125D01*
X98441Y459846D01*
X99472Y459570D01*
X101188D01*
X102847Y460014D01*
X104333Y460873D01*
X105547Y462087D01*
X106406Y463573D01*
X106850Y465232D01*
Y466948D01*
X106406Y468607D01*
X105547Y470093D01*
X104333Y471307D01*
X102847Y472166D01*
X101188Y472610D01*
D02*
G37*
G36*
X47848Y471340D02*
X46132D01*
X44473Y470896D01*
X42987Y470037D01*
X41773Y468823D01*
X40914Y467337D01*
X40470Y465678D01*
Y463962D01*
X40746Y462931D01*
X24125Y446309D01*
X18451D01*
X17917Y447233D01*
X16703Y448447D01*
X15217Y449306D01*
X13558Y449750D01*
X11842D01*
X10183Y449306D01*
X8697Y448447D01*
X7483Y447233D01*
X6624Y445747D01*
X6180Y444088D01*
Y442372D01*
X6624Y440713D01*
X7483Y439227D01*
X8697Y438013D01*
X10183Y437154D01*
X11842Y436710D01*
X13558D01*
X15217Y437154D01*
X16703Y438013D01*
X17917Y439227D01*
X18451Y440151D01*
X25400D01*
X26578Y440385D01*
X27577Y441053D01*
X45101Y458576D01*
X46132Y458300D01*
X47848D01*
X49507Y458744D01*
X50993Y459603D01*
X52207Y460817D01*
X53066Y462303D01*
X53510Y463962D01*
Y465678D01*
X53066Y467337D01*
X52207Y468823D01*
X50993Y470037D01*
X49507Y470896D01*
X47848Y471340D01*
D02*
G37*
G36*
X636270Y412006D02*
Y405810D01*
X642466D01*
X642026Y407450D01*
X641033Y409170D01*
X639630Y410574D01*
X637910Y411566D01*
X636270Y412006D01*
D02*
G37*
G36*
X642466Y403270D02*
X636270D01*
Y397074D01*
X637910Y397514D01*
X639630Y398507D01*
X641033Y399910D01*
X642026Y401630D01*
X642466Y403270D01*
D02*
G37*
G36*
X230728Y404030D02*
X229012D01*
X227353Y403586D01*
X225867Y402727D01*
X224653Y401513D01*
X224413Y401099D01*
X125730D01*
X124356Y400826D01*
X123192Y400048D01*
X49581Y326436D01*
X49118Y326560D01*
X47402D01*
X45743Y326116D01*
X44257Y325257D01*
X43043Y324043D01*
X42184Y322557D01*
X41740Y320898D01*
Y319182D01*
X42184Y317523D01*
X43043Y316037D01*
X44257Y314823D01*
X45743Y313964D01*
X47402Y313520D01*
X49118D01*
X50777Y313964D01*
X52263Y314823D01*
X53477Y316037D01*
X54336Y317523D01*
X54780Y319182D01*
Y320898D01*
X54656Y321361D01*
X127217Y393921D01*
X224413D01*
X224653Y393507D01*
X225867Y392293D01*
X227353Y391434D01*
X229012Y390990D01*
X230728D01*
X232387Y391434D01*
X233873Y392293D01*
X235087Y393507D01*
X235946Y394993D01*
X236390Y396652D01*
Y398368D01*
X235946Y400027D01*
X235087Y401513D01*
X233873Y402727D01*
X232387Y403586D01*
X230728Y404030D01*
D02*
G37*
G36*
X276824Y409420D02*
X274356D01*
X271973Y408782D01*
X269837Y407548D01*
X268092Y405803D01*
X266859Y403667D01*
X266220Y401284D01*
Y398816D01*
X266859Y396433D01*
X268092Y394297D01*
X269837Y392552D01*
X271973Y391319D01*
X274356Y390680D01*
X276824D01*
X279207Y391319D01*
X281343Y392552D01*
X283088Y394297D01*
X284321Y396433D01*
X284960Y398816D01*
Y401284D01*
X284321Y403667D01*
X283088Y405803D01*
X281343Y407548D01*
X279207Y408782D01*
X276824Y409420D01*
D02*
G37*
G36*
X604520Y392746D02*
X602880Y392306D01*
X601160Y391314D01*
X599757Y389910D01*
X598764Y388190D01*
X598324Y386550D01*
X604520D01*
Y392746D01*
D02*
G37*
G36*
X722476Y392430D02*
X716280D01*
Y386234D01*
X717920Y386674D01*
X719640Y387667D01*
X721043Y389070D01*
X722036Y390790D01*
X722476Y392430D01*
D02*
G37*
G36*
X713740D02*
X707544D01*
X707984Y390790D01*
X708977Y389070D01*
X710380Y387667D01*
X712100Y386674D01*
X713740Y386234D01*
Y392430D01*
D02*
G37*
G36*
X969010Y968029D02*
X685640D01*
X684071Y967717D01*
X682742Y966828D01*
X679813Y963899D01*
X678924Y962570D01*
X678612Y961001D01*
Y937809D01*
X678924Y936240D01*
X679813Y934911D01*
X745320Y869404D01*
Y867822D01*
X745764Y866163D01*
X746623Y864677D01*
X747837Y863463D01*
X749323Y862604D01*
X750982Y862160D01*
X752698D01*
X754357Y862604D01*
X755843Y863463D01*
X757057Y864677D01*
X757916Y866163D01*
X758360Y867822D01*
Y869538D01*
X757916Y871197D01*
X757057Y872683D01*
X755843Y873897D01*
X754357Y874756D01*
X752698Y875200D01*
X751116D01*
X686810Y939507D01*
Y959303D01*
X687338Y959831D01*
X693848D01*
X694255Y958311D01*
X693227Y957717D01*
X692013Y956503D01*
X691154Y955017D01*
X690710Y953358D01*
Y951642D01*
X691154Y949983D01*
X692013Y948497D01*
X693227Y947283D01*
X694713Y946424D01*
X696372Y945980D01*
X698088D01*
X699747Y946424D01*
X701233Y947283D01*
X702352Y948401D01*
X817991D01*
X819560Y948713D01*
X820785Y949532D01*
X933417D01*
X934549Y948011D01*
X934431Y947420D01*
Y627422D01*
X933313Y626303D01*
X932719Y625275D01*
X931199Y625682D01*
Y690880D01*
X930887Y692449D01*
X929998Y693778D01*
X902693Y721083D01*
X898060Y725716D01*
Y727298D01*
X897616Y728957D01*
X896757Y730443D01*
X895543Y731657D01*
X894057Y732516D01*
X892398Y732960D01*
X890682D01*
X889023Y732516D01*
X887537Y731657D01*
X886323Y730443D01*
X885464Y728957D01*
X885020Y727298D01*
Y725582D01*
X885464Y723923D01*
X886323Y722437D01*
X887537Y721223D01*
X889023Y720364D01*
X890682Y719920D01*
X892263D01*
X895696Y716487D01*
Y701826D01*
X865600Y671730D01*
X864080Y672359D01*
Y673064D01*
X863441Y675447D01*
X862208Y677583D01*
X860463Y679328D01*
X858327Y680562D01*
X855944Y681200D01*
X853476D01*
X851093Y680562D01*
X848957Y679328D01*
X847212Y677583D01*
X845978Y675447D01*
X845340Y673064D01*
Y670596D01*
X845978Y668213D01*
X847212Y666077D01*
X848957Y664332D01*
X851093Y663099D01*
X853476Y662460D01*
X854181D01*
X854810Y660940D01*
X850749Y656879D01*
X833162D01*
X832043Y657997D01*
X830557Y658856D01*
X828898Y659300D01*
X827182D01*
X825523Y658856D01*
X824037Y657997D01*
X822823Y656783D01*
X821964Y655297D01*
X821520Y653638D01*
Y651922D01*
X821964Y650263D01*
X822823Y648777D01*
X824037Y647563D01*
X825523Y646704D01*
X827182Y646260D01*
X828898D01*
X830557Y646704D01*
X832043Y647563D01*
X833162Y648681D01*
X852447D01*
X854015Y648993D01*
X855345Y649882D01*
X902693Y697230D01*
X903582Y698560D01*
X903894Y700128D01*
Y706304D01*
X905298Y706885D01*
X923001Y689182D01*
Y566462D01*
X921883Y565343D01*
X921024Y563857D01*
X920580Y562198D01*
Y560482D01*
X921024Y558823D01*
X921883Y557337D01*
X923097Y556123D01*
X924426Y555355D01*
X924770Y554677D01*
X925008Y553788D01*
X886392Y515172D01*
X885503Y515410D01*
X884825Y515754D01*
X884057Y517083D01*
X882843Y518297D01*
X881539Y519050D01*
Y608352D01*
X883059Y609115D01*
X883943Y608604D01*
X885602Y608160D01*
X887318D01*
X888977Y608604D01*
X890463Y609463D01*
X891677Y610677D01*
X892536Y612163D01*
X892725Y612871D01*
X898099D01*
X898967Y612003D01*
X900453Y611144D01*
X902112Y610700D01*
X903828D01*
X905487Y611144D01*
X906973Y612003D01*
X908187Y613217D01*
X909046Y614703D01*
X909490Y616362D01*
Y618078D01*
X909046Y619737D01*
X908187Y621223D01*
X906973Y622437D01*
X905487Y623296D01*
X903828Y623740D01*
X902112D01*
X900453Y623296D01*
X898967Y622437D01*
X897753Y621223D01*
X896894Y619737D01*
X896705Y619029D01*
X891331D01*
X890463Y619897D01*
X888977Y620756D01*
X887318Y621200D01*
X885602D01*
X883943Y620756D01*
X883059Y620245D01*
X881539Y621008D01*
Y633233D01*
X890628Y642322D01*
X891517Y643652D01*
X891829Y645220D01*
Y665438D01*
X892947Y666557D01*
X893806Y668043D01*
X894250Y669702D01*
Y671418D01*
X893806Y673077D01*
X892947Y674563D01*
X891733Y675777D01*
X890247Y676636D01*
X888588Y677080D01*
X886872D01*
X885213Y676636D01*
X883727Y675777D01*
X882513Y674563D01*
X881654Y673077D01*
X881210Y671418D01*
Y669702D01*
X881654Y668043D01*
X882513Y666557D01*
X883631Y665438D01*
Y646918D01*
X874542Y637829D01*
X873653Y636499D01*
X873341Y634930D01*
Y516596D01*
X872764Y515597D01*
X872320Y513938D01*
Y512222D01*
X872764Y510563D01*
X873281Y509669D01*
X872525Y508149D01*
X792563D01*
X744424Y556288D01*
X743260Y557066D01*
X741886Y557339D01*
X659113D01*
X658964Y558859D01*
X659588Y558983D01*
X660918Y559872D01*
X668567Y567520D01*
X670148D01*
X671807Y567964D01*
X673293Y568823D01*
X674507Y570037D01*
X675366Y571523D01*
X675810Y573182D01*
Y574898D01*
X675366Y576557D01*
X674507Y578043D01*
X673293Y579257D01*
X671807Y580116D01*
X670148Y580560D01*
X668432D01*
X666773Y580116D01*
X665287Y579257D01*
X664073Y578043D01*
X663214Y576557D01*
X662770Y574898D01*
Y573316D01*
X660570Y571116D01*
X659050Y571746D01*
Y572783D01*
X658536Y574700D01*
X657543Y576420D01*
X656140Y577823D01*
X655224Y578352D01*
Y580679D01*
X655690Y580804D01*
X657410Y581796D01*
X658813Y583200D01*
X659806Y584920D01*
X660246Y586560D01*
X645314D01*
X645754Y584920D01*
X646747Y583200D01*
X648150Y581796D01*
X649066Y581268D01*
Y578941D01*
X648600Y578816D01*
X646880Y577823D01*
X645477Y576420D01*
X644484Y574700D01*
X644044Y573060D01*
X651510D01*
Y570520D01*
X644044D01*
X644484Y568880D01*
X644767Y568389D01*
X643890Y566869D01*
X636943D01*
X629413Y574398D01*
X628083Y575287D01*
X626515Y575599D01*
X542346D01*
X540778Y575287D01*
X540170Y574881D01*
X539870Y574884D01*
X538515Y575482D01*
X538484Y575519D01*
X538206Y576557D01*
X537347Y578043D01*
X536133Y579257D01*
X534647Y580116D01*
X532988Y580560D01*
X531272D01*
X529613Y580116D01*
X528127Y579257D01*
X526913Y578043D01*
X526244Y576885D01*
X521357D01*
X520870Y577372D01*
Y578708D01*
X520426Y580367D01*
X519567Y581853D01*
X518353Y583067D01*
X516867Y583926D01*
X515208Y584370D01*
X513492D01*
X511833Y583926D01*
X510347Y583067D01*
X509133Y581853D01*
X508274Y580367D01*
X507830Y578708D01*
Y576992D01*
X508274Y575333D01*
X509133Y573847D01*
X510347Y572633D01*
X511833Y571774D01*
X513492Y571330D01*
X515208D01*
X516867Y571774D01*
X517852Y572343D01*
X518167Y572029D01*
X519090Y571412D01*
X520179Y571195D01*
X526244D01*
X526913Y570037D01*
X528127Y568823D01*
X529613Y567964D01*
X530600Y567700D01*
X531135Y566086D01*
X525518Y560469D01*
X414130D01*
X412561Y560157D01*
X411232Y559268D01*
X314991Y463027D01*
X314102Y461698D01*
X313790Y460129D01*
Y423791D01*
X314102Y422223D01*
X314991Y420893D01*
X326501Y409383D01*
X327830Y408494D01*
X329399Y408182D01*
X340793D01*
X341375Y406778D01*
X339639Y405043D01*
X338678Y405300D01*
X336962D01*
X335303Y404856D01*
X333817Y403997D01*
X332603Y402783D01*
X331744Y401297D01*
X331300Y399638D01*
Y397922D01*
X331744Y396263D01*
X332603Y394777D01*
X333817Y393563D01*
X335303Y392704D01*
X336962Y392260D01*
X338678D01*
X340337Y392704D01*
X341823Y393563D01*
X343037Y394777D01*
X343896Y396263D01*
X344340Y397922D01*
Y398150D01*
X347852Y401662D01*
X352477D01*
X354046Y401974D01*
X355376Y402863D01*
X368788Y416275D01*
X369677Y417605D01*
X369989Y419174D01*
Y445936D01*
X369677Y447505D01*
X368788Y448835D01*
X366438Y451185D01*
Y465814D01*
X367958Y466221D01*
X368422Y465417D01*
X370167Y463672D01*
X372303Y462439D01*
X374686Y461800D01*
X377154D01*
X379537Y462439D01*
X380019Y462717D01*
X408128Y434607D01*
X409127Y433940D01*
X410306Y433705D01*
X485279D01*
X508604Y410381D01*
X508149Y408686D01*
X507580Y408533D01*
X505860Y407540D01*
X504457Y406137D01*
X503464Y404417D01*
X503024Y402777D01*
X510490D01*
Y401507D01*
X511760D01*
Y394041D01*
X513400Y394481D01*
X515120Y395473D01*
X516524Y396877D01*
X517516Y398596D01*
X517669Y399166D01*
X519364Y399620D01*
X526002Y392982D01*
X525643Y392623D01*
X524784Y391137D01*
X524340Y389478D01*
Y387762D01*
X524784Y386103D01*
X525643Y384617D01*
X526857Y383403D01*
X528343Y382544D01*
X530002Y382100D01*
X531718D01*
X533377Y382544D01*
X534863Y383403D01*
X536077Y384617D01*
X536936Y386103D01*
X537380Y387762D01*
Y389478D01*
X536936Y391137D01*
X536077Y392623D01*
X534863Y393837D01*
X533377Y394696D01*
X532372Y394965D01*
X532365Y394997D01*
X531698Y395996D01*
X488732Y438962D01*
X487733Y439629D01*
X486555Y439864D01*
X411581D01*
X384373Y467071D01*
X384651Y467553D01*
X385290Y469936D01*
Y472404D01*
X384651Y474787D01*
X383418Y476923D01*
X381673Y478668D01*
X379537Y479902D01*
X377154Y480540D01*
X376450D01*
X375820Y482060D01*
X379604Y485844D01*
X477092D01*
X506535Y456402D01*
X507865Y455513D01*
X509433Y455201D01*
X632381D01*
X632793Y454479D01*
X632940Y453681D01*
X523103Y343845D01*
X521699Y344427D01*
Y362760D01*
X521465Y363938D01*
X520797Y364937D01*
X511267Y374468D01*
X511656Y375920D01*
X504190D01*
Y377190D01*
X502920D01*
Y384656D01*
X501280Y384216D01*
X499560Y383223D01*
X498460Y382123D01*
X497280Y382342D01*
X496858Y382594D01*
X496743Y383405D01*
X507768Y394430D01*
X509220Y394041D01*
Y400237D01*
X503024D01*
X503414Y398785D01*
X491223Y386594D01*
X490555Y385595D01*
X490321Y384417D01*
Y362753D01*
X489400Y362506D01*
X487680Y361513D01*
X486277Y360110D01*
X485284Y358390D01*
X484844Y356750D01*
X492310D01*
Y354210D01*
X484844D01*
X485284Y352570D01*
X486277Y350850D01*
X487680Y349446D01*
X488452Y349001D01*
X488045Y347481D01*
X418153D01*
X416974Y347247D01*
X415976Y346579D01*
X415376Y345979D01*
X327665D01*
X318664Y354981D01*
X318940Y356012D01*
Y357728D01*
X318496Y359387D01*
X317637Y360873D01*
X316423Y362087D01*
X314937Y362946D01*
X313278Y363390D01*
X311562D01*
X309903Y362946D01*
X308417Y362087D01*
X307203Y360873D01*
X306344Y359387D01*
X305900Y357728D01*
Y356012D01*
X306344Y354353D01*
X307203Y352867D01*
X308417Y351653D01*
X309903Y350794D01*
X311562Y350350D01*
X313278D01*
X314309Y350626D01*
X324213Y340723D01*
X325212Y340055D01*
X326390Y339821D01*
X416651D01*
X417829Y340055D01*
X418828Y340723D01*
X419428Y341323D01*
X501786D01*
X501812Y341259D01*
X502037Y339803D01*
X500620Y338984D01*
X499216Y337580D01*
X498223Y335861D01*
X497784Y334221D01*
X505249D01*
Y331681D01*
X497784D01*
X498002Y330865D01*
X496733Y329885D01*
X495555Y330119D01*
X482321D01*
X481143Y329885D01*
X480144Y329217D01*
X479126Y328199D01*
X466761D01*
X466227Y329123D01*
X465013Y330337D01*
X463527Y331196D01*
X461868Y331640D01*
X460152D01*
X458493Y331196D01*
X457007Y330337D01*
X455793Y329123D01*
X454934Y327637D01*
X454490Y325978D01*
Y324262D01*
X454934Y322603D01*
X455793Y321117D01*
X457007Y319903D01*
X458493Y319044D01*
X460152Y318600D01*
X461868D01*
X463527Y319044D01*
X465013Y319903D01*
X466227Y321117D01*
X466761Y322041D01*
X480401D01*
X481580Y322275D01*
X482578Y322943D01*
X483596Y323961D01*
X485930D01*
X486679Y322441D01*
X486157Y321537D01*
X485713Y319878D01*
Y318162D01*
X486157Y316503D01*
X487016Y315017D01*
X488229Y313803D01*
X489716Y312944D01*
X491375Y312500D01*
X492221D01*
Y308011D01*
X491297Y307477D01*
X490083Y306263D01*
X489224Y304777D01*
X488780Y303118D01*
Y301402D01*
X489224Y299743D01*
X490083Y298257D01*
X491297Y297043D01*
X492783Y296184D01*
X494442Y295740D01*
X496158D01*
X497817Y296184D01*
X499303Y297043D01*
X500517Y298257D01*
X501376Y299743D01*
X501820Y301402D01*
Y303118D01*
X501376Y304777D01*
X500517Y306263D01*
X499303Y307477D01*
X498379Y308011D01*
Y314059D01*
X498145Y315237D01*
X497840Y315693D01*
X498309Y316503D01*
X498491Y317186D01*
X499884Y317200D01*
X500060Y317168D01*
X500927Y315872D01*
X502256Y314983D01*
X503825Y314671D01*
X505393Y314983D01*
X506723Y315872D01*
X637733Y446881D01*
X695583D01*
X696164Y445477D01*
X676426Y425739D01*
X627380D01*
X625811Y425427D01*
X624482Y424538D01*
X607784Y407840D01*
X606202D01*
X604543Y407396D01*
X603057Y406537D01*
X601843Y405323D01*
X600984Y403837D01*
X600540Y402178D01*
Y400462D01*
X600984Y398803D01*
X601843Y397317D01*
X603057Y396103D01*
X604543Y395244D01*
X606202Y394800D01*
X607918D01*
X609577Y395244D01*
X611063Y396103D01*
X611395Y396434D01*
X612146Y396245D01*
X612871Y395760D01*
Y391998D01*
X611323D01*
X610145Y391764D01*
X609911Y391607D01*
X608700Y392306D01*
X607060Y392746D01*
Y385280D01*
Y377814D01*
X608700Y378254D01*
X610420Y379246D01*
X611824Y380650D01*
X612816Y382370D01*
X613330Y384287D01*
Y385840D01*
X614193D01*
X615371Y386074D01*
X616370Y386742D01*
X618127Y388499D01*
X618795Y389498D01*
X619029Y390676D01*
Y394787D01*
X625703Y401461D01*
X628071D01*
X628966Y399910D01*
X630370Y398507D01*
X632090Y397514D01*
X633730Y397074D01*
Y404540D01*
Y412006D01*
X632090Y411566D01*
X630370Y410574D01*
X628966Y409170D01*
X628071Y407619D01*
X624427D01*
X623249Y407385D01*
X622250Y406717D01*
X614846Y399313D01*
X613483Y400100D01*
X613580Y400462D01*
Y402043D01*
X629078Y417541D01*
X678124D01*
X679692Y417853D01*
X681022Y418742D01*
X702332Y440051D01*
X704027Y439597D01*
X704174Y439050D01*
X705166Y437330D01*
X706570Y435927D01*
X708121Y435031D01*
Y420405D01*
X708355Y419226D01*
X709023Y418227D01*
X711931Y415319D01*
Y400629D01*
X710380Y399734D01*
X708977Y398330D01*
X707984Y396610D01*
X707544Y394970D01*
X722476D01*
X722036Y396610D01*
X721043Y398330D01*
X719640Y399734D01*
X718089Y400629D01*
Y416595D01*
X717855Y417773D01*
X717187Y418772D01*
X714279Y421680D01*
Y435031D01*
X715830Y435927D01*
X717234Y437330D01*
X718226Y439050D01*
X718666Y440690D01*
X711200D01*
Y443230D01*
X718666D01*
X718226Y444870D01*
X717943Y445361D01*
X718820Y446881D01*
X856110D01*
X857679Y447193D01*
X859008Y448082D01*
X888277Y477350D01*
X889858D01*
X891517Y477794D01*
X893003Y478653D01*
X894217Y479867D01*
X895076Y481353D01*
X895520Y483012D01*
Y484728D01*
X895076Y486387D01*
X894217Y487873D01*
X893003Y489087D01*
X891517Y489946D01*
X889858Y490390D01*
X888142D01*
X886483Y489946D01*
X884997Y489087D01*
X883783Y487873D01*
X882924Y486387D01*
X882480Y484728D01*
Y483147D01*
X854412Y455079D01*
X847671D01*
X847090Y456483D01*
X885094Y494487D01*
X886431Y494753D01*
X887761Y495642D01*
X896278Y504159D01*
X897167Y505489D01*
X897433Y506826D01*
X933354Y542747D01*
X934691Y543013D01*
X936021Y543902D01*
X944538Y552419D01*
X945427Y553749D01*
X945693Y555086D01*
X949421Y558815D01*
X951266Y558320D01*
X953734D01*
X956117Y558959D01*
X958253Y560192D01*
X959998Y561937D01*
X961232Y564073D01*
X961870Y566456D01*
Y568924D01*
X961232Y571307D01*
X959998Y573443D01*
X958253Y575188D01*
X956117Y576422D01*
X953734Y577060D01*
X951266D01*
X948883Y576422D01*
X946747Y575188D01*
X945002Y573443D01*
X943768Y571307D01*
X943130Y568924D01*
Y566456D01*
X943624Y564611D01*
X940613Y561600D01*
X939209Y562182D01*
Y601393D01*
X955209Y617393D01*
X955233Y617379D01*
X957616Y616740D01*
X960084D01*
X962467Y617379D01*
X964603Y618612D01*
X966348Y620357D01*
X967581Y622493D01*
X968220Y624876D01*
Y627344D01*
X967581Y629727D01*
X966348Y631863D01*
X964603Y633608D01*
X962467Y634841D01*
X960084Y635480D01*
X957616D01*
X955233Y634841D01*
X953097Y633608D01*
X951352Y631863D01*
X950118Y629727D01*
X949480Y627344D01*
Y624876D01*
X950118Y622493D01*
X950133Y622468D01*
X933082Y605418D01*
X932719Y604874D01*
X931199Y605335D01*
Y618918D01*
X932719Y619325D01*
X933313Y618297D01*
X934527Y617083D01*
X936013Y616224D01*
X937672Y615780D01*
X939388D01*
X941047Y616224D01*
X942533Y617083D01*
X943747Y618297D01*
X944606Y619783D01*
X945050Y621442D01*
Y623158D01*
X944606Y624817D01*
X943747Y626303D01*
X942629Y627422D01*
Y945722D01*
X943247Y946341D01*
X944136Y947670D01*
X944448Y949239D01*
Y951811D01*
X944136Y953380D01*
X943247Y954710D01*
X941428Y956529D01*
X940099Y957417D01*
X938530Y957729D01*
X819122D01*
X817553Y957417D01*
X816328Y956599D01*
X702352D01*
X701233Y957717D01*
X700205Y958311D01*
X700612Y959831D01*
X967312D01*
X975071Y952072D01*
Y389048D01*
X966042Y380019D01*
X656632D01*
X655513Y381137D01*
X654027Y381996D01*
X652368Y382440D01*
X650652D01*
X648993Y381996D01*
X647507Y381137D01*
X646293Y379923D01*
X645434Y378437D01*
X644990Y376778D01*
Y375062D01*
X645434Y373403D01*
X646293Y371917D01*
X647507Y370703D01*
X648993Y369844D01*
X650652Y369400D01*
X652368D01*
X654027Y369844D01*
X655513Y370703D01*
X656632Y371821D01*
X967740D01*
X969309Y372133D01*
X970638Y373022D01*
X982068Y384452D01*
X982957Y385781D01*
X983269Y387350D01*
Y953770D01*
X982957Y955339D01*
X982068Y956668D01*
X971908Y966828D01*
X970579Y967717D01*
X969010Y968029D01*
D02*
G37*
G36*
X505460Y384656D02*
Y378460D01*
X511656D01*
X511216Y380100D01*
X510224Y381820D01*
X508820Y383223D01*
X507100Y384216D01*
X505460Y384656D01*
D02*
G37*
G36*
X604520Y384010D02*
X598324D01*
X598764Y382370D01*
X599757Y380650D01*
X601160Y379246D01*
X602880Y378254D01*
X604520Y377814D01*
Y384010D01*
D02*
G37*
G36*
X608330Y375766D02*
Y369570D01*
X614526D01*
X614086Y371210D01*
X613093Y372930D01*
X611690Y374333D01*
X609970Y375326D01*
X608330Y375766D01*
D02*
G37*
G36*
X605790D02*
X604150Y375326D01*
X602430Y374333D01*
X601026Y372930D01*
X600034Y371210D01*
X599594Y369570D01*
X605790D01*
Y375766D01*
D02*
G37*
G36*
X614526Y367030D02*
X599594D01*
X600034Y365390D01*
X601026Y363670D01*
X602430Y362267D01*
X603981Y361371D01*
Y354669D01*
X602430Y353773D01*
X601026Y352370D01*
X600034Y350650D01*
X599594Y349010D01*
X614526D01*
X614086Y350650D01*
X613093Y352370D01*
X611690Y353773D01*
X610139Y354669D01*
Y361371D01*
X611690Y362267D01*
X613093Y363670D01*
X614086Y365390D01*
X614526Y367030D01*
D02*
G37*
G36*
Y346470D02*
X608330D01*
Y340274D01*
X609970Y340714D01*
X611690Y341706D01*
X613093Y343110D01*
X614086Y344830D01*
X614526Y346470D01*
D02*
G37*
G36*
X605790D02*
X599594D01*
X600034Y344830D01*
X601026Y343110D01*
X602430Y341706D01*
X604150Y340714D01*
X605790Y340274D01*
Y346470D01*
D02*
G37*
G36*
X284444Y337030D02*
X281976D01*
X279593Y336391D01*
X277457Y335158D01*
X275712Y333413D01*
X274478Y331277D01*
X273840Y328894D01*
Y326426D01*
X274478Y324043D01*
X275712Y321907D01*
X277457Y320162D01*
X279593Y318929D01*
X281976Y318290D01*
X284444D01*
X286827Y318929D01*
X288963Y320162D01*
X290708Y321907D01*
X291942Y324043D01*
X292580Y326426D01*
Y328894D01*
X291942Y331277D01*
X290708Y333413D01*
X288963Y335158D01*
X286827Y336391D01*
X284444Y337030D01*
D02*
G37*
G36*
X847338Y338450D02*
X845820D01*
Y297180D01*
X887090D01*
Y298698D01*
X886362Y304227D01*
X884919Y309613D01*
X882785Y314765D01*
X879997Y319595D01*
X876602Y324019D01*
X872659Y327962D01*
X868235Y331357D01*
X863405Y334145D01*
X858253Y336279D01*
X852867Y337722D01*
X847338Y338450D01*
D02*
G37*
G36*
X843280D02*
X841762D01*
X836233Y337722D01*
X830847Y336279D01*
X825695Y334145D01*
X820865Y331357D01*
X816441Y327962D01*
X812498Y324019D01*
X809103Y319595D01*
X806315Y314765D01*
X804181Y309613D01*
X802738Y304227D01*
X802010Y298698D01*
Y297180D01*
X843280D01*
Y338450D01*
D02*
G37*
G36*
X400908Y302430D02*
X399192D01*
X397533Y301986D01*
X396047Y301127D01*
X394833Y299913D01*
X394164Y298755D01*
X386159D01*
X385070Y298538D01*
X384147Y297922D01*
X381170Y294945D01*
X372916D01*
X372247Y296103D01*
X371033Y297317D01*
X369547Y298176D01*
X367888Y298620D01*
X366172D01*
X364513Y298176D01*
X363027Y297317D01*
X361813Y296103D01*
X360954Y294617D01*
X360510Y292958D01*
Y291242D01*
X360954Y289583D01*
X361813Y288097D01*
X363027Y286883D01*
X364513Y286024D01*
X366172Y285580D01*
X367888D01*
X369547Y286024D01*
X371033Y286883D01*
X372247Y288097D01*
X372916Y289255D01*
X382349D01*
X383437Y289472D01*
X384360Y290089D01*
X387337Y293065D01*
X394164D01*
X394833Y291907D01*
X396047Y290693D01*
X397533Y289834D01*
X399192Y289390D01*
X400908D01*
X402567Y289834D01*
X404053Y290693D01*
X405267Y291907D01*
X406126Y293393D01*
X406570Y295052D01*
Y296768D01*
X406126Y298427D01*
X405267Y299913D01*
X404053Y301127D01*
X402567Y301986D01*
X400908Y302430D01*
D02*
G37*
G36*
X514490Y300288D02*
X512773D01*
X511115Y299844D01*
X509628Y298986D01*
X508414Y297772D01*
X507556Y296285D01*
X507347Y295508D01*
X505866D01*
X504688Y295274D01*
X503689Y294606D01*
X501060Y291977D01*
X499968Y292270D01*
X498252D01*
X496593Y291826D01*
X495107Y290967D01*
X493893Y289753D01*
X493034Y288267D01*
X492590Y286608D01*
Y284892D01*
X493034Y283233D01*
X493893Y281747D01*
X495107Y280533D01*
X496593Y279674D01*
X497603Y279404D01*
X498149Y277800D01*
X483018Y262669D01*
X477520D01*
X476147Y262396D01*
X474982Y261618D01*
X474982Y261618D01*
X432950Y219586D01*
X432172Y218421D01*
X431899Y217048D01*
Y183896D01*
X431823Y183876D01*
X430337Y183017D01*
X429123Y181803D01*
X428264Y180317D01*
X427820Y178658D01*
Y176942D01*
X428264Y175283D01*
X429123Y173797D01*
X430337Y172583D01*
X431823Y171724D01*
X433482Y171280D01*
X435198D01*
X436229Y171556D01*
X444467Y163319D01*
X443572Y162064D01*
X442742Y162229D01*
X440920D01*
X435872Y167277D01*
X434873Y167945D01*
X433694Y168179D01*
X429931D01*
X429397Y169103D01*
X428183Y170317D01*
X426697Y171176D01*
X425038Y171620D01*
X423322D01*
X421663Y171176D01*
X420177Y170317D01*
X419762Y169903D01*
X418020Y170311D01*
X417870Y170756D01*
X418572Y171457D01*
X419188Y172380D01*
X419405Y173469D01*
Y192234D01*
X420563Y192903D01*
X421777Y194117D01*
X422636Y195603D01*
X423080Y197262D01*
Y198978D01*
X422636Y200637D01*
X421777Y202123D01*
X420563Y203337D01*
X419077Y204196D01*
X417418Y204640D01*
X415702D01*
X414043Y204196D01*
X412557Y203337D01*
X411343Y202123D01*
X410484Y200637D01*
X410040Y198978D01*
Y197262D01*
X410484Y195603D01*
X411343Y194117D01*
X412557Y192903D01*
X413715Y192234D01*
Y174647D01*
X411958Y172890D01*
X410622D01*
X408963Y172446D01*
X407477Y171587D01*
X406263Y170373D01*
X405404Y168887D01*
X404960Y167228D01*
Y165512D01*
X405404Y163853D01*
X406263Y162367D01*
X407477Y161153D01*
X408963Y160294D01*
X410622Y159850D01*
X412338D01*
X413997Y160294D01*
X415483Y161153D01*
X416612Y162281D01*
X416986Y162357D01*
X418341Y162174D01*
X418963Y161097D01*
X420177Y159883D01*
X421663Y159024D01*
X423322Y158580D01*
X425038D01*
X426697Y159024D01*
X428183Y159883D01*
X429397Y161097D01*
X429931Y162021D01*
X432419D01*
X436000Y158439D01*
X435750Y156540D01*
X435417Y156347D01*
X434203Y155133D01*
X433344Y153647D01*
X432900Y151988D01*
Y150272D01*
X433028Y149796D01*
X406739Y123507D01*
X406377Y123716D01*
X404718Y124160D01*
X403002D01*
X401343Y123716D01*
X399857Y122857D01*
X398643Y121643D01*
X397784Y120157D01*
X397340Y118498D01*
Y116782D01*
X397453Y116359D01*
X396287Y114839D01*
X391160D01*
X389982Y114605D01*
X388983Y113937D01*
X383722Y108677D01*
X382270Y109066D01*
Y102870D01*
X388466D01*
X388077Y104322D01*
X392435Y108681D01*
X396323D01*
X397561Y107443D01*
X398560Y106775D01*
X399738Y106541D01*
X400098D01*
X400846Y105021D01*
X400324Y104117D01*
X399880Y102458D01*
Y100742D01*
X400324Y99083D01*
X401183Y97597D01*
X402397Y96383D01*
X403555Y95714D01*
Y21590D01*
X403772Y20501D01*
X404389Y19578D01*
X408416Y15551D01*
X409339Y14934D01*
X410428Y14717D01*
X433328D01*
X434417Y14934D01*
X435340Y15551D01*
X438705Y18915D01*
X450904D01*
X451649Y17395D01*
X451124Y16487D01*
X450680Y14828D01*
Y13112D01*
X451124Y11453D01*
X451983Y9967D01*
X453197Y8753D01*
X454683Y7894D01*
X456342Y7450D01*
X458058D01*
X459351Y7796D01*
X462808Y4338D01*
X463731Y3722D01*
X464820Y3505D01*
X595412D01*
X596501Y3722D01*
X597424Y4338D01*
X610512Y17427D01*
X611128Y18349D01*
X611345Y19438D01*
Y30005D01*
X612827D01*
X613915Y30222D01*
X614838Y30838D01*
X619402Y35402D01*
X620018Y36325D01*
X620235Y37413D01*
Y42688D01*
X621262Y43716D01*
X622238Y43910D01*
X623015Y44430D01*
X623945Y44201D01*
X624535Y43957D01*
Y30016D01*
X623377Y29347D01*
X622163Y28133D01*
X621304Y26647D01*
X620860Y24988D01*
Y23272D01*
X621304Y21613D01*
X622163Y20127D01*
X623377Y18913D01*
X624863Y18054D01*
X626522Y17610D01*
X628238D01*
X629897Y18054D01*
X631383Y18913D01*
X632597Y20127D01*
X633456Y21613D01*
X633900Y23272D01*
Y24988D01*
X633456Y26647D01*
X632597Y28133D01*
X631383Y29347D01*
X630225Y30016D01*
Y45849D01*
X644032Y59656D01*
X644648Y60579D01*
X644865Y61667D01*
Y129184D01*
X644648Y130273D01*
X644032Y131196D01*
X599745Y175483D01*
Y237954D01*
X600903Y238623D01*
X602117Y239837D01*
X602976Y241323D01*
X603420Y242982D01*
Y244698D01*
X602976Y246357D01*
X602117Y247843D01*
X600903Y249057D01*
X599417Y249916D01*
X597758Y250360D01*
X596042D01*
X594383Y249916D01*
X592897Y249057D01*
X591683Y247843D01*
X590824Y246357D01*
X590380Y244698D01*
Y242982D01*
X590824Y241323D01*
X591683Y239837D01*
X592897Y238623D01*
X594055Y237954D01*
Y174304D01*
X594272Y173216D01*
X594888Y172293D01*
X639175Y128006D01*
Y103682D01*
X637771Y103100D01*
X633030Y107842D01*
X632107Y108458D01*
X631018Y108675D01*
X584066D01*
X582977Y108458D01*
X582054Y107842D01*
X554357Y80145D01*
X518106D01*
X517361Y81665D01*
X517886Y82573D01*
X518330Y84232D01*
Y85948D01*
X517886Y87607D01*
X517027Y89093D01*
X515813Y90307D01*
X514889Y90841D01*
Y113030D01*
X514655Y114208D01*
X513987Y115207D01*
X502814Y126381D01*
X503090Y127412D01*
Y129128D01*
X502646Y130787D01*
X501787Y132273D01*
X500573Y133487D01*
X499087Y134346D01*
X497428Y134790D01*
X495712D01*
X494681Y134514D01*
X483507Y145687D01*
X483099Y145960D01*
X482966Y147638D01*
X482995Y147719D01*
X483180Y147843D01*
X492397Y157060D01*
X493065Y158059D01*
X493299Y159237D01*
Y183479D01*
X494223Y184013D01*
X495437Y185227D01*
X496296Y186713D01*
X496740Y188372D01*
Y190088D01*
X496296Y191747D01*
X495437Y193233D01*
X494223Y194447D01*
X492737Y195306D01*
X491226Y195711D01*
X490946Y196206D01*
X490636Y197270D01*
X496633Y203267D01*
X505306D01*
X506679Y203540D01*
X507844Y204318D01*
X538429Y234904D01*
X538892Y234780D01*
X540608D01*
X542267Y235224D01*
X543753Y236083D01*
X544967Y237297D01*
X545826Y238783D01*
X546270Y240442D01*
Y242158D01*
X545826Y243817D01*
X544967Y245303D01*
X543753Y246517D01*
X542267Y247376D01*
X540608Y247820D01*
X538892D01*
X537233Y247376D01*
X535747Y246517D01*
X535627Y246398D01*
X533727Y246648D01*
X533563Y246933D01*
X532349Y248146D01*
X530862Y249005D01*
X529204Y249449D01*
X527487D01*
X525829Y249005D01*
X524342Y248146D01*
X523128Y246933D01*
X522270Y245446D01*
X521826Y243787D01*
Y243122D01*
X521813Y243109D01*
X499781D01*
X499247Y244033D01*
X498033Y245247D01*
X496547Y246106D01*
X494888Y246550D01*
X493172D01*
X491513Y246106D01*
X490027Y245247D01*
X488813Y244033D01*
X487954Y242547D01*
X487510Y240888D01*
Y239172D01*
X487954Y237513D01*
X488813Y236027D01*
X490027Y234813D01*
X491513Y233954D01*
X493172Y233510D01*
X494888D01*
X496547Y233954D01*
X498033Y234813D01*
X499247Y236027D01*
X499781Y236951D01*
X523088D01*
X524267Y237185D01*
X524725Y237491D01*
X525829Y236854D01*
X527487Y236409D01*
X527634D01*
X528264Y234889D01*
X503819Y210445D01*
X495146D01*
X495146Y210445D01*
X493773Y210172D01*
X492608Y209394D01*
X464055Y180840D01*
X463277Y179676D01*
X463003Y178302D01*
Y174193D01*
X460831Y172020D01*
X460152D01*
X458493Y171576D01*
X457007Y170717D01*
X455793Y169503D01*
X454934Y168017D01*
X454490Y166358D01*
Y164642D01*
X454668Y163976D01*
X453306Y163189D01*
X440584Y175911D01*
X440860Y176942D01*
Y178658D01*
X440416Y180317D01*
X439557Y181803D01*
X439077Y182284D01*
Y215561D01*
X479007Y255491D01*
X484505D01*
X485878Y255764D01*
X487043Y256542D01*
X511392Y280891D01*
X526673D01*
X526913Y280477D01*
X528127Y279263D01*
X529613Y278404D01*
X531272Y277960D01*
X532988D01*
X534647Y278404D01*
X536133Y279263D01*
X537347Y280477D01*
X538206Y281963D01*
X538650Y283622D01*
Y285338D01*
X538206Y286997D01*
X537347Y288483D01*
X536133Y289697D01*
X534647Y290556D01*
X532988Y291000D01*
X531272D01*
X529613Y290556D01*
X528127Y289697D01*
X526913Y288483D01*
X526673Y288069D01*
X519302D01*
X518673Y289589D01*
X518849Y289765D01*
X519707Y291252D01*
X520151Y292910D01*
Y294627D01*
X519707Y296285D01*
X518849Y297772D01*
X517635Y298986D01*
X516148Y299844D01*
X514490Y300288D01*
D02*
G37*
G36*
X610870Y297026D02*
Y290830D01*
X617066D01*
X616626Y292470D01*
X615634Y294190D01*
X614230Y295593D01*
X612510Y296586D01*
X610870Y297026D01*
D02*
G37*
G36*
X608330D02*
X606690Y296586D01*
X604970Y295593D01*
X603567Y294190D01*
X602574Y292470D01*
X602134Y290830D01*
X608330D01*
Y297026D01*
D02*
G37*
G36*
X617066Y288290D02*
X602134D01*
X602574Y286650D01*
X603567Y284930D01*
X604970Y283526D01*
X606521Y282631D01*
Y279979D01*
X604970Y279083D01*
X603651Y277764D01*
X603260Y277752D01*
X602050Y278093D01*
X601706Y279377D01*
X600847Y280863D01*
X599633Y282077D01*
X598147Y282936D01*
X596488Y283380D01*
X594772D01*
X593113Y282936D01*
X591627Y282077D01*
X590413Y280863D01*
X589554Y279377D01*
X589110Y277718D01*
Y276002D01*
X589554Y274343D01*
X590413Y272857D01*
X591627Y271643D01*
X593113Y270784D01*
X593890Y270576D01*
Y267989D01*
X594125Y266810D01*
X594792Y265811D01*
X613384Y247219D01*
X613108Y246189D01*
Y244472D01*
X613552Y242814D01*
X614411Y241327D01*
X615624Y240113D01*
X617111Y239254D01*
X618769Y238810D01*
X620486D01*
X622144Y239254D01*
X623631Y240113D01*
X624845Y241327D01*
X625704Y242814D01*
X626148Y244472D01*
Y246189D01*
X625704Y247847D01*
X624845Y249334D01*
X623631Y250548D01*
X622144Y251406D01*
X620486Y251850D01*
X618769D01*
X617739Y251574D01*
X600048Y269264D01*
Y271146D01*
X600611Y271593D01*
X602337Y271024D01*
X602574Y270140D01*
X603567Y268420D01*
X604970Y267017D01*
X606690Y266024D01*
X608330Y265584D01*
Y273050D01*
X609600D01*
Y274320D01*
X617066D01*
X616626Y275960D01*
X615634Y277680D01*
X614230Y279083D01*
X612679Y279979D01*
Y282631D01*
X614230Y283526D01*
X615634Y284930D01*
X616626Y286650D01*
X617066Y288290D01*
D02*
G37*
G36*
Y271780D02*
X610870D01*
Y265584D01*
X612510Y266024D01*
X614230Y267017D01*
X615634Y268420D01*
X616626Y270140D01*
X617066Y271780D01*
D02*
G37*
G36*
X887090Y294640D02*
X845820D01*
Y253370D01*
X847338D01*
X852867Y254098D01*
X858253Y255541D01*
X863405Y257675D01*
X868235Y260463D01*
X872659Y263858D01*
X876602Y267801D01*
X879997Y272225D01*
X882785Y277055D01*
X884919Y282207D01*
X886362Y287593D01*
X887090Y293122D01*
Y294640D01*
D02*
G37*
G36*
X843280D02*
X802010D01*
Y293122D01*
X802738Y287593D01*
X804181Y282207D01*
X806315Y277055D01*
X809103Y272225D01*
X812498Y267801D01*
X816441Y263858D01*
X820865Y260463D01*
X825695Y257675D01*
X830847Y255541D01*
X836233Y254098D01*
X841762Y253370D01*
X843280D01*
Y294640D01*
D02*
G37*
G36*
X675228Y280840D02*
X673512D01*
X671853Y280396D01*
X670367Y279537D01*
X669153Y278323D01*
X668294Y276837D01*
X667850Y275178D01*
Y273462D01*
X668196Y272169D01*
X638772Y242745D01*
X637252Y243374D01*
Y256370D01*
X638398D01*
X640057Y256814D01*
X641543Y257673D01*
X642757Y258887D01*
X643616Y260373D01*
X644060Y262032D01*
Y263748D01*
X643616Y265407D01*
X642757Y266893D01*
X641543Y268107D01*
X640057Y268966D01*
X638398Y269410D01*
X636682D01*
X635023Y268966D01*
X633537Y268107D01*
X632323Y266893D01*
X631464Y265407D01*
X631020Y263748D01*
Y262032D01*
X631464Y260373D01*
X632089Y259291D01*
X631779Y258827D01*
X631562Y257738D01*
Y202232D01*
X631779Y201143D01*
X631998Y200815D01*
Y200529D01*
X631053Y199583D01*
X630194Y198097D01*
X629750Y196438D01*
Y194722D01*
X630194Y193063D01*
X631053Y191577D01*
X632267Y190363D01*
X633753Y189504D01*
X635412Y189060D01*
X637128D01*
X638787Y189504D01*
X640273Y190363D01*
X641487Y191577D01*
X642346Y193063D01*
X642790Y194722D01*
Y196438D01*
X642527Y197418D01*
X642927Y198570D01*
X643540Y199068D01*
X644714Y199383D01*
X646200Y200241D01*
X647414Y201455D01*
X648273Y202942D01*
X648717Y204600D01*
Y206317D01*
X648273Y207975D01*
X647414Y209462D01*
X646200Y210676D01*
X645042Y211345D01*
Y222695D01*
X644825Y223784D01*
X644209Y224706D01*
X642925Y225990D01*
Y238852D01*
X672219Y268146D01*
X673512Y267800D01*
X675228D01*
X676887Y268244D01*
X678373Y269103D01*
X679587Y270317D01*
X680446Y271803D01*
X680890Y273462D01*
Y275178D01*
X680446Y276837D01*
X679587Y278323D01*
X678373Y279537D01*
X676887Y280396D01*
X675228Y280840D01*
D02*
G37*
G36*
X693008Y284650D02*
X691292D01*
X689633Y284206D01*
X688147Y283347D01*
X686933Y282133D01*
X686074Y280647D01*
X685630Y278988D01*
Y277272D01*
X686074Y275613D01*
X686933Y274127D01*
X688147Y272913D01*
X689071Y272379D01*
Y245110D01*
X689305Y243932D01*
X689973Y242933D01*
X692881Y240025D01*
Y232057D01*
X691361Y231071D01*
X690468Y231310D01*
X688752D01*
X687093Y230866D01*
X685607Y230007D01*
X684393Y228793D01*
X683534Y227307D01*
X683090Y225648D01*
Y223932D01*
X683366Y222901D01*
X676003Y215537D01*
X675335Y214538D01*
X675101Y213360D01*
Y207681D01*
X674177Y207147D01*
X672963Y205933D01*
X672104Y204447D01*
X671660Y202788D01*
Y201672D01*
X671168Y200796D01*
X670292Y200304D01*
X669176D01*
X667517Y199860D01*
X666031Y199001D01*
X664817Y197787D01*
X663958Y196301D01*
X663514Y194643D01*
Y192926D01*
X663958Y191268D01*
X664817Y189781D01*
X666031Y188567D01*
X667517Y187708D01*
X669176Y187264D01*
X670892D01*
X672551Y187708D01*
X674037Y188567D01*
X675251Y189781D01*
X675785Y190705D01*
X681376D01*
X682554Y190939D01*
X683553Y191607D01*
X698137Y206191D01*
X698805Y207190D01*
X699039Y208368D01*
Y218522D01*
X699807Y219291D01*
X700475Y220290D01*
X700709Y221468D01*
Y228112D01*
X700475Y229290D01*
X699807Y230289D01*
X699039Y231057D01*
Y241300D01*
X698805Y242478D01*
X698137Y243477D01*
X695229Y246385D01*
Y272379D01*
X696153Y272913D01*
X697367Y274127D01*
X698226Y275613D01*
X698670Y277272D01*
Y278988D01*
X698226Y280647D01*
X697367Y282133D01*
X696153Y283347D01*
X694667Y284206D01*
X693008Y284650D01*
D02*
G37*
G36*
X896472Y222400D02*
X894228D01*
X892061Y221819D01*
X890119Y220698D01*
X888532Y219111D01*
X887411Y217169D01*
X886830Y215002D01*
Y212758D01*
X887411Y210591D01*
X888532Y208649D01*
X890119Y207062D01*
X892061Y205941D01*
X894228Y205360D01*
X896472D01*
X898639Y205941D01*
X900581Y207062D01*
X902168Y208649D01*
X903289Y210591D01*
X903870Y212758D01*
Y215002D01*
X903289Y217169D01*
X902168Y219111D01*
X900581Y220698D01*
X898639Y221819D01*
X896472Y222400D01*
D02*
G37*
G36*
X871072D02*
X868828D01*
X866661Y221819D01*
X864719Y220698D01*
X863132Y219111D01*
X862011Y217169D01*
X861430Y215002D01*
Y212758D01*
X862011Y210591D01*
X863132Y208649D01*
X864719Y207062D01*
X866661Y205941D01*
X868828Y205360D01*
X871072D01*
X873239Y205941D01*
X875181Y207062D01*
X876768Y208649D01*
X877889Y210591D01*
X878470Y212758D01*
Y215002D01*
X877889Y217169D01*
X876768Y219111D01*
X875181Y220698D01*
X873239Y221819D01*
X871072Y222400D01*
D02*
G37*
G36*
X845672D02*
X843428D01*
X841261Y221819D01*
X839319Y220698D01*
X837732Y219111D01*
X836611Y217169D01*
X836030Y215002D01*
Y212758D01*
X836611Y210591D01*
X837732Y208649D01*
X839319Y207062D01*
X841261Y205941D01*
X843428Y205360D01*
X845672D01*
X847839Y205941D01*
X849781Y207062D01*
X851368Y208649D01*
X852489Y210591D01*
X853070Y212758D01*
Y215002D01*
X852489Y217169D01*
X851368Y219111D01*
X849781Y220698D01*
X847839Y221819D01*
X845672Y222400D01*
D02*
G37*
G36*
X820272D02*
X818028D01*
X815861Y221819D01*
X813919Y220698D01*
X812332Y219111D01*
X811211Y217169D01*
X810630Y215002D01*
Y212758D01*
X811211Y210591D01*
X812332Y208649D01*
X813919Y207062D01*
X815861Y205941D01*
X818028Y205360D01*
X820272D01*
X822439Y205941D01*
X824381Y207062D01*
X825968Y208649D01*
X827089Y210591D01*
X827670Y212758D01*
Y215002D01*
X827089Y217169D01*
X825968Y219111D01*
X824381Y220698D01*
X822439Y221819D01*
X820272Y222400D01*
D02*
G37*
G36*
X794872D02*
X792628D01*
X790461Y221819D01*
X788519Y220698D01*
X786932Y219111D01*
X785811Y217169D01*
X785230Y215002D01*
Y212758D01*
X785811Y210591D01*
X786932Y208649D01*
X788519Y207062D01*
X790461Y205941D01*
X792628Y205360D01*
X794872D01*
X797039Y205941D01*
X798981Y207062D01*
X800568Y208649D01*
X801689Y210591D01*
X802270Y212758D01*
Y215002D01*
X801689Y217169D01*
X800568Y219111D01*
X798981Y220698D01*
X797039Y221819D01*
X794872Y222400D01*
D02*
G37*
G36*
X916570Y197000D02*
X899530D01*
Y179960D01*
X916570D01*
Y197000D01*
D02*
G37*
G36*
X883772D02*
X881528D01*
X879361Y196419D01*
X877419Y195298D01*
X875832Y193711D01*
X874711Y191769D01*
X874130Y189602D01*
Y187358D01*
X874711Y185191D01*
X875832Y183249D01*
X877419Y181662D01*
X879361Y180541D01*
X881528Y179960D01*
X883772D01*
X885939Y180541D01*
X887881Y181662D01*
X889468Y183249D01*
X890589Y185191D01*
X891170Y187358D01*
Y189602D01*
X890589Y191769D01*
X889468Y193711D01*
X887881Y195298D01*
X885939Y196419D01*
X883772Y197000D01*
D02*
G37*
G36*
X858372D02*
X856128D01*
X853961Y196419D01*
X852019Y195298D01*
X850432Y193711D01*
X849311Y191769D01*
X848730Y189602D01*
Y187358D01*
X849311Y185191D01*
X850432Y183249D01*
X852019Y181662D01*
X853961Y180541D01*
X856128Y179960D01*
X858372D01*
X860539Y180541D01*
X862481Y181662D01*
X864068Y183249D01*
X865189Y185191D01*
X865770Y187358D01*
Y189602D01*
X865189Y191769D01*
X864068Y193711D01*
X862481Y195298D01*
X860539Y196419D01*
X858372Y197000D01*
D02*
G37*
G36*
X832972D02*
X830728D01*
X828561Y196419D01*
X826619Y195298D01*
X825032Y193711D01*
X823911Y191769D01*
X823330Y189602D01*
Y187358D01*
X823911Y185191D01*
X825032Y183249D01*
X826619Y181662D01*
X828561Y180541D01*
X830728Y179960D01*
X832972D01*
X835139Y180541D01*
X837081Y181662D01*
X838668Y183249D01*
X839789Y185191D01*
X840370Y187358D01*
Y189602D01*
X839789Y191769D01*
X838668Y193711D01*
X837081Y195298D01*
X835139Y196419D01*
X832972Y197000D01*
D02*
G37*
G36*
X807572D02*
X805328D01*
X803161Y196419D01*
X801219Y195298D01*
X799632Y193711D01*
X798511Y191769D01*
X797930Y189602D01*
Y187358D01*
X798511Y185191D01*
X799632Y183249D01*
X801219Y181662D01*
X803161Y180541D01*
X805328Y179960D01*
X807572D01*
X809739Y180541D01*
X811681Y181662D01*
X813268Y183249D01*
X814389Y185191D01*
X814970Y187358D01*
Y189602D01*
X814389Y191769D01*
X813268Y193711D01*
X811681Y195298D01*
X809739Y196419D01*
X807572Y197000D01*
D02*
G37*
G36*
X357060Y186258D02*
X355343D01*
X353685Y185814D01*
X352198Y184956D01*
X350984Y183742D01*
X350126Y182255D01*
X349682Y180597D01*
Y178880D01*
X350126Y177222D01*
X350984Y175735D01*
X352198Y174521D01*
X352940Y174093D01*
X353242Y172987D01*
X353107Y172677D01*
X352265Y171620D01*
X350932D01*
X349273Y171176D01*
X347787Y170317D01*
X346573Y169103D01*
X345714Y167617D01*
X345270Y165958D01*
Y164242D01*
X345714Y162583D01*
X346573Y161097D01*
X347787Y159883D01*
X349273Y159024D01*
X350373Y158730D01*
Y158593D01*
X350589Y157504D01*
X351206Y156581D01*
X354506Y153281D01*
X354160Y151988D01*
Y150272D01*
X354604Y148613D01*
X355463Y147127D01*
X356677Y145913D01*
X358163Y145054D01*
X359822Y144610D01*
X361538D01*
X363197Y145054D01*
X364683Y145913D01*
X365897Y147127D01*
X366756Y148613D01*
X367200Y150272D01*
Y151988D01*
X366756Y153647D01*
X365897Y155133D01*
X364683Y156347D01*
X363197Y157206D01*
X361538Y157650D01*
X359822D01*
X358529Y157304D01*
X356868Y158965D01*
Y160957D01*
X357007Y161097D01*
X357866Y162583D01*
X358310Y164242D01*
Y165874D01*
X358515Y166057D01*
X359704Y166630D01*
X361990Y164344D01*
Y162762D01*
X362434Y161104D01*
X363292Y159617D01*
X364506Y158403D01*
X365993Y157545D01*
X367651Y157100D01*
X369368D01*
X371026Y157545D01*
X372513Y158403D01*
X373727Y159617D01*
X374585Y161104D01*
X375029Y162762D01*
Y164479D01*
X374585Y166137D01*
X373727Y167624D01*
X372513Y168838D01*
X371026Y169696D01*
X369368Y170140D01*
X367786D01*
X361702Y176225D01*
X362277Y177222D01*
X362722Y178880D01*
Y180597D01*
X362277Y182255D01*
X361419Y183742D01*
X360205Y184956D01*
X358718Y185814D01*
X357060Y186258D01*
D02*
G37*
G36*
X929857Y170270D02*
X929670D01*
Y156750D01*
X943190D01*
Y156937D01*
X942622Y159794D01*
X941507Y162486D01*
X939888Y164908D01*
X937828Y166968D01*
X935406Y168587D01*
X932714Y169702D01*
X929857Y170270D01*
D02*
G37*
G36*
X927130D02*
X926943D01*
X924086Y169702D01*
X921394Y168587D01*
X918972Y166968D01*
X916912Y164908D01*
X915293Y162486D01*
X914178Y159794D01*
X913610Y156937D01*
Y156750D01*
X927130D01*
Y170270D01*
D02*
G37*
G36*
X774857D02*
X774670D01*
Y156750D01*
X788190D01*
Y156937D01*
X787622Y159794D01*
X786507Y162486D01*
X784888Y164908D01*
X782828Y166968D01*
X780406Y168587D01*
X777714Y169702D01*
X774857Y170270D01*
D02*
G37*
G36*
X772130D02*
X771943D01*
X769086Y169702D01*
X766394Y168587D01*
X763972Y166968D01*
X761912Y164908D01*
X760293Y162486D01*
X759178Y159794D01*
X758610Y156937D01*
Y156750D01*
X772130D01*
Y170270D01*
D02*
G37*
G36*
X943190Y154210D02*
X929670D01*
Y140690D01*
X929857D01*
X932714Y141258D01*
X935406Y142373D01*
X937828Y143992D01*
X939888Y146052D01*
X941507Y148474D01*
X942622Y151166D01*
X943190Y154023D01*
Y154210D01*
D02*
G37*
G36*
X927130D02*
X913610D01*
Y154023D01*
X914178Y151166D01*
X915293Y148474D01*
X916912Y146052D01*
X918972Y143992D01*
X921394Y142373D01*
X924086Y141258D01*
X926943Y140690D01*
X927130D01*
Y154210D01*
D02*
G37*
G36*
X788190D02*
X774670D01*
Y140690D01*
X774857D01*
X777714Y141258D01*
X780406Y142373D01*
X782828Y143992D01*
X784888Y146052D01*
X786507Y148474D01*
X787622Y151166D01*
X788190Y154023D01*
Y154210D01*
D02*
G37*
G36*
X772130D02*
X758610D01*
Y154023D01*
X759178Y151166D01*
X760293Y148474D01*
X761912Y146052D01*
X763972Y143992D01*
X766394Y142373D01*
X769086Y141258D01*
X771943Y140690D01*
X772130D01*
Y154210D01*
D02*
G37*
G36*
X96768Y160650D02*
X95250D01*
Y119380D01*
X136520D01*
Y120898D01*
X135792Y126427D01*
X134349Y131813D01*
X132215Y136965D01*
X129427Y141795D01*
X126032Y146219D01*
X122089Y150162D01*
X117665Y153557D01*
X112835Y156345D01*
X107683Y158479D01*
X102297Y159922D01*
X96768Y160650D01*
D02*
G37*
G36*
X92710D02*
X91192D01*
X85663Y159922D01*
X80277Y158479D01*
X75125Y156345D01*
X70295Y153557D01*
X65871Y150162D01*
X61928Y146219D01*
X58533Y141795D01*
X55745Y136965D01*
X53611Y131813D01*
X52168Y126427D01*
X51440Y120898D01*
Y119380D01*
X92710D01*
Y160650D01*
D02*
G37*
G36*
X850488Y118280D02*
X848772D01*
X847113Y117836D01*
X845627Y116977D01*
X844413Y115763D01*
X843554Y114277D01*
X843472Y113969D01*
X843095Y113757D01*
X841793Y113577D01*
X840933Y114437D01*
X839447Y115296D01*
X837788Y115740D01*
X836072D01*
X834413Y115296D01*
X832927Y114437D01*
X831713Y113223D01*
X830854Y111737D01*
X830410Y110078D01*
Y108362D01*
X830667Y107401D01*
X830194Y106927D01*
X829305Y105597D01*
X828993Y104029D01*
Y92780D01*
X827875Y91662D01*
X827016Y90175D01*
X826572Y88517D01*
Y86800D01*
X827016Y85141D01*
X827875Y83655D01*
X829089Y82441D01*
X830575Y81582D01*
X832234Y81138D01*
X833950D01*
X835609Y81582D01*
X837095Y82441D01*
X838309Y83655D01*
X839168Y85141D01*
X839612Y86800D01*
Y88517D01*
X839168Y90175D01*
X838309Y91662D01*
X837191Y92780D01*
Y102331D01*
X837560Y102700D01*
X837788D01*
X839447Y103144D01*
X840933Y104003D01*
X842147Y105217D01*
X842581Y105968D01*
X844272Y106346D01*
X844461Y106293D01*
X844896Y105886D01*
Y98239D01*
X844357Y97927D01*
X843143Y96713D01*
X842284Y95227D01*
X841840Y93568D01*
Y91852D01*
X842284Y90193D01*
X843143Y88707D01*
X844357Y87493D01*
X845843Y86634D01*
X847502Y86190D01*
X849218D01*
X850877Y86634D01*
X852363Y87493D01*
X853577Y88707D01*
X854436Y90193D01*
X854880Y91852D01*
Y93568D01*
X854436Y95227D01*
X853577Y96713D01*
X853094Y97197D01*
Y106231D01*
X853633Y106543D01*
X854847Y107757D01*
X855706Y109243D01*
X856150Y110902D01*
Y112618D01*
X855706Y114277D01*
X854847Y115763D01*
X853633Y116977D01*
X852147Y117836D01*
X850488Y118280D01*
D02*
G37*
G36*
X379730Y109066D02*
X378090Y108626D01*
X376370Y107633D01*
X374967Y106230D01*
X373974Y104510D01*
X373534Y102870D01*
X379730D01*
Y109066D01*
D02*
G37*
G36*
X909800Y142750D02*
X906300D01*
X902867Y142067D01*
X899633Y140728D01*
X896722Y138783D01*
X894247Y136308D01*
X892302Y133397D01*
X890963Y130163D01*
X890280Y126730D01*
Y123230D01*
X890963Y119797D01*
X892302Y116563D01*
X894247Y113652D01*
X896722Y111177D01*
X899633Y109232D01*
X902867Y107893D01*
X906300Y107210D01*
X909537D01*
X910067Y106473D01*
X910323Y105764D01*
X909068Y103590D01*
X908360Y100948D01*
Y100850D01*
X929140D01*
Y100948D01*
X928432Y103590D01*
X927064Y105960D01*
X925130Y107894D01*
X922760Y109262D01*
X920238Y109938D01*
X920051Y110208D01*
X919691Y111490D01*
X921853Y113652D01*
X923798Y116563D01*
X925137Y119797D01*
X925820Y123230D01*
Y126730D01*
X925137Y130163D01*
X923798Y133397D01*
X921853Y136308D01*
X919378Y138783D01*
X916467Y140728D01*
X913233Y142067D01*
X909800Y142750D01*
D02*
G37*
G36*
X795500D02*
X792000D01*
X788567Y142067D01*
X785333Y140728D01*
X782422Y138783D01*
X779947Y136308D01*
X778002Y133397D01*
X776663Y130163D01*
X775980Y126730D01*
Y123230D01*
X776663Y119797D01*
X778002Y116563D01*
X779947Y113652D01*
X782109Y111490D01*
X781749Y110208D01*
X781562Y109938D01*
X779040Y109262D01*
X776670Y107894D01*
X774736Y105960D01*
X773368Y103590D01*
X772660Y100948D01*
Y100850D01*
X793440D01*
Y100948D01*
X792732Y103590D01*
X791477Y105764D01*
X791733Y106473D01*
X792263Y107210D01*
X795500D01*
X798933Y107893D01*
X802167Y109232D01*
X805078Y111177D01*
X807553Y113652D01*
X809498Y116563D01*
X810837Y119797D01*
X811520Y123230D01*
Y126730D01*
X810837Y130163D01*
X809498Y133397D01*
X807553Y136308D01*
X805078Y138783D01*
X802167Y140728D01*
X798933Y142067D01*
X795500Y142750D01*
D02*
G37*
G36*
X388466Y100330D02*
X382270D01*
Y94134D01*
X383910Y94574D01*
X385630Y95567D01*
X387034Y96970D01*
X388026Y98690D01*
X388466Y100330D01*
D02*
G37*
G36*
X379730D02*
X373534D01*
X373974Y98690D01*
X374967Y96970D01*
X376370Y95567D01*
X378090Y94574D01*
X379730Y94134D01*
Y100330D01*
D02*
G37*
G36*
X865728Y114470D02*
X864012D01*
X862353Y114026D01*
X860867Y113167D01*
X859653Y111953D01*
X858794Y110467D01*
X858350Y108808D01*
Y107092D01*
X858794Y105433D01*
X859653Y103947D01*
X860867Y102733D01*
X862025Y102064D01*
Y97796D01*
X860867Y97127D01*
X859653Y95913D01*
X858794Y94427D01*
X858350Y92768D01*
Y91052D01*
X858794Y89393D01*
X859653Y87907D01*
X860867Y86693D01*
X862353Y85834D01*
X864012Y85390D01*
X865728D01*
X867387Y85834D01*
X868873Y86693D01*
X870087Y87907D01*
X870946Y89393D01*
X871390Y91052D01*
Y92768D01*
X870946Y94427D01*
X870087Y95913D01*
X868873Y97127D01*
X867715Y97796D01*
Y102064D01*
X868873Y102733D01*
X870087Y103947D01*
X870946Y105433D01*
X871390Y107092D01*
Y108808D01*
X870946Y110467D01*
X870087Y111953D01*
X868873Y113167D01*
X867387Y114026D01*
X865728Y114470D01*
D02*
G37*
G36*
X880968D02*
X879252D01*
X877593Y114026D01*
X876107Y113167D01*
X874893Y111953D01*
X874034Y110467D01*
X873590Y108808D01*
Y107092D01*
X874034Y105433D01*
X874893Y103947D01*
X876107Y102733D01*
X877031Y102199D01*
Y97191D01*
X876107Y96657D01*
X874893Y95443D01*
X874034Y93957D01*
X873590Y92298D01*
Y90582D01*
X874034Y88923D01*
X874893Y87437D01*
X876107Y86223D01*
X877593Y85364D01*
X879252Y84920D01*
X880968D01*
X882627Y85364D01*
X884113Y86223D01*
X885327Y87437D01*
X886186Y88923D01*
X886630Y90582D01*
Y92298D01*
X886186Y93957D01*
X885327Y95443D01*
X884113Y96657D01*
X883189Y97191D01*
Y102199D01*
X884113Y102733D01*
X885327Y103947D01*
X886186Y105433D01*
X886630Y107092D01*
Y108808D01*
X886186Y110467D01*
X885327Y111953D01*
X884113Y113167D01*
X882627Y114026D01*
X880968Y114470D01*
D02*
G37*
G36*
X929140Y98310D02*
X908360D01*
Y98212D01*
X909068Y95570D01*
X910436Y93200D01*
X912370Y91266D01*
X914062Y90289D01*
Y88571D01*
X912370Y87594D01*
X910436Y85660D01*
X909068Y83290D01*
X908360Y80648D01*
Y80550D01*
X929140D01*
Y80648D01*
X928432Y83290D01*
X927064Y85660D01*
X925130Y87594D01*
X923438Y88571D01*
Y90289D01*
X925130Y91266D01*
X927064Y93200D01*
X928432Y95570D01*
X929140Y98212D01*
Y98310D01*
D02*
G37*
G36*
X793440D02*
X772660D01*
Y98212D01*
X773368Y95570D01*
X774736Y93200D01*
X776670Y91266D01*
X778362Y90289D01*
Y88571D01*
X776670Y87594D01*
X774736Y85660D01*
X773368Y83290D01*
X772660Y80648D01*
Y80550D01*
X793440D01*
Y80648D01*
X792732Y83290D01*
X791364Y85660D01*
X789430Y87594D01*
X787738Y88571D01*
Y90289D01*
X789430Y91266D01*
X791364Y93200D01*
X792732Y95570D01*
X793440Y98212D01*
Y98310D01*
D02*
G37*
G36*
X136520Y116840D02*
X95250D01*
Y75570D01*
X96768D01*
X102297Y76298D01*
X107683Y77741D01*
X112835Y79875D01*
X117665Y82663D01*
X122089Y86058D01*
X126032Y90001D01*
X129427Y94425D01*
X132215Y99255D01*
X134349Y104407D01*
X135792Y109793D01*
X136520Y115322D01*
Y116840D01*
D02*
G37*
G36*
X92710D02*
X51440D01*
Y115322D01*
X52168Y109793D01*
X53611Y104407D01*
X55745Y99255D01*
X58533Y94425D01*
X61928Y90001D01*
X65871Y86058D01*
X70295Y82663D01*
X75125Y79875D01*
X80277Y77741D01*
X85663Y76298D01*
X91192Y75570D01*
X92710D01*
Y116840D01*
D02*
G37*
G36*
X929140Y78010D02*
X920020D01*
Y68890D01*
X920118D01*
X922760Y69598D01*
X925130Y70966D01*
X927064Y72900D01*
X928432Y75270D01*
X929140Y77912D01*
Y78010D01*
D02*
G37*
G36*
X917480D02*
X908360D01*
Y77912D01*
X909068Y75270D01*
X910436Y72900D01*
X912370Y70966D01*
X914740Y69598D01*
X917382Y68890D01*
X917480D01*
Y78010D01*
D02*
G37*
G36*
X793440D02*
X784320D01*
Y68890D01*
X784418D01*
X787060Y69598D01*
X789430Y70966D01*
X791364Y72900D01*
X792732Y75270D01*
X793440Y77912D01*
Y78010D01*
D02*
G37*
G36*
X781780D02*
X772660D01*
Y77912D01*
X773368Y75270D01*
X774736Y72900D01*
X776670Y70966D01*
X779040Y69598D01*
X781682Y68890D01*
X781780D01*
Y78010D01*
D02*
G37*
%LPD*%
G36*
X453550Y147843D02*
X454549Y147175D01*
X455054Y147075D01*
X455362Y146794D01*
X455969Y145774D01*
X456042Y145421D01*
X455760Y144368D01*
Y142652D01*
X456204Y140993D01*
X457063Y139507D01*
X458277Y138293D01*
X459763Y137434D01*
X461422Y136990D01*
X463138D01*
X464797Y137434D01*
X466283Y138293D01*
X467497Y139507D01*
X468031Y140431D01*
X480055D01*
X490326Y130159D01*
X490050Y129128D01*
Y127412D01*
X490494Y125753D01*
X491353Y124267D01*
X492567Y123053D01*
X494053Y122194D01*
X495712Y121750D01*
X497428D01*
X498459Y122026D01*
X508731Y111755D01*
Y92164D01*
X508385Y91948D01*
X506865Y92792D01*
Y107707D01*
X506648Y108795D01*
X506031Y109718D01*
X497998Y117752D01*
X497075Y118368D01*
X495987Y118585D01*
X471338D01*
X470249Y118368D01*
X469326Y117752D01*
X464914Y113340D01*
X463123Y113698D01*
X462743Y114615D01*
X461325Y116033D01*
X459740Y116689D01*
Y111760D01*
X457200D01*
Y116689D01*
X455615Y116033D01*
X454422Y114839D01*
X426388D01*
X426140Y115005D01*
X424962Y115239D01*
X418318D01*
X417140Y115005D01*
X416892Y114839D01*
X411433D01*
X410267Y116359D01*
X410380Y116782D01*
Y118498D01*
X410252Y118975D01*
X436541Y145263D01*
X436903Y145054D01*
X438562Y144610D01*
X440278D01*
X441937Y145054D01*
X443423Y145913D01*
X444637Y147127D01*
X445496Y148613D01*
X445940Y150272D01*
Y151988D01*
X447073Y153399D01*
X447906Y153487D01*
X453550Y147843D01*
D02*
G37*
D13*
X387459Y805289D02*
X467360Y885190D01*
X306070Y631190D02*
X387459Y712579D01*
Y805289D01*
X467360Y885190D02*
Y886460D01*
X549312Y12530D02*
X559642Y22860D01*
X508243Y21760D02*
X517473Y12530D01*
X559642Y22860D02*
X600710D01*
X437526Y21760D02*
X508243D01*
X517473Y12530D02*
X549312D01*
X464820Y6350D02*
X595412D01*
X433328Y17562D02*
X437526Y21760D01*
X406400Y21590D02*
Y101600D01*
X410428Y17562D02*
X433328D01*
X406400Y21590D02*
X410428Y17562D01*
X476343Y31518D02*
X505496D01*
X462280Y55880D02*
X490416D01*
X490734Y56198D02*
X500551D01*
X466176Y41685D02*
X476343Y31518D01*
X498869Y52138D02*
X502918Y48090D01*
X490416Y55880D02*
X490734Y56198D01*
X500869Y55880D02*
X539115D01*
X502918Y48090D02*
X531907D01*
X488368D02*
X492416Y52138D01*
X452807Y48090D02*
X488368D01*
X492416Y52138D02*
X498869D01*
X500551Y56198D02*
X500869Y55880D01*
X403860Y117640D02*
X404895D01*
X438385Y151130D01*
X439420D01*
X596900Y174304D02*
Y243840D01*
Y174304D02*
X642020Y129184D01*
Y61667D02*
Y129184D01*
X627380Y47027D02*
X642020Y61667D01*
X627380Y24130D02*
Y47027D01*
X608500Y31362D02*
X609988Y32850D01*
X608500Y19438D02*
Y31362D01*
X595412Y6350D02*
X608500Y19438D01*
X609988Y32850D02*
X612827D01*
X617390Y43867D02*
X620061Y46538D01*
X612827Y32850D02*
X617390Y37413D01*
Y43867D01*
X554355Y40640D02*
X609600D01*
X620061Y46538D02*
X621149D01*
X625712Y51101D01*
X637540Y260871D02*
Y262890D01*
X634407Y257738D02*
X637540Y260871D01*
X634407Y202232D02*
Y257738D01*
Y202232D02*
X634843Y201796D01*
Y197007D02*
Y201796D01*
Y197007D02*
X636270Y195580D01*
X601310Y69180D02*
X626110Y93980D01*
X505220Y69180D02*
X601310D01*
X491680Y82720D02*
X505220Y69180D01*
X422041Y82720D02*
X491680D01*
X415279Y89482D02*
X422041Y82720D01*
X415279Y89482D02*
Y97779D01*
X421640Y104140D01*
X640080Y224812D02*
X642197Y222695D01*
X640080Y224812D02*
Y240030D01*
X642197Y205458D02*
Y222695D01*
X504020Y81863D02*
Y107707D01*
X615342Y66695D02*
Y73149D01*
X631018Y105830D02*
X637960Y98888D01*
X584066Y105830D02*
X631018D01*
X546395Y54342D02*
X617908D01*
X555536Y77300D02*
X584066Y105830D01*
X624145Y81951D02*
X625098D01*
X623132Y69922D02*
X637960Y84750D01*
Y98888D01*
X615342Y73149D02*
X624145Y81951D01*
X625712Y51101D02*
Y57555D01*
X633900Y90753D02*
Y97207D01*
X508583Y77300D02*
X555536D01*
X557217Y73240D02*
X585748Y101770D01*
X629337D01*
X506902Y73240D02*
X557217D01*
X617908Y54342D02*
X617922Y54328D01*
X629337Y101770D02*
X633900Y97207D01*
X621142Y62125D02*
X625712Y57555D01*
X615342Y66695D02*
X619913Y62125D01*
X625098Y81951D02*
X633900Y90753D01*
X619913Y62125D02*
X621142D01*
X539115Y55880D02*
X554355Y40640D01*
X520201Y59940D02*
X540797D01*
X546395Y54342D01*
X463380Y63670D02*
X516471D01*
X520201Y59940D01*
X424340Y93980D02*
X449578D01*
X423069Y92709D02*
X424340Y93980D01*
X640080Y240030D02*
X674370Y274320D01*
X504020Y81863D02*
X508583Y77300D01*
X495987Y115740D02*
X504020Y107707D01*
X471338Y115740D02*
X495987D01*
X449578Y93980D02*
X471338Y115740D01*
X492760Y93123D02*
X499960Y85923D01*
Y80182D02*
X506902Y73240D01*
X499960Y80182D02*
Y85923D01*
X452120Y74930D02*
X463380Y63670D01*
X449580Y40300D02*
X456033D01*
X449203Y40677D02*
X449580Y40300D01*
X457418Y41685D02*
X466176D01*
X441923Y40677D02*
X449203D01*
X456033Y40300D02*
X457418Y41685D01*
X531907Y48090D02*
X547147Y32850D01*
X581660D01*
X457200Y13970D02*
X464820Y6350D01*
X492760Y93123D02*
Y107950D01*
X435610Y46990D02*
X441923Y40677D01*
X864870Y91910D02*
Y107950D01*
X351790Y165100D02*
X353217Y163673D01*
Y158593D02*
X360680Y151130D01*
X353217Y158593D02*
Y163673D01*
X416560Y173469D02*
Y198120D01*
X411480Y166370D02*
Y168389D01*
X416560Y173469D01*
X520179Y574040D02*
X532130D01*
X516369Y577850D02*
X520179Y574040D01*
X514350Y577850D02*
X516369D01*
X323590Y613150D02*
X340360Y629920D01*
X306070Y613150D02*
X323590D01*
X386159Y295910D02*
X400050D01*
X382349Y292100D02*
X386159Y295910D01*
X367030Y292100D02*
X382349D01*
D78*
X928400Y155480D02*
D03*
X773400D02*
D03*
D80*
X918750Y99580D02*
D03*
Y79280D02*
D03*
X783050Y99580D02*
D03*
Y79280D02*
D03*
X275590Y400050D02*
D03*
X283210Y327660D02*
D03*
X952500Y567690D02*
D03*
X713740Y849630D02*
D03*
X375920Y471170D02*
D03*
X514350D02*
D03*
X854710Y671830D02*
D03*
X726440Y632460D02*
D03*
X713740Y885190D02*
D03*
X339090Y462280D02*
D03*
X172720Y575310D02*
D03*
X171450Y617220D02*
D03*
X207010Y543560D02*
D03*
X243840D02*
D03*
X171450Y650240D02*
D03*
X641350Y648970D02*
D03*
X958850Y626110D02*
D03*
X707390Y713740D02*
D03*
X651510Y712470D02*
D03*
D85*
X793750Y124980D02*
D03*
X908050D02*
D03*
D86*
Y188480D02*
D03*
D87*
X895350Y213880D02*
D03*
X882650Y188480D02*
D03*
X869950Y213880D02*
D03*
X857250Y188480D02*
D03*
X844550Y213880D02*
D03*
X831850Y188480D02*
D03*
X819150Y213880D02*
D03*
X806450Y188480D02*
D03*
X793750Y213880D02*
D03*
D90*
X397598Y111760D02*
X399738Y109620D01*
X407982D01*
X391160Y111760D02*
X397598D01*
X410122D02*
X417918D01*
X407982Y109620D02*
X410122Y111760D01*
X418318Y112160D02*
X424962D01*
X381000Y101600D02*
X391160Y111760D01*
X417918D02*
X418318Y112160D01*
X424962D02*
X425362Y111760D01*
X458470D01*
X607060Y347740D02*
Y368300D01*
X749264Y637576D02*
Y647736D01*
Y637576D02*
X808990Y577850D01*
X748030Y648970D02*
X749264Y647736D01*
X553720Y739730D02*
X558828Y744838D01*
Y746732D01*
X553720Y704850D02*
Y739730D01*
X652145Y572425D02*
Y587195D01*
X652780Y587830D01*
X651510Y571790D02*
X652145Y572425D01*
X711200Y420405D02*
Y441960D01*
Y420405D02*
X715010Y416595D01*
X624427Y404540D02*
X635000D01*
X715010Y393700D02*
Y416595D01*
X615950Y390676D02*
Y396063D01*
X624427Y404540D01*
X614193Y388919D02*
X615950Y390676D01*
X611323Y388919D02*
X614193D01*
X605790Y385280D02*
X607684D01*
X611323Y388919D01*
X518620Y341372D02*
Y362760D01*
X504190Y377190D02*
X518620Y362760D01*
X499875Y358140D02*
X513080D01*
X511538Y334290D02*
X518620Y341372D01*
X506589Y334290D02*
X511538D01*
X505249Y332951D02*
X506589Y334290D01*
X609600Y273050D02*
Y289560D01*
X410210Y920150D02*
Y951230D01*
Y920150D02*
X412750Y917610D01*
Y885190D02*
Y917610D01*
X247650Y905510D02*
Y969010D01*
X273050Y621030D02*
X290830Y603250D01*
X233847Y609433D02*
X252278D01*
X259187Y602524D01*
X233212Y610068D02*
X233847Y609433D01*
X87704Y604594D02*
X134733D01*
X141157Y598170D02*
X193040D01*
X134733Y604594D02*
X141157Y598170D01*
X493400Y384417D02*
X510490Y401507D01*
X498554Y356819D02*
X499875Y358140D01*
X493400Y355480D02*
X494739Y356819D01*
X493400Y355480D02*
Y384417D01*
X494739Y356819D02*
X498554D01*
X492310Y355480D02*
X493400D01*
X290830Y575310D02*
Y603250D01*
X275521Y570161D02*
X276860Y571500D01*
X275521Y563811D02*
Y570161D01*
X267970Y556260D02*
X275521Y563811D01*
X598170Y751840D02*
X618490D01*
X582323Y768333D02*
Y770227D01*
X584771Y765239D02*
Y765885D01*
X582323Y768333D02*
X584771Y765885D01*
Y765239D02*
X598170Y751840D01*
X519361Y21659D02*
X520700Y20320D01*
X519361Y21659D02*
Y28996D01*
X505143Y43214D02*
X519361Y28996D01*
X496777Y43214D02*
X505143D01*
X495643Y44348D02*
X496777Y43214D01*
X496570Y128270D02*
X511810Y113030D01*
X444412Y157480D02*
X448268D01*
X442742Y159150D02*
X444412Y157480D01*
X439644Y159150D02*
X442742D01*
X433694Y165100D02*
X439644Y159150D01*
X462280Y143510D02*
X481330D01*
X496570Y128270D01*
X458958Y151530D02*
X465602D01*
X454660Y157480D02*
X472616D01*
X455728Y150020D02*
X457448D01*
X472616Y157480D02*
X475156Y160020D01*
X467112Y150020D02*
X481003D01*
X465602Y151530D02*
X467112Y150020D01*
X457448D02*
X458958Y151530D01*
X434340Y177800D02*
X454660Y157480D01*
X448268D02*
X455728Y150020D01*
X475156Y160020D02*
X477050D01*
X481003Y150020D02*
X490220Y159237D01*
Y189230D01*
X424180Y165100D02*
X433694D01*
X511810Y85090D02*
Y113030D01*
X880110Y91440D02*
Y107950D01*
X524648Y241590D02*
X527006D01*
X528346Y242929D01*
X494030Y240030D02*
X523088D01*
X524648Y241590D01*
X461010Y325120D02*
X480401D01*
X375920Y471170D02*
X410306Y436784D01*
X486555D01*
X529521Y393818D01*
Y389959D02*
Y393818D01*
Y389959D02*
X530860Y388620D01*
X358580Y481770D02*
X379005Y502195D01*
X355854Y481770D02*
X358580D01*
X340360Y463550D02*
X352620Y475810D01*
Y478536D01*
X355854Y481770D01*
X379005Y502195D02*
X693965D01*
X339090Y463550D02*
X340360D01*
X693965Y502195D02*
X732790Y541020D01*
X644935Y529169D02*
Y542959D01*
Y529169D02*
X648970Y525134D01*
Y523240D02*
Y525134D01*
X326390Y342900D02*
X416651D01*
X418153Y344402D01*
X510308D01*
X886460Y614680D02*
X887730Y615950D01*
X698588Y674370D02*
X704984D01*
X708567Y666611D02*
X722399Y652780D01*
X704984Y674370D02*
X705245Y674632D01*
X710013Y649139D02*
X711352Y650479D01*
X705245Y674632D02*
X711889D01*
X707508Y639479D02*
X710013Y641983D01*
Y649139D01*
X711889Y674632D02*
X712151Y674370D01*
X726440D01*
X629920Y787400D02*
Y802640D01*
X760730Y716280D02*
X834390D01*
X629920Y802640D02*
X660400Y833120D01*
X100330Y731520D02*
X113030Y718820D01*
X273050D01*
X454660Y935344D02*
Y960120D01*
X901700Y615950D02*
X902970Y617220D01*
X887730Y615950D02*
X901700D01*
X495555Y327040D02*
X503825Y318770D01*
X482321Y327040D02*
X495555D01*
X480401Y325120D02*
X482321Y327040D01*
X724546Y502920D02*
X727086Y505460D01*
X728980D01*
X711200Y502920D02*
X724546D01*
X495300Y302260D02*
Y314059D01*
X492233Y317126D02*
X495300Y314059D01*
X492233Y317126D02*
Y319020D01*
X499110Y285750D02*
X499187D01*
X512292Y292429D02*
X513631Y293768D01*
X499187Y285750D02*
X505866Y292429D01*
X512292D01*
X595630Y276860D02*
X596969Y275521D01*
Y267989D02*
Y275521D01*
Y267989D02*
X619628Y245330D01*
X629920Y598170D02*
X651510Y619760D01*
X734607Y690157D02*
X760730Y716280D01*
X716280Y685800D02*
Y702486D01*
X630719Y626624D02*
X632613D01*
X636930Y622307D01*
X645153D01*
X646430Y621030D01*
X708660Y710106D02*
Y712470D01*
Y710106D02*
X716280Y702486D01*
X722399Y652780D02*
X734060D01*
X707508Y638766D02*
Y639479D01*
X680306Y611564D02*
X707508Y638766D01*
X662540Y638322D02*
X698588Y674370D01*
X675644Y620923D02*
X676984Y619584D01*
X675644Y620923D02*
Y628021D01*
X670560Y633106D02*
X675644Y628021D01*
X670560Y633106D02*
Y635000D01*
X672338Y611564D02*
X680306D01*
X664438Y619465D02*
X672338Y611564D01*
X651510Y619760D02*
Y626110D01*
X662540Y637140D02*
Y638322D01*
X651510Y626110D02*
X662540Y637140D01*
X646430Y621030D02*
X651510Y626110D01*
X59690Y514350D02*
X60300Y514960D01*
X69190D01*
X102870Y548640D01*
X678180Y213360D02*
X689610Y224790D01*
X678180Y201930D02*
Y213360D01*
X312420Y356870D02*
X326390Y342900D01*
X40640Y386080D02*
Y406400D01*
X100330Y466090D01*
X12700Y443230D02*
X25400D01*
X46990Y464820D01*
X695960Y208368D02*
Y219798D01*
X670034Y193784D02*
X681376D01*
X695960Y208368D01*
Y229782D02*
X697630Y228112D01*
X695960Y219798D02*
X697630Y221468D01*
Y228112D01*
X695960Y229782D02*
Y241300D01*
X692150Y245110D02*
X695960Y241300D01*
X692150Y245110D02*
Y278130D01*
X137160Y637540D02*
Y639434D01*
X140970Y643244D01*
Y674370D01*
X450850Y929640D02*
Y931534D01*
X454660Y935344D01*
D91*
X542346Y571500D02*
X626515D01*
X527216Y556370D02*
X542346Y571500D01*
X626515D02*
X635245Y562770D01*
X319854Y622170D02*
X498124Y800440D01*
X419060Y632420D02*
X580560Y793920D01*
X383011Y632420D02*
X419060D01*
X580560Y793920D02*
X587241D01*
X498124Y800440D02*
X584540D01*
X317889Y460129D02*
X414130Y556370D01*
X527216D01*
X317889Y423791D02*
Y460129D01*
X836930Y107867D02*
Y109220D01*
X833092Y104029D02*
X836930Y107867D01*
X833092Y87658D02*
Y104029D01*
X848995Y111125D02*
X849630Y111760D01*
X848995Y93345D02*
Y111125D01*
X848360Y92710D02*
X848995Y93345D01*
X435514Y34330D02*
X462070D01*
X430474Y39370D02*
X435514Y34330D01*
X415290Y39370D02*
X430474D01*
X462070Y34330D02*
X462505Y33895D01*
X356202Y179738D02*
X357158Y178782D01*
Y174972D02*
X368509Y163620D01*
X357158Y174972D02*
Y178782D01*
X337820Y398780D02*
X339173D01*
X346154Y405761D01*
X352477D01*
X365890Y419174D01*
Y445936D01*
X362339Y449487D02*
X365890Y445936D01*
X362339Y449487D02*
Y476250D01*
X364213D01*
X377907Y489943D01*
X478790D01*
X509433Y459300D01*
X680336D01*
X716336Y495300D01*
X763270D01*
X607060Y401320D02*
X627380Y421640D01*
X678124D01*
X503825Y318770D02*
X636035Y450980D01*
X698243D01*
X678124Y421640D02*
X707464Y450980D01*
X856110D01*
X889000Y483870D01*
X878840Y513080D02*
Y514433D01*
X877440Y515833D02*
X878840Y514433D01*
X877440Y515833D02*
Y634930D01*
X887730Y645220D01*
Y670560D01*
X704763Y457500D02*
X842310D01*
X883350Y498540D01*
X698243Y450980D02*
X704763Y457500D01*
X884863Y498540D02*
X893380Y507057D01*
Y508570D01*
X883350Y498540D02*
X884863D01*
X893380Y508570D02*
X931610Y546800D01*
X346241Y412281D02*
X356870Y422910D01*
X329399Y412281D02*
X346241D01*
X317889Y423791D02*
X329399Y412281D01*
X635245Y562770D02*
X658020D01*
X669290Y574040D01*
X635461Y842140D02*
X692757D01*
X410210Y601980D02*
Y610870D01*
X586740Y787400D02*
X629920D01*
X587241Y793920D02*
X635461Y842140D01*
X410210Y610870D02*
X586740Y787400D01*
X584540Y800440D02*
X638810Y854710D01*
X835660Y695960D02*
Y697313D01*
X843410Y705063D01*
Y727580D01*
X759460Y811530D02*
X843410Y727580D01*
X723367Y811530D02*
X759460D01*
X692757Y842140D02*
X723367Y811530D01*
X300310Y549719D02*
X383011Y632420D01*
X300310Y538778D02*
Y549719D01*
X289209Y527677D02*
X300310Y538778D01*
X278757Y527677D02*
X289209D01*
X266700Y515620D02*
X278757Y527677D01*
X241300Y543560D02*
Y546100D01*
X212090Y575310D02*
X241300Y546100D01*
X193300Y575310D02*
X212090D01*
X181430Y563440D02*
X193300Y575310D01*
X116101Y563440D02*
X181430D01*
X75860Y603681D02*
X116101Y563440D01*
X75860Y603681D02*
Y789600D01*
X203200Y916940D01*
Y937316D01*
X243914Y978030D01*
X449506D01*
X473766Y953770D01*
X670560D01*
X697230Y952500D02*
X817991D01*
X819122Y953630D01*
X938530D01*
X940349Y951811D01*
Y949239D02*
Y951811D01*
X938530Y947420D02*
X940349Y949239D01*
X938530Y622300D02*
Y947420D01*
X969010Y963930D02*
X979170Y953770D01*
X682711Y937809D02*
X751840Y868680D01*
X685640Y963930D02*
X969010D01*
X682711Y961001D02*
X685640Y963930D01*
X682711Y937809D02*
Y961001D01*
X941640Y556830D02*
X951230Y566420D01*
X931610Y546800D02*
X933123D01*
X941640Y555317D02*
Y556830D01*
X933123Y546800D02*
X941640Y555317D01*
X927100Y561340D02*
Y690880D01*
X899795Y718185D02*
X927100Y690880D01*
X951230Y566420D02*
Y567690D01*
X828040Y652780D02*
X852447D01*
X899795Y700128D01*
Y718185D01*
X891540Y726440D02*
X899795Y718185D01*
X227330Y621030D02*
X228683D01*
X236303Y628650D01*
X245110D01*
X246510Y630050D01*
X290644D01*
X298524Y622170D01*
X319854D01*
X979170Y387350D02*
Y953770D01*
X967740Y375920D02*
X979170Y387350D01*
X651510Y375920D02*
X967740D01*
X134620Y768350D02*
X167640Y735330D01*
X311150D01*
D92*
X461010Y165500D02*
Y167124D01*
X466592Y172706D02*
Y178302D01*
X461010Y167124D02*
X466592Y172706D01*
Y178302D02*
X495146Y206856D01*
X433986Y179070D02*
X435488Y180572D01*
Y217048D01*
X477520Y259080D01*
X484505D01*
X509905Y284480D02*
X532130D01*
X484505Y259080D02*
X509905Y284480D01*
X495146Y206856D02*
X505306D01*
X539750Y241300D01*
X887360Y511064D02*
X929116Y552820D01*
X791076Y504560D02*
X882369D01*
X741886Y553750D02*
X791076Y504560D01*
X882369D02*
X887360Y509551D01*
X929116Y552820D02*
X930629D01*
X887360Y509551D02*
Y511064D01*
X648970Y553750D02*
X741886D01*
X930629Y552820D02*
X935620Y557811D01*
Y602880D01*
X957580Y624840D01*
X597781Y547350D02*
X610870Y560439D01*
X487680Y547350D02*
X597781D01*
X48260Y320040D02*
X125730Y397510D01*
X229870D01*
D94*
X444500Y887730D02*
D03*
X87630Y694690D02*
D03*
D95*
X469900Y887730D02*
D03*
X123190Y509270D02*
D03*
X113030Y694690D02*
D03*
D96*
X844550Y295910D02*
D03*
X325120Y836930D02*
D03*
X93980Y118110D02*
D03*
D97*
X58960Y880110D02*
D03*
Y930910D02*
D03*
D98*
X288290Y546100D02*
D03*
D99*
X339090D02*
D03*
X313690D02*
D03*
D100*
X123190Y483870D02*
D03*
D101*
X607060Y347740D02*
D03*
Y368300D02*
D03*
X748030Y648970D02*
D03*
X808990Y577850D02*
D03*
X652780Y587830D02*
D03*
X651510Y571790D02*
D03*
X711200Y441960D02*
D03*
X558828Y746732D02*
D03*
X553720Y704850D02*
D03*
X635000Y404540D02*
D03*
X715010Y393700D02*
D03*
X605790Y385280D02*
D03*
X510490Y401507D02*
D03*
X513080Y358140D02*
D03*
X505249Y332951D02*
D03*
X609600Y273050D02*
D03*
Y289560D02*
D03*
X410210Y951230D02*
D03*
X412750Y885190D02*
D03*
X247650Y969010D02*
D03*
Y905510D02*
D03*
X273050Y621030D02*
D03*
X259187Y602524D02*
D03*
X233212Y610068D02*
D03*
X193040Y598170D02*
D03*
X87704Y604594D02*
D03*
X504190Y377190D02*
D03*
X492310Y355480D02*
D03*
X381000Y101600D02*
D03*
X290830Y575310D02*
D03*
X276860Y571500D02*
D03*
X267970Y556260D02*
D03*
X306070Y631190D02*
D03*
X520700Y20320D02*
D03*
X495643Y44348D02*
D03*
X505496Y31518D02*
D03*
X403860Y117640D02*
D03*
X439420Y151130D02*
D03*
X406400Y101600D02*
D03*
X462280Y143510D02*
D03*
X461010Y165500D02*
D03*
X477050Y160020D02*
D03*
X424180Y165100D02*
D03*
X434340Y177800D02*
D03*
X596900Y243840D02*
D03*
X627380Y24130D02*
D03*
X600710Y22860D02*
D03*
X609600Y40640D02*
D03*
X637540Y262890D02*
D03*
X636270Y195580D02*
D03*
X626110Y93980D02*
D03*
X421640Y104140D02*
D03*
X642197Y205458D02*
D03*
X617922Y54328D02*
D03*
X623132Y69922D02*
D03*
X423069Y92709D02*
D03*
X674370Y274320D02*
D03*
X511810Y85090D02*
D03*
X836930Y109220D02*
D03*
X833092Y87658D02*
D03*
X452120Y74930D02*
D03*
X452807Y48090D02*
D03*
X462280Y55880D02*
D03*
X849630Y111760D02*
D03*
X848360Y92710D02*
D03*
X581660Y32850D02*
D03*
X457200Y13970D02*
D03*
X492760Y107950D02*
D03*
X496570Y128270D02*
D03*
X435610Y46990D02*
D03*
X462505Y33895D02*
D03*
X415290Y39370D02*
D03*
X864870Y91910D02*
D03*
Y107950D02*
D03*
X880110Y91440D02*
D03*
Y107950D02*
D03*
X351790Y165100D02*
D03*
X360680Y151130D02*
D03*
X490220Y189230D02*
D03*
X532130Y284480D02*
D03*
X528346Y242929D02*
D03*
X539750Y241300D02*
D03*
X494030Y240030D02*
D03*
X416560Y198120D02*
D03*
X411480Y166370D02*
D03*
X356202Y179738D02*
D03*
X368509Y163620D02*
D03*
X461010Y325120D02*
D03*
X530860Y388620D02*
D03*
X337820Y398780D02*
D03*
X763270Y495300D02*
D03*
X732790Y541020D02*
D03*
X648970Y523240D02*
D03*
X607060Y401320D02*
D03*
X510308Y344402D02*
D03*
X889000Y483870D02*
D03*
X878840Y513080D02*
D03*
X887730Y670560D02*
D03*
X886460Y614680D02*
D03*
X356870Y422910D02*
D03*
X669290Y574040D02*
D03*
X644935Y542959D02*
D03*
X648970Y553750D02*
D03*
X532130Y574040D02*
D03*
X711352Y650479D02*
D03*
X708567Y666611D02*
D03*
X582323Y770227D02*
D03*
X618490Y751840D02*
D03*
X410210Y601980D02*
D03*
X629920Y787400D02*
D03*
X835660Y695960D02*
D03*
X266700Y515620D02*
D03*
X834390Y716280D02*
D03*
X660400Y833120D02*
D03*
X670560Y953770D02*
D03*
X697230Y952500D02*
D03*
X938530Y622300D02*
D03*
X100330Y731520D02*
D03*
X454660Y960120D02*
D03*
X927100Y561340D02*
D03*
X711200Y502920D02*
D03*
X728980Y505460D02*
D03*
X495300Y302260D02*
D03*
X513631Y293768D02*
D03*
X499110Y285750D02*
D03*
X492233Y319020D02*
D03*
X595630Y276860D02*
D03*
X619628Y245330D02*
D03*
X828040Y652780D02*
D03*
X891540Y726440D02*
D03*
X610870Y560439D02*
D03*
X487680Y547350D02*
D03*
X629920Y598170D02*
D03*
X514350Y577850D02*
D03*
X902970Y617220D02*
D03*
X734607Y690157D02*
D03*
X716280Y685800D02*
D03*
X630719Y626624D02*
D03*
X734060Y652780D02*
D03*
X726440Y674370D02*
D03*
X676984Y619584D02*
D03*
X670560Y635000D02*
D03*
X664438Y619465D02*
D03*
X646430Y621030D02*
D03*
X59690Y514350D02*
D03*
X102870Y548640D02*
D03*
X227330Y621030D02*
D03*
X638810Y854710D02*
D03*
X306070Y613150D02*
D03*
X751840Y868680D02*
D03*
X651510Y375920D02*
D03*
X400050Y295910D02*
D03*
X367030Y292100D02*
D03*
X689610Y224790D02*
D03*
X678180Y201930D02*
D03*
X312420Y356870D02*
D03*
X48260Y320040D02*
D03*
X229870Y397510D02*
D03*
X40640Y386080D02*
D03*
X100330Y466090D02*
D03*
X12700Y443230D02*
D03*
X46990Y464820D02*
D03*
X273050Y718820D02*
D03*
X340360Y629920D02*
D03*
X670034Y193784D02*
D03*
X692150Y278130D02*
D03*
X137160Y637540D02*
D03*
X140970Y674370D02*
D03*
X134620Y768350D02*
D03*
X311150Y735330D02*
D03*
X450850Y929640D02*
D03*
D102*
X458470Y111760D02*
D03*
M02*
