G04*
G04 #@! TF.GenerationSoftware,Altium Limited,Altium Designer,25.8.1 (18)*
G04*
G04 Layer_Color=65535*
%FSLAX44Y44*%
%MOMM*%
G71*
G04*
G04 #@! TF.SameCoordinates,5D46F635-8B12-49F8-90BD-38314D954B60*
G04*
G04*
G04 #@! TF.FilePolarity,Positive*
G04*
G01*
G75*
%ADD10C,0.2500*%
%ADD11C,0.2000*%
%ADD12C,0.6000*%
%ADD13C,0.2540*%
D10*
X66420Y187960D02*
G03*
X66420Y187960I-1250J0D01*
G01*
X726550Y557460D02*
G03*
X726550Y557460I-1250J0D01*
G01*
X751720Y829330D02*
G03*
X751720Y829330I-1250J0D01*
G01*
X748870Y566850D02*
G03*
X748870Y566850I-1250J0D01*
G01*
X698629Y746560D02*
G03*
X698629Y746560I-1250J0D01*
G01*
X409600Y881520D02*
G03*
X409600Y881520I-1250J0D01*
G01*
X380540Y712370D02*
G03*
X380540Y712370I-1250J0D01*
G01*
X215890Y952500D02*
G03*
X215890Y952500I-1250J0D01*
G01*
X275570Y930340D02*
G03*
X275570Y930340I-1250J0D01*
G01*
X70840Y838005D02*
G03*
X70840Y838005I-1250J0D01*
G01*
X80380Y741640D02*
G03*
X80380Y741640I-1250J0D01*
G01*
X233660Y797880D02*
G03*
X233660Y797880I-1250J0D01*
G01*
X187940Y794070D02*
G03*
X187940Y794070I-1250J0D01*
G01*
X410660Y714440D02*
G03*
X410660Y714440I-1250J0D01*
G01*
X413200Y630320D02*
G03*
X413200Y630320I-1250J0D01*
G01*
X409600Y793890D02*
G03*
X409600Y793890I-1250J0D01*
G01*
X140975Y880720D02*
G03*
X140975Y880720I-1250J0D01*
G01*
X22840Y747680D02*
G03*
X22840Y747680I-1250J0D01*
G01*
X676480Y954200D02*
G03*
X676480Y954200I-1250J0D01*
G01*
X213160Y240980D02*
G03*
X213160Y240980I-1250J0D01*
G01*
X221440Y142190D02*
G03*
X221440Y142190I-1250J0D01*
G01*
X528380Y291250D02*
G03*
X528380Y291250I-1250J0D01*
G01*
X479630Y300660D02*
G03*
X479630Y300660I-1250J0D01*
G01*
D11*
X75650Y985520D02*
G03*
X75650Y985520I-20500J0D01*
G01*
Y934720D02*
G03*
X75650Y934720I-20500J0D01*
G01*
X11820Y147960D02*
X58820D01*
Y227960D01*
X11820D02*
X58820D01*
X83910Y542830D02*
X253910D01*
X83910Y292830D02*
Y302830D01*
Y292830D02*
X108910D01*
X228910D02*
X253910D01*
Y302830D01*
X83910Y462830D02*
Y542830D01*
X253910Y462830D02*
Y542830D01*
X701550Y546460D02*
X707300D01*
X565300D02*
X571050D01*
X565300Y682710D02*
Y688460D01*
Y546460D02*
Y552210D01*
X701550Y688460D02*
X707300D01*
X565300D02*
X571050D01*
X707300Y682710D02*
Y688460D01*
Y546460D02*
Y552210D01*
X474260Y274910D02*
X496260D01*
X474260Y253410D02*
X496260D01*
X480610Y229190D02*
X502610D01*
X480610Y207690D02*
X502610D01*
X755370Y781580D02*
X914870D01*
X755370D02*
Y845580D01*
X914870Y781580D02*
Y845580D01*
X585821Y912207D02*
Y945269D01*
X562259Y912207D02*
Y945269D01*
X734610Y627970D02*
X756610D01*
X734610Y606470D02*
X756610D01*
X758370Y598850D02*
X758870D01*
X758370Y572850D02*
X758870D01*
X881540Y591450D02*
X883040D01*
X881540Y576950D02*
X883040D01*
X525429Y911839D02*
Y944901D01*
X548991Y911839D02*
Y944901D01*
X436529Y911471D02*
Y944533D01*
X460091Y911471D02*
Y944533D01*
X706440Y751560D02*
Y754060D01*
X708940D01*
X706440Y714060D02*
Y716560D01*
Y714060D02*
X708940D01*
X746440Y751560D02*
Y754060D01*
X743940D02*
X746440D01*
Y714060D02*
Y716560D01*
X743940Y714060D02*
X746440D01*
X391041Y534018D02*
Y566600D01*
X414139Y534018D02*
Y566600D01*
X444320Y544711D02*
X476902D01*
X444320Y567809D02*
X476902D01*
X433100Y833020D02*
X468600D01*
X433100Y884020D02*
X468600D01*
X282310Y687370D02*
X360310D01*
Y749240D02*
Y762970D01*
Y687370D02*
Y701100D01*
X282310Y762970D02*
X360310D01*
X282310Y749240D02*
Y762970D01*
Y687370D02*
Y701100D01*
X27958Y909320D02*
Y1010920D01*
X7150Y1003020D02*
X22150Y997561D01*
Y973479D02*
Y997561D01*
X7150Y968020D02*
X22150Y973479D01*
X7150Y968020D02*
Y1003020D01*
Y917220D02*
X22150Y922679D01*
X7150Y917220D02*
Y952220D01*
X22150Y946761D01*
Y922679D02*
Y946761D01*
X87450Y1008120D02*
Y1010920D01*
X95050Y1008120D02*
Y1010920D01*
Y1008120D02*
X96750Y1006420D01*
Y1004920D02*
Y1006420D01*
X85750Y1004920D02*
X96750D01*
X85750D02*
Y1006420D01*
X87450Y1008120D01*
X7150Y1010920D02*
X107150D01*
Y909320D02*
Y1010920D01*
X7150Y909320D02*
Y1010920D01*
X15050Y1008120D02*
Y1010920D01*
X13350Y1006420D02*
X15050Y1008120D01*
X13350Y1004920D02*
Y1006420D01*
Y1004920D02*
X24350D01*
Y1006420D01*
X22650Y1008120D02*
X24350Y1006420D01*
X22650Y1008120D02*
Y1010920D01*
X7150Y909320D02*
X107150D01*
X95050D02*
X107150D01*
X95050Y906520D02*
Y909320D01*
Y906520D02*
X96750Y904820D01*
Y903320D02*
Y904820D01*
X85750Y903320D02*
X96750D01*
X85750D02*
Y904820D01*
X87450Y906520D01*
Y909320D01*
X22650D02*
X87450D01*
X22650Y906520D02*
Y909320D01*
Y906520D02*
X24350Y904820D01*
Y903320D02*
Y904820D01*
X13350Y903320D02*
X24350D01*
X13350D02*
Y904820D01*
X15050Y906520D01*
Y909320D01*
X7150D02*
X15050D01*
X186140Y922500D02*
Y982500D01*
X203190Y921400D02*
Y932750D01*
Y972250D02*
Y983600D01*
X132090D02*
X203190D01*
X132090Y921400D02*
Y932750D01*
Y972250D02*
Y983600D01*
Y921400D02*
X203190D01*
X296340Y942749D02*
Y967331D01*
X318340Y942749D02*
Y967331D01*
X284070Y942340D02*
Y963340D01*
X264570Y942340D02*
Y963340D01*
X229760Y945730D02*
Y956730D01*
X247760Y945730D02*
Y956730D01*
X227760Y875439D02*
Y900021D01*
X249760Y875439D02*
Y900021D01*
X283880Y884190D02*
Y886190D01*
X272380Y884190D02*
Y886190D01*
X303080Y906230D02*
X342080D01*
X303080Y869230D02*
Y876980D01*
Y898480D02*
Y906230D01*
Y869230D02*
X342080D01*
Y876980D01*
Y898480D02*
Y906230D01*
X270880Y832140D02*
Y836640D01*
X285380Y832140D02*
Y836640D01*
X231510Y830870D02*
Y835370D01*
X246010Y830870D02*
Y835370D01*
X205310Y811939D02*
Y836521D01*
X183310Y811939D02*
Y836521D01*
X162960Y816880D02*
Y818880D01*
X149460Y816880D02*
Y818880D01*
X124860Y816880D02*
Y818880D01*
X111360Y816880D02*
Y818880D01*
X37840Y865205D02*
X64590D01*
X37840Y784305D02*
X64590D01*
Y789005D01*
Y860505D02*
Y865205D01*
X90880Y678890D02*
X147880D01*
X90880Y735890D02*
X147880D01*
Y678890D02*
Y735890D01*
X90880Y678890D02*
Y735890D01*
X180770Y625108D02*
Y649690D01*
X202770Y625108D02*
Y649690D01*
X215060Y625249D02*
Y649831D01*
X237060Y625249D02*
Y649831D01*
X246810Y625249D02*
Y649831D01*
X268810Y625249D02*
Y649831D01*
X277290Y625249D02*
Y649831D01*
X299290Y625249D02*
Y649831D01*
X222660Y765130D02*
Y786130D01*
X242160Y765130D02*
Y786130D01*
X176940Y761320D02*
Y782320D01*
X196440Y761320D02*
Y782320D01*
X385400Y570660D02*
Y592660D01*
X363900Y570660D02*
Y592660D01*
X332150Y570660D02*
Y592660D01*
X353650Y570660D02*
Y592660D01*
X162190Y580910D02*
Y582410D01*
X147690Y580910D02*
Y582410D01*
X434160Y665940D02*
X469660D01*
X434160Y716940D02*
X469660D01*
X436700Y581820D02*
X472200D01*
X436700Y632820D02*
X472200D01*
X433100Y745390D02*
X468600D01*
X433100Y796390D02*
X468600D01*
X159480Y856220D02*
X163970D01*
X159480Y886220D02*
X163970D01*
X8140Y663980D02*
X35040D01*
Y743180D01*
X8140D02*
X35040D01*
X8140Y663980D02*
Y743180D01*
X477169Y911839D02*
Y944901D01*
X500731Y911839D02*
Y944901D01*
X22020Y515888D02*
Y540470D01*
X44020Y515888D02*
Y540470D01*
X28780Y433338D02*
Y457920D01*
X6780Y433338D02*
Y457920D01*
X417538Y149510D02*
X442121D01*
X417538Y127510D02*
X442121D01*
X608760Y775380D02*
X630760D01*
X608760Y796880D02*
X630760D01*
X685980Y960200D02*
X686480D01*
X685980Y986200D02*
X686480D01*
X580940Y817290D02*
X602940D01*
X580940Y838790D02*
X602940D01*
X642888Y844120D02*
X667470D01*
X642888Y822120D02*
X667470D01*
X345870Y485549D02*
Y510131D01*
X367870Y485549D02*
Y510131D01*
X356030Y422049D02*
Y446631D01*
X378030Y422049D02*
Y446631D01*
X527318Y842850D02*
X551900D01*
X527318Y820850D02*
X551900D01*
X358570Y348248D02*
Y372830D01*
X380570Y348248D02*
Y372830D01*
X650591Y950034D02*
Y983096D01*
X627029Y950034D02*
Y983096D01*
X589710Y959259D02*
Y983841D01*
X611710Y959259D02*
Y983841D01*
X216660Y195230D02*
Y246730D01*
Y195230D02*
X268160D01*
Y246730D01*
X216660D02*
X268160D01*
X268948Y41560D02*
X293531D01*
X268948Y19560D02*
X293531D01*
X240690Y139490D02*
Y159990D01*
X368093Y60457D02*
Y71457D01*
X353180Y60510D02*
Y71510D01*
X425000Y201820D02*
X436000D01*
X425000Y219820D02*
X436000D01*
X345840Y145530D02*
X369340D01*
X345840Y207530D02*
X369340D01*
X218500Y37720D02*
X226000D01*
X218500Y53720D02*
X226000D01*
X570498Y331900D02*
X595080D01*
X570498Y353900D02*
X595080D01*
X545630Y296750D02*
Y304000D01*
Y204000D02*
Y211250D01*
X638380Y204000D02*
X645630D01*
X545630D02*
X552880D01*
X645630Y296750D02*
Y304000D01*
Y204000D02*
Y211250D01*
X638380Y304000D02*
X645630D01*
X545630D02*
X552880D01*
X547630Y124080D02*
X555130D01*
X547630Y140080D02*
X555130D01*
X489130Y306660D02*
X489630D01*
X489130Y332660D02*
X489630D01*
X871380Y515990D02*
X872880D01*
X871380Y530490D02*
X872880D01*
X550170Y411100D02*
X557670D01*
X550170Y427100D02*
X557670D01*
X604929Y489790D02*
X629511D01*
X604929Y467790D02*
X629511D01*
X747310Y657270D02*
X769310D01*
X747310Y678770D02*
X769310D01*
X110490Y1005840D02*
X117155D01*
X120487Y1002508D01*
X117155Y999175D01*
X110490D01*
X115488D01*
Y1005840D01*
X110490Y995843D02*
Y992511D01*
Y994177D01*
X120487D01*
X118821Y995843D01*
D12*
X103880Y725890D02*
G03*
X103880Y725890I-3000J0D01*
G01*
D13*
X33021Y261618D02*
X27943D01*
X30482D01*
Y248922D01*
X27943Y246383D01*
X25403D01*
X22864Y248922D01*
X38099Y259078D02*
X40638Y261618D01*
X45717D01*
X48256Y259078D01*
Y256539D01*
X45717Y254000D01*
X43177D01*
X45717D01*
X48256Y251461D01*
Y248922D01*
X45717Y246383D01*
X40638D01*
X38099Y248922D01*
X67314Y581657D02*
Y568962D01*
X69853Y566423D01*
X74932D01*
X77471Y568962D01*
Y581657D01*
X82549D02*
X92706D01*
Y579118D01*
X82549Y568962D01*
Y566423D01*
X553466Y725927D02*
Y713231D01*
X556005Y710692D01*
X561083D01*
X563623Y713231D01*
Y725927D01*
X568701Y713231D02*
X571240Y710692D01*
X576319D01*
X578858Y713231D01*
Y723388D01*
X576319Y725927D01*
X571240D01*
X568701Y723388D01*
Y720849D01*
X571240Y718309D01*
X578858D01*
X477523Y294638D02*
X474984Y297178D01*
X469906D01*
X467367Y294638D01*
Y284482D01*
X469906Y281943D01*
X474984D01*
X477523Y284482D01*
X492758Y281943D02*
X482602D01*
X492758Y292099D01*
Y294638D01*
X490219Y297178D01*
X485141D01*
X482602Y294638D01*
X507993Y297178D02*
X502915Y294638D01*
X497837Y289560D01*
Y284482D01*
X500376Y281943D01*
X505454D01*
X507993Y284482D01*
Y287021D01*
X505454Y289560D01*
X497837D01*
X483873Y246378D02*
X481334Y248918D01*
X476256D01*
X473717Y246378D01*
Y236222D01*
X476256Y233682D01*
X481334D01*
X483873Y236222D01*
X499108Y233682D02*
X488952D01*
X499108Y243839D01*
Y246378D01*
X496569Y248918D01*
X491491D01*
X488952Y246378D01*
X504187Y248918D02*
X514343D01*
Y246378D01*
X504187Y236222D01*
Y233682D01*
X375923Y336548D02*
X373384Y339087D01*
X368306D01*
X365767Y336548D01*
Y326392D01*
X368306Y323853D01*
X373384D01*
X375923Y326392D01*
X381002Y339087D02*
X391158D01*
Y336548D01*
X381002Y326392D01*
Y323853D01*
X396237Y336548D02*
X398776Y339087D01*
X403854D01*
X406393Y336548D01*
Y326392D01*
X403854Y323853D01*
X398776D01*
X396237Y326392D01*
Y336548D01*
X717551Y941068D02*
X712473D01*
X715012D01*
Y928372D01*
X712473Y925833D01*
X709933D01*
X707394Y928372D01*
X732786Y925833D02*
X722629D01*
X732786Y935989D01*
Y938528D01*
X730247Y941068D01*
X725168D01*
X722629Y938528D01*
X565668Y967262D02*
X564002Y968928D01*
X560670D01*
X559004Y967262D01*
Y960598D01*
X560670Y958932D01*
X564002D01*
X565668Y960598D01*
X569001Y958932D02*
X572333D01*
X570667D01*
Y968928D01*
X569001Y967262D01*
X583996Y958932D02*
X577332D01*
X583996Y965596D01*
Y967262D01*
X582330Y968928D01*
X578998D01*
X577332Y967262D01*
X811533Y593088D02*
X808993Y595628D01*
X803915D01*
X801376Y593088D01*
Y582932D01*
X803915Y580392D01*
X808993D01*
X811533Y582932D01*
X826768Y580392D02*
X816611D01*
X826768Y590549D01*
Y593088D01*
X824228Y595628D01*
X819150D01*
X816611Y593088D01*
X831846Y580392D02*
X836924D01*
X834385D01*
Y595628D01*
X831846Y593088D01*
X748033Y647698D02*
X745494Y650238D01*
X740415D01*
X737876Y647698D01*
Y637542D01*
X740415Y635003D01*
X745494D01*
X748033Y637542D01*
X753111Y635003D02*
X758190D01*
X755650D01*
Y650238D01*
X753111Y647698D01*
X773425Y635003D02*
Y650238D01*
X765807Y642620D01*
X775964D01*
X750574Y565148D02*
Y562608D01*
X755652Y557530D01*
X760731Y562608D01*
Y565148D01*
X755652Y557530D02*
Y549912D01*
X765809Y562608D02*
X768348Y565148D01*
X773427D01*
X775966Y562608D01*
Y560069D01*
X773427Y557530D01*
X770888D01*
X773427D01*
X775966Y554991D01*
Y552452D01*
X773427Y549912D01*
X768348D01*
X765809Y552452D01*
X808993Y535938D02*
X806454Y538478D01*
X801376D01*
X798837Y535938D01*
Y525782D01*
X801376Y523242D01*
X806454D01*
X808993Y525782D01*
X824228Y523242D02*
X814072D01*
X824228Y533399D01*
Y535938D01*
X821689Y538478D01*
X816611D01*
X814072Y535938D01*
X839463Y523242D02*
X829307D01*
X839463Y533399D01*
Y535938D01*
X836924Y538478D01*
X831846D01*
X829307Y535938D01*
X584203Y95248D02*
X581664Y97788D01*
X576586D01*
X574047Y95248D01*
Y85092D01*
X576586Y82552D01*
X581664D01*
X584203Y85092D01*
X599438Y82552D02*
X589282D01*
X599438Y92709D01*
Y95248D01*
X596899Y97788D01*
X591821D01*
X589282Y95248D01*
X604517D02*
X607056Y97788D01*
X612134D01*
X614673Y95248D01*
Y92709D01*
X612134Y90170D01*
X614673Y87631D01*
Y85092D01*
X612134Y82552D01*
X607056D01*
X604517Y85092D01*
Y87631D01*
X607056Y90170D01*
X604517Y92709D01*
Y95248D01*
X607056Y90170D02*
X612134D01*
X579123Y62228D02*
X576584Y64767D01*
X571506D01*
X568967Y62228D01*
Y52072D01*
X571506Y49532D01*
X576584D01*
X579123Y52072D01*
X594358Y49532D02*
X584202D01*
X594358Y59689D01*
Y62228D01*
X591819Y64767D01*
X586741D01*
X584202Y62228D01*
X599437Y52072D02*
X601976Y49532D01*
X607054D01*
X609593Y52072D01*
Y62228D01*
X607054Y64767D01*
X601976D01*
X599437Y62228D01*
Y59689D01*
X601976Y57150D01*
X609593D01*
X321313Y123188D02*
X318774Y125728D01*
X313696D01*
X311157Y123188D01*
Y113032D01*
X313696Y110492D01*
X318774D01*
X321313Y113032D01*
X326392Y123188D02*
X328931Y125728D01*
X334009D01*
X336548Y123188D01*
Y120649D01*
X334009Y118110D01*
X331470D01*
X334009D01*
X336548Y115571D01*
Y113032D01*
X334009Y110492D01*
X328931D01*
X326392Y113032D01*
X341627Y125728D02*
X351783D01*
Y123188D01*
X341627Y113032D01*
Y110492D01*
X320043Y36828D02*
X317504Y39367D01*
X312426D01*
X309887Y36828D01*
Y26672D01*
X312426Y24132D01*
X317504D01*
X320043Y26672D01*
X325122Y36828D02*
X327661Y39367D01*
X332739D01*
X335278Y36828D01*
Y34289D01*
X332739Y31750D01*
X330200D01*
X332739D01*
X335278Y29211D01*
Y26672D01*
X332739Y24132D01*
X327661D01*
X325122Y26672D01*
X340357Y36828D02*
X342896Y39367D01*
X347974D01*
X350513Y36828D01*
Y34289D01*
X347974Y31750D01*
X350513Y29211D01*
Y26672D01*
X347974Y24132D01*
X342896D01*
X340357Y26672D01*
Y29211D01*
X342896Y31750D01*
X340357Y34289D01*
Y36828D01*
X342896Y31750D02*
X347974D01*
X162563Y29208D02*
X160024Y31748D01*
X154946D01*
X152407Y29208D01*
Y19052D01*
X154946Y16513D01*
X160024D01*
X162563Y19052D01*
X175259Y16513D02*
Y31748D01*
X167642Y24130D01*
X177798D01*
X182877Y31748D02*
X193033D01*
Y29208D01*
X182877Y19052D01*
Y16513D01*
X162903Y62148D02*
X160364Y64688D01*
X155286D01*
X152747Y62148D01*
Y51992D01*
X155286Y49453D01*
X160364D01*
X162903Y51992D01*
X175599Y49453D02*
Y64688D01*
X167982Y57070D01*
X178138D01*
X193374Y64688D02*
X188295Y62148D01*
X183217Y57070D01*
Y51992D01*
X185756Y49453D01*
X190834D01*
X193374Y51992D01*
Y54531D01*
X190834Y57070D01*
X183217D01*
X160023Y132078D02*
X157484Y134618D01*
X152406D01*
X149867Y132078D01*
Y121922D01*
X152406Y119382D01*
X157484D01*
X160023Y121922D01*
X172719Y119382D02*
Y134618D01*
X165102Y127000D01*
X175258D01*
X187954Y119382D02*
Y134618D01*
X180337Y127000D01*
X190493D01*
X161293Y96518D02*
X158754Y99058D01*
X153676D01*
X151137Y96518D01*
Y86362D01*
X153676Y83822D01*
X158754D01*
X161293Y86362D01*
X173989Y83822D02*
Y99058D01*
X166372Y91440D01*
X176528D01*
X191763Y99058D02*
X181607D01*
Y91440D01*
X186685Y93979D01*
X189224D01*
X191763Y91440D01*
Y86362D01*
X189224Y83822D01*
X184146D01*
X181607Y86362D01*
X161853Y176448D02*
X159314Y178988D01*
X154236D01*
X151697Y176448D01*
Y166292D01*
X154236Y163752D01*
X159314D01*
X161853Y166292D01*
X174549Y163752D02*
Y178988D01*
X166932Y171370D01*
X177088D01*
X182167Y176448D02*
X184706Y178988D01*
X189784D01*
X192323Y176448D01*
Y173909D01*
X189784Y171370D01*
X187245D01*
X189784D01*
X192323Y168831D01*
Y166292D01*
X189784Y163752D01*
X184706D01*
X182167Y166292D01*
X165663Y215818D02*
X163124Y218358D01*
X158046D01*
X155507Y215818D01*
Y205662D01*
X158046Y203123D01*
X163124D01*
X165663Y205662D01*
X178359Y203123D02*
Y218358D01*
X170742Y210740D01*
X180898D01*
X196133Y203123D02*
X185977D01*
X196133Y213279D01*
Y215818D01*
X193594Y218358D01*
X188516D01*
X185977Y215818D01*
X31753Y52068D02*
X29214Y54608D01*
X24136D01*
X21597Y52068D01*
Y41912D01*
X24136Y39372D01*
X29214D01*
X31753Y41912D01*
X36832Y52068D02*
X39371Y54608D01*
X44449D01*
X46988Y52068D01*
Y49529D01*
X44449Y46990D01*
X41910D01*
X44449D01*
X46988Y44451D01*
Y41912D01*
X44449Y39372D01*
X39371D01*
X36832Y41912D01*
X52067D02*
X54606Y39372D01*
X59684D01*
X62223Y41912D01*
Y52068D01*
X59684Y54608D01*
X54606D01*
X52067Y52068D01*
Y49529D01*
X54606Y46990D01*
X62223D01*
X242573Y105408D02*
X240034Y107948D01*
X234956D01*
X232417Y105408D01*
Y95252D01*
X234956Y92712D01*
X240034D01*
X242573Y95252D01*
X247652Y105408D02*
X250191Y107948D01*
X255269D01*
X257808Y105408D01*
Y102869D01*
X255269Y100330D01*
X252730D01*
X255269D01*
X257808Y97791D01*
Y95252D01*
X255269Y92712D01*
X250191D01*
X247652Y95252D01*
X273043Y107948D02*
X267965Y105408D01*
X262887Y100330D01*
Y95252D01*
X265426Y92712D01*
X270504D01*
X273043Y95252D01*
Y97791D01*
X270504Y100330D01*
X262887D01*
X868683Y615948D02*
X866144Y618488D01*
X861066D01*
X858527Y615948D01*
Y605792D01*
X861066Y603252D01*
X866144D01*
X868683Y605792D01*
X883918Y603252D02*
X873762D01*
X883918Y613409D01*
Y615948D01*
X881379Y618488D01*
X876301D01*
X873762Y615948D01*
X896614Y603252D02*
Y618488D01*
X888997Y610870D01*
X899153D01*
X205232Y79497D02*
Y76958D01*
X210310Y71880D01*
X215389Y76958D01*
Y79497D01*
X210310Y71880D02*
Y64262D01*
X220467Y79497D02*
X230624D01*
Y76958D01*
X220467Y66801D01*
Y64262D01*
X220218Y187193D02*
Y184654D01*
X225296Y179576D01*
X230375Y184654D01*
Y187193D01*
X225296Y179576D02*
Y171958D01*
X235453Y184654D02*
X237992Y187193D01*
X243071D01*
X245610Y184654D01*
Y182115D01*
X243071Y179576D01*
X245610Y177036D01*
Y174497D01*
X243071Y171958D01*
X237992D01*
X235453Y174497D01*
Y177036D01*
X237992Y179576D01*
X235453Y182115D01*
Y184654D01*
X237992Y179576D02*
X243071D01*
X534416Y165857D02*
Y163318D01*
X539494Y158239D01*
X544573Y163318D01*
Y165857D01*
X539494Y158239D02*
Y150622D01*
X559808Y165857D02*
X554729Y163318D01*
X549651Y158239D01*
Y153161D01*
X552190Y150622D01*
X557269D01*
X559808Y153161D01*
Y155700D01*
X557269Y158239D01*
X549651D01*
X471932Y358389D02*
Y355850D01*
X477010Y350771D01*
X482089Y355850D01*
Y358389D01*
X477010Y350771D02*
Y343154D01*
X497324Y358389D02*
X487167D01*
Y350771D01*
X492245Y353311D01*
X494785D01*
X497324Y350771D01*
Y345693D01*
X494785Y343154D01*
X489706D01*
X487167Y345693D01*
X536956Y452877D02*
Y450338D01*
X542034Y445260D01*
X547113Y450338D01*
Y452877D01*
X542034Y445260D02*
Y437642D01*
X559809D02*
Y452877D01*
X552191Y445260D01*
X562348D01*
X668782Y1006693D02*
Y1005027D01*
X672114Y1001694D01*
X675446Y1005027D01*
Y1006693D01*
X672114Y1001694D02*
Y996696D01*
X685443D02*
X678779D01*
X685443Y1003361D01*
Y1005027D01*
X683777Y1006693D01*
X680445D01*
X678779Y1005027D01*
X320336Y646348D02*
Y644682D01*
X323668Y641350D01*
X327000Y644682D01*
Y646348D01*
X323668Y641350D02*
Y636352D01*
X330332D02*
X333665D01*
X331998D01*
Y646348D01*
X330332Y644682D01*
X211836Y275585D02*
Y262889D01*
X214375Y260350D01*
X219454D01*
X221993Y262889D01*
Y275585D01*
X227071Y260350D02*
X232149D01*
X229610D01*
Y275585D01*
X227071Y273046D01*
X239767Y260350D02*
X244845D01*
X242306D01*
Y275585D01*
X239767Y273046D01*
X527050Y342387D02*
Y329691D01*
X529589Y327152D01*
X534668D01*
X537207Y329691D01*
Y342387D01*
X542285Y327152D02*
X547363D01*
X544824D01*
Y342387D01*
X542285Y339848D01*
X554981D02*
X557520Y342387D01*
X562598D01*
X565138Y339848D01*
Y329691D01*
X562598Y327152D01*
X557520D01*
X554981Y329691D01*
Y339848D01*
X698854Y775768D02*
Y767438D01*
X700520Y765772D01*
X703852D01*
X705519Y767438D01*
Y775768D01*
X708851Y774102D02*
X710517Y775768D01*
X713849D01*
X715515Y774102D01*
Y772436D01*
X713849Y770770D01*
X715515Y769104D01*
Y767438D01*
X713849Y765772D01*
X710517D01*
X708851Y767438D01*
Y769104D01*
X710517Y770770D01*
X708851Y772436D01*
Y774102D01*
X710517Y770770D02*
X713849D01*
X408229Y902888D02*
Y894558D01*
X409896Y892892D01*
X413228D01*
X414894Y894558D01*
Y902888D01*
X424891D02*
X421558Y901222D01*
X418226Y897890D01*
Y894558D01*
X419892Y892892D01*
X423224D01*
X424891Y894558D01*
Y896224D01*
X423224Y897890D01*
X418226D01*
X408432Y817463D02*
Y809132D01*
X410098Y807466D01*
X413430D01*
X415097Y809132D01*
Y817463D01*
X425093D02*
X418429D01*
Y812464D01*
X421761Y814130D01*
X423427D01*
X425093Y812464D01*
Y809132D01*
X423427Y807466D01*
X420095D01*
X418429Y809132D01*
X409448Y737961D02*
Y729630D01*
X411114Y727964D01*
X414446D01*
X416113Y729630D01*
Y737961D01*
X424443Y727964D02*
Y737961D01*
X419445Y732962D01*
X426109D01*
X411988Y653887D02*
Y645556D01*
X413654Y643890D01*
X416986D01*
X418652Y645556D01*
Y653887D01*
X421985Y652221D02*
X423651Y653887D01*
X426983D01*
X428649Y652221D01*
Y650555D01*
X426983Y648888D01*
X425317D01*
X426983D01*
X428649Y647222D01*
Y645556D01*
X426983Y643890D01*
X423651D01*
X421985Y645556D01*
X71679Y770808D02*
Y762478D01*
X73345Y760812D01*
X76678D01*
X78344Y762478D01*
Y770808D01*
X88341Y760812D02*
X81676D01*
X88341Y767476D01*
Y769142D01*
X86674Y770808D01*
X83342D01*
X81676Y769142D01*
X139700Y911093D02*
Y898397D01*
X142239Y895858D01*
X147317D01*
X149857Y898397D01*
Y911093D01*
X154935Y895858D02*
X160013D01*
X157474D01*
Y911093D01*
X154935Y908554D01*
X276942Y779302D02*
X275275Y780968D01*
X271943D01*
X270277Y779302D01*
Y777636D01*
X271943Y775970D01*
X275275D01*
X276942Y774304D01*
Y772638D01*
X275275Y770972D01*
X271943D01*
X270277Y772638D01*
X280274Y780968D02*
Y770972D01*
X283606Y774304D01*
X286938Y770972D01*
Y780968D01*
X290271Y770972D02*
X293603D01*
X291937D01*
Y780968D01*
X290271Y779302D01*
X269442Y50118D02*
Y65353D01*
X277059D01*
X279599Y62814D01*
Y57736D01*
X277059Y55196D01*
X269442D01*
X274520D02*
X279599Y50118D01*
X294834D02*
X284677D01*
X294834Y60275D01*
Y62814D01*
X292295Y65353D01*
X287216D01*
X284677Y62814D01*
X310069Y65353D02*
X299912D01*
Y57736D01*
X304991Y60275D01*
X307530D01*
X310069Y57736D01*
Y52657D01*
X307530Y50118D01*
X302451D01*
X299912Y52657D01*
X570992Y362458D02*
Y377693D01*
X578610D01*
X581149Y375154D01*
Y370075D01*
X578610Y367536D01*
X570992D01*
X576070D02*
X581149Y362458D01*
X596384D02*
X586227D01*
X596384Y372615D01*
Y375154D01*
X593845Y377693D01*
X588766D01*
X586227Y375154D01*
X609080Y362458D02*
Y377693D01*
X601462Y370075D01*
X611619D01*
X605536Y498348D02*
Y513583D01*
X613153D01*
X615693Y511044D01*
Y505965D01*
X613153Y503426D01*
X605536D01*
X610614D02*
X615693Y498348D01*
X630928D02*
X620771D01*
X630928Y508505D01*
Y511044D01*
X628389Y513583D01*
X623310D01*
X620771Y511044D01*
X636006D02*
X638545Y513583D01*
X643624D01*
X646163Y511044D01*
Y508505D01*
X643624Y505965D01*
X641085D01*
X643624D01*
X646163Y503426D01*
Y500887D01*
X643624Y498348D01*
X638545D01*
X636006Y500887D01*
X418032Y158068D02*
Y173303D01*
X425649D01*
X428189Y170764D01*
Y165686D01*
X425649Y163146D01*
X418032D01*
X423110D02*
X428189Y158068D01*
X443424D02*
X433267D01*
X443424Y168225D01*
Y170764D01*
X440885Y173303D01*
X435806D01*
X433267Y170764D01*
X458659Y158068D02*
X448502D01*
X458659Y168225D01*
Y170764D01*
X456120Y173303D01*
X451041D01*
X448502Y170764D01*
X627634Y996696D02*
Y1006693D01*
X632632D01*
X634299Y1005027D01*
Y1001694D01*
X632632Y1000028D01*
X627634D01*
X630966D02*
X634299Y996696D01*
X644295D02*
X637631D01*
X644295Y1003361D01*
Y1005027D01*
X642629Y1006693D01*
X639297D01*
X637631Y1005027D01*
X647628Y996696D02*
X650960D01*
X649294D01*
Y1006693D01*
X647628Y1005027D01*
X591312Y993394D02*
Y1003391D01*
X596310D01*
X597976Y1001725D01*
Y998392D01*
X596310Y996726D01*
X591312D01*
X594644D02*
X597976Y993394D01*
X607973D02*
X601309D01*
X607973Y1000059D01*
Y1001725D01*
X606307Y1003391D01*
X602975D01*
X601309Y1001725D01*
X611306D02*
X612972Y1003391D01*
X616304D01*
X617970Y1001725D01*
Y995060D01*
X616304Y993394D01*
X612972D01*
X611306Y995060D01*
Y1001725D01*
X527812Y851408D02*
Y861405D01*
X532810D01*
X534477Y859739D01*
Y856406D01*
X532810Y854740D01*
X527812D01*
X531144D02*
X534477Y851408D01*
X537809D02*
X541141D01*
X539475D01*
Y861405D01*
X537809Y859739D01*
X546139Y853074D02*
X547806Y851408D01*
X551138D01*
X552804Y853074D01*
Y859739D01*
X551138Y861405D01*
X547806D01*
X546139Y859739D01*
Y858073D01*
X547806Y856406D01*
X552804D01*
X643382Y852678D02*
Y862675D01*
X648380D01*
X650046Y861009D01*
Y857676D01*
X648380Y856010D01*
X643382D01*
X646714D02*
X650046Y852678D01*
X653379D02*
X656711D01*
X655045D01*
Y862675D01*
X653379Y861009D01*
X661709D02*
X663376Y862675D01*
X666708D01*
X668374Y861009D01*
Y859342D01*
X666708Y857676D01*
X668374Y856010D01*
Y854344D01*
X666708Y852678D01*
X663376D01*
X661709Y854344D01*
Y856010D01*
X663376Y857676D01*
X661709Y859342D01*
Y861009D01*
X663376Y857676D02*
X666708D01*
X347472Y519684D02*
Y534919D01*
X355089D01*
X357629Y532380D01*
Y527301D01*
X355089Y524762D01*
X347472D01*
X352550D02*
X357629Y519684D01*
X362707D02*
X367785D01*
X365246D01*
Y534919D01*
X362707Y532380D01*
X375403Y534919D02*
X385560D01*
Y532380D01*
X375403Y522223D01*
Y519684D01*
X357632Y456184D02*
Y471419D01*
X365249D01*
X367789Y468880D01*
Y463801D01*
X365249Y461262D01*
X357632D01*
X362710D02*
X367789Y456184D01*
X372867D02*
X377945D01*
X375406D01*
Y471419D01*
X372867Y468880D01*
X395720Y471419D02*
X390641Y468880D01*
X385563Y463801D01*
Y458723D01*
X388102Y456184D01*
X393181D01*
X395720Y458723D01*
Y461262D01*
X393181Y463801D01*
X385563D01*
X360172Y382524D02*
Y397759D01*
X367789D01*
X370329Y395220D01*
Y390141D01*
X367789Y387602D01*
X360172D01*
X365250D02*
X370329Y382524D01*
X375407D02*
X380485D01*
X377946D01*
Y397759D01*
X375407Y395220D01*
X398260Y397759D02*
X388103D01*
Y390141D01*
X393181Y392681D01*
X395720D01*
X398260Y390141D01*
Y385063D01*
X395720Y382524D01*
X390642D01*
X388103Y385063D01*
X23622Y550164D02*
Y565399D01*
X31240D01*
X33779Y562860D01*
Y557781D01*
X31240Y555242D01*
X23622D01*
X28700D02*
X33779Y550164D01*
X38857D02*
X43935D01*
X41396D01*
Y565399D01*
X38857Y562860D01*
X59170Y550164D02*
Y565399D01*
X51553Y557781D01*
X61710D01*
X8382Y467614D02*
Y482849D01*
X15999D01*
X18539Y480310D01*
Y475232D01*
X15999Y472692D01*
X8382D01*
X13460D02*
X18539Y467614D01*
X23617D02*
X28695D01*
X26156D01*
Y482849D01*
X23617Y480310D01*
X36313D02*
X38852Y482849D01*
X43931D01*
X46470Y480310D01*
Y477771D01*
X43931Y475232D01*
X41391D01*
X43931D01*
X46470Y472692D01*
Y470153D01*
X43931Y467614D01*
X38852D01*
X36313Y470153D01*
X487362Y570026D02*
X497359D01*
Y565028D01*
X495693Y563361D01*
X492361D01*
X490695Y565028D01*
Y570026D01*
Y566694D02*
X487362Y563361D01*
Y560029D02*
Y556697D01*
Y558363D01*
X497359D01*
X495693Y560029D01*
X487362Y545034D02*
Y551698D01*
X494027Y545034D01*
X495693D01*
X497359Y546700D01*
Y550032D01*
X495693Y551698D01*
X182210Y656531D02*
Y666528D01*
X187209D01*
X188875Y664861D01*
Y661529D01*
X187209Y659863D01*
X182210D01*
X185542D02*
X188875Y656531D01*
X192207D02*
X195539D01*
X193873D01*
Y666528D01*
X192207Y664861D01*
X200538Y656531D02*
X203870D01*
X202204D01*
Y666528D01*
X200538Y664861D01*
X394259Y576662D02*
Y586658D01*
X399258D01*
X400924Y584992D01*
Y581660D01*
X399258Y579994D01*
X394259D01*
X397592D02*
X400924Y576662D01*
X404256Y584992D02*
X405922Y586658D01*
X409254D01*
X410921Y584992D01*
Y583326D01*
X409254Y581660D01*
X410921Y579994D01*
Y578328D01*
X409254Y576662D01*
X405922D01*
X404256Y578328D01*
Y579994D01*
X405922Y581660D01*
X404256Y583326D01*
Y584992D01*
X405922Y581660D02*
X409254D01*
X213564Y656672D02*
Y666668D01*
X218562D01*
X220229Y665002D01*
Y661670D01*
X218562Y660004D01*
X213564D01*
X216896D02*
X220229Y656672D01*
X223561D02*
X226893D01*
X225227D01*
Y666668D01*
X223561Y665002D01*
X231891D02*
X233558Y666668D01*
X236890D01*
X238556Y665002D01*
Y658338D01*
X236890Y656672D01*
X233558D01*
X231891Y658338D01*
Y665002D01*
X249479Y656672D02*
Y666668D01*
X254478D01*
X256144Y665002D01*
Y661670D01*
X254478Y660004D01*
X249479D01*
X252812D02*
X256144Y656672D01*
X259476Y658338D02*
X261142Y656672D01*
X264475D01*
X266141Y658338D01*
Y665002D01*
X264475Y666668D01*
X261142D01*
X259476Y665002D01*
Y663336D01*
X261142Y661670D01*
X266141D01*
X279959Y656672D02*
Y666668D01*
X284958D01*
X286624Y665002D01*
Y661670D01*
X284958Y660004D01*
X279959D01*
X283292D02*
X286624Y656672D01*
X289956Y666668D02*
X296621D01*
Y665002D01*
X289956Y658338D01*
Y656672D01*
X111049Y842092D02*
Y852088D01*
X116048D01*
X117714Y850422D01*
Y847090D01*
X116048Y845424D01*
X111049D01*
X114382D02*
X117714Y842092D01*
X127711Y852088D02*
X124378Y850422D01*
X121046Y847090D01*
Y843758D01*
X122712Y842092D01*
X126045D01*
X127711Y843758D01*
Y845424D01*
X126045Y847090D01*
X121046D01*
X147879Y842092D02*
Y852088D01*
X152878D01*
X154544Y850422D01*
Y847090D01*
X152878Y845424D01*
X147879D01*
X151212D02*
X154544Y842092D01*
X164541Y852088D02*
X157876D01*
Y847090D01*
X161208Y848756D01*
X162875D01*
X164541Y847090D01*
Y843758D01*
X162875Y842092D01*
X159542D01*
X157876Y843758D01*
X185979Y842092D02*
Y852088D01*
X190978D01*
X192644Y850422D01*
Y847090D01*
X190978Y845424D01*
X185979D01*
X189312D02*
X192644Y842092D01*
X200975D02*
Y852088D01*
X195976Y847090D01*
X202641D01*
X300279Y975442D02*
Y985438D01*
X305278D01*
X306944Y983772D01*
Y980440D01*
X305278Y978774D01*
X300279D01*
X303612D02*
X306944Y975442D01*
X310276Y983772D02*
X311942Y985438D01*
X315275D01*
X316941Y983772D01*
Y982106D01*
X315275Y980440D01*
X313608D01*
X315275D01*
X316941Y978774D01*
Y977108D01*
X315275Y975442D01*
X311942D01*
X310276Y977108D01*
X231699Y905592D02*
Y915588D01*
X236698D01*
X238364Y913922D01*
Y910590D01*
X236698Y908924D01*
X231699D01*
X235032D02*
X238364Y905592D01*
X248361D02*
X241696D01*
X248361Y912256D01*
Y913922D01*
X246695Y915588D01*
X243362D01*
X241696Y913922D01*
X271465Y903052D02*
Y913048D01*
X276464D01*
X278130Y911382D01*
Y908050D01*
X276464Y906384D01*
X271465D01*
X274798D02*
X278130Y903052D01*
X281462D02*
X284795D01*
X283128D01*
Y913048D01*
X281462Y911382D01*
X8382Y757682D02*
Y772917D01*
X15999D01*
X18539Y770378D01*
Y765300D01*
X15999Y762760D01*
X8382D01*
X23617Y757682D02*
X28695D01*
X26156D01*
Y772917D01*
X23617Y770378D01*
X36313D02*
X38852Y772917D01*
X43931D01*
X46470Y770378D01*
Y760221D01*
X43931Y757682D01*
X38852D01*
X36313Y760221D01*
Y770378D01*
X326724Y232405D02*
Y217170D01*
X336881D01*
X341959Y229866D02*
X344498Y232405D01*
X349577D01*
X352116Y229866D01*
Y227327D01*
X349577Y224788D01*
X347037D01*
X349577D01*
X352116Y222248D01*
Y219709D01*
X349577Y217170D01*
X344498D01*
X341959Y219709D01*
X354838Y98039D02*
Y82804D01*
X364995D01*
X380230D02*
X370073D01*
X380230Y92961D01*
Y95500D01*
X377691Y98039D01*
X372612D01*
X370073Y95500D01*
X326076Y921938D02*
Y911942D01*
X332740D01*
X336072D02*
X339404D01*
X337738D01*
Y921938D01*
X336072Y920272D01*
X23710Y885633D02*
X20378D01*
X22044D01*
Y877303D01*
X20378Y875637D01*
X18712D01*
X17046Y877303D01*
X27042Y875637D02*
X30375D01*
X28708D01*
Y885633D01*
X27042Y883967D01*
X119298Y918210D02*
Y924874D01*
X109302D01*
Y918210D01*
X114300Y924874D02*
Y921542D01*
X109302Y914878D02*
Y911545D01*
Y913212D01*
X119298D01*
X117632Y914878D01*
X198038Y741121D02*
X188042D01*
Y736122D01*
X189708Y734456D01*
X196372D01*
X198038Y736122D01*
Y741121D01*
X188042Y726125D02*
X198038D01*
X193040Y731124D01*
Y724459D01*
X238678Y750941D02*
X228682D01*
Y745942D01*
X230348Y744276D01*
X237012D01*
X238678Y745942D01*
Y750941D01*
X237012Y740944D02*
X238678Y739278D01*
Y735945D01*
X237012Y734279D01*
X235346D01*
X233680Y735945D01*
Y737612D01*
Y735945D01*
X232014Y734279D01*
X230348D01*
X228682Y735945D01*
Y739278D01*
X230348Y740944D01*
X265989Y986708D02*
Y976712D01*
X270988D01*
X272654Y978378D01*
Y985042D01*
X270988Y986708D01*
X265989D01*
X282651Y976712D02*
X275986D01*
X282651Y983376D01*
Y985042D01*
X280984Y986708D01*
X277652D01*
X275986Y985042D01*
X129226Y1000678D02*
Y990682D01*
X134224D01*
X135890Y992348D01*
Y999012D01*
X134224Y1000678D01*
X129226D01*
X139222Y990682D02*
X142555D01*
X140888D01*
Y1000678D01*
X139222Y999012D01*
X422145Y242058D02*
X419605Y244597D01*
X414527D01*
X411988Y242058D01*
Y231901D01*
X414527Y229362D01*
X419605D01*
X422145Y231901D01*
X434841Y229362D02*
Y244597D01*
X427223Y236980D01*
X437380D01*
X442458Y242058D02*
X444997Y244597D01*
X450076D01*
X452615Y242058D01*
Y239519D01*
X450076Y236980D01*
X452615Y234440D01*
Y231901D01*
X450076Y229362D01*
X444997D01*
X442458Y231901D01*
Y234440D01*
X444997Y236980D01*
X442458Y239519D01*
Y242058D01*
X444997Y236980D02*
X450076D01*
X359407Y285746D02*
X356867Y288285D01*
X351789D01*
X349250Y285746D01*
Y275589D01*
X351789Y273050D01*
X356867D01*
X359407Y275589D01*
X372103Y273050D02*
Y288285D01*
X364485Y280667D01*
X374642D01*
X379720Y275589D02*
X382259Y273050D01*
X387338D01*
X389877Y275589D01*
Y285746D01*
X387338Y288285D01*
X382259D01*
X379720Y285746D01*
Y283207D01*
X382259Y280667D01*
X389877D01*
X116075Y271014D02*
X113535Y273553D01*
X108457D01*
X105918Y271014D01*
Y260857D01*
X108457Y258318D01*
X113535D01*
X116075Y260857D01*
X128771Y258318D02*
Y273553D01*
X121153Y265935D01*
X131310D01*
X136388Y258318D02*
X141467D01*
X138927D01*
Y273553D01*
X136388Y271014D01*
X31493Y104644D02*
X28953Y107183D01*
X23875D01*
X21336Y104644D01*
Y94487D01*
X23875Y91948D01*
X28953D01*
X31493Y94487D01*
X44189Y91948D02*
Y107183D01*
X36571Y99565D01*
X46728D01*
X51806Y104644D02*
X54345Y107183D01*
X59424D01*
X61963Y104644D01*
Y94487D01*
X59424Y91948D01*
X54345D01*
X51806Y94487D01*
Y104644D01*
X274519Y303606D02*
X271980Y306145D01*
X266901D01*
X264362Y303606D01*
Y293449D01*
X266901Y290910D01*
X271980D01*
X274519Y293449D01*
X279597Y303606D02*
X282136Y306145D01*
X287215D01*
X289754Y303606D01*
Y301067D01*
X287215Y298528D01*
X284675D01*
X287215D01*
X289754Y295988D01*
Y293449D01*
X287215Y290910D01*
X282136D01*
X279597Y293449D01*
X304989Y306145D02*
X294832D01*
Y298528D01*
X299911Y301067D01*
X302450D01*
X304989Y298528D01*
Y293449D01*
X302450Y290910D01*
X297371D01*
X294832Y293449D01*
X695703Y236724D02*
X693164Y239263D01*
X688085D01*
X685546Y236724D01*
Y226567D01*
X688085Y224028D01*
X693164D01*
X695703Y226567D01*
X700781Y236724D02*
X703320Y239263D01*
X708399D01*
X710938Y236724D01*
Y234185D01*
X708399Y231646D01*
X705859D01*
X708399D01*
X710938Y229106D01*
Y226567D01*
X708399Y224028D01*
X703320D01*
X700781Y226567D01*
X723634Y224028D02*
Y239263D01*
X716016Y231646D01*
X726173D01*
X693163Y282444D02*
X690623Y284983D01*
X685545D01*
X683006Y282444D01*
Y272287D01*
X685545Y269748D01*
X690623D01*
X693163Y272287D01*
X698241Y282444D02*
X700780Y284983D01*
X705859D01*
X708398Y282444D01*
Y279905D01*
X705859Y277365D01*
X703319D01*
X705859D01*
X708398Y274826D01*
Y272287D01*
X705859Y269748D01*
X700780D01*
X698241Y272287D01*
X713476Y282444D02*
X716015Y284983D01*
X721094D01*
X723633Y282444D01*
Y279905D01*
X721094Y277365D01*
X718555D01*
X721094D01*
X723633Y274826D01*
Y272287D01*
X721094Y269748D01*
X716015D01*
X713476Y272287D01*
X691893Y325624D02*
X689353Y328163D01*
X684275D01*
X681736Y325624D01*
Y315467D01*
X684275Y312928D01*
X689353D01*
X691893Y315467D01*
X696971Y325624D02*
X699510Y328163D01*
X704589D01*
X707128Y325624D01*
Y323085D01*
X704589Y320546D01*
X702049D01*
X704589D01*
X707128Y318006D01*
Y315467D01*
X704589Y312928D01*
X699510D01*
X696971Y315467D01*
X722363Y312928D02*
X712206D01*
X722363Y323085D01*
Y325624D01*
X719824Y328163D01*
X714745D01*
X712206Y325624D01*
X629917Y172716D02*
X627378Y175255D01*
X622299D01*
X619760Y172716D01*
Y162559D01*
X622299Y160020D01*
X627378D01*
X629917Y162559D01*
X634995Y172716D02*
X637534Y175255D01*
X642613D01*
X645152Y172716D01*
Y170177D01*
X642613Y167638D01*
X640073D01*
X642613D01*
X645152Y165098D01*
Y162559D01*
X642613Y160020D01*
X637534D01*
X634995Y162559D01*
X650230Y160020D02*
X655309D01*
X652769D01*
Y175255D01*
X650230Y172716D01*
X867915Y554986D02*
X865376Y557525D01*
X860297D01*
X857758Y554986D01*
Y544829D01*
X860297Y542290D01*
X865376D01*
X867915Y544829D01*
X883150Y542290D02*
X872993D01*
X883150Y552447D01*
Y554986D01*
X880611Y557525D01*
X875532D01*
X872993Y554986D01*
X898385Y557525D02*
X888228D01*
Y549907D01*
X893307Y552447D01*
X895846D01*
X898385Y549907D01*
Y544829D01*
X895846Y542290D01*
X890767D01*
X888228Y544829D01*
X807717Y483866D02*
X805178Y486405D01*
X800099D01*
X797560Y483866D01*
Y473709D01*
X800099Y471170D01*
X805178D01*
X807717Y473709D01*
X822952Y471170D02*
X812795D01*
X822952Y481327D01*
Y483866D01*
X820413Y486405D01*
X815334D01*
X812795Y483866D01*
X828030D02*
X830569Y486405D01*
X835648D01*
X838187Y483866D01*
Y481327D01*
X835648Y478787D01*
X833109D01*
X835648D01*
X838187Y476248D01*
Y473709D01*
X835648Y471170D01*
X830569D01*
X828030Y473709D01*
X810003Y650744D02*
X807464Y653283D01*
X802385D01*
X799846Y650744D01*
Y640587D01*
X802385Y638048D01*
X807464D01*
X810003Y640587D01*
X825238Y638048D02*
X815081D01*
X825238Y648205D01*
Y650744D01*
X822699Y653283D01*
X817620D01*
X815081Y650744D01*
X830316D02*
X832855Y653283D01*
X837934D01*
X840473Y650744D01*
Y640587D01*
X837934Y638048D01*
X832855D01*
X830316Y640587D01*
Y650744D01*
X811527Y710434D02*
X808988Y712973D01*
X803909D01*
X801370Y710434D01*
Y700277D01*
X803909Y697738D01*
X808988D01*
X811527Y700277D01*
X816605Y697738D02*
X821683D01*
X819144D01*
Y712973D01*
X816605Y710434D01*
X829301Y700277D02*
X831840Y697738D01*
X836918D01*
X839458Y700277D01*
Y710434D01*
X836918Y712973D01*
X831840D01*
X829301Y710434D01*
Y707895D01*
X831840Y705356D01*
X839458D01*
X811273Y767584D02*
X808734Y770123D01*
X803655D01*
X801116Y767584D01*
Y757427D01*
X803655Y754888D01*
X808734D01*
X811273Y757427D01*
X816351Y754888D02*
X821429D01*
X818890D01*
Y770123D01*
X816351Y767584D01*
X829047D02*
X831586Y770123D01*
X836665D01*
X839204Y767584D01*
Y765045D01*
X836665Y762505D01*
X839204Y759966D01*
Y757427D01*
X836665Y754888D01*
X831586D01*
X829047Y757427D01*
Y759966D01*
X831586Y762505D01*
X829047Y765045D01*
Y767584D01*
X831586Y762505D02*
X836665D01*
X551939Y516886D02*
X549399Y519425D01*
X544321D01*
X541782Y516886D01*
Y506729D01*
X544321Y504190D01*
X549399D01*
X551939Y506729D01*
X557017Y504190D02*
X562095D01*
X559556D01*
Y519425D01*
X557017Y516886D01*
X569713Y519425D02*
X579870D01*
Y516886D01*
X569713Y506729D01*
Y504190D01*
X548637Y485136D02*
X546097Y487675D01*
X541019D01*
X538480Y485136D01*
Y474979D01*
X541019Y472440D01*
X546097D01*
X548637Y474979D01*
X553715Y472440D02*
X558793D01*
X556254D01*
Y487675D01*
X553715Y485136D01*
X576568Y487675D02*
X571489Y485136D01*
X566411Y480057D01*
Y474979D01*
X568950Y472440D01*
X574029D01*
X576568Y474979D01*
Y477518D01*
X574029Y480057D01*
X566411D01*
X755901Y700020D02*
X753362Y702559D01*
X748283D01*
X745744Y700020D01*
Y689863D01*
X748283Y687324D01*
X753362D01*
X755901Y689863D01*
X760979Y687324D02*
X766057D01*
X763518D01*
Y702559D01*
X760979Y700020D01*
X783832Y702559D02*
X773675D01*
Y694941D01*
X778753Y697481D01*
X781292D01*
X783832Y694941D01*
Y689863D01*
X781292Y687324D01*
X776214D01*
X773675Y689863D01*
X531379Y964722D02*
X529712Y966388D01*
X526380D01*
X524714Y964722D01*
Y958058D01*
X526380Y956392D01*
X529712D01*
X531379Y958058D01*
X534711Y956392D02*
X538043D01*
X536377D01*
Y966388D01*
X534711Y964722D01*
X543041D02*
X544708Y966388D01*
X548040D01*
X549706Y964722D01*
Y963056D01*
X548040Y961390D01*
X546374D01*
X548040D01*
X549706Y959724D01*
Y958058D01*
X548040Y956392D01*
X544708D01*
X543041Y958058D01*
X439583Y964722D02*
X437917Y966388D01*
X434585D01*
X432919Y964722D01*
Y958058D01*
X434585Y956392D01*
X437917D01*
X439583Y958058D01*
X442915Y956392D02*
X446248D01*
X444582D01*
Y966388D01*
X442915Y964722D01*
X451246Y956392D02*
X454578D01*
X452912D01*
Y966388D01*
X451246Y964722D01*
X459577D02*
X461243Y966388D01*
X464575D01*
X466241Y964722D01*
Y958058D01*
X464575Y956392D01*
X461243D01*
X459577Y958058D01*
Y964722D01*
X150775Y610392D02*
X149109Y612058D01*
X145776D01*
X144110Y610392D01*
Y603728D01*
X145776Y602062D01*
X149109D01*
X150775Y603728D01*
X154107Y602062D02*
X157439D01*
X155773D01*
Y612058D01*
X154107Y610392D01*
X162438Y602062D02*
X165770D01*
X164104D01*
Y612058D01*
X162438Y610392D01*
X484439Y966927D02*
X482772Y968593D01*
X479440D01*
X477774Y966927D01*
Y960262D01*
X479440Y958596D01*
X482772D01*
X484439Y960262D01*
X487771Y958596D02*
X491103D01*
X489437D01*
Y968593D01*
X487771Y966927D01*
X496101D02*
X497768Y968593D01*
X501100D01*
X502766Y966927D01*
Y960262D01*
X501100Y958596D01*
X497768D01*
X496101Y960262D01*
Y966927D01*
X506098D02*
X507764Y968593D01*
X511097D01*
X512763Y966927D01*
Y960262D01*
X511097Y958596D01*
X507764D01*
X506098Y960262D01*
Y966927D01*
X182129Y609502D02*
X180462Y611168D01*
X177130D01*
X175464Y609502D01*
Y602838D01*
X177130Y601172D01*
X180462D01*
X182129Y602838D01*
X185461Y601172D02*
X188793D01*
X187127D01*
Y611168D01*
X185461Y609502D01*
X193792D02*
X195458Y611168D01*
X198790D01*
X200456Y609502D01*
Y602838D01*
X198790Y601172D01*
X195458D01*
X193792Y602838D01*
Y609502D01*
X586039Y855675D02*
X584372Y857341D01*
X581040D01*
X579374Y855675D01*
Y849010D01*
X581040Y847344D01*
X584372D01*
X586039Y849010D01*
X589371D02*
X591037Y847344D01*
X594369D01*
X596035Y849010D01*
Y855675D01*
X594369Y857341D01*
X591037D01*
X589371Y855675D01*
Y854008D01*
X591037Y852342D01*
X596035D01*
X599368Y855675D02*
X601034Y857341D01*
X604366D01*
X606032Y855675D01*
Y849010D01*
X604366Y847344D01*
X601034D01*
X599368Y849010D01*
Y855675D01*
X221854Y610012D02*
X220188Y611678D01*
X216856D01*
X215189Y610012D01*
Y603348D01*
X216856Y601682D01*
X220188D01*
X221854Y603348D01*
X225186D02*
X226852Y601682D01*
X230184D01*
X231851Y603348D01*
Y610012D01*
X230184Y611678D01*
X226852D01*
X225186Y610012D01*
Y608346D01*
X226852Y606680D01*
X231851D01*
X613979Y813765D02*
X612312Y815431D01*
X608980D01*
X607314Y813765D01*
Y807100D01*
X608980Y805434D01*
X612312D01*
X613979Y807100D01*
X617311Y813765D02*
X618977Y815431D01*
X622309D01*
X623975Y813765D01*
Y812098D01*
X622309Y810432D01*
X623975Y808766D01*
Y807100D01*
X622309Y805434D01*
X618977D01*
X617311Y807100D01*
Y808766D01*
X618977Y810432D01*
X617311Y812098D01*
Y813765D01*
X618977Y810432D02*
X622309D01*
X627308Y813765D02*
X628974Y815431D01*
X632306D01*
X633972Y813765D01*
Y807100D01*
X632306Y805434D01*
X628974D01*
X627308Y807100D01*
Y813765D01*
X252334Y610392D02*
X250668Y612058D01*
X247335D01*
X245669Y610392D01*
Y603728D01*
X247335Y602062D01*
X250668D01*
X252334Y603728D01*
X255666Y610392D02*
X257332Y612058D01*
X260665D01*
X262331Y610392D01*
Y608726D01*
X260665Y607060D01*
X262331Y605394D01*
Y603728D01*
X260665Y602062D01*
X257332D01*
X255666Y603728D01*
Y605394D01*
X257332Y607060D01*
X255666Y608726D01*
Y610392D01*
X257332Y607060D02*
X260665D01*
X282814Y610392D02*
X281148Y612058D01*
X277815D01*
X276149Y610392D01*
Y603728D01*
X277815Y602062D01*
X281148D01*
X282814Y603728D01*
X286146Y612058D02*
X292811D01*
Y610392D01*
X286146Y603728D01*
Y602062D01*
X310754Y610392D02*
X309088Y612058D01*
X305756D01*
X304089Y610392D01*
Y603728D01*
X305756Y602062D01*
X309088D01*
X310754Y603728D01*
X320751Y612058D02*
X317418Y610392D01*
X314086Y607060D01*
Y603728D01*
X315752Y602062D01*
X319084D01*
X320751Y603728D01*
Y605394D01*
X319084Y607060D01*
X314086D01*
X341234Y610392D02*
X339568Y612058D01*
X336236D01*
X334569Y610392D01*
Y603728D01*
X336236Y602062D01*
X339568D01*
X341234Y603728D01*
X351231Y612058D02*
X344566D01*
Y607060D01*
X347898Y608726D01*
X349565D01*
X351231Y607060D01*
Y603728D01*
X349565Y602062D01*
X346232D01*
X344566Y603728D01*
X372984Y610392D02*
X371318Y612058D01*
X367985D01*
X366319Y610392D01*
Y603728D01*
X367985Y602062D01*
X371318D01*
X372984Y603728D01*
X381315Y602062D02*
Y612058D01*
X376316Y607060D01*
X382981D01*
X276464Y861852D02*
X274798Y863518D01*
X271465D01*
X269799Y861852D01*
Y855188D01*
X271465Y853522D01*
X274798D01*
X276464Y855188D01*
X279796Y861852D02*
X281462Y863518D01*
X284795D01*
X286461Y861852D01*
Y860186D01*
X284795Y858520D01*
X283128D01*
X284795D01*
X286461Y856854D01*
Y855188D01*
X284795Y853522D01*
X281462D01*
X279796Y855188D01*
X237094Y860582D02*
X235428Y862248D01*
X232096D01*
X230429Y860582D01*
Y853918D01*
X232096Y852252D01*
X235428D01*
X237094Y853918D01*
X247091Y852252D02*
X240426D01*
X247091Y858916D01*
Y860582D01*
X245424Y862248D01*
X242092D01*
X240426Y860582D01*
X238760Y985042D02*
X237094Y986708D01*
X233762D01*
X232096Y985042D01*
Y978378D01*
X233762Y976712D01*
X237094D01*
X238760Y978378D01*
X242092Y976712D02*
X245424D01*
X243758D01*
Y986708D01*
X242092Y985042D01*
M02*
