G04*
G04 #@! TF.GenerationSoftware,Altium Limited,Altium Designer,25.8.1 (18)*
G04*
G04 Layer_Color=65535*
%FSLAX44Y44*%
%MOMM*%
G71*
G04*
G04 #@! TF.SameCoordinates,F31D41C2-E8F0-4E3F-8BC2-1775C9FB2E47*
G04*
G04*
G04 #@! TF.FilePolarity,Positive*
G04*
G01*
G75*
%ADD10C,0.2500*%
%ADD11C,0.6000*%
%ADD12C,0.2000*%
%ADD13C,0.2540*%
D10*
X488781Y99260D02*
G03*
X488781Y99260I-1250J0D01*
G01*
X469540Y396520D02*
G03*
X469540Y396520I-1250J0D01*
G01*
X545760Y549910D02*
G03*
X545760Y549910I-1250J0D01*
G01*
X536190Y515620D02*
G03*
X536190Y515620I-1250J0D01*
G01*
X621090Y584620D02*
G03*
X621090Y584620I-1250J0D01*
G01*
X304640Y365170D02*
G03*
X304640Y365170I-1250J0D01*
G01*
X621330Y440690D02*
G03*
X621330Y440690I-1250J0D01*
G01*
X584840Y219710D02*
G03*
X584840Y219710I-1250J0D01*
G01*
X378870Y298500D02*
G03*
X378870Y298500I-1250J0D01*
G01*
X310130Y495300D02*
G03*
X310130Y495300I-1250J0D01*
G01*
X270840Y546100D02*
G03*
X270840Y546100I-1250J0D01*
G01*
X291690Y594400D02*
G03*
X291690Y594400I-1250J0D01*
G01*
X71500Y775250D02*
G03*
X71500Y775250I-1250J0D01*
G01*
X171440Y773430D02*
G03*
X171440Y773430I-1250J0D01*
G01*
X705550Y651340D02*
G03*
X705550Y651340I-1250J0D01*
G01*
X648350Y229960D02*
G03*
X648350Y229960I-1250J0D01*
G01*
X747420Y710070D02*
G03*
X747420Y710070I-1250J0D01*
G01*
X606450Y873900D02*
G03*
X606450Y873900I-1250J0D01*
G01*
X840130Y602120D02*
G03*
X840130Y602120I-1250J0D01*
G01*
X872370Y834830D02*
G03*
X872370Y834830I-1250J0D01*
G01*
X282780Y715620D02*
G03*
X282780Y715620I-1250J0D01*
G01*
X248880Y878840D02*
G03*
X248880Y878840I-1250J0D01*
G01*
X217760Y751840D02*
G03*
X217760Y751840I-1250J0D01*
G01*
X71190Y657680D02*
G03*
X71190Y657680I-1250J0D01*
G01*
X537240Y77040D02*
G03*
X537240Y77040I-1250J0D01*
G01*
X936800Y188480D02*
G03*
X936800Y188480I-1250J0D01*
G01*
X477090Y553390D02*
G03*
X477090Y553390I-1250J0D01*
G01*
D11*
X271690Y610150D02*
G03*
X271690Y610150I-3000J0D01*
G01*
D12*
X79460Y880110D02*
G03*
X79460Y880110I-20500J0D01*
G01*
Y930910D02*
G03*
X79460Y930910I-20500J0D01*
G01*
X429900Y900430D02*
X484500D01*
X429900Y875030D02*
Y900430D01*
Y875030D02*
X484500D01*
Y900430D01*
X260340Y413400D02*
X290840D01*
Y386700D02*
Y413400D01*
X260340Y386700D02*
X290840D01*
X260340D02*
Y413400D01*
X267960Y341010D02*
X298460D01*
Y314310D02*
Y341010D01*
X267960Y314310D02*
X298460D01*
X267960D02*
Y341010D01*
X438470Y131760D02*
X440970D01*
X438470Y129260D02*
Y131760D01*
Y91760D02*
X440970D01*
X438470D02*
Y94260D01*
X475970Y131760D02*
X478470D01*
Y129260D02*
Y131760D01*
X475970Y91760D02*
X478470D01*
Y94260D01*
X486290Y407520D02*
X492040D01*
X622540D02*
X628290D01*
Y265520D02*
Y271270D01*
Y401770D02*
Y407520D01*
X486290Y265520D02*
X492040D01*
X622540D02*
X628290D01*
X486290D02*
Y271270D01*
Y401770D02*
Y407520D01*
X711190Y645810D02*
X741690D01*
Y619110D02*
Y645810D01*
X711190Y619110D02*
X741690D01*
X711190D02*
Y645810D01*
X672239Y433500D02*
X696821D01*
X672239Y455500D02*
X696821D01*
X556260Y559660D02*
X577260D01*
X556260Y540160D02*
X577260D01*
X516170Y530020D02*
X540752D01*
X516170Y552020D02*
X540752D01*
X589689Y558370D02*
X614271D01*
X589689Y536370D02*
X614271D01*
X546690Y525370D02*
X567690D01*
X546690Y505870D02*
X567690D01*
X584468Y529160D02*
X609050D01*
X584468Y507160D02*
X609050D01*
X433620Y603840D02*
X455620D01*
X433620Y582340D02*
X455620D01*
X433620Y570820D02*
X455620D01*
X433620Y549320D02*
X455620D01*
X638340Y597370D02*
X645590D01*
X731090D02*
X738340D01*
Y497370D02*
Y504620D01*
Y590120D02*
Y597370D01*
X638340Y497370D02*
X645590D01*
X731090D02*
X738340D01*
X638340D02*
Y504620D01*
Y590120D02*
Y597370D01*
X698490Y898540D02*
X728990D01*
Y871840D02*
Y898540D01*
X698490Y871840D02*
X728990D01*
X698490D02*
Y898540D01*
Y862980D02*
X728990D01*
Y836280D02*
Y862980D01*
X698490Y836280D02*
X728990D01*
X698490D02*
Y862980D01*
X360670Y484520D02*
X391170D01*
Y457820D02*
Y484520D01*
X360670Y457820D02*
X391170D01*
X360670D02*
Y484520D01*
X323840Y475630D02*
X354340D01*
Y448930D02*
Y475630D01*
X323840Y448930D02*
X354340D01*
X323840D02*
Y475630D01*
X300890Y389920D02*
Y425420D01*
X351890Y389920D02*
Y425420D01*
X499100Y484520D02*
X529600D01*
Y457820D02*
Y484520D01*
X499100Y457820D02*
X529600D01*
X499100D02*
Y484520D01*
X587330Y430940D02*
X608330D01*
X587330Y450440D02*
X608330D01*
X609210Y224420D02*
X610710D01*
X609210Y209920D02*
X610710D01*
X550840Y209960D02*
X571840D01*
X550840Y229460D02*
X571840D01*
X509538Y208710D02*
X534120D01*
X509538Y230710D02*
X534120D01*
X388370Y330500D02*
X388870D01*
X388370Y304500D02*
X388870D01*
X682360Y386600D02*
Y388100D01*
X696860Y386600D02*
Y388100D01*
X447308Y168070D02*
X471890D01*
X447308Y190070D02*
X471890D01*
X469784Y5999D02*
X502846D01*
X469784Y29561D02*
X502846D01*
X30748Y475410D02*
X55330D01*
X30748Y497410D02*
X55330D01*
X17880Y194610D02*
X187880D01*
Y434610D02*
Y444610D01*
X162880D02*
X187880D01*
X17880D02*
X42880D01*
X17880Y434610D02*
Y444610D01*
X187880Y194610D02*
Y274610D01*
X17880Y194610D02*
Y274610D01*
X225199Y287450D02*
X249781D01*
X225199Y309450D02*
X249781D01*
X541450Y13380D02*
X563450D01*
X541450Y34880D02*
X563450D01*
X108359Y736170D02*
X132941D01*
X108359Y714170D02*
X132941D01*
X75198Y595200D02*
X99780D01*
X75198Y573200D02*
X99780D01*
X320630Y505050D02*
X341630D01*
X320630Y485550D02*
X341630D01*
X278398Y481760D02*
X302980D01*
X278398Y503760D02*
X302980D01*
X274090Y532650D02*
X353290D01*
X274090D02*
Y559550D01*
X353290D01*
Y532650D02*
Y559550D01*
X278690Y600150D02*
Y657150D01*
X221690Y600150D02*
Y657150D01*
Y600150D02*
X278690D01*
X221690Y657150D02*
X278690D01*
X228590Y556910D02*
X259090D01*
Y530210D02*
Y556910D01*
X228590Y530210D02*
X259090D01*
X228590D02*
Y556910D01*
X191760D02*
X222260D01*
Y530210D02*
Y556910D01*
X191760Y530210D02*
X222260D01*
X191760D02*
Y556910D01*
X157470Y588660D02*
X187970D01*
Y561960D02*
Y588660D01*
X157470Y561960D02*
X187970D01*
X157470D02*
Y588660D01*
X65250Y797750D02*
Y802450D01*
Y721550D02*
Y726250D01*
X38500Y721550D02*
X65250D01*
X38500Y802450D02*
X65250D01*
X156200Y630570D02*
X186700D01*
Y603870D02*
Y630570D01*
X156200Y603870D02*
X186700D01*
X156200D02*
Y630570D01*
X95520Y646030D02*
X97520D01*
X95520Y659530D02*
X97520D01*
X95520Y616820D02*
X97520D01*
X95520Y630320D02*
X97520D01*
X310560Y620190D02*
Y642190D01*
X332060Y620190D02*
Y642190D01*
X176900Y934400D02*
Y938900D01*
X191400Y934400D02*
Y938900D01*
X87640Y742330D02*
X158740D01*
X87640Y793180D02*
Y804530D01*
Y742330D02*
Y753680D01*
Y804530D02*
X158740D01*
Y793180D02*
Y804530D01*
Y742330D02*
Y753680D01*
X141690Y743430D02*
Y803430D01*
X10960Y854710D02*
X18860D01*
Y851910D02*
Y854710D01*
X17160Y850210D02*
X18860Y851910D01*
X17160Y848710D02*
Y850210D01*
Y848710D02*
X28160D01*
Y850210D01*
X26460Y851910D02*
X28160Y850210D01*
X26460Y851910D02*
Y854710D01*
X91260D01*
Y851910D02*
Y854710D01*
X89560Y850210D02*
X91260Y851910D01*
X89560Y848710D02*
Y850210D01*
Y848710D02*
X100560D01*
Y850210D01*
X98860Y851910D02*
X100560Y850210D01*
X98860Y851910D02*
Y854710D01*
X110960D01*
X10960D02*
X110960D01*
X26460Y953510D02*
Y956310D01*
Y953510D02*
X28160Y951810D01*
Y950310D02*
Y951810D01*
X17160Y950310D02*
X28160D01*
X17160D02*
Y951810D01*
X18860Y953510D01*
Y956310D01*
X10960Y854710D02*
Y956310D01*
X110960Y854710D02*
Y956310D01*
X10960D02*
X110960D01*
X89560Y951810D02*
X91260Y953510D01*
X89560Y950310D02*
Y951810D01*
Y950310D02*
X100560D01*
Y951810D01*
X98860Y953510D02*
X100560Y951810D01*
X98860Y953510D02*
Y956310D01*
X91260Y953510D02*
Y956310D01*
X25960Y868070D02*
Y892150D01*
X10960Y897610D02*
X25960Y892150D01*
X10960Y862610D02*
Y897610D01*
Y862610D02*
X25960Y868070D01*
X10960Y913410D02*
Y948410D01*
Y913410D02*
X25960Y918870D01*
Y942951D01*
X10960Y948410D02*
X25960Y942951D01*
X31768Y854710D02*
Y956310D01*
X156200Y636890D02*
Y663590D01*
Y636890D02*
X186700D01*
Y663590D01*
X156200D02*
X186700D01*
X110490Y469270D02*
Y523870D01*
Y469270D02*
X135890D01*
Y523870D01*
X110490D02*
X135890D01*
X626100Y635620D02*
Y662320D01*
Y635620D02*
X656600D01*
Y662320D01*
X626100D02*
X656600D01*
X943600Y612760D02*
Y639460D01*
Y612760D02*
X974100D01*
Y639460D01*
X943600D02*
X974100D01*
X699800Y642590D02*
Y670590D01*
X671800D02*
X699800D01*
X671800Y642590D02*
Y670590D01*
Y642590D02*
X699800D01*
X692140Y700390D02*
Y727090D01*
Y700390D02*
X722640D01*
Y727090D01*
X692140D02*
X722640D01*
X636260Y699120D02*
Y725820D01*
Y699120D02*
X666760D01*
Y725820D01*
X636260D02*
X666760D01*
X937250Y554340D02*
Y581040D01*
Y554340D02*
X967750D01*
Y581040D01*
X937250D02*
X967750D01*
X545098Y451690D02*
X569680D01*
X545098Y429690D02*
X569680D01*
X651600Y210710D02*
Y238710D01*
Y210710D02*
X679600D01*
Y238710D01*
X651600D02*
X679600D01*
X839460Y658480D02*
Y685180D01*
Y658480D02*
X869960D01*
Y685180D01*
X839460D02*
X869960D01*
X593670Y597460D02*
Y603960D01*
X577670Y597460D02*
Y603960D01*
X770920Y661570D02*
X806420D01*
X770920Y712570D02*
X806420D01*
X629950Y825400D02*
X665450D01*
X629950Y876400D02*
X665450D01*
X863630Y553620D02*
X899130D01*
X863630Y604620D02*
X899130D01*
X643710Y759341D02*
X676292D01*
X643710Y782439D02*
X676292D01*
X721479Y763888D02*
Y796470D01*
X698381Y763888D02*
Y796470D01*
X846120Y853810D02*
Y931810D01*
X907990Y853810D02*
X921720D01*
X846120D02*
X859850D01*
X921720D02*
Y931810D01*
X907990D02*
X921720D01*
X846120D02*
X859850D01*
X301285Y691120D02*
X305775D01*
X301285Y721120D02*
X305775D01*
X214630Y888590D02*
X235630D01*
X214630Y869090D02*
X235630D01*
X166779Y889840D02*
X191361D01*
X166779Y867840D02*
X191361D01*
X374100Y694240D02*
Y733240D01*
X337100D02*
X344850D01*
X366350D02*
X374100D01*
X337100Y694240D02*
Y733240D01*
Y694240D02*
X344850D01*
X366350D02*
X374100D01*
X155050Y929250D02*
Y940250D01*
X137050Y929250D02*
Y940250D01*
X234580Y933130D02*
Y937630D01*
X220080Y933130D02*
Y937630D01*
X228260Y742090D02*
X249260D01*
X228260Y761590D02*
X249260D01*
X241730Y687479D02*
Y712061D01*
X263730Y687479D02*
Y712061D01*
X271410Y934880D02*
Y936380D01*
X256910Y934880D02*
Y936380D01*
X73030Y707390D02*
X127630D01*
X73030Y681990D02*
Y707390D01*
Y681990D02*
X127630D01*
Y707390D01*
X38190Y684880D02*
X64940D01*
X38190Y603980D02*
X64940D01*
Y608680D01*
Y680180D02*
Y684880D01*
X518569Y949530D02*
X543151D01*
X518569Y927530D02*
X543151D01*
X367620Y620190D02*
Y642190D01*
X346120Y620190D02*
Y642190D01*
X273401Y22839D02*
Y55901D01*
X249839Y22839D02*
Y55901D01*
X321661Y24109D02*
Y57171D01*
X298099Y24109D02*
Y57171D01*
X364841Y24109D02*
Y57171D01*
X341279Y24109D02*
Y57171D01*
X408021Y24109D02*
Y57171D01*
X384459Y24109D02*
Y57171D01*
X225058Y350090D02*
X249640D01*
X225058Y328090D02*
X249640D01*
X340628Y115140D02*
X365210D01*
X340628Y93140D02*
X365210D01*
X541990Y65790D02*
Y66290D01*
X567990Y65790D02*
Y66290D01*
X600030Y46150D02*
Y68150D01*
X578530Y46150D02*
Y68150D01*
X66308Y489790D02*
X90890D01*
X66308Y467790D02*
X90890D01*
X408369Y182019D02*
Y206601D01*
X386369Y182019D02*
Y206601D01*
X147588Y492330D02*
X172170D01*
X147588Y470330D02*
X172170D01*
X771150Y172230D02*
Y236230D01*
X930650Y172230D02*
Y236230D01*
X771150D02*
X930650D01*
X423178Y11860D02*
X447760D01*
X423178Y33860D02*
X447760D01*
X587149Y792050D02*
X611731D01*
X587149Y770050D02*
X611731D01*
X486590Y559390D02*
X487090D01*
X486590Y585390D02*
X487090D01*
X324400Y318180D02*
X346400D01*
X324400Y339680D02*
X346400D01*
X324400Y268650D02*
X346400D01*
X324400Y290150D02*
X346400D01*
X464100Y480900D02*
X488682D01*
X464100Y458900D02*
X488682D01*
X446150Y361040D02*
Y367540D01*
X430150Y361040D02*
Y367540D01*
X57150Y967740D02*
Y977737D01*
X62148Y982735D01*
X67147Y977737D01*
Y967740D01*
Y975238D01*
X57150D01*
X72145Y967740D02*
X77144D01*
X74644D01*
Y982735D01*
X72145Y980236D01*
D13*
X7624Y471167D02*
Y458472D01*
X10163Y455933D01*
X15242D01*
X17781Y458472D01*
Y471167D01*
X22859Y468628D02*
X25398Y471167D01*
X30477D01*
X33016Y468628D01*
Y466089D01*
X30477Y463550D01*
X33016Y461011D01*
Y458472D01*
X30477Y455933D01*
X25398D01*
X22859Y458472D01*
Y461011D01*
X25398Y463550D01*
X22859Y466089D01*
Y468628D01*
X25398Y463550D02*
X30477D01*
X671830Y695955D02*
Y683259D01*
X674369Y680720D01*
X679447D01*
X681987Y683259D01*
Y695955D01*
X687065Y680720D02*
X692143D01*
X689604D01*
Y695955D01*
X687065Y693416D01*
X709918Y680720D02*
X699761D01*
X709918Y690877D01*
Y693416D01*
X707378Y695955D01*
X702300D01*
X699761Y693416D01*
X647192Y264155D02*
Y251459D01*
X649731Y248920D01*
X654809D01*
X657349Y251459D01*
Y264155D01*
X662427Y248920D02*
X667505D01*
X664966D01*
Y264155D01*
X662427Y261616D01*
X675123D02*
X677662Y264155D01*
X682740D01*
X685280Y261616D01*
Y251459D01*
X682740Y248920D01*
X677662D01*
X675123Y251459D01*
Y261616D01*
X668027Y459743D02*
Y474977D01*
X675644D01*
X678183Y472438D01*
Y467360D01*
X675644Y464821D01*
X668027D01*
X673105D02*
X678183Y459743D01*
X693418D02*
X683262D01*
X693418Y469899D01*
Y472438D01*
X690879Y474977D01*
X685801D01*
X683262Y472438D01*
X698497D02*
X701036Y474977D01*
X706114D01*
X708653Y472438D01*
Y469899D01*
X706114Y467360D01*
X708653Y464821D01*
Y462282D01*
X706114Y459743D01*
X701036D01*
X698497Y462282D01*
Y464821D01*
X701036Y467360D01*
X698497Y469899D01*
Y472438D01*
X701036Y467360D02*
X706114D01*
X579127Y483872D02*
Y499108D01*
X586744D01*
X589283Y496568D01*
Y491490D01*
X586744Y488951D01*
X579127D01*
X584205D02*
X589283Y483872D01*
X604518D02*
X594362D01*
X604518Y494029D01*
Y496568D01*
X601979Y499108D01*
X596901D01*
X594362Y496568D01*
X609597Y499108D02*
X619753D01*
Y496568D01*
X609597Y486412D01*
Y483872D01*
X579127Y563882D02*
Y579118D01*
X586744D01*
X589283Y576578D01*
Y571500D01*
X586744Y568961D01*
X579127D01*
X584205D02*
X589283Y563882D01*
X604518D02*
X594362D01*
X604518Y574039D01*
Y576578D01*
X601979Y579118D01*
X596901D01*
X594362Y576578D01*
X619753Y579118D02*
X614675Y576578D01*
X609597Y571500D01*
Y566422D01*
X612136Y563882D01*
X617214D01*
X619753Y566422D01*
Y568961D01*
X617214Y571500D01*
X609597D01*
X472447Y519432D02*
Y534668D01*
X480064D01*
X482603Y532128D01*
Y527050D01*
X480064Y524511D01*
X472447D01*
X477525D02*
X482603Y519432D01*
X497838D02*
X487682D01*
X497838Y529589D01*
Y532128D01*
X495299Y534668D01*
X490221D01*
X487682Y532128D01*
X510534Y519432D02*
Y534668D01*
X502917Y527050D01*
X513073D01*
X545592Y460248D02*
Y475483D01*
X553209D01*
X555749Y472944D01*
Y467865D01*
X553209Y465326D01*
X545592D01*
X550670D02*
X555749Y460248D01*
X570984D02*
X560827D01*
X570984Y470405D01*
Y472944D01*
X568445Y475483D01*
X563366D01*
X560827Y472944D01*
X576062D02*
X578601Y475483D01*
X583680D01*
X586219Y472944D01*
Y470405D01*
X583680Y467865D01*
X581141D01*
X583680D01*
X586219Y465326D01*
Y462787D01*
X583680Y460248D01*
X578601D01*
X576062Y462787D01*
X504197Y187962D02*
Y203197D01*
X511814D01*
X514353Y200658D01*
Y195580D01*
X511814Y193041D01*
X504197D01*
X509275D02*
X514353Y187962D01*
X529588D02*
X519432D01*
X529588Y198119D01*
Y200658D01*
X527049Y203197D01*
X521971D01*
X519432Y200658D01*
X544823Y187962D02*
X534667D01*
X544823Y198119D01*
Y200658D01*
X542284Y203197D01*
X537206D01*
X534667Y200658D01*
X110490Y533908D02*
Y549143D01*
X118108D01*
X120647Y546604D01*
Y541525D01*
X118108Y538986D01*
X110490D01*
X133343Y533908D02*
Y549143D01*
X125725Y541525D01*
X135882D01*
X440694Y906783D02*
Y922018D01*
X448312D01*
X450851Y919478D01*
Y914400D01*
X448312Y911861D01*
X440694D01*
X455929Y919478D02*
X458468Y922018D01*
X463547D01*
X466086Y919478D01*
Y916939D01*
X463547Y914400D01*
X461007D01*
X463547D01*
X466086Y911861D01*
Y909322D01*
X463547Y906783D01*
X458468D01*
X455929Y909322D01*
X759463Y638807D02*
X754385D01*
X756924D01*
Y626112D01*
X754385Y623573D01*
X751846D01*
X749307Y626112D01*
X774698Y623573D02*
X764542D01*
X774698Y633729D01*
Y636268D01*
X772159Y638807D01*
X767081D01*
X764542Y636268D01*
X789933Y623573D02*
X779777D01*
X789933Y633729D01*
Y636268D01*
X787394Y638807D01*
X782316D01*
X779777Y636268D01*
X751842Y892807D02*
X746764D01*
X749303D01*
Y880112D01*
X746764Y877572D01*
X744225D01*
X741686Y880112D01*
X767078Y877572D02*
X756921D01*
X767078Y887729D01*
Y890268D01*
X764538Y892807D01*
X759460D01*
X756921Y890268D01*
X772156Y877572D02*
X777234D01*
X774695D01*
Y892807D01*
X772156Y890268D01*
X646935Y750565D02*
X641856D01*
X644396D01*
Y737869D01*
X641856Y735330D01*
X639317D01*
X636778Y737869D01*
X662170Y735330D02*
X652013D01*
X662170Y745487D01*
Y748026D01*
X659631Y750565D01*
X654552D01*
X652013Y748026D01*
X667248D02*
X669787Y750565D01*
X674866D01*
X677405Y748026D01*
Y737869D01*
X674866Y735330D01*
X669787D01*
X667248Y737869D01*
Y748026D01*
X265433Y438148D02*
X260354D01*
X262894D01*
Y425452D01*
X260354Y422912D01*
X257815D01*
X255276Y425452D01*
X270511Y422912D02*
X275590D01*
X273050D01*
Y438148D01*
X270511Y435608D01*
X283207Y425452D02*
X285746Y422912D01*
X290825D01*
X293364Y425452D01*
Y435608D01*
X290825Y438148D01*
X285746D01*
X283207Y435608D01*
Y433069D01*
X285746Y430530D01*
X293364D01*
X702815Y751835D02*
X697736D01*
X700275D01*
Y739139D01*
X697736Y736600D01*
X695197D01*
X692658Y739139D01*
X707893Y736600D02*
X712971D01*
X710432D01*
Y751835D01*
X707893Y749296D01*
X720589D02*
X723128Y751835D01*
X728206D01*
X730746Y749296D01*
Y746757D01*
X728206Y744218D01*
X730746Y741678D01*
Y739139D01*
X728206Y736600D01*
X723128D01*
X720589Y739139D01*
Y741678D01*
X723128Y744218D01*
X720589Y746757D01*
Y749296D01*
X723128Y744218D02*
X728206D01*
X289563Y472438D02*
X284485D01*
X287024D01*
Y459742D01*
X284485Y457202D01*
X281945D01*
X279406Y459742D01*
X294641Y457202D02*
X299720D01*
X297180D01*
Y472438D01*
X294641Y469898D01*
X307337Y472438D02*
X317494D01*
Y469898D01*
X307337Y459742D01*
Y457202D01*
X954275Y664205D02*
X949196D01*
X951736D01*
Y651509D01*
X949196Y648970D01*
X946657D01*
X944118Y651509D01*
X959353Y648970D02*
X964431D01*
X961892D01*
Y664205D01*
X959353Y661666D01*
X982206Y664205D02*
X977127Y661666D01*
X972049Y656588D01*
Y651509D01*
X974588Y648970D01*
X979667D01*
X982206Y651509D01*
Y654048D01*
X979667Y656588D01*
X972049D01*
X636775Y687065D02*
X631696D01*
X634235D01*
Y674369D01*
X631696Y671830D01*
X629157D01*
X626618Y674369D01*
X641853Y671830D02*
X646931D01*
X644392D01*
Y687065D01*
X641853Y684526D01*
X664706Y687065D02*
X654549D01*
Y679447D01*
X659627Y681987D01*
X662167D01*
X664706Y679447D01*
Y674369D01*
X662167Y671830D01*
X657088D01*
X654549Y674369D01*
X850135Y709925D02*
X845056D01*
X847596D01*
Y697229D01*
X845056Y694690D01*
X842517D01*
X839978Y697229D01*
X855213Y694690D02*
X860291D01*
X857752D01*
Y709925D01*
X855213Y707386D01*
X875527Y694690D02*
Y709925D01*
X867909Y702308D01*
X878066D01*
X746763Y862327D02*
X741684D01*
X744224D01*
Y849632D01*
X741684Y847093D01*
X739145D01*
X736606Y849632D01*
X751841Y847093D02*
X756920D01*
X754380D01*
Y862327D01*
X751841Y859788D01*
X764537D02*
X767076Y862327D01*
X772155D01*
X774694Y859788D01*
Y857249D01*
X772155Y854710D01*
X769615D01*
X772155D01*
X774694Y852171D01*
Y849632D01*
X772155Y847093D01*
X767076D01*
X764537Y849632D01*
X407673Y481328D02*
X402594D01*
X405134D01*
Y468632D01*
X402594Y466092D01*
X400055D01*
X397516Y468632D01*
X412751Y466092D02*
X417830D01*
X415290D01*
Y481328D01*
X412751Y478788D01*
X435604Y466092D02*
X425447D01*
X435604Y476249D01*
Y478788D01*
X433065Y481328D01*
X427986D01*
X425447Y478788D01*
X276862Y364487D02*
X271784D01*
X274323D01*
Y351792D01*
X271784Y349253D01*
X269244D01*
X266705Y351792D01*
X281940Y349253D02*
X287019D01*
X284480D01*
Y364487D01*
X281940Y361948D01*
X294636Y349253D02*
X299715D01*
X297176D01*
Y364487D01*
X294636Y361948D01*
X947925Y605785D02*
X942846D01*
X945386D01*
Y593089D01*
X942846Y590550D01*
X940307D01*
X937768Y593089D01*
X953003Y590550D02*
X958081D01*
X955542D01*
Y605785D01*
X953003Y603246D01*
X965699D02*
X968238Y605785D01*
X973316D01*
X975856Y603246D01*
Y593089D01*
X973316Y590550D01*
X968238D01*
X965699Y593089D01*
Y603246D01*
X519431Y505457D02*
X514352D01*
X516892D01*
Y492762D01*
X514352Y490223D01*
X511813D01*
X509274Y492762D01*
X524509D02*
X527048Y490223D01*
X532127D01*
X534666Y492762D01*
Y502918D01*
X532127Y505457D01*
X527048D01*
X524509Y502918D01*
Y500379D01*
X527048Y497840D01*
X534666D01*
X134621Y608327D02*
X129543D01*
X132082D01*
Y595632D01*
X129543Y593092D01*
X127003D01*
X124464Y595632D01*
X139699Y608327D02*
X149856D01*
Y605788D01*
X139699Y595632D01*
Y593092D01*
X241301Y520698D02*
X236222D01*
X238762D01*
Y508002D01*
X236222Y505462D01*
X233683D01*
X231144Y508002D01*
X256536Y520698D02*
X251458Y518158D01*
X246379Y513080D01*
Y508002D01*
X248918Y505462D01*
X253997D01*
X256536Y508002D01*
Y510541D01*
X253997Y513080D01*
X246379D01*
X166875Y688335D02*
X161796D01*
X164335D01*
Y675639D01*
X161796Y673100D01*
X159257D01*
X156718Y675639D01*
X182110Y688335D02*
X171953D01*
Y680717D01*
X177031Y683257D01*
X179571D01*
X182110Y680717D01*
Y675639D01*
X179571Y673100D01*
X174492D01*
X171953Y675639D01*
X203201Y524507D02*
X198123D01*
X200662D01*
Y511812D01*
X198123Y509272D01*
X195583D01*
X193044Y511812D01*
X208279Y521968D02*
X210818Y524507D01*
X215897D01*
X218436Y521968D01*
Y519429D01*
X215897Y516890D01*
X213358D01*
X215897D01*
X218436Y514351D01*
Y511812D01*
X215897Y509272D01*
X210818D01*
X208279Y511812D01*
X134620Y576577D02*
X129542D01*
X132081D01*
Y563882D01*
X129542Y561343D01*
X127002D01*
X124463Y563882D01*
X139698Y561343D02*
X144777D01*
X142238D01*
Y576577D01*
X139698Y574038D01*
X543564Y501647D02*
Y486413D01*
X551182D01*
X553721Y488952D01*
Y499108D01*
X551182Y501647D01*
X543564D01*
X558799Y499108D02*
X561338Y501647D01*
X566417D01*
X568956Y499108D01*
Y496569D01*
X566417Y494030D01*
X568956Y491491D01*
Y488952D01*
X566417Y486413D01*
X561338D01*
X558799Y488952D01*
Y491491D01*
X561338Y494030D01*
X558799Y496569D01*
Y499108D01*
X561338Y494030D02*
X566417D01*
X542294Y580387D02*
Y565153D01*
X549912D01*
X552451Y567692D01*
Y577848D01*
X549912Y580387D01*
X542294D01*
X557529D02*
X567686D01*
Y577848D01*
X557529Y567692D01*
Y565153D01*
X611804Y473708D02*
Y458473D01*
X619422D01*
X621961Y461012D01*
Y471168D01*
X619422Y473708D01*
X611804D01*
X637196D02*
X632118Y471168D01*
X627039Y466090D01*
Y461012D01*
X629578Y458473D01*
X634657D01*
X637196Y461012D01*
Y463551D01*
X634657Y466090D01*
X627039D01*
X553724Y205737D02*
Y190502D01*
X561342D01*
X563881Y193042D01*
Y203198D01*
X561342Y205737D01*
X553724D01*
X579116D02*
X568959D01*
Y198120D01*
X574038Y200659D01*
X576577D01*
X579116Y198120D01*
Y193042D01*
X576577Y190502D01*
X571498D01*
X568959Y193042D01*
X946909Y433320D02*
X944370Y435859D01*
X939291D01*
X936752Y433320D01*
Y423163D01*
X939291Y420624D01*
X944370D01*
X946909Y423163D01*
X959605Y420624D02*
Y435859D01*
X951987Y428242D01*
X962144D01*
X967222Y433320D02*
X969761Y435859D01*
X974840D01*
X977379Y433320D01*
Y430781D01*
X974840Y428242D01*
X972300D01*
X974840D01*
X977379Y425702D01*
Y423163D01*
X974840Y420624D01*
X969761D01*
X967222Y423163D01*
X910593Y361948D02*
X908054Y364487D01*
X902976D01*
X900437Y361948D01*
Y351792D01*
X902976Y349253D01*
X908054D01*
X910593Y351792D01*
X923289Y349253D02*
Y364487D01*
X915672Y356870D01*
X925828D01*
X930907Y361948D02*
X933446Y364487D01*
X938524D01*
X941063Y361948D01*
Y351792D01*
X938524Y349253D01*
X933446D01*
X930907Y351792D01*
Y361948D01*
X885949Y433320D02*
X883410Y435859D01*
X878331D01*
X875792Y433320D01*
Y423163D01*
X878331Y420624D01*
X883410D01*
X885949Y423163D01*
X891027Y433320D02*
X893566Y435859D01*
X898645D01*
X901184Y433320D01*
Y430781D01*
X898645Y428242D01*
X896105D01*
X898645D01*
X901184Y425702D01*
Y423163D01*
X898645Y420624D01*
X893566D01*
X891027Y423163D01*
X906262Y420624D02*
X911340D01*
X908801D01*
Y435859D01*
X906262Y433320D01*
X23365Y561336D02*
X20826Y563875D01*
X15747D01*
X13208Y561336D01*
Y551179D01*
X15747Y548640D01*
X20826D01*
X23365Y551179D01*
X38600Y548640D02*
X28443D01*
X38600Y558797D01*
Y561336D01*
X36061Y563875D01*
X30982D01*
X28443Y561336D01*
X43678D02*
X46217Y563875D01*
X51296D01*
X53835Y561336D01*
Y551179D01*
X51296Y548640D01*
X46217D01*
X43678Y551179D01*
Y561336D01*
X429260Y407157D02*
Y404618D01*
X434338Y399539D01*
X439417Y404618D01*
Y407157D01*
X434338Y399539D02*
Y391922D01*
X452113D02*
Y407157D01*
X444495Y399539D01*
X454652D01*
X576834Y643631D02*
Y641092D01*
X581912Y636013D01*
X586991Y641092D01*
Y643631D01*
X581912Y636013D02*
Y628396D01*
X602226Y643631D02*
X597147Y641092D01*
X592069Y636013D01*
Y630935D01*
X594608Y628396D01*
X599687D01*
X602226Y630935D01*
Y633474D01*
X599687Y636013D01*
X592069D01*
X469392Y611119D02*
Y608580D01*
X474470Y603502D01*
X479549Y608580D01*
Y611119D01*
X474470Y603502D02*
Y595884D01*
X494784Y611119D02*
X484627D01*
Y603502D01*
X489705Y606041D01*
X492245D01*
X494784Y603502D01*
Y598423D01*
X492245Y595884D01*
X487166D01*
X484627Y598423D01*
X412754Y323848D02*
Y321308D01*
X417832Y316230D01*
X422911Y321308D01*
Y323848D01*
X417832Y316230D02*
Y308612D01*
X427989Y321308D02*
X430528Y323848D01*
X435607D01*
X438146Y321308D01*
Y318769D01*
X435607Y316230D01*
X433068D01*
X435607D01*
X438146Y313691D01*
Y311152D01*
X435607Y308612D01*
X430528D01*
X427989Y311152D01*
X535940Y108961D02*
Y106422D01*
X541018Y101343D01*
X546097Y106422D01*
Y108961D01*
X541018Y101343D02*
Y93726D01*
X561332D02*
X551175D01*
X561332Y103883D01*
Y106422D01*
X558793Y108961D01*
X553714D01*
X551175Y106422D01*
X396243Y668018D02*
Y665478D01*
X401322Y660400D01*
X406400Y665478D01*
Y668018D01*
X401322Y660400D02*
Y652783D01*
X411478D02*
X416557D01*
X414018D01*
Y668018D01*
X411478Y665478D01*
X600715Y619757D02*
Y607062D01*
X603255Y604523D01*
X608333D01*
X610872Y607062D01*
Y619757D01*
X615950Y604523D02*
X621029D01*
X618490D01*
Y619757D01*
X615950Y617218D01*
X628646Y604523D02*
X633725D01*
X631185D01*
Y619757D01*
X628646Y617218D01*
X468376Y444749D02*
Y432053D01*
X470915Y429514D01*
X475993D01*
X478533Y432053D01*
Y444749D01*
X483611Y432053D02*
X486150Y429514D01*
X491229D01*
X493768Y432053D01*
Y442210D01*
X491229Y444749D01*
X486150D01*
X483611Y442210D01*
Y439671D01*
X486150Y437132D01*
X493768D01*
X405134Y149858D02*
Y137162D01*
X407673Y134622D01*
X412752D01*
X415291Y137162D01*
Y149858D01*
X420369D02*
X430526D01*
Y147318D01*
X420369Y137162D01*
Y134622D01*
X359414Y444497D02*
Y431802D01*
X361953Y429263D01*
X367032D01*
X369571Y431802D01*
Y444497D01*
X384806D02*
X379728Y441958D01*
X374649Y436880D01*
Y431802D01*
X377188Y429263D01*
X382267D01*
X384806Y431802D01*
Y434341D01*
X382267Y436880D01*
X374649D01*
X838962Y630931D02*
Y618235D01*
X841501Y615696D01*
X846580D01*
X849119Y618235D01*
Y630931D01*
X864354D02*
X854197D01*
Y623313D01*
X859275Y625853D01*
X861815D01*
X864354Y623313D01*
Y618235D01*
X861815Y615696D01*
X856736D01*
X854197Y618235D01*
X746252Y738881D02*
Y726185D01*
X748791Y723646D01*
X753869D01*
X756409Y726185D01*
Y738881D01*
X761487Y736342D02*
X764026Y738881D01*
X769105D01*
X771644Y736342D01*
Y733803D01*
X769105Y731264D01*
X766565D01*
X769105D01*
X771644Y728724D01*
Y726185D01*
X769105Y723646D01*
X764026D01*
X761487Y726185D01*
X605282Y902711D02*
Y890015D01*
X607821Y887476D01*
X612900D01*
X615439Y890015D01*
Y902711D01*
X628135Y887476D02*
Y902711D01*
X620517Y895094D01*
X630674D01*
X203454Y700781D02*
Y688085D01*
X205993Y685546D01*
X211071D01*
X213611Y688085D01*
Y700781D01*
X228846Y685546D02*
X218689D01*
X228846Y695703D01*
Y698242D01*
X226307Y700781D01*
X221228D01*
X218689Y698242D01*
X281686Y745993D02*
Y733297D01*
X284225Y730758D01*
X289303D01*
X291843Y733297D01*
Y745993D01*
X296921Y730758D02*
X301999D01*
X299460D01*
Y745993D01*
X296921Y743454D01*
X856739Y967228D02*
X854200Y969767D01*
X849121D01*
X846582Y967228D01*
Y964689D01*
X849121Y962150D01*
X854200D01*
X856739Y959610D01*
Y957071D01*
X854200Y954532D01*
X849121D01*
X846582Y957071D01*
X861817Y969767D02*
Y954532D01*
X866895Y959610D01*
X871974Y954532D01*
Y969767D01*
X877052Y954532D02*
X882131D01*
X879591D01*
Y969767D01*
X877052Y967228D01*
X587756Y800608D02*
Y815843D01*
X595373D01*
X597913Y813304D01*
Y808225D01*
X595373Y805686D01*
X587756D01*
X592834D02*
X597913Y800608D01*
X613148D02*
X602991D01*
X613148Y810765D01*
Y813304D01*
X610609Y815843D01*
X605530D01*
X602991Y813304D01*
X628383Y815843D02*
X618226D01*
Y808225D01*
X623304Y810765D01*
X625844D01*
X628383Y808225D01*
Y803147D01*
X625844Y800608D01*
X620765D01*
X618226Y803147D01*
X464566Y489458D02*
Y504693D01*
X472183D01*
X474723Y502154D01*
Y497076D01*
X472183Y494536D01*
X464566D01*
X469644D02*
X474723Y489458D01*
X489958D02*
X479801D01*
X489958Y499615D01*
Y502154D01*
X487419Y504693D01*
X482340D01*
X479801Y502154D01*
X495036Y489458D02*
X500115D01*
X497575D01*
Y504693D01*
X495036Y502154D01*
X341122Y123698D02*
Y138933D01*
X348740D01*
X351279Y136394D01*
Y131315D01*
X348740Y128776D01*
X341122D01*
X346200D02*
X351279Y123698D01*
X356357D02*
X361435D01*
X358896D01*
Y138933D01*
X356357Y136394D01*
X369053D02*
X371592Y138933D01*
X376670D01*
X379210Y136394D01*
Y133855D01*
X376670Y131315D01*
X374131D01*
X376670D01*
X379210Y128776D01*
Y126237D01*
X376670Y123698D01*
X371592D01*
X369053Y126237D01*
X474986Y39372D02*
Y54608D01*
X482604D01*
X485143Y52068D01*
Y46990D01*
X482604Y44451D01*
X474986D01*
X480065D02*
X485143Y39372D01*
X490221D02*
X495300D01*
X492760D01*
Y54608D01*
X490221Y52068D01*
X502917Y41912D02*
X505456Y39372D01*
X510535D01*
X513074Y41912D01*
Y52068D01*
X510535Y54608D01*
X505456D01*
X502917Y52068D01*
Y49529D01*
X505456Y46990D01*
X513074D01*
X423672Y42418D02*
Y57653D01*
X431289D01*
X433829Y55114D01*
Y50036D01*
X431289Y47496D01*
X423672D01*
X428750D02*
X433829Y42418D01*
X449064D02*
X438907D01*
X449064Y52575D01*
Y55114D01*
X446525Y57653D01*
X441446D01*
X438907Y55114D01*
X454142D02*
X456681Y57653D01*
X461760D01*
X464299Y55114D01*
Y44957D01*
X461760Y42418D01*
X456681D01*
X454142Y44957D01*
Y55114D01*
X387858Y216154D02*
Y231389D01*
X395476D01*
X398015Y228850D01*
Y223771D01*
X395476Y221232D01*
X387858D01*
X392936D02*
X398015Y216154D01*
X403093D02*
X408171D01*
X405632D01*
Y231389D01*
X403093Y228850D01*
X415789D02*
X418328Y231389D01*
X423406D01*
X425946Y228850D01*
Y226311D01*
X423406Y223771D01*
X425946Y221232D01*
Y218693D01*
X423406Y216154D01*
X418328D01*
X415789Y218693D01*
Y221232D01*
X418328Y223771D01*
X415789Y226311D01*
Y228850D01*
X418328Y223771D02*
X423406D01*
X492766Y166373D02*
Y181607D01*
X500384D01*
X502923Y179068D01*
Y173990D01*
X500384Y171451D01*
X492766D01*
X497845D02*
X502923Y166373D01*
X508001D02*
X513080D01*
X510540D01*
Y181607D01*
X508001Y179068D01*
X528315Y166373D02*
Y181607D01*
X520697Y173990D01*
X530854D01*
X12706Y502923D02*
Y518158D01*
X20324D01*
X22863Y515618D01*
Y510540D01*
X20324Y508001D01*
X12706D01*
X17785D02*
X22863Y502923D01*
X27941D02*
X33020D01*
X30480D01*
Y518158D01*
X27941Y515618D01*
X50794Y518158D02*
X40637D01*
Y510540D01*
X45715Y513079D01*
X48255D01*
X50794Y510540D01*
Y505462D01*
X48255Y502923D01*
X43176D01*
X40637Y505462D01*
X66802Y498348D02*
Y513583D01*
X74419D01*
X76959Y511044D01*
Y505965D01*
X74419Y503426D01*
X66802D01*
X71880D02*
X76959Y498348D01*
X82037D02*
X87115D01*
X84576D01*
Y513583D01*
X82037Y511044D01*
X104890Y513583D02*
X99811Y511044D01*
X94733Y505965D01*
Y500887D01*
X97272Y498348D01*
X102351D01*
X104890Y500887D01*
Y503426D01*
X102351Y505965D01*
X94733D01*
X148082Y500888D02*
Y516123D01*
X155700D01*
X158239Y513584D01*
Y508506D01*
X155700Y505966D01*
X148082D01*
X153160D02*
X158239Y500888D01*
X163317D02*
X168395D01*
X165856D01*
Y516123D01*
X163317Y513584D01*
X176013Y516123D02*
X186170D01*
Y513584D01*
X176013Y503427D01*
Y500888D01*
X219715Y267973D02*
Y283207D01*
X227333D01*
X229872Y280668D01*
Y275590D01*
X227333Y273051D01*
X219715D01*
X224794D02*
X229872Y267973D01*
X234950D02*
X240029D01*
X237490D01*
Y283207D01*
X234950Y280668D01*
X247646Y267973D02*
X252725D01*
X250186D01*
Y283207D01*
X247646Y280668D01*
X225552Y358648D02*
Y373883D01*
X233169D01*
X235709Y371344D01*
Y366265D01*
X233169Y363726D01*
X225552D01*
X230630D02*
X235709Y358648D01*
X240787D02*
X245865D01*
X243326D01*
Y373883D01*
X240787Y371344D01*
X263640Y358648D02*
X253483D01*
X263640Y368805D01*
Y371344D01*
X261101Y373883D01*
X256022D01*
X253483Y371344D01*
X640334Y791972D02*
Y807207D01*
X647952D01*
X650491Y804668D01*
Y799589D01*
X647952Y797050D01*
X640334D01*
X645412D02*
X650491Y791972D01*
X655569D02*
X660647D01*
X658108D01*
Y807207D01*
X655569Y804668D01*
X668265D02*
X670804Y807207D01*
X675882D01*
X678422Y804668D01*
Y794511D01*
X675882Y791972D01*
X670804D01*
X668265Y794511D01*
Y804668D01*
X245114Y482603D02*
Y497837D01*
X252732D01*
X255271Y495298D01*
Y490220D01*
X252732Y487681D01*
X245114D01*
X250193D02*
X255271Y482603D01*
X260349Y495298D02*
X262888Y497837D01*
X267967D01*
X270506Y495298D01*
Y492759D01*
X267967Y490220D01*
X265427D01*
X267967D01*
X270506Y487681D01*
Y485142D01*
X267967Y482603D01*
X262888D01*
X260349Y485142D01*
X243332Y721614D02*
Y736849D01*
X250949D01*
X253489Y734310D01*
Y729231D01*
X250949Y726692D01*
X243332D01*
X248410D02*
X253489Y721614D01*
X268724D02*
X258567D01*
X268724Y731771D01*
Y734310D01*
X266185Y736849D01*
X261106D01*
X258567Y734310D01*
X41914Y575312D02*
Y590547D01*
X49532D01*
X52071Y588008D01*
Y582930D01*
X49532Y580391D01*
X41914D01*
X46993D02*
X52071Y575312D01*
X64767D02*
Y590547D01*
X57149Y582930D01*
X67306D01*
X699008Y810006D02*
Y825241D01*
X706626D01*
X709165Y822702D01*
Y817624D01*
X706626Y815084D01*
X699008D01*
X704086D02*
X709165Y810006D01*
X714243Y812545D02*
X716782Y810006D01*
X721861D01*
X724400Y812545D01*
Y822702D01*
X721861Y825241D01*
X716782D01*
X714243Y822702D01*
Y820163D01*
X716782Y817624D01*
X724400D01*
X519176Y958088D02*
Y973323D01*
X526794D01*
X529333Y970784D01*
Y965705D01*
X526794Y963166D01*
X519176D01*
X524254D02*
X529333Y958088D01*
X534411Y973323D02*
X544568D01*
Y970784D01*
X534411Y960627D01*
Y958088D01*
X123194Y643893D02*
Y659128D01*
X130812D01*
X133351Y656588D01*
Y651510D01*
X130812Y648971D01*
X123194D01*
X128272D02*
X133351Y643893D01*
X148586Y659128D02*
X138429D01*
Y651510D01*
X143507Y654049D01*
X146047D01*
X148586Y651510D01*
Y646432D01*
X146047Y643893D01*
X140968D01*
X138429Y646432D01*
X121924Y618493D02*
Y633727D01*
X129542D01*
X132081Y631188D01*
Y626110D01*
X129542Y623571D01*
X121924D01*
X127002D02*
X132081Y618493D01*
X147316Y633727D02*
X142238Y631188D01*
X137159Y626110D01*
Y621032D01*
X139698Y618493D01*
X144777D01*
X147316Y621032D01*
Y623571D01*
X144777Y626110D01*
X137159D01*
X141115Y717552D02*
Y732787D01*
X148733D01*
X151272Y730248D01*
Y725170D01*
X148733Y722631D01*
X141115D01*
X146193D02*
X151272Y717552D01*
X156350Y730248D02*
X158889Y732787D01*
X163967D01*
X166507Y730248D01*
Y727709D01*
X163967Y725170D01*
X166507Y722631D01*
Y720092D01*
X163967Y717552D01*
X158889D01*
X156350Y720092D01*
Y722631D01*
X158889Y725170D01*
X156350Y727709D01*
Y730248D01*
X158889Y725170D02*
X163967D01*
X167386Y898398D02*
Y913633D01*
X175004D01*
X177543Y911094D01*
Y906015D01*
X175004Y903476D01*
X167386D01*
X172464D02*
X177543Y898398D01*
X182621D02*
X187699D01*
X185160D01*
Y913633D01*
X182621Y911094D01*
X73152Y717550D02*
Y732785D01*
X80770D01*
X83309Y730246D01*
Y725167D01*
X80770Y722628D01*
X73152D01*
X88387Y717550D02*
X93465D01*
X90926D01*
Y732785D01*
X88387Y730246D01*
X275594Y509272D02*
Y524507D01*
X283212D01*
X285751Y521968D01*
Y516890D01*
X283212Y514351D01*
X275594D01*
X300986Y509272D02*
X290829D01*
X300986Y519429D01*
Y521968D01*
X298447Y524507D01*
X293368D01*
X290829Y521968D01*
X337566Y760217D02*
Y744982D01*
X347723D01*
X352801D02*
X357879D01*
X355340D01*
Y760217D01*
X352801Y757678D01*
X18539Y828797D02*
X13460D01*
X15999D01*
Y816101D01*
X13460Y813562D01*
X10921D01*
X8382Y816101D01*
X33774Y813562D02*
X23617D01*
X33774Y823719D01*
Y826258D01*
X31235Y828797D01*
X26156D01*
X23617Y826258D01*
X771903Y261107D02*
X766824D01*
X769363D01*
Y248411D01*
X766824Y245872D01*
X764285D01*
X761746Y248411D01*
X776981Y258568D02*
X779520Y261107D01*
X784599D01*
X787138Y258568D01*
Y256029D01*
X784599Y253489D01*
X787138Y250950D01*
Y248411D01*
X784599Y245872D01*
X779520D01*
X776981Y248411D01*
Y250950D01*
X779520Y253489D01*
X776981Y256029D01*
Y258568D01*
X779520Y253489D02*
X784599D01*
X18285Y711195D02*
X13206D01*
X15746D01*
Y698499D01*
X13206Y695960D01*
X10667D01*
X8128Y698499D01*
X30981Y695960D02*
Y711195D01*
X23363Y703577D01*
X33520D01*
X27940Y980437D02*
X17783D01*
Y965202D01*
X27940D01*
X17783Y972820D02*
X22862D01*
X33018Y965202D02*
X38097D01*
X35558D01*
Y980437D01*
X33018Y977898D01*
X360684Y505457D02*
Y490223D01*
X368302D01*
X370841Y492762D01*
Y502918D01*
X368302Y505457D01*
X360684D01*
X383537Y490223D02*
Y505457D01*
X375919Y497840D01*
X386076D01*
X216662Y785363D02*
Y770128D01*
X224279D01*
X226819Y772667D01*
Y782824D01*
X224279Y785363D01*
X216662D01*
X231897Y782824D02*
X234436Y785363D01*
X239515D01*
X242054Y782824D01*
Y780285D01*
X239515Y777746D01*
X236975D01*
X239515D01*
X242054Y775206D01*
Y772667D01*
X239515Y770128D01*
X234436D01*
X231897Y772667D01*
X209296Y912363D02*
Y897128D01*
X216914D01*
X219453Y899667D01*
Y909824D01*
X216914Y912363D01*
X209296D01*
X234688Y897128D02*
X224531D01*
X234688Y907285D01*
Y909824D01*
X232149Y912363D01*
X227070D01*
X224531Y909824D01*
X85093Y825498D02*
Y810263D01*
X92711D01*
X95250Y812802D01*
Y822958D01*
X92711Y825498D01*
X85093D01*
X100328Y810263D02*
X105407D01*
X102868D01*
Y825498D01*
X100328Y822958D01*
X400047Y745740D02*
X397508Y748279D01*
X392429D01*
X389890Y745740D01*
Y735583D01*
X392429Y733044D01*
X397508D01*
X400047Y735583D01*
X405125Y733044D02*
X410203D01*
X407664D01*
Y748279D01*
X405125Y745740D01*
X308861Y83562D02*
X306322Y86101D01*
X301243D01*
X298704Y83562D01*
Y73405D01*
X301243Y70866D01*
X306322D01*
X308861Y73405D01*
X313939Y70866D02*
X319017D01*
X316478D01*
Y86101D01*
X313939Y83562D01*
X334253Y70866D02*
Y86101D01*
X326635Y78484D01*
X336792D01*
X260601Y82292D02*
X258062Y84831D01*
X252983D01*
X250444Y82292D01*
Y72135D01*
X252983Y69596D01*
X258062D01*
X260601Y72135D01*
X265679Y69596D02*
X270757D01*
X268218D01*
Y84831D01*
X265679Y82292D01*
X278375D02*
X280914Y84831D01*
X285993D01*
X288532Y82292D01*
Y79753D01*
X285993Y77214D01*
X283453D01*
X285993D01*
X288532Y74674D01*
Y72135D01*
X285993Y69596D01*
X280914D01*
X278375Y72135D01*
X590293Y92452D02*
X587753Y94991D01*
X582675D01*
X580136Y92452D01*
Y82295D01*
X582675Y79756D01*
X587753D01*
X590293Y82295D01*
X595371Y79756D02*
X600449D01*
X597910D01*
Y94991D01*
X595371Y92452D01*
X608067Y82295D02*
X610606Y79756D01*
X615685D01*
X618224Y82295D01*
Y92452D01*
X615685Y94991D01*
X610606D01*
X608067Y92452D01*
Y89913D01*
X610606Y87374D01*
X618224D01*
X582933Y22858D02*
X580394Y25398D01*
X575315D01*
X572776Y22858D01*
Y12702D01*
X575315Y10163D01*
X580394D01*
X582933Y12702D01*
X588011Y10163D02*
X593090D01*
X590550D01*
Y25398D01*
X588011Y22858D01*
X600707D02*
X603246Y25398D01*
X608325D01*
X610864Y22858D01*
Y20319D01*
X608325Y17780D01*
X610864Y15241D01*
Y12702D01*
X608325Y10163D01*
X603246D01*
X600707Y12702D01*
Y15241D01*
X603246Y17780D01*
X600707Y20319D01*
Y22858D01*
X603246Y17780D02*
X608325D01*
X73657Y563114D02*
X71118Y565653D01*
X66039D01*
X63500Y563114D01*
Y552957D01*
X66039Y550418D01*
X71118D01*
X73657Y552957D01*
X78735Y550418D02*
X83813D01*
X81274D01*
Y565653D01*
X78735Y563114D01*
X91431Y565653D02*
X101588D01*
Y563114D01*
X91431Y552957D01*
Y550418D01*
X514353Y697228D02*
X511814Y699768D01*
X506736D01*
X504197Y697228D01*
Y687072D01*
X506736Y684532D01*
X511814D01*
X514353Y687072D01*
X519432Y697228D02*
X521971Y699768D01*
X527049D01*
X529588Y697228D01*
Y694689D01*
X527049Y692150D01*
X524510D01*
X527049D01*
X529588Y689611D01*
Y687072D01*
X527049Y684532D01*
X521971D01*
X519432Y687072D01*
X544823Y699768D02*
X539745Y697228D01*
X534667Y692150D01*
Y687072D01*
X537206Y684532D01*
X542284D01*
X544823Y687072D01*
Y689611D01*
X542284Y692150D01*
X534667D01*
X548643Y760728D02*
X546104Y763268D01*
X541026D01*
X538487Y760728D01*
Y750572D01*
X541026Y748033D01*
X546104D01*
X548643Y750572D01*
X553722Y760728D02*
X556261Y763268D01*
X561339D01*
X563878Y760728D01*
Y758189D01*
X561339Y755650D01*
X558800D01*
X561339D01*
X563878Y753111D01*
Y750572D01*
X561339Y748033D01*
X556261D01*
X553722Y750572D01*
X579113Y763268D02*
X568957D01*
Y755650D01*
X574035Y758189D01*
X576574D01*
X579113Y755650D01*
Y750572D01*
X576574Y748033D01*
X571496D01*
X568957Y750572D01*
X603253Y763268D02*
X600714Y765807D01*
X595636D01*
X593097Y763268D01*
Y753112D01*
X595636Y750573D01*
X600714D01*
X603253Y753112D01*
X608332Y763268D02*
X610871Y765807D01*
X615949D01*
X618488Y763268D01*
Y760729D01*
X615949Y758190D01*
X613410D01*
X615949D01*
X618488Y755651D01*
Y753112D01*
X615949Y750573D01*
X610871D01*
X608332Y753112D01*
X631184Y750573D02*
Y765807D01*
X623567Y758190D01*
X633723D01*
X500383Y763268D02*
X497844Y765807D01*
X492766D01*
X490227Y763268D01*
Y753112D01*
X492766Y750573D01*
X497844D01*
X500383Y753112D01*
X505462Y763268D02*
X508001Y765807D01*
X513079D01*
X515618Y763268D01*
Y760729D01*
X513079Y758190D01*
X510540D01*
X513079D01*
X515618Y755651D01*
Y753112D01*
X513079Y750573D01*
X508001D01*
X505462Y753112D01*
X520697D02*
X523236Y750573D01*
X528314D01*
X530853Y753112D01*
Y763268D01*
X528314Y765807D01*
X523236D01*
X520697Y763268D01*
Y760729D01*
X523236Y758190D01*
X530853D01*
X539753Y615948D02*
X537214Y618488D01*
X532136D01*
X529597Y615948D01*
Y605792D01*
X532136Y603252D01*
X537214D01*
X539753Y605792D01*
X552449Y603252D02*
Y618488D01*
X544832Y610870D01*
X554988D01*
X570223Y603252D02*
X560067D01*
X570223Y613409D01*
Y615948D01*
X567684Y618488D01*
X562606D01*
X560067Y615948D01*
X544319Y660396D02*
X541780Y662935D01*
X536701D01*
X534162Y660396D01*
Y650239D01*
X536701Y647700D01*
X541780D01*
X544319Y650239D01*
X557015Y647700D02*
Y662935D01*
X549397Y655318D01*
X559554D01*
X564632Y647700D02*
X569711D01*
X567171D01*
Y662935D01*
X564632Y660396D01*
X435613Y622298D02*
X433074Y624837D01*
X427996D01*
X425457Y622298D01*
Y612142D01*
X427996Y609603D01*
X433074D01*
X435613Y612142D01*
X440692Y622298D02*
X443231Y624837D01*
X448309D01*
X450848Y622298D01*
Y619759D01*
X448309Y617220D01*
X445770D01*
X448309D01*
X450848Y614681D01*
Y612142D01*
X448309Y609603D01*
X443231D01*
X440692Y612142D01*
X455927Y624837D02*
X466083D01*
Y622298D01*
X455927Y612142D01*
Y609603D01*
X433073Y541018D02*
X430534Y543558D01*
X425456D01*
X422917Y541018D01*
Y530862D01*
X425456Y528322D01*
X430534D01*
X433073Y530862D01*
X438152Y541018D02*
X440691Y543558D01*
X445769D01*
X448308Y541018D01*
Y538479D01*
X445769Y535940D01*
X443230D01*
X445769D01*
X448308Y533401D01*
Y530862D01*
X445769Y528322D01*
X440691D01*
X438152Y530862D01*
X453387Y541018D02*
X455926Y543558D01*
X461004D01*
X463543Y541018D01*
Y538479D01*
X461004Y535940D01*
X463543Y533401D01*
Y530862D01*
X461004Y528322D01*
X455926D01*
X453387Y530862D01*
Y533401D01*
X455926Y535940D01*
X453387Y538479D01*
Y541018D01*
X455926Y535940D02*
X461004D01*
X675643Y424178D02*
X673104Y426717D01*
X668026D01*
X665487Y424178D01*
Y414022D01*
X668026Y411483D01*
X673104D01*
X675643Y414022D01*
X690878Y411483D02*
X680722D01*
X690878Y421639D01*
Y424178D01*
X688339Y426717D01*
X683261D01*
X680722Y424178D01*
X695957D02*
X698496Y426717D01*
X703574D01*
X706113Y424178D01*
Y421639D01*
X703574Y419100D01*
X701035D01*
X703574D01*
X706113Y416561D01*
Y414022D01*
X703574Y411483D01*
X698496D01*
X695957Y414022D01*
X605793Y200658D02*
X603253Y203197D01*
X598175D01*
X595636Y200658D01*
Y190502D01*
X598175Y187962D01*
X603253D01*
X605793Y190502D01*
X621028Y187962D02*
X610871D01*
X621028Y198119D01*
Y200658D01*
X618488Y203197D01*
X613410D01*
X610871Y200658D01*
X626106Y187962D02*
X631184D01*
X628645D01*
Y203197D01*
X626106Y200658D01*
X854713Y364488D02*
X852174Y367028D01*
X847096D01*
X844557Y364488D01*
Y354332D01*
X847096Y351792D01*
X852174D01*
X854713Y354332D01*
X869948Y351792D02*
X859792D01*
X869948Y361949D01*
Y364488D01*
X867409Y367028D01*
X862331D01*
X859792Y364488D01*
X875027Y354332D02*
X877566Y351792D01*
X882644D01*
X885183Y354332D01*
Y364488D01*
X882644Y367028D01*
X877566D01*
X875027Y364488D01*
Y361949D01*
X877566Y359410D01*
X885183D01*
X835149Y433320D02*
X832609Y435859D01*
X827531D01*
X824992Y433320D01*
Y423163D01*
X827531Y420624D01*
X832609D01*
X835149Y423163D01*
X850384Y420624D02*
X840227D01*
X850384Y430781D01*
Y433320D01*
X847845Y435859D01*
X842766D01*
X840227Y433320D01*
X855462Y435859D02*
X865619D01*
Y433320D01*
X855462Y423163D01*
Y420624D01*
X948693Y267968D02*
X946154Y270508D01*
X941076D01*
X938537Y267968D01*
Y257812D01*
X941076Y255273D01*
X946154D01*
X948693Y257812D01*
X963928Y255273D02*
X953772D01*
X963928Y265429D01*
Y267968D01*
X961389Y270508D01*
X956311D01*
X953772Y267968D01*
X979163Y270508D02*
X974085Y267968D01*
X969007Y262890D01*
Y257812D01*
X971546Y255273D01*
X976624D01*
X979163Y257812D01*
Y260351D01*
X976624Y262890D01*
X969007D01*
X796293Y360678D02*
X793754Y363218D01*
X788676D01*
X786137Y360678D01*
Y350522D01*
X788676Y347982D01*
X793754D01*
X796293Y350522D01*
X811528Y347982D02*
X801372D01*
X811528Y358139D01*
Y360678D01*
X808989Y363218D01*
X803911D01*
X801372Y360678D01*
X826763Y363218D02*
X816607D01*
Y355600D01*
X821685Y358139D01*
X824224D01*
X826763Y355600D01*
Y350522D01*
X824224Y347982D01*
X819146D01*
X816607Y350522D01*
X769623Y433068D02*
X767084Y435607D01*
X762006D01*
X759467Y433068D01*
Y422912D01*
X762006Y420373D01*
X767084D01*
X769623Y422912D01*
X784858Y420373D02*
X774702D01*
X784858Y430529D01*
Y433068D01*
X782319Y435607D01*
X777241D01*
X774702Y433068D01*
X797554Y420373D02*
Y435607D01*
X789937Y427990D01*
X800093D01*
X722633Y431798D02*
X720094Y434338D01*
X715016D01*
X712477Y431798D01*
Y421642D01*
X715016Y419103D01*
X720094D01*
X722633Y421642D01*
X737868Y419103D02*
X727712D01*
X737868Y429259D01*
Y431798D01*
X735329Y434338D01*
X730251D01*
X727712Y431798D01*
X753103Y419103D02*
X742947D01*
X753103Y429259D01*
Y431798D01*
X750564Y434338D01*
X745486D01*
X742947Y431798D01*
X395729Y424176D02*
X393190Y426715D01*
X388111D01*
X385572Y424176D01*
Y414019D01*
X388111Y411480D01*
X393190D01*
X395729Y414019D01*
X400807Y424176D02*
X403346Y426715D01*
X408425D01*
X410964Y424176D01*
Y421637D01*
X408425Y419098D01*
X405885D01*
X408425D01*
X410964Y416558D01*
Y414019D01*
X408425Y411480D01*
X403346D01*
X400807Y414019D01*
X426199Y411480D02*
X416042D01*
X426199Y421637D01*
Y424176D01*
X423660Y426715D01*
X418581D01*
X416042Y424176D01*
X388623Y378458D02*
X386084Y380998D01*
X381006D01*
X378467Y378458D01*
Y368302D01*
X381006Y365762D01*
X386084D01*
X388623Y368302D01*
X393702Y378458D02*
X396241Y380998D01*
X401319D01*
X403858Y378458D01*
Y375919D01*
X401319Y373380D01*
X398780D01*
X401319D01*
X403858Y370841D01*
Y368302D01*
X401319Y365762D01*
X396241D01*
X393702Y368302D01*
X408937Y378458D02*
X411476Y380998D01*
X416554D01*
X419093Y378458D01*
Y375919D01*
X416554Y373380D01*
X414015D01*
X416554D01*
X419093Y370841D01*
Y368302D01*
X416554Y365762D01*
X411476D01*
X408937Y368302D01*
X332991Y360930D02*
X330452Y363469D01*
X325373D01*
X322834Y360930D01*
Y350773D01*
X325373Y348234D01*
X330452D01*
X332991Y350773D01*
X348226Y348234D02*
X338069D01*
X348226Y358391D01*
Y360930D01*
X345687Y363469D01*
X340608D01*
X338069Y360930D01*
X353304D02*
X355843Y363469D01*
X360922D01*
X363461Y360930D01*
Y358391D01*
X360922Y355852D01*
X363461Y353312D01*
Y350773D01*
X360922Y348234D01*
X355843D01*
X353304Y350773D01*
Y353312D01*
X355843Y355852D01*
X353304Y358391D01*
Y360930D01*
X355843Y355852D02*
X360922D01*
X332991Y311400D02*
X330452Y313939D01*
X325373D01*
X322834Y311400D01*
Y301243D01*
X325373Y298704D01*
X330452D01*
X332991Y301243D01*
X338069Y311400D02*
X340608Y313939D01*
X345687D01*
X348226Y311400D01*
Y308861D01*
X345687Y306322D01*
X343147D01*
X345687D01*
X348226Y303782D01*
Y301243D01*
X345687Y298704D01*
X340608D01*
X338069Y301243D01*
X353304Y311400D02*
X355843Y313939D01*
X360922D01*
X363461Y311400D01*
Y301243D01*
X360922Y298704D01*
X355843D01*
X353304Y301243D01*
Y311400D01*
X395221Y83562D02*
X392682Y86101D01*
X387603D01*
X385064Y83562D01*
Y73405D01*
X387603Y70866D01*
X392682D01*
X395221Y73405D01*
X400299Y70866D02*
X405377D01*
X402838D01*
Y86101D01*
X400299Y83562D01*
X423152Y86101D02*
X418073Y83562D01*
X412995Y78484D01*
Y73405D01*
X415534Y70866D01*
X420612D01*
X423152Y73405D01*
Y75944D01*
X420612Y78484D01*
X412995D01*
X352041Y83562D02*
X349501Y86101D01*
X344423D01*
X341884Y83562D01*
Y73405D01*
X344423Y70866D01*
X349501D01*
X352041Y73405D01*
X357119Y70866D02*
X362197D01*
X359658D01*
Y86101D01*
X357119Y83562D01*
X379972Y86101D02*
X369815D01*
Y78484D01*
X374893Y81023D01*
X377433D01*
X379972Y78484D01*
Y73405D01*
X377433Y70866D01*
X372354D01*
X369815Y73405D01*
X265427Y973070D02*
X262887Y975609D01*
X257809D01*
X255270Y973070D01*
Y962913D01*
X257809Y960374D01*
X262887D01*
X265427Y962913D01*
X280662Y975609D02*
X270505D01*
Y967991D01*
X275583Y970531D01*
X278123D01*
X280662Y967991D01*
Y962913D01*
X278123Y960374D01*
X273044D01*
X270505Y962913D01*
X349247Y970530D02*
X346707Y973069D01*
X341629D01*
X339090Y970530D01*
Y960373D01*
X341629Y957834D01*
X346707D01*
X349247Y960373D01*
X354325Y973069D02*
X364482D01*
Y970530D01*
X354325Y960373D01*
Y957834D01*
X391157Y970530D02*
X388618Y973069D01*
X383539D01*
X381000Y970530D01*
Y960373D01*
X383539Y957834D01*
X388618D01*
X391157Y960373D01*
X396235Y970530D02*
X398774Y973069D01*
X403853D01*
X406392Y970530D01*
Y967991D01*
X403853Y965452D01*
X406392Y962912D01*
Y960373D01*
X403853Y957834D01*
X398774D01*
X396235Y960373D01*
Y962912D01*
X398774Y965452D01*
X396235Y967991D01*
Y970530D01*
X398774Y965452D02*
X403853D01*
X307337Y971800D02*
X304797Y974339D01*
X299719D01*
X297180Y971800D01*
Y961643D01*
X299719Y959104D01*
X304797D01*
X307337Y961643D01*
X322572Y974339D02*
X317493Y971800D01*
X312415Y966721D01*
Y961643D01*
X314954Y959104D01*
X320033D01*
X322572Y961643D01*
Y964182D01*
X320033Y966721D01*
X312415D01*
X429257Y972308D02*
X426717Y974847D01*
X421639D01*
X419100Y972308D01*
Y962151D01*
X421639Y959612D01*
X426717D01*
X429257Y962151D01*
X434335D02*
X436874Y959612D01*
X441953D01*
X444492Y962151D01*
Y972308D01*
X441953Y974847D01*
X436874D01*
X434335Y972308D01*
Y969769D01*
X436874Y967230D01*
X444492D01*
X481327Y973578D02*
X478787Y976117D01*
X473709D01*
X471170Y973578D01*
Y963421D01*
X473709Y960882D01*
X478787D01*
X481327Y963421D01*
X486405Y960882D02*
X491483D01*
X488944D01*
Y976117D01*
X486405Y973578D01*
X509258Y960882D02*
X499101D01*
X509258Y971039D01*
Y973578D01*
X506718Y976117D01*
X501640D01*
X499101Y973578D01*
X316232Y666748D02*
X313693Y669287D01*
X308615D01*
X306075Y666748D01*
Y656592D01*
X308615Y654053D01*
X313693D01*
X316232Y656592D01*
X321310Y654053D02*
X326389D01*
X323850D01*
Y669287D01*
X321310Y666748D01*
X334006Y654053D02*
X339085D01*
X336545D01*
Y669287D01*
X334006Y666748D01*
X357883Y666492D02*
X355344Y669031D01*
X350265D01*
X347726Y666492D01*
Y656335D01*
X350265Y653796D01*
X355344D01*
X357883Y656335D01*
X362961Y653796D02*
X368039D01*
X365500D01*
Y669031D01*
X362961Y666492D01*
X375657D02*
X378196Y669031D01*
X383274D01*
X385814Y666492D01*
Y656335D01*
X383274Y653796D01*
X378196D01*
X375657Y656335D01*
Y666492D01*
X230883Y970784D02*
X228344Y973323D01*
X223265D01*
X220726Y970784D01*
Y960627D01*
X223265Y958088D01*
X228344D01*
X230883Y960627D01*
X243579Y958088D02*
Y973323D01*
X235961Y965705D01*
X246118D01*
X187703Y972054D02*
X185163Y974593D01*
X180085D01*
X177546Y972054D01*
Y961897D01*
X180085Y959358D01*
X185163D01*
X187703Y961897D01*
X192781Y972054D02*
X195320Y974593D01*
X200399D01*
X202938Y972054D01*
Y969515D01*
X200399Y966975D01*
X197859D01*
X200399D01*
X202938Y964436D01*
Y961897D01*
X200399Y959358D01*
X195320D01*
X192781Y961897D01*
X147825Y976118D02*
X145286Y978657D01*
X140207D01*
X137668Y976118D01*
Y965961D01*
X140207Y963422D01*
X145286D01*
X147825Y965961D01*
X163060Y963422D02*
X152903D01*
X163060Y973579D01*
Y976118D01*
X160521Y978657D01*
X155442D01*
X152903Y976118D01*
M02*
