M48
;Layer_Color=9474304
;FILE_FORMAT=4:4
METRIC,LZ
;TYPE=PLATED
T01F00S00C0.3000
T02F00S00C0.7000
T03F00S00C0.9000
T04F00S00C1.0200
T05F00S00C1.1000
T06F00S00C1.4000
T07F00S00C1.6000
T08F00S00C5.0000
;TYPE=NON_PLATED
T09F00S00C3.2500
%
T01
X0045847Y0011176
T02
X0041529Y0003937
X0043561Y0004699
X00452807Y0004809
X0046228Y0005588
X00462505Y00033895
X004572Y0001397
X00505496Y00031518
X00495643Y00044348
X005207Y0002032
X0051181Y0008509
X0049276Y0010795
X0049657Y0012827
X0045212Y0007493
X00423069Y00092709
X0042164Y0010414
X004064Y001016
X0040386Y0011764
X00381Y001016
X0062611Y0009398
X00623132Y00069922
X00617922Y00054328
X006096Y0004064
X0060071Y0002286
X0062738Y0002413
X0058166Y0003285
X00833092Y00087658
X0084836Y0009271
X0086487Y0009191
X0088011Y0009144
Y0010795
X0086487
X0084963Y0011176
X0083693Y0010922
X0067818Y0020193
X00670034Y00193784
X0063627Y0019558
X00642197Y00205458
X0063754Y0026289
X00619628Y0024533
X005969Y0024384
X0059563Y0027686
X006096Y0027305
Y0028956
X0060706Y0034774
Y003683
X0060579Y0038528
X0060706Y0040132
X00635Y0040454
X0065151Y0037592
X0071501Y003937
X007112Y0044196
Y0050292
X0072898Y0050546
X0076327Y004953
X0087884Y0051308
X00889Y0048387
X0064897Y0052324
X0067437Y0027432
X0069215Y0027813
X0068961Y0022479
X0053975Y002413
X00528346Y00242929
X0049403Y0024003
X0049911Y0028575
X004953Y0030226
X00492233Y0031902
X00505249Y00332951
X00510308Y00344402
X0051308Y0035814
X0049231Y0035548
X0050419Y0037719
X0051049Y00401507
X0053086Y0038862
X0053213Y0028448
X00513631Y00293768
X0046101Y0032512
X0040005Y0029591
X0036703Y002921
X0031242Y0035687
X0033782Y0039878
X0035687Y0042291
X0022987Y0039751
X002667Y0051562
X00356202Y00179738
X0035179Y001651
X00368509Y0016362
X0036068Y0015113
X0041148Y0016637
X0042418Y001651
X0043434Y001778
X0043942Y0015113
X0046228Y0014351
X0046101Y001655
X0047705Y0016002
X0049022Y0018923
X0041656Y0019812
X0004826Y0032004
X0004064Y0038608
X000127Y0044323
X0004699Y0046482
X0010033Y0046609
X0005969Y0051435
X0010287Y0054864
X00087704Y00604594
X0013716Y0063754
X0014097Y0067437
X0010033Y0073152
X0013462Y0076835
X0027305Y0071882
X0031115Y0073533
X0030607Y0063119
Y0061315
X0027305Y0062103
X00259187Y00602524
X00233212Y00610068
X0022733Y0062103
X0019304Y0059817
X0027686Y005715
X0029083Y0057531
X0026797Y0055626
X0034036Y0062992
X0041021Y0060198
X0051435Y0057785
X0053213Y0057404
X0048768Y0054735
X0041275Y0088519
X0045085Y0092964
X0024765Y0090551
X0063881Y0085471
X006604Y0083312
X0062992Y007874
X0061849Y0075184
X00582323Y00770227
X00558828Y00746732
X0055372Y0070485
X00630719Y00626624
X0064643Y0062103
X00664438Y00619465
X00676984Y00619584
X0067056Y00635
X00711352Y00650479
X00708567Y00666611
X0072644Y0067437
X0071628Y006858
X00734607Y00690157
X0073406Y0065278
X0074803Y0064897
X0082804Y0065278
X0083566Y0069596
X0083439Y0071628
X0089154Y0072644
X0088773Y0067056
X0088646Y0061468
X0090297Y0061722
X009271Y0056134
X0080899Y0057785
X0073279Y0054102
X00644935Y00542959
X0064897Y0055375
X0065151Y0057179
X0065278Y0058783
X0066929Y0057404
X0062992Y0059817
X0061087Y00560439
X0075184Y0086868
X0093853Y006223
X0069723Y009525
X0067056Y0095377
X0045466Y0096012
X0041021Y0095123
X0024765Y0096901
T03
X0080645Y0018848
X0083185
X0085725
X0088265
X0090805
X0089535Y0021388
X0086995
X0084455
X0081915
X0079375
T04
X0078305Y0007928
Y0009958
X0091875
Y0007928
X0051435Y0047117
X0037592
X0033909Y0046228
X0027559Y0040005
X0028321Y0032766
X0012319Y0048387
Y0050927
X0011303Y0069469
X0008763
X0017145Y0065024
Y0061722
X0017272Y0057531
X0020701Y0054356
X0024384
X004445Y0088773
X004699
X0071374Y0088519
Y0084963
X0070739Y0071374
X0065151Y0071247
X0064135Y0064897
X0072644Y0063246
X0085471Y0067183
X0095885Y0062611
X009525Y0056769
T05
X0028829Y005461
X0031369
X0033909
T06
X0005896Y0088011
Y0093091
T07
X007734Y0015548
X009284
T08
X0009398Y0011811
X0084455Y0029591
X0032512Y0083693
T09
X0079375Y0012498
X0090805
M30
