G04*
G04 #@! TF.GenerationSoftware,Altium Limited,Altium Designer,25.8.1 (18)*
G04*
G04 Layer_Physical_Order=1*
G04 Layer_Color=255*
%FSLAX44Y44*%
%MOMM*%
G71*
G04*
G04 #@! TF.SameCoordinates,5D46F635-8B12-49F8-90BD-38314D954B60*
G04*
G04*
G04 #@! TF.FilePolarity,Positive*
G04*
G01*
G75*
%ADD11C,0.2000*%
%ADD13C,0.2540*%
%ADD16R,5.0000X1.2000*%
%ADD17R,5.0000X1.6000*%
%ADD18R,2.0000X1.2000*%
%ADD19R,1.2000X2.0000*%
%ADD20R,1.3098X0.9061*%
G04:AMPARAMS|DCode=21|XSize=1.5mm|YSize=0.45mm|CornerRadius=0.0495mm|HoleSize=0mm|Usage=FLASHONLY|Rotation=0.000|XOffset=0mm|YOffset=0mm|HoleType=Round|Shape=RoundedRectangle|*
%AMROUNDEDRECTD21*
21,1,1.5000,0.3510,0,0,0.0*
21,1,1.4010,0.4500,0,0,0.0*
1,1,0.0990,0.7005,-0.1755*
1,1,0.0990,-0.7005,-0.1755*
1,1,0.0990,-0.7005,0.1755*
1,1,0.0990,0.7005,0.1755*
%
%ADD21ROUNDEDRECTD21*%
%ADD22R,1.2000X0.3000*%
%ADD23R,0.3000X1.2000*%
G04:AMPARAMS|DCode=24|XSize=0.8611mm|YSize=0.2393mm|CornerRadius=0.1196mm|HoleSize=0mm|Usage=FLASHONLY|Rotation=0.000|XOffset=0mm|YOffset=0mm|HoleType=Round|Shape=RoundedRectangle|*
%AMROUNDEDRECTD24*
21,1,0.8611,0.0000,0,0,0.0*
21,1,0.6218,0.2393,0,0,0.0*
1,1,0.2393,0.3109,0.0000*
1,1,0.2393,-0.3109,0.0000*
1,1,0.2393,-0.3109,0.0000*
1,1,0.2393,0.3109,0.0000*
%
%ADD24ROUNDEDRECTD24*%
%ADD25R,1.3500X1.4500*%
%ADD26R,1.0000X1.8000*%
%ADD27R,1.4000X1.2000*%
%ADD28R,1.5000X1.5500*%
%ADD29R,0.9500X1.3500*%
%ADD30R,0.9061X1.3098*%
%ADD31R,1.5562X1.4546*%
%ADD32R,0.9500X1.4000*%
%ADD33R,1.2500X1.4500*%
%ADD34R,1.3061X1.5098*%
%ADD35R,0.9500X1.7000*%
%ADD36R,1.2000X1.2000*%
%ADD37R,1.3000X0.7000*%
%ADD38R,1.4500X1.3000*%
%ADD39R,1.7000X0.9500*%
%ADD40R,1.5098X1.3061*%
%ADD41R,1.3500X0.9500*%
%ADD42R,1.0000X0.7000*%
%ADD43R,1.3000X1.6500*%
%ADD44R,1.5500X1.4250*%
%ADD45R,1.3800X0.4500*%
%ADD46R,1.9000X1.8000*%
%ADD47R,1.9000X1.0000*%
%ADD48O,1.5500X0.2500*%
%ADD49O,0.2500X1.5500*%
%ADD50R,1.4000X0.9500*%
%ADD51R,0.7200X0.7200*%
%ADD52R,1.1000X1.0000*%
G04:AMPARAMS|DCode=53|XSize=0.2393mm|YSize=0.8611mm|CornerRadius=0.1196mm|HoleSize=0mm|Usage=FLASHONLY|Rotation=0.000|XOffset=0mm|YOffset=0mm|HoleType=Round|Shape=RoundedRectangle|*
%AMROUNDEDRECTD53*
21,1,0.2393,0.6218,0,0,0.0*
21,1,0.0000,0.8611,0,0,0.0*
1,1,0.2393,0.0000,-0.3109*
1,1,0.2393,0.0000,-0.3109*
1,1,0.2393,0.0000,0.3109*
1,1,0.2393,0.0000,0.3109*
%
%ADD53ROUNDEDRECTD53*%
%ADD54R,0.8611X0.2393*%
%ADD55R,2.1590X1.5240*%
%ADD56R,1.7200X3.2000*%
%ADD57R,1.3500X0.8500*%
%ADD58R,1.0000X1.4000*%
%ADD59R,1.5500X1.2500*%
%ADD60R,1.5000X2.7000*%
%ADD61R,1.5562X1.2552*%
%ADD62R,0.6600X0.4100*%
%ADD63R,1.6000X5.7000*%
%ADD69R,2.6000X2.6000*%
%ADD78C,1.5700*%
%ADD79C,2.4500*%
%ADD82C,1.4000*%
%ADD83R,1.4000X1.4000*%
%ADD84C,3.2500*%
%ADD92C,0.1000*%
%ADD93C,0.1000*%
%ADD94C,0.2300*%
%ADD95C,0.5000*%
%ADD96C,0.3000*%
%ADD97C,0.4000*%
%ADD98C,0.1500*%
%ADD99C,0.0800*%
%ADD100C,0.0700*%
%ADD101C,1.0000*%
%ADD102C,1.5000*%
%ADD103C,0.7000*%
%ADD104C,2.0000*%
G04:AMPARAMS|DCode=105|XSize=1.6mm|YSize=1.6mm|CornerRadius=0.4mm|HoleSize=0mm|Usage=FLASHONLY|Rotation=270.000|XOffset=0mm|YOffset=0mm|HoleType=Round|Shape=RoundedRectangle|*
%AMROUNDEDRECTD105*
21,1,1.6000,0.8000,0,0,270.0*
21,1,0.8000,1.6000,0,0,270.0*
1,1,0.8000,-0.4000,-0.4000*
1,1,0.8000,-0.4000,0.4000*
1,1,0.8000,0.4000,0.4000*
1,1,0.8000,0.4000,-0.4000*
%
%ADD105ROUNDEDRECTD105*%
%ADD106C,1.6000*%
%ADD107C,1.0000*%
%ADD108C,1.2700*%
%ADD109C,0.3000*%
%ADD110C,0.5000*%
%ADD111C,0.6000*%
%ADD112C,0.2000*%
G36*
X665690Y979927D02*
X664085Y978322D01*
X663476Y977916D01*
X662560Y978046D01*
X662394Y978091D01*
X662346Y978270D01*
X661354Y979990D01*
X659950Y981394D01*
X658230Y982386D01*
X656313Y982900D01*
X654327D01*
X652410Y982386D01*
X650690Y981394D01*
X650131Y980834D01*
X649131Y981248D01*
Y985636D01*
X630341D01*
X629958Y986560D01*
X632162Y988763D01*
X665690D01*
Y979927D01*
D02*
G37*
G36*
X624781Y962704D02*
Y956310D01*
X625172Y954343D01*
X626286Y952676D01*
X627953Y951562D01*
X628489Y951456D01*
Y947494D01*
X642502D01*
X642885Y946570D01*
X595806Y899492D01*
X594692Y897824D01*
X594301Y895858D01*
Y837330D01*
X592150D01*
Y837330D01*
X591730D01*
Y837330D01*
X577150D01*
Y825559D01*
X572845D01*
X572431Y826559D01*
X573534Y827661D01*
X574704Y829689D01*
X575310Y831950D01*
Y834290D01*
X574704Y836551D01*
X573534Y838579D01*
X571879Y840234D01*
X569851Y841404D01*
X567590Y842010D01*
X565250D01*
X562989Y841404D01*
X560961Y840234D01*
X559306Y838579D01*
X558827Y837749D01*
X554440D01*
Y840939D01*
X540300D01*
Y825559D01*
X538919D01*
Y840939D01*
X536987D01*
Y870615D01*
X540844Y874472D01*
X541958Y876139D01*
X542349Y878105D01*
Y909299D01*
X547531D01*
Y913973D01*
X555244D01*
X557093Y914341D01*
X563719D01*
Y909667D01*
X584361D01*
Y928182D01*
Y947809D01*
X579179D01*
Y963072D01*
X590279Y974172D01*
X591621D01*
Y972240D01*
X609799D01*
Y974172D01*
X613313D01*
X624781Y962704D01*
D02*
G37*
G36*
X298251Y940209D02*
X299735D01*
Y897270D01*
X298540D01*
Y896379D01*
X293998Y895761D01*
X292686Y897074D01*
X291019Y898187D01*
X289052Y898579D01*
X287420D01*
Y900230D01*
X282440D01*
X281098Y900786D01*
X279129Y901045D01*
X277161Y900786D01*
X275819Y900230D01*
X268840D01*
Y886650D01*
X275093D01*
X275635Y885966D01*
X275186Y885108D01*
X247849D01*
Y887040D01*
X241336D01*
X241138Y888039D01*
X241172Y888054D01*
X242059Y888420D01*
X247849D01*
Y902561D01*
X242645D01*
Y927972D01*
X243823Y928460D01*
X245639Y929853D01*
X269760D01*
X269761Y929853D01*
X269761Y929853D01*
X271185Y930041D01*
X272381Y930198D01*
X272382Y930199D01*
X272382Y930199D01*
X273636Y930718D01*
X274823Y931210D01*
X274824Y931210D01*
X274824Y931210D01*
X275833Y931984D01*
X276506Y932501D01*
X276941Y932558D01*
X279383Y933570D01*
X279683Y933800D01*
X282860D01*
Y936977D01*
X283090Y937277D01*
X284102Y939719D01*
X284447Y942340D01*
X284102Y944961D01*
X283090Y947403D01*
X282860Y947703D01*
Y950880D01*
X279683D01*
X279383Y951110D01*
X276941Y952122D01*
X276242Y952214D01*
X276308Y953214D01*
X298251D01*
Y940209D01*
D02*
G37*
G36*
X526889Y927815D02*
Y924251D01*
X499271D01*
Y927815D01*
Y932489D01*
X526889D01*
Y927815D01*
D02*
G37*
G36*
X478629D02*
Y924251D01*
X468744D01*
X466895Y923883D01*
X458631D01*
Y927447D01*
Y932121D01*
X468376D01*
X470225Y932489D01*
X478629D01*
Y927815D01*
D02*
G37*
G36*
X526889Y909299D02*
X532071D01*
Y880234D01*
X528215Y876378D01*
X527101Y874710D01*
X526710Y872744D01*
Y840939D01*
X524778D01*
Y822761D01*
X526749D01*
X527101Y820993D01*
X528215Y819326D01*
X530755Y816786D01*
X532422Y815672D01*
X534389Y815281D01*
X556334D01*
X556670Y814281D01*
X555596Y812421D01*
X554990Y810160D01*
Y807820D01*
X555596Y805559D01*
X556766Y803531D01*
X558421Y801876D01*
X560449Y800706D01*
X562710Y800100D01*
X565050D01*
X565976Y800348D01*
X599440Y766884D01*
Y762424D01*
X599439Y762424D01*
X599792Y760652D01*
X600795Y759150D01*
X608116Y751830D01*
X607623Y750909D01*
X606883Y751056D01*
X520651D01*
X505243Y766464D01*
X505502Y767430D01*
X505618Y767461D01*
X507337Y768454D01*
X508741Y769858D01*
X509734Y771577D01*
X510248Y773495D01*
Y775480D01*
X509734Y777398D01*
X508741Y779117D01*
X507337Y780521D01*
X506890Y780780D01*
Y783379D01*
X506499Y785345D01*
X505385Y787012D01*
X499989Y792408D01*
Y805658D01*
X499598Y807624D01*
X498484Y809291D01*
X484882Y822894D01*
X483214Y824008D01*
X481248Y824399D01*
X473792D01*
X473261Y824835D01*
Y830921D01*
X482182D01*
X491375Y821729D01*
X493042Y820614D01*
X495008Y820223D01*
X505406D01*
X507372Y820614D01*
X509039Y821729D01*
X514311Y827001D01*
X515425Y828668D01*
X515817Y830634D01*
Y843334D01*
X515425Y845301D01*
X514311Y846968D01*
X509439Y851841D01*
Y874785D01*
X509048Y876752D01*
X507934Y878419D01*
X494735Y891618D01*
X493068Y892732D01*
X491101Y893123D01*
X462280D01*
X460313Y892732D01*
X458646Y891618D01*
X454373Y887344D01*
X453449Y887727D01*
Y908931D01*
X458631D01*
Y913606D01*
X468376D01*
X470225Y913973D01*
X478629D01*
Y909299D01*
X499271D01*
Y913973D01*
X526889D01*
Y909299D01*
D02*
G37*
G36*
X670601Y923700D02*
X670601Y923700D01*
X670953Y921928D01*
X671957Y920427D01*
X713706Y878678D01*
X712976Y877949D01*
X711806Y875921D01*
X711200Y873660D01*
Y871320D01*
X711806Y869059D01*
X712224Y868335D01*
X711724Y867469D01*
X669798D01*
X667831Y867078D01*
X666164Y865964D01*
X643785Y843584D01*
X642866Y842209D01*
X640348D01*
Y834195D01*
X625348D01*
X623382Y833804D01*
X621714Y832690D01*
X611282Y822257D01*
X606730D01*
Y837330D01*
X604579D01*
Y893729D01*
X651936Y941087D01*
X652860Y940704D01*
Y940077D01*
X653374Y938160D01*
X654367Y936440D01*
X655770Y935036D01*
X655771Y935036D01*
Y910590D01*
X655771Y910590D01*
X656123Y908819D01*
X657127Y907317D01*
X671910Y892533D01*
X671910Y892533D01*
Y890547D01*
X672424Y888630D01*
X673417Y886910D01*
X674820Y885507D01*
X676540Y884514D01*
X678457Y884000D01*
X680443D01*
X682360Y884514D01*
X684080Y885507D01*
X685483Y886910D01*
X686476Y888630D01*
X686990Y890547D01*
Y892533D01*
X686476Y894450D01*
X685483Y896170D01*
X684080Y897573D01*
X682360Y898566D01*
X680443Y899080D01*
X678457D01*
X678457Y899080D01*
X665029Y912507D01*
Y935036D01*
X665030Y935036D01*
X666433Y936440D01*
X667426Y938160D01*
X667940Y940077D01*
Y942063D01*
X667426Y943980D01*
X666433Y945700D01*
X665030Y947104D01*
X663310Y948096D01*
X661393Y948610D01*
X660766D01*
X660383Y949534D01*
X667509Y956660D01*
X670601D01*
Y923700D01*
D02*
G37*
G36*
X687690Y972660D02*
Y956660D01*
X706770D01*
Y959426D01*
X718111D01*
X718699Y957232D01*
X719870Y955205D01*
X721525Y953550D01*
X723552Y952380D01*
X725813Y951774D01*
X728154D01*
X730415Y952380D01*
X732241Y953434D01*
X733241Y953073D01*
Y880083D01*
X732411Y879604D01*
X730756Y877949D01*
X729586Y875921D01*
X729480Y875526D01*
X728480D01*
X728374Y875921D01*
X727204Y877949D01*
X726555Y878597D01*
X725903Y879573D01*
X679859Y925617D01*
Y956660D01*
X684770D01*
Y972660D01*
Y988763D01*
X687690D01*
Y972660D01*
D02*
G37*
G36*
X810963Y916843D02*
Y836535D01*
X810039Y836152D01*
X809228Y836964D01*
X807052Y838220D01*
X804626Y838870D01*
X802114D01*
X799688Y838220D01*
X798062Y837281D01*
X796989Y837622D01*
X796914Y837716D01*
X795860Y839294D01*
X791034Y844120D01*
X789367Y845234D01*
X787400Y845625D01*
X781592D01*
X771068Y856149D01*
X771842Y858016D01*
X772410Y860873D01*
Y863787D01*
X771842Y866644D01*
X770727Y869336D01*
X769108Y871758D01*
X767048Y873818D01*
X764626Y875437D01*
X761934Y876552D01*
X761819Y876575D01*
Y881458D01*
X762776Y881749D01*
X763375Y880852D01*
X765992Y878235D01*
X769070Y876178D01*
X772489Y874762D01*
X776119Y874040D01*
X779821D01*
X783451Y874762D01*
X786870Y876178D01*
X789948Y878235D01*
X792565Y880852D01*
X794622Y883929D01*
X796038Y887349D01*
X796760Y890979D01*
Y894680D01*
X796038Y898311D01*
X794622Y901730D01*
X792565Y904808D01*
X789948Y907425D01*
X786870Y909481D01*
X783451Y910898D01*
X779821Y911620D01*
X776606D01*
X776011Y912552D01*
X776008Y912584D01*
X776952Y914219D01*
X777660Y916862D01*
Y919598D01*
X776952Y922240D01*
X775584Y924609D01*
X773650Y926544D01*
X772409Y927260D01*
Y929500D01*
X773650Y930216D01*
X775584Y932150D01*
X776952Y934520D01*
X777660Y937162D01*
Y939898D01*
X776952Y942540D01*
X775584Y944910D01*
X773650Y946844D01*
X771280Y948212D01*
X768638Y948920D01*
X765902D01*
X763260Y948212D01*
X760890Y946844D01*
X758956Y944910D01*
X757588Y942540D01*
X756880Y939898D01*
Y937162D01*
X757588Y934520D01*
X758956Y932150D01*
X760890Y930216D01*
X762131Y929500D01*
Y927260D01*
X760890Y926544D01*
X758956Y924609D01*
X757588Y922240D01*
X756880Y919598D01*
Y916862D01*
X757362Y915061D01*
X753046Y910745D01*
X751932Y909078D01*
X751541Y907112D01*
Y875821D01*
X750614Y875437D01*
X748192Y873818D01*
X747661Y873287D01*
X747428Y873384D01*
X746730Y873771D01*
X746154Y875921D01*
X744984Y877949D01*
X743329Y879604D01*
X742499Y880083D01*
Y963707D01*
X742499Y963707D01*
X742147Y965479D01*
X741143Y966980D01*
X741143Y966980D01*
X723650Y984473D01*
X722149Y985477D01*
X720377Y985829D01*
X720377Y985829D01*
X706770D01*
Y988763D01*
X739044D01*
X810963Y916843D01*
D02*
G37*
G36*
X268840Y870150D02*
X283775D01*
Y860290D01*
X273415Y849930D01*
X269090D01*
Y849029D01*
X259080D01*
X257113Y848638D01*
X255798Y847759D01*
X249605D01*
X248573Y847554D01*
X247800Y848188D01*
Y848660D01*
X233316D01*
Y857959D01*
X234240Y858342D01*
X234317Y858264D01*
X236345Y857094D01*
X238606Y856488D01*
X240946D01*
X243207Y857094D01*
X245235Y858264D01*
X246890Y859919D01*
X248060Y861947D01*
X248666Y864208D01*
Y866548D01*
X248060Y868809D01*
X246890Y870837D01*
X245827Y871899D01*
X246242Y872899D01*
X247849D01*
Y874831D01*
X268840D01*
Y870150D01*
D02*
G37*
G36*
X379004Y933626D02*
X380671Y932512D01*
X382637Y932121D01*
X437989D01*
Y927447D01*
Y908931D01*
X443171D01*
Y874963D01*
X442456Y874248D01*
X441342Y872581D01*
X440951Y870614D01*
Y860108D01*
X434752Y853909D01*
X431949D01*
Y857025D01*
X431714Y858209D01*
X431506Y858520D01*
X431714Y858831D01*
X431949Y860015D01*
Y863525D01*
X431714Y864709D01*
X431506Y865020D01*
X431714Y865331D01*
X431949Y866515D01*
Y870025D01*
X431714Y871209D01*
X431506Y871520D01*
X431714Y871831D01*
X431949Y873015D01*
Y876525D01*
X431714Y877709D01*
X431506Y878020D01*
X431714Y878331D01*
X431949Y879515D01*
Y883025D01*
X431714Y884209D01*
X431043Y885213D01*
X430039Y885884D01*
X428855Y886119D01*
X414845D01*
X413736Y885899D01*
X409711D01*
X407201Y888409D01*
X405699Y889412D01*
X403928Y889764D01*
X403928Y889764D01*
X401490D01*
X400827Y890913D01*
X399423Y892317D01*
X397704Y893310D01*
X395786Y893823D01*
X393801D01*
X391883Y893310D01*
X390164Y892317D01*
X388760Y890913D01*
X387767Y889194D01*
X387253Y887276D01*
Y885291D01*
X387767Y883373D01*
X388760Y881654D01*
X390164Y880250D01*
X391883Y879257D01*
X393801Y878743D01*
X395786D01*
X397704Y879257D01*
X399423Y880250D01*
X399680Y880506D01*
X402010D01*
X404520Y877997D01*
X404520Y877997D01*
X406022Y876993D01*
X407793Y876641D01*
X407794Y876641D01*
X411655D01*
X411750Y876525D01*
Y873409D01*
X410054D01*
X408088Y873018D01*
X406420Y871904D01*
X371472Y836956D01*
X370226Y836708D01*
X368559Y835594D01*
X363286Y830322D01*
X362172Y828654D01*
X361924Y827408D01*
X325296Y790780D01*
X324182Y789112D01*
X323791Y787146D01*
Y679004D01*
X322802Y677524D01*
X322411Y675558D01*
Y668102D01*
X322802Y666136D01*
X323791Y664656D01*
Y640013D01*
X323471Y639828D01*
X321816Y638173D01*
X320646Y636145D01*
X320040Y633884D01*
Y631544D01*
X320646Y629283D01*
X321816Y627255D01*
X323471Y625600D01*
X325499Y624430D01*
X327760Y623824D01*
X330100D01*
X332361Y624430D01*
X334389Y625600D01*
X335060Y626272D01*
X336060Y625857D01*
Y620230D01*
X339015D01*
Y596450D01*
X333610D01*
Y581870D01*
X333610D01*
Y581450D01*
X333610D01*
Y577545D01*
X323480D01*
Y580620D01*
Y598700D01*
X309394D01*
X292175Y615919D01*
Y622709D01*
X297379D01*
Y629657D01*
X298303Y630039D01*
X318886Y609456D01*
X318850Y609323D01*
Y607337D01*
X319364Y605420D01*
X320356Y603700D01*
X321760Y602296D01*
X323480Y601304D01*
X325397Y600790D01*
X327383D01*
X329300Y601304D01*
X331020Y602296D01*
X332424Y603700D01*
X333416Y605420D01*
X333930Y607337D01*
Y609323D01*
X333416Y611240D01*
X332424Y612960D01*
X331020Y614364D01*
X329300Y615356D01*
X327383Y615870D01*
X327007D01*
X297379Y645498D01*
Y652371D01*
X288487D01*
X285174Y655684D01*
Y702310D01*
X293370D01*
Y722630D01*
X285174D01*
Y727710D01*
X293370D01*
Y735641D01*
X293546Y735903D01*
X293937Y737870D01*
Y840740D01*
X293546Y842707D01*
X292432Y844374D01*
X290900Y845905D01*
X296758Y851763D01*
X297966Y853338D01*
X298726Y855172D01*
X298985Y857140D01*
Y878190D01*
X313620D01*
Y886788D01*
X313926Y887187D01*
X314686Y889022D01*
X314945Y890990D01*
Y940209D01*
X316429D01*
Y942141D01*
X370490D01*
X379004Y933626D01*
D02*
G37*
G36*
X120786Y837844D02*
X120403Y836920D01*
X107820D01*
Y833269D01*
X89291D01*
X87671Y834889D01*
X86004Y836003D01*
X84037Y836394D01*
X81773D01*
X81642Y837394D01*
X82171Y837536D01*
X84199Y838706D01*
X85854Y840361D01*
X86039Y840681D01*
X117949D01*
X120786Y837844D01*
D02*
G37*
G36*
X135590Y847012D02*
X137257Y845898D01*
X139224Y845507D01*
X157480D01*
X159446Y845898D01*
X161114Y847012D01*
X168480Y854378D01*
X169349Y855680D01*
X173225D01*
X173720Y855581D01*
X177875D01*
X178772Y854412D01*
X180347Y853204D01*
X182182Y852444D01*
X184150Y852185D01*
X201050D01*
X218359Y834876D01*
X218414Y834459D01*
X219174Y832625D01*
X220009Y831536D01*
X220382Y831050D01*
X228540Y822893D01*
Y821893D01*
X212268Y805622D01*
X211426Y804362D01*
X211130Y802875D01*
Y802444D01*
X196154Y787468D01*
X195230Y787850D01*
Y790860D01*
X178150D01*
Y777965D01*
X178075Y777590D01*
Y772702D01*
X176173Y770800D01*
X175331Y769539D01*
X175035Y768053D01*
Y761228D01*
X174111Y760846D01*
X166579Y768378D01*
Y802880D01*
X167456Y803511D01*
X183452D01*
X185028Y803824D01*
X186365Y804717D01*
X191046Y809399D01*
X203399D01*
Y823540D01*
X185221D01*
Y815224D01*
X181746Y811749D01*
X166500D01*
Y816420D01*
X145920D01*
Y798840D01*
X158341D01*
Y769130D01*
X157341Y768863D01*
X157163Y769170D01*
X155760Y770574D01*
X154040Y771566D01*
X152123Y772080D01*
X150137D01*
X148220Y771566D01*
X146500Y770574D01*
X145654Y769727D01*
X145479Y769759D01*
X144700Y770187D01*
Y771883D01*
X144186Y773800D01*
X143194Y775520D01*
X141790Y776924D01*
X140070Y777916D01*
X138153Y778430D01*
X136167D01*
X134250Y777916D01*
X132530Y776924D01*
X131126Y775520D01*
X130134Y773800D01*
X129620Y771883D01*
Y769897D01*
X130134Y767980D01*
X131126Y766260D01*
X132530Y764856D01*
X133275Y764426D01*
Y758515D01*
X132502Y757880D01*
X131880Y758004D01*
X130401Y757710D01*
X129380Y757028D01*
X128359Y757710D01*
X126880Y758004D01*
X125401Y757710D01*
X124380Y757028D01*
X123359Y757710D01*
X121880Y758004D01*
X120401Y757710D01*
X119380Y757028D01*
X118359Y757710D01*
X116880Y758004D01*
X116538Y757936D01*
X115765Y758570D01*
Y759370D01*
X116628Y760662D01*
X117019Y762628D01*
X116628Y764595D01*
X115629Y766090D01*
Y769941D01*
X115949Y770126D01*
X117604Y771781D01*
X118774Y773809D01*
X119380Y776070D01*
Y778410D01*
X119210Y779046D01*
X119941Y780181D01*
X121110Y780494D01*
X122830Y781487D01*
X124234Y782890D01*
X125226Y784610D01*
X125740Y786527D01*
Y788513D01*
X125226Y790430D01*
X124234Y792150D01*
X122830Y793553D01*
X122085Y793984D01*
Y798840D01*
X128400D01*
Y816420D01*
X107820D01*
Y798840D01*
X114315D01*
Y793984D01*
X113570Y793553D01*
X112167Y792150D01*
X111174Y790430D01*
X110660Y788513D01*
Y786527D01*
X110355Y786130D01*
X109320D01*
X107059Y785524D01*
X105031Y784354D01*
X103376Y782699D01*
X102206Y780671D01*
X101600Y778410D01*
Y776070D01*
X102206Y773809D01*
X103376Y771781D01*
X105031Y770126D01*
X105351Y769941D01*
Y764018D01*
X105742Y762052D01*
X106856Y760385D01*
X107773Y759468D01*
X107745Y758698D01*
X106880Y758004D01*
X105401Y757710D01*
X104380Y757028D01*
X103359Y757710D01*
X101880Y758004D01*
X101538Y757936D01*
X100765Y758570D01*
Y759242D01*
X100469Y760729D01*
X99627Y761989D01*
X98139Y763477D01*
X96879Y764319D01*
X95392Y764615D01*
X65173D01*
X64264Y766189D01*
X62609Y767844D01*
X60581Y769014D01*
X58479Y769578D01*
Y790215D01*
X63630D01*
Y809545D01*
X63630D01*
Y814256D01*
X64554Y814639D01*
X69930Y809263D01*
Y807997D01*
X70444Y806080D01*
X71437Y804360D01*
X72840Y802956D01*
X74560Y801964D01*
X76477Y801450D01*
X78463D01*
X80380Y801964D01*
X82100Y802956D01*
X83504Y804360D01*
X84496Y806080D01*
X85010Y807997D01*
Y809983D01*
X84496Y811900D01*
X83504Y813620D01*
X82100Y815023D01*
X80380Y816016D01*
X78463Y816530D01*
X77197D01*
X71179Y822549D01*
Y822960D01*
X70788Y824927D01*
X70582Y825235D01*
X71053Y826116D01*
X81909D01*
X83529Y824496D01*
X85196Y823382D01*
X87163Y822991D01*
X107820D01*
Y819340D01*
X128400D01*
Y828923D01*
X129324Y829306D01*
X132274Y826356D01*
X132312Y826163D01*
X133426Y824496D01*
X135093Y823382D01*
X137060Y822991D01*
X145920D01*
Y819340D01*
X166500D01*
Y836920D01*
X145920D01*
Y833269D01*
X139896D01*
X123711Y849454D01*
X122044Y850568D01*
X120077Y850959D01*
X86039D01*
X85854Y851279D01*
X84199Y852934D01*
X82171Y854104D01*
X79910Y854710D01*
X77570D01*
X75309Y854104D01*
X73281Y852934D01*
X71626Y851279D01*
X70456Y849251D01*
X69850Y846990D01*
Y844650D01*
X70456Y842389D01*
X71626Y840361D01*
X73281Y838706D01*
X75309Y837536D01*
X75838Y837394D01*
X75707Y836394D01*
X67121D01*
X65663Y836684D01*
X64630Y836478D01*
X63630Y837299D01*
Y839965D01*
X63630D01*
Y859295D01*
X50317D01*
X47473Y862139D01*
X47315Y862244D01*
X47184Y863527D01*
X62311Y878654D01*
X62311Y878654D01*
X63920Y880751D01*
X64932Y883194D01*
X65277Y885815D01*
Y916020D01*
X66200Y916402D01*
X135590Y847012D01*
D02*
G37*
G36*
X728073Y814896D02*
X728098Y814654D01*
X696246Y782802D01*
X695132Y781135D01*
X694741Y779168D01*
Y744121D01*
X695132Y742154D01*
X695606Y741444D01*
X695072Y740444D01*
X693799D01*
X690429Y743815D01*
Y781673D01*
X724177Y815420D01*
X724177Y815420D01*
X726163D01*
X726991Y815642D01*
X728073Y814896D01*
D02*
G37*
G36*
X400327Y835740D02*
X401492D01*
X401682Y835578D01*
X402189Y834740D01*
X401867Y833120D01*
Y767080D01*
X402258Y765114D01*
X403372Y763446D01*
X409313Y757506D01*
X410126Y756963D01*
X409823Y755963D01*
X350520D01*
X348554Y755572D01*
X346886Y754458D01*
X344092Y751664D01*
X342978Y749996D01*
X342587Y748030D01*
Y726948D01*
X342978Y724982D01*
X344092Y723314D01*
X346886Y720520D01*
X348554Y719406D01*
X349250Y719268D01*
Y702310D01*
X370781D01*
Y670306D01*
X371172Y668339D01*
X372286Y666672D01*
X382446Y656512D01*
X384114Y655398D01*
X386080Y655007D01*
X433228D01*
X453221Y635014D01*
Y598751D01*
X453612Y596785D01*
X454726Y595118D01*
X465233Y584612D01*
Y566349D01*
X461301D01*
Y546589D01*
X460611Y546189D01*
X459920Y546589D01*
Y566349D01*
X441780D01*
Y553859D01*
X421799D01*
X420351Y554826D01*
X418384Y555218D01*
X412679D01*
Y569140D01*
X407729D01*
Y576992D01*
X410168Y579431D01*
X425450D01*
X426904Y579720D01*
X432455D01*
X433639Y579956D01*
X434643Y580627D01*
X435314Y581631D01*
X435549Y582815D01*
Y586325D01*
X435314Y587509D01*
X435106Y587820D01*
X435314Y588131D01*
X435549Y589315D01*
Y592825D01*
X435314Y594009D01*
X435106Y594320D01*
X435314Y594631D01*
X435549Y595815D01*
Y599325D01*
X435314Y600509D01*
X435106Y600820D01*
X435314Y601131D01*
X435549Y602315D01*
Y605825D01*
X435314Y607009D01*
X435106Y607320D01*
X435314Y607631D01*
X435549Y608815D01*
Y612325D01*
X435314Y613509D01*
X435106Y613820D01*
X435314Y614131D01*
X435549Y615315D01*
Y618825D01*
X435314Y620009D01*
X435106Y620320D01*
X435314Y620631D01*
X435549Y621815D01*
Y625325D01*
X435314Y626509D01*
X435106Y626820D01*
X435314Y627131D01*
X435549Y628315D01*
Y631825D01*
X435314Y633009D01*
X434643Y634013D01*
X433639Y634684D01*
X432455Y634919D01*
X418445D01*
X417261Y634684D01*
X416257Y634013D01*
X415586Y633009D01*
X415351Y631825D01*
Y628315D01*
X415586Y627131D01*
X415794Y626820D01*
X415586Y626509D01*
X415351Y625325D01*
Y621815D01*
X415586Y620631D01*
X415794Y620320D01*
X415586Y620009D01*
X415351Y618825D01*
Y615315D01*
X415586Y614131D01*
X415794Y613820D01*
X415586Y613509D01*
X415351Y612325D01*
Y608815D01*
X415586Y607631D01*
X415794Y607320D01*
X415586Y607009D01*
X415351Y605825D01*
Y602315D01*
X415586Y601131D01*
X415794Y600820D01*
X415586Y600509D01*
X415351Y599325D01*
Y595815D01*
X415586Y594631D01*
X415794Y594320D01*
X415586Y594009D01*
X415351Y592825D01*
Y589709D01*
X408040D01*
X406073Y589317D01*
X404406Y588203D01*
X398956Y582754D01*
X397842Y581087D01*
X397451Y579120D01*
Y569140D01*
X393795D01*
X385142Y577794D01*
X383940Y578596D01*
Y581450D01*
X383940D01*
Y581870D01*
X383940D01*
Y596450D01*
X378535D01*
Y620720D01*
X378239Y622207D01*
X377397Y623467D01*
X375140Y625724D01*
Y643758D01*
X376064Y644140D01*
X390341Y629863D01*
Y608014D01*
X390340Y608013D01*
X388937Y606610D01*
X387944Y604890D01*
X387430Y602973D01*
Y600987D01*
X387944Y599070D01*
X388937Y597350D01*
X390340Y595947D01*
X392060Y594954D01*
X393977Y594440D01*
X395963D01*
X397880Y594954D01*
X399600Y595947D01*
X401003Y597350D01*
X401996Y599070D01*
X402510Y600987D01*
Y602973D01*
X401996Y604890D01*
X401003Y606610D01*
X399600Y608013D01*
X399599Y608014D01*
Y631781D01*
X399599Y631781D01*
X399247Y633552D01*
X398243Y635054D01*
X398243Y635054D01*
X358194Y675103D01*
X356692Y676107D01*
X354921Y676459D01*
X354921Y676459D01*
X342584D01*
X342584Y676460D01*
X341180Y677863D01*
X339460Y678856D01*
X337543Y679370D01*
X335557D01*
X334862Y679184D01*
X334069Y679792D01*
Y785017D01*
X368389Y819338D01*
X369380Y819207D01*
X369887Y818330D01*
X371290Y816926D01*
X373010Y815934D01*
X374927Y815420D01*
X376913D01*
X378830Y815934D01*
X380550Y816926D01*
X381954Y818330D01*
X382677Y819584D01*
X383919Y819831D01*
X385421Y820835D01*
X400327Y835740D01*
X400327Y835740D01*
D02*
G37*
G36*
X711173Y856325D02*
X710536Y855221D01*
X709930Y852960D01*
Y850620D01*
X710536Y848359D01*
X711706Y846331D01*
X713361Y844676D01*
X714191Y844197D01*
Y836912D01*
X673527Y796248D01*
X672523Y794746D01*
X672171Y792975D01*
X672171Y792975D01*
Y788523D01*
X638657Y755009D01*
X637653Y753507D01*
X637301Y751736D01*
X637301Y751736D01*
Y737044D01*
X636377Y736661D01*
X608697Y764341D01*
Y768802D01*
X608345Y770573D01*
X607342Y772075D01*
X607341Y772075D01*
X572522Y806894D01*
X572770Y807820D01*
Y810160D01*
X572164Y812421D01*
X571090Y814281D01*
X571426Y815281D01*
X582311D01*
X584108Y813484D01*
X585775Y812370D01*
X587742Y811979D01*
X611891D01*
Y803433D01*
X612282Y801466D01*
X613396Y799799D01*
X615029Y798167D01*
X612283Y795420D01*
X604970D01*
Y776840D01*
X618970D01*
X619550Y776840D01*
Y776840D01*
X619970D01*
Y776840D01*
X634550D01*
Y795420D01*
X632459D01*
Y800387D01*
X632839Y800606D01*
X634494Y802261D01*
X635664Y804289D01*
X636270Y806550D01*
Y808890D01*
X635664Y811151D01*
X635137Y812065D01*
X635637Y812931D01*
X643504D01*
X645470Y813322D01*
X647137Y814436D01*
X651052Y818351D01*
X652166Y820018D01*
X652557Y821985D01*
Y824031D01*
X654489D01*
Y839361D01*
X654870Y839651D01*
X655870Y839155D01*
Y824031D01*
X658311D01*
Y822337D01*
X657267Y821294D01*
X656275Y820883D01*
X654857Y819465D01*
X654090Y817613D01*
Y815608D01*
X654857Y813755D01*
X656275Y812337D01*
X658128Y811570D01*
X660133D01*
X661985Y812337D01*
X663403Y813755D01*
X663814Y814747D01*
X666213Y817147D01*
X667217Y818649D01*
X667569Y820420D01*
X667569Y820420D01*
Y824031D01*
X670010D01*
Y842209D01*
X658251D01*
X657868Y843133D01*
X671926Y857191D01*
X710673D01*
X711173Y856325D01*
D02*
G37*
G36*
X43050Y852028D02*
Y839965D01*
X44750D01*
Y832965D01*
Y826465D01*
Y819965D01*
Y813732D01*
X40554Y809536D01*
X39630Y809919D01*
Y816795D01*
X32729D01*
Y824715D01*
X39630D01*
Y847795D01*
X36630D01*
Y852974D01*
X37022Y853366D01*
X41711D01*
X43050Y852028D01*
D02*
G37*
G36*
X446451Y849767D02*
Y759962D01*
X446842Y757996D01*
X447956Y756329D01*
X449775Y754510D01*
Y753969D01*
X438815Y743009D01*
X431064D01*
X430761Y744009D01*
X431043Y744197D01*
X431714Y745201D01*
X431949Y746385D01*
Y749895D01*
X431714Y751079D01*
X431506Y751390D01*
X431714Y751701D01*
X431949Y752885D01*
Y756395D01*
X431714Y757579D01*
X431506Y757890D01*
X431714Y758201D01*
X431949Y759385D01*
Y762895D01*
X431714Y764079D01*
X431506Y764390D01*
X431714Y764701D01*
X431949Y765885D01*
Y769395D01*
X431714Y770579D01*
X431506Y770890D01*
X431714Y771201D01*
X431949Y772385D01*
Y775895D01*
X431714Y777079D01*
X431506Y777390D01*
X431714Y777701D01*
X431949Y778885D01*
Y782395D01*
X431714Y783579D01*
X431506Y783890D01*
X431714Y784201D01*
X431949Y785385D01*
Y788895D01*
X431714Y790079D01*
X431506Y790390D01*
X431714Y790701D01*
X431949Y791885D01*
Y795395D01*
X431714Y796579D01*
X431043Y797583D01*
X430039Y798254D01*
X428855Y798489D01*
X414845D01*
X413661Y798254D01*
X413145Y797909D01*
X412145Y798444D01*
Y816675D01*
X413069Y817058D01*
X413200Y816926D01*
X414920Y815934D01*
X416837Y815420D01*
X418823D01*
X420104Y815763D01*
X422530Y813337D01*
X422530Y813337D01*
X424032Y812333D01*
X425804Y811981D01*
X430846D01*
X430846Y811980D01*
X432250Y810576D01*
X433970Y809584D01*
X435887Y809070D01*
X437873D01*
X439790Y809584D01*
X441510Y810576D01*
X442914Y811980D01*
X443906Y813700D01*
X444420Y815617D01*
Y817603D01*
X443906Y819520D01*
X442914Y821240D01*
X441510Y822644D01*
X439790Y823636D01*
X437873Y824150D01*
X435887D01*
X433970Y823636D01*
X432250Y822644D01*
X430846Y821240D01*
X430846Y821239D01*
X427721D01*
X425370Y823590D01*
Y823953D01*
X424856Y825870D01*
X423863Y827590D01*
X422460Y828994D01*
X421355Y829632D01*
X421623Y830631D01*
X421850D01*
X423304Y830921D01*
X428855D01*
X430039Y831156D01*
X431043Y831827D01*
X431714Y832831D01*
X431949Y834015D01*
Y837525D01*
X431714Y838709D01*
X431506Y839020D01*
X431714Y839331D01*
X431949Y840515D01*
Y843631D01*
X436880D01*
X438847Y844022D01*
X440514Y845136D01*
X445527Y850150D01*
X446451Y849767D01*
D02*
G37*
G36*
X748192Y850842D02*
X750614Y849223D01*
X753306Y848108D01*
X756163Y847540D01*
X759077D01*
X761934Y848108D01*
X763801Y848882D01*
X772889Y839794D01*
X772506Y838870D01*
X768430D01*
Y819790D01*
X774085D01*
Y806916D01*
X764270Y797101D01*
X763270Y797515D01*
Y798730D01*
X762664Y800991D01*
X761494Y803019D01*
X759839Y804674D01*
X757811Y805844D01*
X755550Y806450D01*
X753210D01*
X750949Y805844D01*
X748921Y804674D01*
X747266Y803019D01*
X746096Y800991D01*
X745490Y798730D01*
Y796390D01*
X745960Y794634D01*
X730273Y778947D01*
X729980Y778509D01*
X728803Y778547D01*
X728474Y779119D01*
X726819Y780774D01*
X724791Y781944D01*
X722530Y782550D01*
X722372D01*
X721989Y783474D01*
X728472Y789956D01*
X729632Y789645D01*
X731617D01*
X733535Y790159D01*
X735254Y791152D01*
X736658Y792556D01*
X737651Y794275D01*
X738165Y796193D01*
Y798178D01*
X737651Y800096D01*
X736658Y801815D01*
X735254Y803219D01*
X733579Y804186D01*
X733423Y804299D01*
X733181Y805203D01*
X740824Y812846D01*
X741938Y814513D01*
X742329Y816480D01*
Y829456D01*
X743224Y830351D01*
X744217Y832070D01*
X744731Y833988D01*
Y835974D01*
X744217Y837891D01*
X743224Y839611D01*
X741821Y841014D01*
X740101Y842007D01*
X739201Y842248D01*
Y843283D01*
X740031Y843506D01*
X742059Y844676D01*
X743714Y846331D01*
X744884Y848359D01*
X745490Y850620D01*
Y852130D01*
X746490Y852544D01*
X748192Y850842D01*
D02*
G37*
G36*
X956251Y5139D02*
X124517D01*
X124213Y6139D01*
X125554Y7034D01*
X132614Y14095D01*
X133346Y15190D01*
X139020D01*
Y32696D01*
X140020Y32964D01*
X140206Y32641D01*
X141861Y30986D01*
X143889Y29816D01*
X146150Y29210D01*
X148490D01*
X150751Y29816D01*
X152779Y30986D01*
X154434Y32641D01*
X154619Y32961D01*
X175260D01*
X177227Y33352D01*
X178894Y34466D01*
X201210Y56783D01*
X202210Y56368D01*
Y34180D01*
X210023D01*
X229906Y14297D01*
X231573Y13183D01*
X233540Y12792D01*
X235302D01*
X237013Y12451D01*
X250731D01*
X252697Y12842D01*
X254364Y13956D01*
X257634Y17226D01*
X258748Y18893D01*
X259139Y20859D01*
Y30638D01*
X265484Y36983D01*
X266408Y36600D01*
Y21471D01*
X280548D01*
Y33763D01*
X280930Y34054D01*
X281930Y33558D01*
Y21471D01*
X283862D01*
Y14224D01*
X284253Y12257D01*
X285367Y10590D01*
X287034Y9476D01*
X289000Y9085D01*
X290967Y9476D01*
X292634Y10590D01*
X293748Y12257D01*
X294139Y14224D01*
Y21471D01*
X296070D01*
Y25341D01*
X314160D01*
X316127Y25732D01*
X317794Y26846D01*
X335847Y44900D01*
X340860D01*
Y45901D01*
X395718D01*
X397684Y46292D01*
X399351Y47406D01*
X431528Y79582D01*
X432452Y79200D01*
Y79046D01*
X432843Y77079D01*
X433957Y75412D01*
X467282Y42086D01*
X468950Y40972D01*
X470916Y40581D01*
X554990D01*
X556956Y40972D01*
X558624Y42086D01*
X561164Y44626D01*
X562278Y46294D01*
X562490Y47360D01*
X566820D01*
Y52011D01*
X680720D01*
X682686Y52402D01*
X684354Y53516D01*
X696834Y65996D01*
X697948Y67663D01*
X698339Y69630D01*
Y192910D01*
X723780D01*
Y213490D01*
X718879D01*
Y224790D01*
X718488Y226756D01*
X717374Y228424D01*
X716339Y229459D01*
Y238630D01*
X721240D01*
Y259210D01*
X716339D01*
Y269748D01*
X715948Y271714D01*
X715179Y272865D01*
Y281810D01*
X720080D01*
Y286961D01*
X807720D01*
X809687Y287352D01*
X811354Y288466D01*
X824054Y301166D01*
X825168Y302833D01*
X825559Y304800D01*
Y443600D01*
X829210D01*
Y463180D01*
X825559D01*
Y476408D01*
X830624Y481472D01*
X831738Y483139D01*
X832129Y485106D01*
Y500250D01*
X837030D01*
Y520830D01*
X832129D01*
Y552320D01*
X837030D01*
Y572900D01*
X832129D01*
Y587378D01*
X832788Y588363D01*
X833179Y590330D01*
Y606930D01*
X838080D01*
Y613861D01*
X839786D01*
X839787Y613860D01*
X841190Y612457D01*
X842910Y611464D01*
X844827Y610950D01*
X846813D01*
X848730Y611464D01*
X850450Y612457D01*
X851853Y613860D01*
X852846Y615580D01*
X853360Y617497D01*
Y619483D01*
X852846Y621400D01*
X851853Y623120D01*
X850450Y624524D01*
X848730Y625516D01*
X846813Y626030D01*
X844827D01*
X842910Y625516D01*
X841190Y624524D01*
X839787Y623120D01*
X839786Y623119D01*
X838080D01*
Y627510D01*
X833179D01*
Y644055D01*
X834277Y645699D01*
X834669Y647666D01*
Y666620D01*
X839570D01*
Y687200D01*
X834669D01*
Y705358D01*
X834449Y706464D01*
Y723770D01*
X839350D01*
Y744350D01*
X834449D01*
Y796153D01*
X835373Y796536D01*
X835612Y796296D01*
X837788Y795040D01*
X840214Y794390D01*
X842726D01*
X845152Y795040D01*
X847328Y796296D01*
X849104Y798072D01*
X850360Y800247D01*
X851010Y802674D01*
Y805186D01*
X850360Y807612D01*
X849104Y809788D01*
X847328Y811564D01*
X845152Y812820D01*
X842726Y813470D01*
X840214D01*
X837788Y812820D01*
X835612Y811564D01*
X835091Y811043D01*
X834134Y811333D01*
X834058Y811719D01*
X832944Y813386D01*
X827539Y818790D01*
X827954Y819790D01*
X830026D01*
X832452Y820440D01*
X834628Y821696D01*
X836404Y823472D01*
X837660Y825648D01*
X838310Y828074D01*
Y830586D01*
X837660Y833012D01*
X836404Y835188D01*
X834628Y836964D01*
X832452Y838220D01*
X830026Y838870D01*
X827514D01*
X825088Y838220D01*
X822912Y836964D01*
X822165Y836216D01*
X821241Y836599D01*
Y918972D01*
X820850Y920938D01*
X819736Y922606D01*
X744806Y997536D01*
X743139Y998650D01*
X741172Y999041D01*
X630033D01*
X628067Y998650D01*
X626400Y997536D01*
X613313Y984449D01*
X609799D01*
Y986381D01*
X591621D01*
Y984449D01*
X588151D01*
X586184Y984058D01*
X584517Y982944D01*
X570406Y968834D01*
X569292Y967167D01*
X568901Y965200D01*
Y947809D01*
X563719D01*
Y943134D01*
X555612D01*
X553763Y942766D01*
X547531D01*
Y947441D01*
X526889D01*
Y942766D01*
X499271D01*
Y947441D01*
X478629D01*
Y942766D01*
X468744D01*
X466895Y942399D01*
X458631D01*
Y947073D01*
X437989D01*
Y942399D01*
X384766D01*
X376252Y950913D01*
X374585Y952027D01*
X372618Y952418D01*
X316429D01*
Y954350D01*
X315048D01*
X314582Y955350D01*
X314902Y955730D01*
X316429D01*
Y958508D01*
X317120Y960175D01*
X317467Y962796D01*
X317123Y965417D01*
X316429Y967094D01*
Y969871D01*
X314571D01*
X314504Y969958D01*
X313965Y970497D01*
X313963Y970499D01*
X313962Y970501D01*
X312910Y971308D01*
X311868Y972108D01*
X311866Y972109D01*
X311864Y972110D01*
X310649Y972613D01*
X309427Y973120D01*
X309424Y973121D01*
X309422Y973122D01*
X308131Y973292D01*
X306806Y973467D01*
X306803Y973466D01*
X306801Y973467D01*
X274320D01*
X271699Y973122D01*
X269257Y972110D01*
X268957Y971880D01*
X265780D01*
Y968703D01*
X265550Y968403D01*
X264538Y965961D01*
X264193Y963340D01*
X264538Y960719D01*
X265550Y958277D01*
X265780Y957977D01*
Y954800D01*
X268957D01*
X269257Y954570D01*
X271699Y953559D01*
X272127Y952494D01*
X272119Y952467D01*
X270695Y952279D01*
X269499Y952122D01*
X269498Y952121D01*
X269498Y952121D01*
X268287Y951620D01*
X267057Y951110D01*
X267056Y951110D01*
X267056Y951109D01*
X266757Y950880D01*
X265780D01*
Y950130D01*
X265749Y950107D01*
X239763D01*
X239763Y950107D01*
X239763Y950107D01*
X239760D01*
X238480Y949938D01*
X237142Y949762D01*
X237141Y949762D01*
X237139Y949761D01*
X235902Y949249D01*
X234699Y948751D01*
X234698Y948750D01*
X234697Y948750D01*
X233625Y947927D01*
X232602Y947142D01*
X232600Y947141D01*
X232600Y947140D01*
X232600Y947140D01*
X231601Y946143D01*
X231600Y946142D01*
X231599Y946141D01*
X230778Y945071D01*
X230356Y944520D01*
X227720D01*
Y929940D01*
X231768D01*
X233697Y928460D01*
X234875Y927972D01*
Y902626D01*
X233540D01*
X233043Y902561D01*
X229671D01*
Y901556D01*
X228163Y900399D01*
X220333Y892570D01*
X219125Y890995D01*
X218365Y889160D01*
X218106Y887192D01*
Y857946D01*
X217182Y857563D01*
X210276Y864469D01*
X210248Y864736D01*
X210495Y865664D01*
X212196Y866646D01*
X213852Y868301D01*
X215022Y870329D01*
X215628Y872590D01*
Y874930D01*
X215022Y877191D01*
X213852Y879219D01*
X212196Y880874D01*
X210169Y882044D01*
X207908Y882650D01*
X205567D01*
X203306Y882044D01*
X201279Y880874D01*
X199624Y879219D01*
X198561Y877378D01*
X180260D01*
Y886760D01*
X170418D01*
X170035Y887684D01*
X203324Y920973D01*
X204438Y922640D01*
X204829Y924606D01*
Y933960D01*
X210830D01*
Y947361D01*
X212852D01*
X214818Y947752D01*
X216486Y948866D01*
X226720Y959101D01*
X227720Y958687D01*
Y957940D01*
X249800D01*
Y972520D01*
X227720D01*
Y970369D01*
X225582D01*
X223615Y969977D01*
X221948Y968864D01*
X211754Y958669D01*
X210830Y959052D01*
Y971040D01*
X188550D01*
Y933960D01*
X194552D01*
Y926735D01*
X159942Y892126D01*
X158828Y890459D01*
X158437Y888492D01*
Y887691D01*
X158270Y886760D01*
X146585D01*
X145976Y887553D01*
X146050Y887830D01*
Y890170D01*
X145444Y892431D01*
X144274Y894459D01*
X142619Y896114D01*
X140591Y897284D01*
X138330Y897890D01*
X135990D01*
X133729Y897284D01*
X131701Y896114D01*
X130046Y894459D01*
X128876Y892431D01*
X128270Y890170D01*
Y887830D01*
X128876Y885569D01*
X130046Y883541D01*
X131701Y881886D01*
X133729Y880716D01*
X135434Y880259D01*
X138606Y877086D01*
X140274Y875973D01*
X142240Y875581D01*
X143190D01*
Y865180D01*
Y855785D01*
X141353D01*
X66925Y930213D01*
X67690Y933069D01*
Y936371D01*
X66835Y939560D01*
X65184Y942420D01*
X62850Y944754D01*
X59990Y946405D01*
X56801Y947260D01*
X53499D01*
X50310Y946405D01*
X47450Y944754D01*
X45115Y942420D01*
X43465Y939560D01*
X42610Y936371D01*
Y933069D01*
X43465Y929880D01*
X45023Y927180D01*
Y890009D01*
X24309Y869295D01*
X18550D01*
Y862313D01*
X18058Y861126D01*
X17713Y858505D01*
X18058Y855884D01*
X18550Y854697D01*
Y847795D01*
X15550D01*
Y824715D01*
X22451D01*
Y816795D01*
X15550D01*
Y801715D01*
X18550D01*
Y780215D01*
X36630D01*
Y794528D01*
X36844Y794741D01*
X43050D01*
Y790215D01*
X48201D01*
Y768028D01*
X47881Y767844D01*
X46226Y766189D01*
X45056Y764161D01*
X44450Y761900D01*
Y759560D01*
X45056Y757299D01*
X46226Y755271D01*
X47881Y753616D01*
X49909Y752446D01*
X52170Y751840D01*
X54510D01*
X55245Y752037D01*
X55980Y751840D01*
X58320D01*
X60078Y752311D01*
X60526Y752021D01*
X60954Y751578D01*
X60960Y751564D01*
Y750217D01*
X32357Y721614D01*
X31509Y722181D01*
X31962Y723273D01*
X32186Y724980D01*
Y732980D01*
X31962Y734687D01*
X31303Y736278D01*
X30254Y737644D01*
X28888Y738693D01*
X27297Y739352D01*
X25590Y739576D01*
X17590D01*
X15883Y739352D01*
X14292Y738693D01*
X12926Y737644D01*
X11877Y736278D01*
X11218Y734687D01*
X10994Y732980D01*
Y724980D01*
X11218Y723273D01*
X11877Y721682D01*
X12926Y720316D01*
X14292Y719267D01*
X15883Y718608D01*
X17590Y718384D01*
X25590D01*
X27297Y718608D01*
X28389Y719061D01*
X28956Y718213D01*
X24464Y713722D01*
X22978Y714120D01*
X20202D01*
X17522Y713402D01*
X15118Y712014D01*
X13156Y710052D01*
X11768Y707648D01*
X11050Y704968D01*
Y702192D01*
X11768Y699512D01*
X13156Y697108D01*
X15118Y695146D01*
X17522Y693758D01*
X20202Y693040D01*
X22978D01*
X25658Y693758D01*
X28062Y695146D01*
X30024Y697108D01*
X31412Y699512D01*
X32130Y702192D01*
Y704968D01*
X31732Y706454D01*
X67321Y742044D01*
X68680Y741680D01*
X71020D01*
X73281Y742286D01*
X75309Y743456D01*
X76964Y745111D01*
X78134Y747139D01*
X78740Y749400D01*
Y751740D01*
X78134Y754001D01*
X77070Y755845D01*
X77417Y756845D01*
X88069D01*
X88540Y755963D01*
X88310Y755619D01*
X88016Y754140D01*
Y746339D01*
X85630D01*
X84054Y746025D01*
X82717Y745133D01*
X76354Y738769D01*
X71577D01*
X71577Y738769D01*
X69806Y738417D01*
X68304Y737413D01*
X68304Y737413D01*
X42447Y711556D01*
X41443Y710054D01*
X41091Y708283D01*
X41091Y708283D01*
Y682065D01*
X31461D01*
X31412Y682248D01*
X30024Y684652D01*
X28062Y686614D01*
X25658Y688002D01*
X22978Y688720D01*
X20202D01*
X17522Y688002D01*
X15118Y686614D01*
X13156Y684652D01*
X11768Y682248D01*
X11050Y679568D01*
Y676792D01*
X11768Y674112D01*
X13156Y671708D01*
X15118Y669746D01*
X17522Y668358D01*
X17705Y668309D01*
Y648102D01*
X16131Y647194D01*
X14476Y645539D01*
X13306Y643511D01*
X12700Y641250D01*
Y638910D01*
X13306Y636649D01*
X14476Y634621D01*
X16131Y632966D01*
X16451Y632781D01*
Y612648D01*
X16842Y610681D01*
X17956Y609014D01*
X27881Y599090D01*
Y543010D01*
X23931D01*
Y541079D01*
X20320D01*
X18354Y540688D01*
X16686Y539574D01*
X10844Y533732D01*
X9730Y532065D01*
X9339Y530098D01*
Y471521D01*
X6063Y468244D01*
X5139Y468627D01*
Y1010861D01*
X956251D01*
Y5139D01*
D02*
G37*
G36*
X462983Y845442D02*
Y804672D01*
X463374Y802706D01*
X464488Y801038D01*
X469587Y795939D01*
Y793640D01*
X469751Y792818D01*
Y791885D01*
X469986Y790701D01*
X470194Y790390D01*
X469986Y790079D01*
X469751Y788895D01*
Y785385D01*
X469986Y784201D01*
X470194Y783890D01*
X469986Y783579D01*
X469856Y782924D01*
X468875Y782403D01*
X468755Y782405D01*
X467730Y782996D01*
X465813Y783510D01*
X463827D01*
X461910Y782996D01*
X460190Y782003D01*
X458787Y780600D01*
X457794Y778880D01*
X457729Y778637D01*
X456729Y778769D01*
Y850389D01*
X457653Y850772D01*
X462983Y845442D01*
D02*
G37*
G36*
X758639Y773600D02*
X758784Y773060D01*
X759777Y771340D01*
X761180Y769937D01*
X762900Y768944D01*
X764817Y768430D01*
X766803D01*
X767372Y768583D01*
X780240Y755715D01*
X779626Y754915D01*
X779401Y755044D01*
X777140Y755650D01*
X774800D01*
X772539Y755044D01*
X770511Y753874D01*
X770442Y753805D01*
X769327Y754104D01*
X769014Y755271D01*
X767844Y757299D01*
X766189Y758954D01*
X764161Y760124D01*
X761900Y760730D01*
X759560D01*
X757299Y760124D01*
X755271Y758954D01*
X753616Y757299D01*
X752446Y755271D01*
X751840Y753010D01*
Y751209D01*
X745715D01*
X745715Y751209D01*
X743944Y750856D01*
X743749Y750727D01*
X742749Y751261D01*
Y756424D01*
X742459Y757882D01*
X742154Y758339D01*
X757673Y773859D01*
X758639Y773600D01*
D02*
G37*
G36*
X807720Y777938D02*
Y777340D01*
X808326Y775079D01*
X809496Y773051D01*
X811151Y771396D01*
X813179Y770226D01*
X815440Y769620D01*
X817780D01*
X820041Y770226D01*
X822069Y771396D01*
X823171Y772499D01*
X824171Y772085D01*
Y744350D01*
X816449D01*
Y755203D01*
X816058Y757169D01*
X814944Y758837D01*
X800983Y772797D01*
X801242Y773763D01*
X802261Y774036D01*
X804289Y775206D01*
X805944Y776861D01*
X806720Y778206D01*
X807720Y777938D01*
D02*
G37*
G36*
X172234Y751072D02*
X172737Y750320D01*
X175690Y747367D01*
X176442Y746864D01*
X183578Y739729D01*
X183319Y738763D01*
X182510Y738546D01*
X180790Y737553D01*
X179387Y736150D01*
X178394Y734430D01*
X178315Y734135D01*
X170614D01*
X169994Y734890D01*
X169700Y736369D01*
X168862Y737623D01*
X167609Y738460D01*
X166130Y738754D01*
X160911D01*
X159630Y739009D01*
X151126D01*
X150519Y740009D01*
X150744Y741140D01*
Y742688D01*
X151744Y743102D01*
X152850Y741997D01*
X154570Y741004D01*
X156487Y740490D01*
X158473D01*
X160390Y741004D01*
X162110Y741997D01*
X163514Y743400D01*
X164506Y745120D01*
X165020Y747037D01*
Y749023D01*
X164506Y750940D01*
X163514Y752660D01*
X162110Y754063D01*
X160390Y755056D01*
X158473Y755570D01*
X156487D01*
X154570Y755056D01*
X152850Y754063D01*
X151744Y752958D01*
X150744Y753372D01*
Y754140D01*
X150450Y755619D01*
X150195Y756000D01*
X150730Y757000D01*
X152123D01*
X154040Y757514D01*
X155760Y758506D01*
X157163Y759910D01*
X158156Y761630D01*
X158617Y763351D01*
X159165Y763592D01*
X159670Y763637D01*
X172234Y751072D01*
D02*
G37*
G36*
X676671Y778624D02*
Y769577D01*
X647483Y740389D01*
X646559Y740772D01*
Y749818D01*
X675747Y779007D01*
X676671Y778624D01*
D02*
G37*
G36*
X681171Y759678D02*
Y742950D01*
X681523Y741179D01*
X682527Y739677D01*
X684029Y738673D01*
X684721Y738536D01*
X686888Y736369D01*
X686505Y735445D01*
X673506D01*
X673304Y735647D01*
X672044Y736489D01*
X671883Y736521D01*
X671700Y736704D01*
X670440Y737546D01*
X668953Y737841D01*
X659334D01*
X658952Y738765D01*
X680247Y760061D01*
X681171Y759678D01*
D02*
G37*
G36*
X450958Y739202D02*
X450681Y737813D01*
Y715670D01*
X449802Y714354D01*
X449411Y712388D01*
Y704932D01*
X449802Y702966D01*
X450681Y701650D01*
Y689270D01*
X451072Y687303D01*
X452186Y685636D01*
X456570Y681253D01*
X456188Y680329D01*
X451866D01*
X449899Y679938D01*
X448232Y678823D01*
X434694Y665285D01*
X433574D01*
X432880Y666285D01*
X433009Y666935D01*
Y670445D01*
X432774Y671629D01*
X432566Y671940D01*
X432774Y672251D01*
X433009Y673435D01*
Y676945D01*
X432774Y678129D01*
X432566Y678440D01*
X432774Y678751D01*
X433009Y679935D01*
Y683445D01*
X432774Y684629D01*
X432566Y684940D01*
X432774Y685251D01*
X433009Y686435D01*
Y689945D01*
X432774Y691129D01*
X432566Y691440D01*
X432774Y691751D01*
X433009Y692935D01*
Y696445D01*
X432774Y697629D01*
X432566Y697940D01*
X432774Y698251D01*
X433009Y699435D01*
Y702945D01*
X432774Y704129D01*
X432566Y704440D01*
X432774Y704751D01*
X433009Y705935D01*
Y709445D01*
X432774Y710629D01*
X432566Y710940D01*
X432774Y711251D01*
X433009Y712435D01*
Y715945D01*
X432774Y717129D01*
X432103Y718133D01*
X431099Y718804D01*
X429915Y719040D01*
X415905D01*
X414721Y718804D01*
X413717Y718133D01*
X413046Y717129D01*
X412811Y715945D01*
Y712435D01*
X413046Y711251D01*
X413254Y710940D01*
X413046Y710629D01*
X412811Y709445D01*
Y705935D01*
X413046Y704751D01*
X413254Y704440D01*
X413046Y704129D01*
X412811Y702945D01*
Y699435D01*
X413046Y698251D01*
X413254Y697940D01*
X413046Y697629D01*
X412811Y696445D01*
Y692935D01*
X413046Y691751D01*
X413254Y691440D01*
X413046Y691129D01*
X412811Y689945D01*
Y686435D01*
X413046Y685251D01*
X413254Y684940D01*
X413046Y684629D01*
X412811Y683445D01*
Y680329D01*
X398368D01*
X389187Y689510D01*
Y717550D01*
X388796Y719517D01*
X387682Y721184D01*
X381078Y727788D01*
X379411Y728902D01*
X377444Y729293D01*
X375920D01*
Y732731D01*
X402677D01*
X403098Y732182D01*
Y729842D01*
X403704Y727581D01*
X404874Y725553D01*
X406529Y723898D01*
X408557Y722728D01*
X410818Y722122D01*
X413158D01*
X415419Y722728D01*
X417447Y723898D01*
X419102Y725553D01*
X420272Y727581D01*
X420878Y729842D01*
Y732182D01*
X421299Y732731D01*
X440944D01*
X442910Y733122D01*
X444578Y734236D01*
X450036Y739695D01*
X450958Y739202D01*
D02*
G37*
G36*
X625073Y722922D02*
X624920Y722353D01*
Y720367D01*
X625434Y718450D01*
X625494Y718345D01*
X624994Y717479D01*
X622021D01*
X618727Y720773D01*
X617391Y721666D01*
X615815Y721979D01*
X598871D01*
X597295Y721666D01*
X595959Y720773D01*
X579268Y704082D01*
X579007Y703691D01*
X577962Y703624D01*
X554099Y727487D01*
Y727585D01*
X554674Y728160D01*
X555666Y729880D01*
X556180Y731797D01*
Y733783D01*
X555666Y735700D01*
X554674Y737420D01*
X553270Y738823D01*
X551550Y739816D01*
X549633Y740330D01*
X547647D01*
X545730Y739816D01*
X544010Y738823D01*
X542607Y737420D01*
X541614Y735700D01*
X541100Y733783D01*
Y731797D01*
X541614Y729880D01*
X542607Y728160D01*
X544010Y726757D01*
X545730Y725764D01*
X545871Y725726D01*
X546174Y724205D01*
X547067Y722868D01*
X572181Y697754D01*
Y696004D01*
X571181Y695590D01*
X524878Y741894D01*
X525260Y742818D01*
X605177D01*
X625073Y722922D01*
D02*
G37*
G36*
X95317Y731977D02*
X96654Y731085D01*
X96807Y731054D01*
X105353Y722508D01*
X105094Y721542D01*
X104978Y721511D01*
X103258Y720518D01*
X101854Y719114D01*
X100862Y717395D01*
X100400Y715669D01*
X99452Y715202D01*
X97017Y717637D01*
X95757Y718479D01*
X94271Y718775D01*
X90061D01*
X89426Y719548D01*
X89494Y719890D01*
X89200Y721369D01*
X88518Y722390D01*
X89200Y723411D01*
X89494Y724890D01*
X89200Y726369D01*
X88518Y727390D01*
X89200Y728411D01*
X89494Y729890D01*
X89200Y731369D01*
X88518Y732390D01*
X89200Y733411D01*
X89494Y734890D01*
X89200Y736369D01*
X89728Y737379D01*
X89880Y737415D01*
X95317Y731977D01*
D02*
G37*
G36*
X469587Y743006D02*
Y734612D01*
X469490Y734443D01*
X468884Y732182D01*
Y729842D01*
X469490Y727581D01*
X470660Y725553D01*
X472315Y723898D01*
X474343Y722728D01*
X476604Y722122D01*
X478944D01*
X481205Y722728D01*
X483233Y723898D01*
X484888Y725553D01*
X485073Y725873D01*
X490927D01*
X491806Y724350D01*
X492685Y723472D01*
X489126Y719914D01*
X488736Y719329D01*
X480910D01*
X479456Y719040D01*
X473905D01*
X472721Y718804D01*
X471717Y718133D01*
X471046Y717129D01*
X470810Y715945D01*
Y712779D01*
X469878D01*
X469584Y713290D01*
X468180Y714694D01*
X466460Y715686D01*
X464543Y716200D01*
X462557D01*
X461752Y715984D01*
X460959Y716593D01*
Y735684D01*
X468663Y743389D01*
X469587Y743006D01*
D02*
G37*
G36*
X784812Y796296D02*
X786988Y795040D01*
X787842Y794811D01*
X788101Y793845D01*
X784846Y790591D01*
X783732Y788924D01*
X783341Y786957D01*
Y778033D01*
X783732Y776066D01*
X784846Y774399D01*
X806171Y753074D01*
Y744350D01*
X801270D01*
Y723770D01*
X806171D01*
Y705578D01*
X806391Y704472D01*
Y687200D01*
X801490D01*
Y666620D01*
X804096D01*
X804479Y665696D01*
X801020Y662237D01*
X778699D01*
Y681046D01*
X778625Y681417D01*
X779174Y682369D01*
X779780Y684630D01*
Y686970D01*
X779174Y689231D01*
X778004Y691259D01*
X776349Y692914D01*
X774321Y694084D01*
X772060Y694690D01*
X769978D01*
X769454Y695580D01*
X773870Y699995D01*
X774712Y701256D01*
X775007Y702742D01*
Y708342D01*
X776521Y709855D01*
X778108D01*
X779016Y708281D01*
X780671Y706626D01*
X782699Y705456D01*
X784960Y704850D01*
X787300D01*
X789561Y705456D01*
X791589Y706626D01*
X793244Y708281D01*
X794414Y710309D01*
X795020Y712570D01*
Y714910D01*
X794414Y717171D01*
X793244Y719199D01*
X791589Y720854D01*
X789561Y722024D01*
X787300Y722630D01*
X784960D01*
X782699Y722024D01*
X780671Y720854D01*
X779016Y719199D01*
X778749Y718736D01*
X777749Y719004D01*
Y725440D01*
X777749Y725440D01*
X777397Y727211D01*
X776393Y728713D01*
X776393Y728713D01*
X773589Y731517D01*
X773972Y732441D01*
X778993D01*
X780569Y732754D01*
X781905Y733647D01*
X788233Y739974D01*
X789126Y741311D01*
X789439Y742887D01*
Y756460D01*
X789126Y758036D01*
X788233Y759373D01*
X773197Y774408D01*
X773350Y774977D01*
Y776963D01*
X772836Y778880D01*
X771843Y780600D01*
X770440Y782003D01*
X768720Y782996D01*
X768180Y783141D01*
X767921Y784107D01*
X781813Y797999D01*
X783109D01*
X784812Y796296D01*
D02*
G37*
G36*
X68991Y723760D02*
X69060Y723411D01*
X69742Y722390D01*
X69060Y721369D01*
X68766Y719890D01*
X69060Y718411D01*
X69742Y717390D01*
X69060Y716369D01*
X68766Y714890D01*
X69060Y713411D01*
X69742Y712390D01*
X69060Y711369D01*
X68766Y709890D01*
X69060Y708411D01*
X69742Y707390D01*
X69060Y706369D01*
X68766Y704890D01*
X68834Y704548D01*
X68200Y703774D01*
X65103D01*
X64264Y705229D01*
X62609Y706884D01*
X60581Y708054D01*
X58320Y708660D01*
X55980D01*
X53719Y708054D01*
X53087Y707690D01*
X52473Y708490D01*
X68034Y724050D01*
X68991Y723760D01*
D02*
G37*
G36*
X617402Y710447D02*
X618738Y709554D01*
X620315Y709241D01*
X637258D01*
X638834Y709554D01*
X640171Y710447D01*
X640266Y710542D01*
X640383Y710475D01*
X642300Y709961D01*
X644286D01*
X646204Y710475D01*
X647923Y711468D01*
X648169Y711714D01*
X649093Y711331D01*
Y710189D01*
X649389Y708702D01*
X650231Y707442D01*
X652415Y705258D01*
Y703500D01*
X610238D01*
X609823Y704500D01*
X610554Y705230D01*
X611546Y706950D01*
X612060Y708867D01*
Y710853D01*
X611546Y712770D01*
X611486Y712875D01*
X611986Y713741D01*
X614108D01*
X617402Y710447D01*
D02*
G37*
G36*
X149562Y702897D02*
X149999Y702026D01*
X149560Y701369D01*
X149266Y699890D01*
X149560Y698411D01*
X150242Y697390D01*
X149560Y696369D01*
X149266Y694890D01*
X149560Y693411D01*
X150242Y692390D01*
X149560Y691369D01*
X149266Y689890D01*
X149560Y688411D01*
X150242Y687390D01*
X149560Y686369D01*
X149266Y684890D01*
X149560Y683411D01*
X150004Y682747D01*
X149563Y681870D01*
X148580Y681705D01*
X146968Y683317D01*
X145913Y684022D01*
X146726Y685430D01*
X147240Y687347D01*
Y689333D01*
X146726Y691250D01*
X145733Y692970D01*
X144330Y694373D01*
X142610Y695366D01*
X140693Y695880D01*
X138707D01*
X136790Y695366D01*
X135070Y694373D01*
X133666Y692970D01*
X133236Y692225D01*
X110829D01*
X100945Y702109D01*
X101437Y703030D01*
X102446Y702830D01*
X138677D01*
X138880Y702626D01*
X140600Y701634D01*
X142517Y701120D01*
X144503D01*
X146420Y701634D01*
X148140Y702626D01*
X148575Y703062D01*
X149562Y702897D01*
D02*
G37*
G36*
X238840Y755927D02*
X239354Y754010D01*
X240347Y752290D01*
X241750Y750887D01*
X241751Y750886D01*
Y696607D01*
X238483Y693340D01*
X238483Y693340D01*
X236497D01*
X234580Y692826D01*
X232860Y691833D01*
X232199Y691172D01*
X231199Y691586D01*
Y699673D01*
X236044Y704518D01*
X237158Y706186D01*
X237549Y708152D01*
Y756590D01*
X238840D01*
Y755927D01*
D02*
G37*
G36*
X824171Y705578D02*
X824391Y704472D01*
Y687200D01*
X816669D01*
Y705358D01*
X816449Y706464D01*
Y723770D01*
X824171D01*
Y705578D01*
D02*
G37*
G36*
X102170Y678466D02*
X102007Y677925D01*
X101745Y677477D01*
X100401Y677210D01*
X99380Y676528D01*
X98359Y677210D01*
X96880Y677504D01*
X95401Y677210D01*
X94380Y676528D01*
X93359Y677210D01*
X91880Y677504D01*
X90401Y677210D01*
X89148Y676373D01*
X88310Y675119D01*
X88016Y673640D01*
Y660640D01*
X88310Y659161D01*
X89148Y657908D01*
X90401Y657070D01*
X91880Y656776D01*
X93359Y657070D01*
X94380Y657753D01*
X95401Y657070D01*
X96880Y656776D01*
X98359Y657070D01*
X99380Y657752D01*
X100401Y657070D01*
X101880Y656776D01*
X103359Y657070D01*
X104380Y657753D01*
X105401Y657070D01*
X106328Y656886D01*
X106482Y656714D01*
X106812Y655820D01*
X106004Y654420D01*
X105490Y652503D01*
Y650517D01*
X106004Y648600D01*
X106996Y646880D01*
X107881Y645995D01*
X107324Y645139D01*
X106088Y645385D01*
X99652D01*
X98165Y645089D01*
X96905Y644247D01*
X96622Y643965D01*
X63073D01*
X33666Y673371D01*
X34049Y674295D01*
X43362D01*
X43949Y673903D01*
X45720Y673551D01*
X47491Y673903D01*
X48993Y674907D01*
X49784Y676091D01*
X52070D01*
X52070Y676091D01*
X53841Y676443D01*
X55343Y677447D01*
X67818Y689921D01*
X67876Y689919D01*
X68838Y689527D01*
X69060Y688411D01*
X69742Y687390D01*
X69060Y686369D01*
X68766Y684890D01*
X69060Y683411D01*
X69742Y682390D01*
X69060Y681369D01*
X68766Y679890D01*
X69060Y678411D01*
X69898Y677158D01*
X71151Y676320D01*
X72630Y676026D01*
X85630D01*
X87109Y676320D01*
X88363Y677158D01*
X89200Y678411D01*
X89494Y679890D01*
X89200Y681369D01*
X88518Y682390D01*
X89200Y683411D01*
X89494Y684890D01*
X89200Y686369D01*
X88518Y687390D01*
X89200Y688411D01*
X89467Y689755D01*
X89915Y690017D01*
X90456Y690180D01*
X102170Y678466D01*
D02*
G37*
G36*
X500084Y695590D02*
X501077Y693870D01*
X502480Y692467D01*
X504200Y691474D01*
X506117Y690960D01*
X508103D01*
X510020Y691474D01*
X510125Y691534D01*
X510991Y691034D01*
Y683484D01*
X509902Y682395D01*
X509009Y681059D01*
X508696Y679483D01*
Y675455D01*
X507696Y675152D01*
X507073Y676084D01*
X507073Y676084D01*
X498319Y684838D01*
X496817Y685842D01*
X496171Y685970D01*
X492429Y689713D01*
X491036Y690643D01*
X490737Y691696D01*
X490774Y691751D01*
X491009Y692935D01*
Y696051D01*
X499960D01*
X500084Y695590D01*
D02*
G37*
G36*
X686671Y684213D02*
X686389D01*
X684128Y683607D01*
X682100Y682437D01*
X680445Y680781D01*
X679275Y678754D01*
X678669Y676493D01*
Y674153D01*
X678917Y673227D01*
X672367Y666677D01*
X671363Y665175D01*
X671011Y663404D01*
X671011Y663404D01*
Y656393D01*
X671011Y656393D01*
X671363Y654622D01*
X672367Y653120D01*
X674710Y650777D01*
X674710Y650777D01*
X676212Y649773D01*
X677557Y649506D01*
X677680Y649428D01*
X678180Y648695D01*
X678255Y648421D01*
X677934Y647223D01*
X677599Y646800D01*
X677094Y646413D01*
X676960Y646449D01*
X674619D01*
X672358Y645843D01*
X670331Y644672D01*
X668676Y643017D01*
X667505Y640990D01*
X667389Y640557D01*
X663439D01*
X663439Y640557D01*
X661668Y640204D01*
X660166Y639201D01*
X659522Y638557D01*
X628215D01*
X627178Y639594D01*
X627695Y640490D01*
X628927Y640160D01*
X630913D01*
X632830Y640674D01*
X634550Y641666D01*
X635953Y643070D01*
X636946Y644790D01*
X637460Y646707D01*
Y648693D01*
X636946Y650610D01*
X635953Y652330D01*
X634550Y653734D01*
X632830Y654726D01*
X630913Y655240D01*
X628927D01*
X628927Y655240D01*
X598670Y685496D01*
X599053Y686420D01*
X653316D01*
X653772Y684082D01*
X653671Y684024D01*
X652016Y682369D01*
X650846Y680341D01*
X650240Y678080D01*
Y675740D01*
X650846Y673479D01*
X652016Y671451D01*
X653671Y669796D01*
X655699Y668626D01*
X657960Y668020D01*
X660300D01*
X662561Y668626D01*
X664589Y669796D01*
X666244Y671451D01*
X667414Y673479D01*
X667930Y675402D01*
X669727Y674920D01*
X671712D01*
X673630Y675434D01*
X675349Y676427D01*
X676753Y677831D01*
X677746Y679550D01*
X678260Y681468D01*
Y683453D01*
X677746Y685371D01*
X677640Y685554D01*
X678140Y686420D01*
X686671D01*
Y684213D01*
D02*
G37*
G36*
X392606Y671556D02*
X394273Y670442D01*
X396240Y670051D01*
X412811D01*
Y666935D01*
X412940Y666285D01*
X412246Y665285D01*
X388209D01*
X381059Y672434D01*
Y681797D01*
X381983Y682180D01*
X392606Y671556D01*
D02*
G37*
G36*
X470810Y666935D02*
X471046Y665751D01*
X471576Y664957D01*
X471324Y664215D01*
X471133Y663957D01*
X467714D01*
X467165Y664908D01*
X465762Y666311D01*
X464042Y667304D01*
X462125Y667818D01*
X460139D01*
X458222Y667304D01*
X456502Y666311D01*
X455098Y664908D01*
X454106Y663188D01*
X453592Y661271D01*
Y659285D01*
X454106Y657368D01*
X455098Y655648D01*
X456502Y654245D01*
X458222Y653252D01*
X460139Y652738D01*
X462125D01*
X464042Y653252D01*
X464569Y652401D01*
X464056Y651889D01*
X462886Y649861D01*
X462280Y647600D01*
Y645260D01*
X462886Y642999D01*
X464056Y640971D01*
X465711Y639316D01*
X467739Y638146D01*
X470000Y637540D01*
X472340D01*
X474601Y638146D01*
X476629Y639316D01*
X476907Y639595D01*
X478311Y638191D01*
Y634919D01*
X476445D01*
X475261Y634684D01*
X474257Y634013D01*
X473586Y633009D01*
X473350Y631825D01*
Y628315D01*
X473586Y627131D01*
X473794Y626820D01*
X473586Y626509D01*
X473350Y625325D01*
Y621815D01*
X473586Y620631D01*
X473794Y620320D01*
X473586Y620009D01*
X473350Y618825D01*
Y618119D01*
X472426Y617737D01*
X471990Y618173D01*
X470270Y619166D01*
X468353Y619680D01*
X466367D01*
X464499Y619179D01*
X464309Y619149D01*
X463499Y619617D01*
Y637142D01*
X463108Y639109D01*
X461994Y640776D01*
X443356Y659413D01*
X453994Y670051D01*
X470810D01*
Y666935D01*
D02*
G37*
G36*
X570589Y683089D02*
X570175Y682089D01*
X558800D01*
X557029Y681737D01*
X556674Y681500D01*
X550260D01*
Y673420D01*
Y668420D01*
Y658420D01*
Y648420D01*
Y638420D01*
Y630217D01*
X549260Y629803D01*
X548190Y630873D01*
X546470Y631866D01*
X544553Y632380D01*
X542567D01*
X540650Y631866D01*
X538930Y630873D01*
X538129Y630072D01*
X534613D01*
X510011Y654673D01*
X510529Y655570D01*
X511822Y655223D01*
X513808D01*
X515725Y655737D01*
X517445Y656730D01*
X518848Y658134D01*
X519841Y659853D01*
X520355Y661771D01*
Y663756D01*
X519841Y665674D01*
X518848Y667393D01*
X517445Y668797D01*
X516934Y669092D01*
Y677776D01*
X518023Y678865D01*
X518916Y680201D01*
X519229Y681778D01*
Y701814D01*
X518916Y703390D01*
X518023Y704726D01*
X512903Y709846D01*
X513000Y710207D01*
Y712193D01*
X512486Y714110D01*
X511493Y715830D01*
X510090Y717234D01*
X508450Y718180D01*
X508274Y718409D01*
X508061Y719206D01*
X510474Y721618D01*
X511588Y723286D01*
X511979Y725252D01*
Y740285D01*
X512159Y740460D01*
X512849Y740829D01*
X570589Y683089D01*
D02*
G37*
G36*
X737921Y676447D02*
Y656919D01*
X738001Y656516D01*
Y648337D01*
X737135Y647837D01*
X736221Y648364D01*
X733960Y648970D01*
X731620D01*
X729359Y648364D01*
X727331Y647194D01*
X725676Y645539D01*
X724506Y643511D01*
X723900Y641250D01*
Y638910D01*
X724316Y637357D01*
X723651Y636575D01*
X722340D01*
Y644846D01*
X729283Y651790D01*
X730176Y653126D01*
X730490Y654702D01*
Y655879D01*
X730620Y655914D01*
X732340Y656907D01*
X733744Y658310D01*
X734736Y660030D01*
X735250Y661947D01*
Y663933D01*
X734736Y665850D01*
X733744Y667570D01*
X732340Y668973D01*
X730620Y669966D01*
X729744Y670201D01*
X729445Y671316D01*
X735106Y676977D01*
X737486D01*
X737921Y676447D01*
D02*
G37*
G36*
X47614Y644889D02*
X47231Y643965D01*
X29613D01*
X28704Y645539D01*
X27049Y647194D01*
X25475Y648102D01*
Y665722D01*
X26399Y666104D01*
X47614Y644889D01*
D02*
G37*
G36*
X234875Y815827D02*
Y794670D01*
X223870D01*
Y777590D01*
X233683D01*
X236679Y774594D01*
X236296Y773670D01*
X223870D01*
Y756590D01*
X227271D01*
Y710281D01*
X222426Y705436D01*
X221312Y703768D01*
X220921Y701802D01*
Y652371D01*
X216971D01*
Y638230D01*
X235149D01*
Y652371D01*
X231199D01*
Y680014D01*
X232199Y680428D01*
X232860Y679766D01*
X234580Y678774D01*
X236497Y678260D01*
X238483D01*
X240400Y678774D01*
X242120Y679766D01*
X243524Y681170D01*
X244516Y682890D01*
X245030Y684807D01*
Y686793D01*
X245030Y686793D01*
X249639Y691403D01*
X249888Y691398D01*
X250639Y691170D01*
Y663281D01*
X249639Y663149D01*
X249596Y663310D01*
X248603Y665030D01*
X247200Y666433D01*
X245480Y667426D01*
X243563Y667940D01*
X241577D01*
X239660Y667426D01*
X237940Y666433D01*
X236537Y665030D01*
X235544Y663310D01*
X235030Y661393D01*
Y659407D01*
X235544Y657490D01*
X236537Y655770D01*
X237940Y654367D01*
X238685Y653936D01*
Y643000D01*
X238981Y641514D01*
X239823Y640254D01*
X248721Y631356D01*
Y622709D01*
X262244D01*
Y602648D01*
X258296Y598700D01*
X244210D01*
Y593165D01*
X233310D01*
Y598320D01*
X213730D01*
Y593165D01*
X204388D01*
X202902Y592869D01*
X201641Y592027D01*
X199554Y589940D01*
X197750D01*
Y597430D01*
X178170D01*
Y593529D01*
X174829D01*
X173814Y594544D01*
X172146Y595658D01*
X170180Y596049D01*
X164480D01*
Y598200D01*
X158825D01*
Y618299D01*
X159283Y618610D01*
X159794Y618744D01*
X161675Y616863D01*
X162935Y616021D01*
X164422Y615725D01*
X170858D01*
X172345Y616021D01*
X173605Y616863D01*
X176196Y619454D01*
X199052D01*
X200539Y619749D01*
X201799Y620591D01*
X207102Y625895D01*
X216971D01*
Y622709D01*
X235149D01*
Y636850D01*
X216971D01*
Y633664D01*
X205493D01*
X204007Y633368D01*
X202746Y632526D01*
X201783Y631563D01*
X200859Y631945D01*
Y636709D01*
X182681D01*
Y633523D01*
X178421D01*
X163525Y648419D01*
Y649732D01*
X164783Y650990D01*
X165776Y652710D01*
X166290Y654627D01*
Y656613D01*
X165776Y658530D01*
X164783Y660250D01*
X163380Y661654D01*
X161660Y662646D01*
X159743Y663160D01*
X157757D01*
X155840Y662646D01*
X154805Y662049D01*
X153805Y662626D01*
Y674871D01*
X153729Y675253D01*
X154363Y676026D01*
X166130D01*
X167609Y676320D01*
X168862Y677158D01*
X169700Y678411D01*
X169994Y679890D01*
X169700Y681369D01*
X169018Y682390D01*
X169700Y683411D01*
X169994Y684890D01*
X169700Y686369D01*
X169018Y687390D01*
X169700Y688411D01*
X169994Y689890D01*
X169700Y691369D01*
X169018Y692390D01*
X169700Y693411D01*
X169994Y694890D01*
X169700Y696369D01*
X169018Y697390D01*
X169700Y698411D01*
X169994Y699890D01*
X169700Y701369D01*
X169018Y702390D01*
X169700Y703411D01*
X169994Y704890D01*
X169700Y706369D01*
X169018Y707390D01*
X169700Y708411D01*
X169994Y709890D01*
X169700Y711369D01*
X169018Y712390D01*
X169700Y713411D01*
X169994Y714890D01*
X169973Y714998D01*
X170607Y715771D01*
X192840D01*
X194416Y716084D01*
X195753Y716977D01*
X201923Y723147D01*
X202816Y724484D01*
X203545Y724814D01*
X204100Y724494D01*
X206017Y723980D01*
X206644D01*
X207027Y723056D01*
X188136Y704166D01*
X187022Y702498D01*
X186631Y700532D01*
Y652230D01*
X182681D01*
Y638090D01*
X200859D01*
Y652230D01*
X196909D01*
Y698403D01*
X221187Y722681D01*
X222300Y724348D01*
X222692Y726315D01*
Y735621D01*
X222300Y737587D01*
X221187Y739254D01*
X208524Y751916D01*
X206857Y753030D01*
X204891Y753421D01*
X201856D01*
X195230Y760047D01*
Y769860D01*
X186388D01*
X185753Y770633D01*
X185845Y771093D01*
Y773780D01*
X195230D01*
Y778435D01*
X196500D01*
X197987Y778731D01*
X199247Y779573D01*
X217762Y798088D01*
X218604Y799349D01*
X218900Y800835D01*
Y801266D01*
X233875Y816241D01*
X234875Y815827D01*
D02*
G37*
G36*
X754926Y654636D02*
X756593Y653522D01*
X758560Y653131D01*
X768668D01*
X769836Y652350D01*
X771803Y651959D01*
X803148D01*
X805115Y652350D01*
X805509Y652614D01*
X806391Y652143D01*
Y649787D01*
X805293Y648142D01*
X804901Y646176D01*
Y637345D01*
X751096D01*
X749279Y636983D01*
X748279Y637413D01*
Y656839D01*
X748198Y657242D01*
Y658730D01*
X750833D01*
X754926Y654636D01*
D02*
G37*
G36*
X95512Y635402D02*
X95330Y634723D01*
Y632737D01*
X95844Y630820D01*
X96837Y629100D01*
X98240Y627696D01*
X99960Y626704D01*
X101877Y626190D01*
X103863D01*
X105780Y626704D01*
X107500Y627696D01*
X108904Y629100D01*
X109334Y629845D01*
X117061D01*
X117369Y628895D01*
X117370Y628845D01*
X116347Y627822D01*
X115940Y628056D01*
X114023Y628570D01*
X112037D01*
X110120Y628056D01*
X108400Y627063D01*
X106996Y625660D01*
X106004Y623940D01*
X105490Y622023D01*
Y620037D01*
X106004Y618120D01*
X106996Y616400D01*
X108400Y614996D01*
X110120Y614004D01*
X112037Y613490D01*
X114023D01*
X115940Y614004D01*
X117660Y614996D01*
X119064Y616400D01*
X120056Y618120D01*
X120570Y620037D01*
Y621058D01*
X121738Y622225D01*
X123190D01*
X124677Y622521D01*
X125937Y623363D01*
X126365Y623791D01*
X134413Y615743D01*
X135673Y614901D01*
X137160Y614605D01*
X151055D01*
Y598200D01*
X145400D01*
Y583620D01*
X158986D01*
X159298Y583308D01*
X160558Y582466D01*
X162045Y582171D01*
X178170D01*
Y576295D01*
X164480D01*
Y579700D01*
X145400D01*
Y577549D01*
X129489D01*
X71766Y635271D01*
X72148Y636195D01*
X94903D01*
X95512Y635402D01*
D02*
G37*
G36*
X824391Y649787D02*
X823292Y648142D01*
X822901Y646176D01*
Y627510D01*
X815179D01*
Y632206D01*
Y644055D01*
X816278Y645699D01*
X816669Y647666D01*
Y665480D01*
Y666620D01*
X824391D01*
Y649787D01*
D02*
G37*
G36*
X268930Y819472D02*
X269090Y819286D01*
Y818850D01*
X283659D01*
Y748030D01*
X266700D01*
Y727710D01*
X274896D01*
Y722630D01*
X266700D01*
Y702310D01*
X274896D01*
Y653556D01*
X275287Y651589D01*
X276401Y649922D01*
X279201Y647122D01*
Y638230D01*
X289719D01*
X290009Y637850D01*
X289513Y636850D01*
X279201D01*
Y628203D01*
X274448Y623450D01*
X272680Y622976D01*
X271014Y622014D01*
X270485Y622148D01*
X270014Y622343D01*
Y639000D01*
X269718Y640487D01*
X268876Y641747D01*
X266899Y643724D01*
Y652371D01*
X260917D01*
Y762762D01*
X260526Y764728D01*
X259412Y766396D01*
X240950Y784857D01*
Y789176D01*
X241507Y789733D01*
X242349Y790993D01*
X242645Y792480D01*
Y817097D01*
X243274Y817580D01*
X247800D01*
Y819735D01*
X266918D01*
X268090Y819968D01*
X268930Y819472D01*
D02*
G37*
G36*
X284405Y621113D02*
Y614310D01*
X284701Y612824D01*
X285543Y611563D01*
X303900Y593206D01*
Y588121D01*
X303105Y587808D01*
X302900Y587794D01*
X298287Y592407D01*
X297027Y593249D01*
X295540Y593545D01*
X294270D01*
Y598700D01*
X274690D01*
Y593545D01*
X265435D01*
X265052Y594468D01*
X268876Y598292D01*
X269718Y599552D01*
X270014Y601039D01*
Y609557D01*
X270485Y609752D01*
X271014Y609886D01*
X272680Y608924D01*
X274597Y608410D01*
X276583D01*
X278500Y608924D01*
X280220Y609916D01*
X281623Y611320D01*
X282616Y613040D01*
X283130Y614957D01*
Y616943D01*
X282616Y618860D01*
X281968Y619983D01*
X283481Y621496D01*
X284405Y621113D01*
D02*
G37*
G36*
X537527Y620210D02*
X538930Y618806D01*
X540650Y617814D01*
X542567Y617300D01*
X544553D01*
X546470Y617814D01*
X548190Y618806D01*
X549260Y619877D01*
X550260Y619463D01*
Y608420D01*
Y597089D01*
X540437D01*
X529596Y607930D01*
X529842Y608848D01*
X529996Y608944D01*
X531680Y609916D01*
X533083Y611320D01*
X534076Y613040D01*
X534590Y614957D01*
Y616943D01*
X534076Y618860D01*
X533525Y619814D01*
X534103Y620814D01*
X537178D01*
X537527Y620210D01*
D02*
G37*
G36*
X569363Y650845D02*
X571019Y649190D01*
X573046Y648019D01*
X575307Y647414D01*
X577648D01*
X579909Y648019D01*
X581936Y649190D01*
X583591Y650845D01*
X584067Y651669D01*
X585221Y651669D01*
X585787Y650690D01*
X587190Y649286D01*
X587701Y648992D01*
Y608819D01*
X588014Y607243D01*
X588907Y605906D01*
X589711Y605103D01*
Y574321D01*
X588845Y573821D01*
X587911Y574360D01*
X585650Y574966D01*
X583309D01*
X581048Y574360D01*
X579021Y573189D01*
X577366Y571534D01*
X577257Y571344D01*
X567340D01*
Y583710D01*
X567458Y583733D01*
X568960Y584737D01*
X570266Y586043D01*
X574234D01*
X574490Y585787D01*
X576210Y584794D01*
X578127Y584280D01*
X580113D01*
X582030Y584794D01*
X583750Y585787D01*
X585154Y587190D01*
X586146Y588910D01*
X586660Y590827D01*
Y592813D01*
X586146Y594730D01*
X585154Y596450D01*
X583750Y597854D01*
X582030Y598846D01*
X580113Y599360D01*
X578127D01*
X576210Y598846D01*
X574490Y597854D01*
X573087Y596450D01*
X572423Y595301D01*
X568348D01*
X568113Y595254D01*
X567340Y595888D01*
Y603420D01*
Y613420D01*
Y623420D01*
Y633420D01*
Y643420D01*
Y652350D01*
X568340Y652618D01*
X569363Y650845D01*
D02*
G37*
G36*
X370765Y619111D02*
Y596450D01*
X365360D01*
Y581870D01*
X365360D01*
Y581450D01*
X365360D01*
Y578045D01*
X352190D01*
Y581450D01*
X352190D01*
Y581870D01*
X352190D01*
Y596450D01*
X346785D01*
Y620230D01*
X369646D01*
X370765Y619111D01*
D02*
G37*
G36*
X822901Y592233D02*
X822242Y591246D01*
X821851Y589280D01*
Y572900D01*
X814129D01*
Y587378D01*
X814788Y588363D01*
X815179Y590330D01*
Y606930D01*
X822901D01*
Y592233D01*
D02*
G37*
G36*
X800000Y606930D02*
X804901D01*
Y592233D01*
X804242Y591246D01*
X803851Y589280D01*
Y572900D01*
X798950D01*
Y552320D01*
X803851D01*
Y520830D01*
X798950D01*
Y500250D01*
X803851D01*
Y486496D01*
X800286Y482932D01*
X799173Y481264D01*
X798781Y479298D01*
Y463180D01*
X795130D01*
Y443600D01*
X795130Y443600D01*
X795130D01*
X794770Y442737D01*
X688406Y336374D01*
X687292Y334706D01*
X686901Y332740D01*
Y302390D01*
X682000D01*
Y297239D01*
X679038D01*
X669547Y306731D01*
X670064Y307627D01*
X670837Y307420D01*
X672823D01*
X674740Y307934D01*
X676460Y308927D01*
X677863Y310330D01*
X678856Y312050D01*
X679370Y313967D01*
Y315953D01*
X678856Y317870D01*
X677863Y319590D01*
X676460Y320993D01*
X674740Y321986D01*
X672823Y322500D01*
X671054D01*
X658559Y334995D01*
X659050Y336827D01*
Y338813D01*
X658536Y340730D01*
X657543Y342450D01*
X656140Y343853D01*
X654420Y344846D01*
X652503Y345360D01*
X650517D01*
X648600Y344846D01*
X646880Y343853D01*
X645477Y342450D01*
X644484Y340730D01*
X643970Y338813D01*
Y336827D01*
X644484Y334910D01*
X645477Y333190D01*
X646880Y331786D01*
X648600Y330794D01*
X650517Y330280D01*
X652286D01*
X664781Y317785D01*
X664290Y315953D01*
Y313967D01*
X664497Y313194D01*
X663601Y312677D01*
X617044Y359234D01*
X615377Y360348D01*
X613410Y360739D01*
X580167D01*
Y380719D01*
X579776Y382685D01*
X578662Y384352D01*
X564593Y398422D01*
X562926Y399535D01*
X560959Y399927D01*
X549618D01*
X542908Y406636D01*
X543291Y407560D01*
X548960D01*
Y413961D01*
X558880D01*
Y407560D01*
X573960D01*
Y414471D01*
X609490D01*
X609490Y414471D01*
X611261Y414823D01*
X612763Y415827D01*
X727987Y531050D01*
X727987Y531050D01*
X729973D01*
X731890Y531564D01*
X733610Y532556D01*
X733696Y532643D01*
X734620Y532261D01*
Y521717D01*
X734510Y521654D01*
X733107Y520250D01*
X732114Y518530D01*
X731600Y516613D01*
Y514627D01*
X732114Y512710D01*
X733107Y510990D01*
X734510Y509586D01*
X736230Y508594D01*
X738147Y508080D01*
X740133D01*
X742050Y508594D01*
X743770Y509586D01*
X745173Y510990D01*
X746166Y512710D01*
X746680Y514627D01*
Y516613D01*
X746166Y518530D01*
X745173Y520250D01*
X743770Y521654D01*
X742390Y522450D01*
Y547623D01*
X742500Y547687D01*
X743904Y549090D01*
X744896Y550810D01*
X745410Y552727D01*
Y554713D01*
X744896Y556630D01*
X743904Y558350D01*
X742500Y559753D01*
X740780Y560746D01*
X738863Y561260D01*
X736877D01*
X734960Y560746D01*
X733243Y559755D01*
X733231Y559758D01*
X732322Y560249D01*
X732339Y560334D01*
X732339Y560335D01*
Y579617D01*
X731987Y581388D01*
X730983Y582890D01*
X730983Y582890D01*
X728640Y585233D01*
X727138Y586237D01*
X726749Y586314D01*
Y590921D01*
X727673Y591303D01*
X738080Y580896D01*
Y569310D01*
X757160D01*
Y585310D01*
Y602390D01*
X747823D01*
X747323Y603256D01*
X747868Y604200D01*
X748474Y606461D01*
Y607930D01*
X760400D01*
Y613471D01*
X769769D01*
X770244Y612648D01*
X770203Y612471D01*
X769700Y610593D01*
Y608607D01*
X770214Y606690D01*
X771207Y604970D01*
X771465Y604711D01*
Y602390D01*
X760080D01*
Y585310D01*
Y569310D01*
X779160D01*
Y577565D01*
X779201Y577573D01*
X780703Y578577D01*
X786863Y584737D01*
X786863Y584737D01*
X787867Y586239D01*
X788219Y588010D01*
X788219Y588010D01*
Y600063D01*
X789013Y600857D01*
X789013Y600857D01*
X790017Y602359D01*
X790369Y604130D01*
X790369Y604130D01*
Y613121D01*
X790369Y613121D01*
X790017Y614892D01*
X789013Y616394D01*
X789013Y616394D01*
X784034Y621373D01*
X782532Y622377D01*
X780761Y622729D01*
X780761Y622729D01*
X760400D01*
Y626510D01*
X761169Y627067D01*
X800000D01*
Y606930D01*
D02*
G37*
G36*
X533362Y569187D02*
X533362Y569187D01*
X534864Y568184D01*
X536635Y567831D01*
X536672D01*
X536998Y567613D01*
X537197Y567574D01*
X537376Y566519D01*
X537255Y566447D01*
X536261Y566645D01*
X510019D01*
X509176Y567208D01*
X507210Y567599D01*
X505243Y567208D01*
X503576Y566094D01*
X489512Y552030D01*
X488589Y552413D01*
Y577881D01*
X489512Y578264D01*
X490548Y577228D01*
X490300Y576303D01*
Y574317D01*
X490814Y572400D01*
X491806Y570680D01*
X493210Y569277D01*
X494930Y568284D01*
X496847Y567770D01*
X498833D01*
X500750Y568284D01*
X502470Y569277D01*
X503873Y570680D01*
X504866Y572400D01*
X505380Y574317D01*
Y576303D01*
X504866Y578220D01*
X503873Y579940D01*
X502470Y581343D01*
X500750Y582336D01*
X498833Y582850D01*
X496847D01*
X496111Y582653D01*
X493634Y585130D01*
X493754Y586129D01*
X494726Y586323D01*
X496394Y587437D01*
X497508Y589104D01*
X497899Y591070D01*
X497508Y593037D01*
X496394Y594704D01*
X494726Y595818D01*
X493549Y596052D01*
Y599325D01*
X494014Y599891D01*
X502658D01*
X533362Y569187D01*
D02*
G37*
G36*
X365360Y566870D02*
X381531D01*
X387382Y561019D01*
X387272Y560910D01*
X386158Y559243D01*
X385767Y557276D01*
Y548321D01*
X386158Y546355D01*
X386902Y545242D01*
Y535855D01*
X386158Y534742D01*
X385767Y532776D01*
Y454354D01*
X386158Y452388D01*
X387272Y450721D01*
X389272Y448722D01*
Y348993D01*
X388348Y348610D01*
X380545Y356412D01*
X378878Y357526D01*
X378659Y357570D01*
Y359849D01*
X364041D01*
Y361230D01*
X378659D01*
Y363352D01*
X379664Y363552D01*
X381332Y364666D01*
X382446Y366334D01*
X382837Y368300D01*
Y453644D01*
X382446Y455611D01*
X381332Y457278D01*
X379300Y459310D01*
X377632Y460424D01*
X375666Y460815D01*
X373567D01*
X373382Y461135D01*
X371727Y462790D01*
X369699Y463960D01*
X367438Y464566D01*
X365098D01*
X362837Y463960D01*
X361859Y463396D01*
X360993Y463896D01*
Y468698D01*
X361313Y468882D01*
X362968Y470537D01*
X364138Y472565D01*
X364744Y474826D01*
Y477166D01*
X364138Y479427D01*
X362968Y481455D01*
X362337Y482085D01*
X362720Y483009D01*
X365959D01*
Y484958D01*
X367840Y485332D01*
X369507Y486446D01*
X371934Y488872D01*
X373048Y490540D01*
X373439Y492506D01*
Y513080D01*
X373048Y515047D01*
X371934Y516714D01*
X369394Y519254D01*
X367727Y520368D01*
X365760Y520759D01*
X334869D01*
X303787Y551841D01*
X304304Y552737D01*
X305077Y552530D01*
X307063D01*
X308980Y553044D01*
X310700Y554036D01*
X312104Y555440D01*
X313096Y557160D01*
X313610Y559077D01*
Y561063D01*
X313096Y562980D01*
X312649Y563754D01*
X313150Y564620D01*
X323480D01*
Y569775D01*
X333610D01*
Y566870D01*
X352190D01*
Y570275D01*
X365360D01*
Y566870D01*
D02*
G37*
G36*
X705260Y563800D02*
Y553420D01*
X712943D01*
X713325Y552496D01*
X705418Y544589D01*
X700340D01*
Y548500D01*
X695185D01*
Y563171D01*
X696051Y563671D01*
X696860Y563204D01*
X698777Y562690D01*
X700763D01*
X702680Y563204D01*
X704260Y564116D01*
X705260Y563800D01*
D02*
G37*
G36*
X623024Y630654D02*
X623024Y630654D01*
X624526Y629651D01*
X626297Y629299D01*
X626297Y629299D01*
X661439D01*
X661439Y629299D01*
X663211Y629651D01*
X664713Y630654D01*
X665357Y631299D01*
X669477D01*
X670331Y630445D01*
X672358Y629274D01*
X674619Y628669D01*
X676960D01*
X676995Y628678D01*
X677789Y628069D01*
Y619262D01*
X678084Y617775D01*
X678656Y616920D01*
X678751Y616442D01*
X679593Y615182D01*
X684885Y609889D01*
Y608328D01*
X684968Y607911D01*
X683241Y606913D01*
X681586Y605258D01*
X680415Y603231D01*
X679810Y600970D01*
Y598629D01*
X680415Y596368D01*
X681586Y594341D01*
X683241Y592686D01*
X685268Y591516D01*
X687529Y590910D01*
X689870D01*
X690510Y591081D01*
X691028Y590185D01*
X688553Y587710D01*
X687711Y586450D01*
X687415Y584963D01*
Y548500D01*
X594791D01*
X594280Y549500D01*
X595036Y550810D01*
X595550Y552727D01*
Y554713D01*
X595036Y556630D01*
X595005Y556685D01*
X596743Y558423D01*
X597635Y559759D01*
X597949Y561335D01*
Y606809D01*
X597635Y608386D01*
X596743Y609722D01*
X595939Y610525D01*
Y648992D01*
X596450Y649286D01*
X597854Y650690D01*
X598846Y652410D01*
X599099Y653354D01*
X600065Y653613D01*
X623024Y630654D01*
D02*
G37*
G36*
X515007Y558009D02*
X514944Y557900D01*
X514430Y555983D01*
Y553997D01*
X514944Y552080D01*
X515937Y550360D01*
X517340Y548956D01*
X519060Y547964D01*
X520977Y547450D01*
X522963D01*
X524880Y547964D01*
X526600Y548956D01*
X528004Y550360D01*
X528275Y550831D01*
X532970D01*
X532970Y550831D01*
X534741Y551183D01*
X536243Y552187D01*
X536887Y552831D01*
X558800D01*
X560571Y553183D01*
X560925Y553420D01*
X567258D01*
X567943Y552234D01*
X569347Y550830D01*
X571066Y549837D01*
X571671Y549675D01*
Y543960D01*
X572024Y542188D01*
X572260Y541834D01*
Y531420D01*
X661671D01*
Y524045D01*
X625505Y487879D01*
X617910D01*
Y469701D01*
X632051D01*
Y481333D01*
X669573Y518855D01*
X669573Y518855D01*
X670576Y520356D01*
X670929Y522128D01*
X670929Y522128D01*
Y531420D01*
X700340D01*
Y535331D01*
X707335D01*
X707335Y535331D01*
X709107Y535683D01*
X710609Y536687D01*
X729536Y555615D01*
X730433Y555097D01*
X730330Y554713D01*
Y552727D01*
X730844Y550810D01*
X731836Y549090D01*
X733240Y547687D01*
X734620Y546890D01*
Y544919D01*
X733696Y544537D01*
X733610Y544623D01*
X731890Y545616D01*
X729973Y546130D01*
X727987D01*
X726070Y545616D01*
X724350Y544623D01*
X722946Y543220D01*
X721954Y541500D01*
X721440Y539583D01*
Y537597D01*
X721440Y537597D01*
X607573Y423729D01*
X573960D01*
Y430640D01*
X558880D01*
Y424239D01*
X548960D01*
Y430640D01*
X546558D01*
Y432719D01*
X549104Y435265D01*
X550218Y436932D01*
X550609Y438898D01*
Y444870D01*
X571260D01*
Y464450D01*
X567109D01*
Y466755D01*
X568784Y468430D01*
X569898Y470098D01*
X570289Y472064D01*
Y476620D01*
X574440D01*
Y481271D01*
X581310D01*
X587424Y475156D01*
X589091Y474042D01*
X591058Y473651D01*
X602389D01*
Y469701D01*
X616530D01*
Y487879D01*
X602389D01*
Y483929D01*
X593186D01*
X587072Y490044D01*
X585405Y491158D01*
X583438Y491549D01*
X574440D01*
Y496200D01*
X563281D01*
X563148Y496869D01*
X562034Y498536D01*
X560276Y500294D01*
X558609Y501408D01*
X556643Y501799D01*
X540658D01*
X538691Y501408D01*
X537024Y500294D01*
X529786Y493056D01*
X528672Y491389D01*
X528281Y489422D01*
Y408857D01*
X528672Y406891D01*
X529786Y405224D01*
X543856Y391154D01*
X545523Y390040D01*
X547489Y389649D01*
X558831D01*
X569890Y378590D01*
Y351989D01*
X567958D01*
Y333811D01*
X569890D01*
Y330979D01*
X567638Y328727D01*
X566718Y328544D01*
X565051Y327430D01*
X559996Y322376D01*
X558882Y320709D01*
X558749Y320040D01*
X554090D01*
Y316129D01*
X544324D01*
X510804Y349649D01*
X509302Y350653D01*
X507531Y351005D01*
X507531Y351005D01*
X476309D01*
X476309Y351005D01*
X474538Y350653D01*
X473036Y349649D01*
X473036Y349649D01*
X409074Y285687D01*
X408840Y285750D01*
X406500D01*
X404239Y285144D01*
X402211Y283974D01*
X400556Y282319D01*
X400515Y282247D01*
X399549Y282506D01*
Y298400D01*
X404450D01*
Y318980D01*
X399549D01*
Y335280D01*
Y450850D01*
X399158Y452817D01*
X398044Y454484D01*
X396045Y456483D01*
Y525880D01*
X475768D01*
X477734Y526271D01*
X479402Y527385D01*
X510843Y558826D01*
X510876Y558875D01*
X514507D01*
X515007Y558009D01*
D02*
G37*
G36*
X123727Y568776D02*
X125394Y567662D01*
X127360Y567271D01*
X145400D01*
Y565120D01*
X164480D01*
Y568525D01*
X178170D01*
Y563350D01*
X197750D01*
Y567251D01*
X205232D01*
X207199Y567643D01*
X208866Y568756D01*
X209505Y569395D01*
X213730D01*
Y564240D01*
X233310D01*
Y569395D01*
X244210D01*
Y564620D01*
X259879D01*
X260379Y563754D01*
X259940Y562993D01*
X259334Y560732D01*
Y558392D01*
X259430Y558035D01*
X251636Y550242D01*
X250522Y548574D01*
X250131Y546608D01*
Y461170D01*
X236370D01*
Y444090D01*
X261450D01*
Y461170D01*
X260409D01*
Y544479D01*
X266697Y550768D01*
X267054Y550672D01*
X269394D01*
X271655Y551278D01*
X273683Y552448D01*
X275338Y554103D01*
X276508Y556131D01*
X277114Y558392D01*
Y560732D01*
X276508Y562993D01*
X276069Y563754D01*
X276569Y564620D01*
X279341D01*
Y563880D01*
X279732Y561913D01*
X280846Y560246D01*
X329106Y511986D01*
X330774Y510872D01*
X332740Y510481D01*
X341873D01*
X342176Y509481D01*
X341806Y509234D01*
X328598Y496026D01*
X327484Y494359D01*
X327093Y492393D01*
Y388209D01*
X319213Y380328D01*
X318561Y380198D01*
X316894Y379084D01*
X315578Y377769D01*
X261450D01*
Y381170D01*
X236370D01*
Y364090D01*
X261450D01*
Y367491D01*
X312875D01*
X313258Y366568D01*
X293710Y347019D01*
X261450D01*
Y361170D01*
X236370D01*
Y358622D01*
X235370Y358208D01*
X232977Y360601D01*
Y394021D01*
X233297Y394206D01*
X234952Y395861D01*
X235370Y396586D01*
X236370Y396317D01*
Y384090D01*
X261450D01*
Y401170D01*
X236728D01*
Y402490D01*
X236567Y403090D01*
X237335Y404090D01*
X261450D01*
Y421170D01*
X236370D01*
Y406323D01*
X235370Y406054D01*
X234952Y406779D01*
X233297Y408434D01*
X231269Y409604D01*
X229008Y410210D01*
X226668D01*
X224407Y409604D01*
X222379Y408434D01*
X220724Y406779D01*
X219554Y404751D01*
X218948Y402490D01*
Y400150D01*
X219554Y397889D01*
X220724Y395861D01*
X222379Y394206D01*
X222699Y394021D01*
Y358472D01*
X223090Y356506D01*
X224204Y354839D01*
X230046Y348997D01*
X231714Y347883D01*
X233680Y347491D01*
X234020D01*
X234323Y346492D01*
X233307Y345813D01*
X230767Y343273D01*
X229874Y341936D01*
X229561Y340360D01*
Y306599D01*
X229874Y305023D01*
X230767Y303686D01*
X247117Y287337D01*
X246857Y286182D01*
X245560Y285434D01*
X244156Y284030D01*
X243164Y282310D01*
X242650Y280393D01*
Y280219D01*
X210504D01*
X210504Y280220D01*
X209100Y281623D01*
X207380Y282616D01*
X205463Y283130D01*
X203477D01*
X201560Y282616D01*
X199840Y281623D01*
X198437Y280220D01*
X197444Y278500D01*
X196930Y276583D01*
Y274597D01*
X197444Y272680D01*
X198437Y270960D01*
X199840Y269557D01*
X201560Y268564D01*
X203477Y268050D01*
X205463D01*
X207380Y268564D01*
X209100Y269557D01*
X210504Y270960D01*
X210504Y270961D01*
X244756D01*
X244756Y270961D01*
X246528Y271313D01*
X247876Y272214D01*
X249197Y271860D01*
X251183D01*
X253100Y272374D01*
X254820Y273367D01*
X256224Y274770D01*
X256670Y275544D01*
X257865Y275769D01*
X258361Y275362D01*
Y265051D01*
X258674Y263475D01*
X259567Y262139D01*
X260999Y260707D01*
X260468Y259824D01*
X258803Y260270D01*
X256817D01*
X255796Y259996D01*
X254579Y260675D01*
X254550Y260783D01*
X253558Y262503D01*
X252154Y263906D01*
X250434Y264899D01*
X248517Y265413D01*
X246531D01*
X244614Y264899D01*
X242894Y263906D01*
X241491Y262503D01*
X240498Y260783D01*
X239984Y258866D01*
Y256880D01*
X240177Y256162D01*
X234498Y250483D01*
X233605Y249147D01*
X233291Y247570D01*
Y245958D01*
X232367Y245575D01*
X229069Y248873D01*
X227981Y249600D01*
X226697Y249856D01*
X224889D01*
X223605Y249600D01*
X222517Y248873D01*
X221638Y247994D01*
X221465Y247734D01*
X215740D01*
X215400Y248074D01*
X214312Y248801D01*
X213028Y249057D01*
X204537D01*
X203253Y248801D01*
X202165Y248074D01*
X202139Y248049D01*
X201576Y248612D01*
X200488Y249339D01*
X199204Y249594D01*
X191956D01*
X190672Y249339D01*
X189584Y248612D01*
X184458Y243486D01*
X183731Y242398D01*
X183475Y241114D01*
Y238694D01*
X183188Y238406D01*
X182461Y237318D01*
X182206Y236034D01*
Y232866D01*
X181669Y232330D01*
X180942Y231241D01*
X180686Y229958D01*
Y222709D01*
X180942Y221425D01*
X181669Y220337D01*
X186794Y215211D01*
X187883Y214484D01*
X188009Y214459D01*
X188927Y213541D01*
Y212686D01*
X189183Y211402D01*
X189910Y210314D01*
X191245Y208978D01*
Y186938D01*
X191501Y185654D01*
X192228Y184566D01*
X197266Y179528D01*
X198354Y178801D01*
X199638Y178545D01*
X202605D01*
X203214Y177752D01*
X203200Y177700D01*
Y176589D01*
X144660D01*
Y181740D01*
X139759D01*
Y185186D01*
X140638Y186502D01*
X141029Y188468D01*
Y194180D01*
X145930D01*
Y214760D01*
X141029D01*
Y219964D01*
X140638Y221931D01*
X139524Y223598D01*
X139199Y223922D01*
Y227280D01*
X144100D01*
Y247860D01*
X139199D01*
Y254560D01*
X138808Y256526D01*
X137694Y258193D01*
X111521Y284366D01*
X111904Y285290D01*
X127450D01*
Y310370D01*
X110370D01*
Y286824D01*
X109446Y286441D01*
X103691Y292197D01*
Y312630D01*
X103300Y314596D01*
X102186Y316263D01*
X101450Y316755D01*
Y321170D01*
X76370D01*
Y318899D01*
X75370Y318485D01*
X66607Y327248D01*
Y376682D01*
X66216Y378648D01*
X65102Y380316D01*
X39175Y406242D01*
Y431800D01*
X38784Y433767D01*
X37670Y435434D01*
X31601Y441502D01*
X29934Y442616D01*
X27967Y443007D01*
X26869D01*
Y444939D01*
X12251D01*
Y446320D01*
X26869D01*
Y448251D01*
X38512D01*
X48201Y438562D01*
Y426720D01*
X48592Y424753D01*
X49706Y423086D01*
X63796Y408997D01*
X65463Y407882D01*
X67430Y407491D01*
X76370D01*
Y404090D01*
X101450D01*
Y421170D01*
X76370D01*
Y417769D01*
X69558D01*
X58479Y428848D01*
Y440690D01*
X58088Y442657D01*
X56974Y444324D01*
X44274Y457024D01*
X42607Y458138D01*
X40640Y458529D01*
X26869D01*
Y460460D01*
X14120D01*
X13737Y461384D01*
X18112Y465758D01*
X19226Y467425D01*
X19617Y469392D01*
Y527970D01*
X22448Y530801D01*
X23931D01*
Y528870D01*
X42109D01*
Y543010D01*
X38159D01*
Y601218D01*
X37768Y603185D01*
X36654Y604852D01*
X26729Y614776D01*
Y632781D01*
X27049Y632966D01*
X28704Y634621D01*
X29613Y636195D01*
X56307D01*
X123727Y568776D01*
D02*
G37*
G36*
X821851Y520830D02*
X814129D01*
Y552320D01*
X821851D01*
Y520830D01*
D02*
G37*
G36*
Y487234D02*
X816786Y482170D01*
X815672Y480503D01*
X815281Y478536D01*
Y463180D01*
X809059D01*
Y477169D01*
X812624Y480734D01*
X813738Y482401D01*
X814129Y484368D01*
Y500250D01*
X821851D01*
Y487234D01*
D02*
G37*
G36*
X347781Y499260D02*
Y498530D01*
X363161D01*
Y497150D01*
X347781D01*
Y495178D01*
X346013Y494827D01*
X344346Y493713D01*
X341552Y490919D01*
X340438Y489252D01*
X340047Y487285D01*
Y434707D01*
X340438Y432741D01*
X341552Y431074D01*
X349680Y422946D01*
X351348Y421832D01*
X353314Y421441D01*
X353763D01*
Y400365D01*
X352763Y399635D01*
X351513Y399970D01*
X349527D01*
X347610Y399456D01*
X345890Y398464D01*
X344487Y397060D01*
X343494Y395340D01*
X343477Y395279D01*
X341630D01*
X340054Y394966D01*
X338717Y394073D01*
X338371Y393554D01*
X337371Y393857D01*
Y490264D01*
X346781Y499674D01*
X347781Y499260D01*
D02*
G37*
G36*
X372559Y375370D02*
X364041D01*
Y386396D01*
X364268Y386736D01*
X364659Y388702D01*
Y396158D01*
X364268Y398124D01*
X364041Y398464D01*
Y419509D01*
X372559D01*
Y375370D01*
D02*
G37*
G36*
X345890Y386396D02*
X347610Y385404D01*
X349527Y384890D01*
X351513D01*
X352763Y385225D01*
X353763Y384495D01*
Y312420D01*
X354154Y310453D01*
X355268Y308786D01*
X358999Y305056D01*
X360033Y304365D01*
X359854Y303282D01*
X358519Y302924D01*
X356491Y301754D01*
X354836Y300099D01*
X353666Y298071D01*
X353060Y295810D01*
Y293470D01*
X353666Y291209D01*
X354836Y289181D01*
X356491Y287526D01*
X358519Y286356D01*
X360780Y285750D01*
X363120D01*
X365381Y286356D01*
X367409Y287526D01*
X369064Y289181D01*
X370234Y291209D01*
X370840Y293470D01*
Y295810D01*
X370732Y296215D01*
X372916Y298400D01*
X389272D01*
Y274320D01*
X389663Y272353D01*
X390777Y270686D01*
X400054Y261409D01*
X399640Y260409D01*
X380900D01*
Y265060D01*
X346820D01*
Y252747D01*
X346731Y252300D01*
X346731Y252300D01*
Y238978D01*
X309603Y201850D01*
X309603Y201850D01*
X307617D01*
X306489Y201548D01*
X305489Y202315D01*
Y203949D01*
X305713Y204284D01*
X306104Y206250D01*
Y214120D01*
X305713Y216087D01*
X305489Y216421D01*
Y260509D01*
X305098Y262476D01*
X303984Y264143D01*
X297020Y271107D01*
Y282920D01*
X292869D01*
Y299220D01*
X292478Y301186D01*
X291364Y302853D01*
X279184Y315033D01*
X279315Y316024D01*
X280220Y316546D01*
X281623Y317950D01*
X282616Y319670D01*
X283130Y321587D01*
Y323573D01*
X282616Y325490D01*
X282038Y326491D01*
X282616Y327491D01*
X308246D01*
X310212Y327882D01*
X311879Y328996D01*
X332737Y349854D01*
X333094Y349758D01*
X335434D01*
X337695Y350364D01*
X339723Y351534D01*
X341378Y353189D01*
X342548Y355217D01*
X343154Y357478D01*
Y359818D01*
X342548Y362079D01*
X341378Y364107D01*
X339723Y365762D01*
X337695Y366932D01*
X335434Y367538D01*
X333094D01*
X330833Y366932D01*
X328805Y365762D01*
X327150Y364107D01*
X325980Y362079D01*
X325374Y359818D01*
Y357478D01*
X325470Y357121D01*
X306117Y337769D01*
X261450D01*
Y338781D01*
X295416D01*
X296992Y339094D01*
X298329Y339987D01*
X344543Y386201D01*
X344594Y386278D01*
X345882Y386405D01*
X345890Y386396D01*
D02*
G37*
G36*
X389272Y333152D02*
Y318980D01*
X366370D01*
Y313829D01*
X364761D01*
X364041Y314548D01*
Y345708D01*
X376715D01*
X389272Y333152D01*
D02*
G37*
G36*
X626653Y302036D02*
X626427Y301810D01*
X625434Y300090D01*
X625122Y298927D01*
X624888Y298839D01*
X623401Y299135D01*
X575986D01*
X573084Y302036D01*
X573467Y302960D01*
X626270D01*
X626653Y302036D01*
D02*
G37*
G36*
X798781Y430908D02*
Y423713D01*
X798799Y423627D01*
X798166Y422531D01*
X797560Y420270D01*
Y417930D01*
X798166Y415669D01*
X799336Y413641D01*
X800991Y411986D01*
X803019Y410816D01*
X805280Y410210D01*
X807620D01*
X809881Y410816D01*
X811909Y411986D01*
X813564Y413641D01*
X814281Y414884D01*
X815281Y414616D01*
Y306929D01*
X805592Y297239D01*
X720080D01*
Y302390D01*
X697178D01*
Y330611D01*
X797858Y431291D01*
X798781Y430908D01*
D02*
G37*
G36*
X539134Y308227D02*
X539134Y308227D01*
X540636Y307223D01*
X542407Y306871D01*
X551950D01*
X552333Y305947D01*
X542005Y295619D01*
X538130D01*
X537732Y295540D01*
X529590D01*
Y292117D01*
X528590Y291702D01*
X527429Y292864D01*
X525401Y294034D01*
X523140Y294640D01*
X520800D01*
X518539Y294034D01*
X517472Y293418D01*
X516472Y293995D01*
Y329582D01*
X517396Y329965D01*
X539134Y308227D01*
D02*
G37*
G36*
X672567Y289176D02*
X671953Y288376D01*
X670930Y288966D01*
X669013Y289480D01*
X667027D01*
X665752Y289138D01*
X665715Y289143D01*
X664785Y289881D01*
Y293733D01*
X664489Y295220D01*
X663647Y296480D01*
X662610Y297517D01*
X661350Y298359D01*
X659863Y298655D01*
X641039D01*
X639930Y298434D01*
X639486Y300090D01*
X638493Y301810D01*
X637170Y303133D01*
Y320040D01*
X585871D01*
X585488Y320964D01*
X593463Y328938D01*
X594356Y330275D01*
X594669Y331851D01*
Y333811D01*
X597620D01*
Y350461D01*
X611282D01*
X672567Y289176D01*
D02*
G37*
G36*
X282591Y297091D02*
Y282920D01*
X271109D01*
Y284114D01*
X271109Y284114D01*
X270756Y285885D01*
X269753Y287387D01*
X269753Y287387D01*
X266795Y290345D01*
X267139Y291626D01*
Y293611D01*
X266625Y295529D01*
X265632Y297248D01*
X264228Y298652D01*
X262509Y299645D01*
X260591Y300159D01*
X258606D01*
X256688Y299645D01*
X254969Y298652D01*
X253565Y297248D01*
X252572Y295529D01*
X252409Y294920D01*
X251443Y294661D01*
X242938Y303166D01*
X243321Y304090D01*
X261450D01*
Y307491D01*
X272192D01*
X282591Y297091D01*
D02*
G37*
G36*
X674943Y287352D02*
X676910Y286961D01*
X682000D01*
Y281810D01*
X686901D01*
Y270908D01*
X687292Y268942D01*
X688061Y267791D01*
Y259210D01*
X683160D01*
Y238630D01*
X688061D01*
Y227330D01*
Y213490D01*
X685700D01*
Y192910D01*
X688061D01*
Y71759D01*
X678592Y62289D01*
X566820D01*
Y66940D01*
X562591D01*
X562278Y68514D01*
X561164Y70182D01*
X550619Y80726D01*
X551002Y81650D01*
X568090D01*
Y101230D01*
X563939D01*
Y107092D01*
X567514Y110666D01*
X568628Y112333D01*
X569019Y114300D01*
Y120540D01*
X571420D01*
Y143620D01*
X569019D01*
Y157783D01*
X568628Y159750D01*
X567514Y161417D01*
X549969Y178962D01*
Y189304D01*
X550040Y189345D01*
X551160Y188837D01*
X551271Y188280D01*
X552113Y187020D01*
X553150Y185983D01*
X554410Y185141D01*
X555897Y184845D01*
X564314D01*
X564541Y183703D01*
X565277Y182602D01*
X564486Y181231D01*
X563880Y178970D01*
Y176630D01*
X564486Y174369D01*
X565656Y172341D01*
X567311Y170686D01*
X569339Y169516D01*
X571600Y168910D01*
X573940D01*
X576201Y169516D01*
X578229Y170686D01*
X579884Y172341D01*
X581054Y174369D01*
X581660Y176630D01*
Y178970D01*
X581054Y181231D01*
X579884Y183259D01*
X578229Y184914D01*
X576201Y186084D01*
X573940Y186690D01*
X572123D01*
X572015Y186798D01*
Y187960D01*
X624245D01*
Y180357D01*
X623133Y179244D01*
X622291Y177984D01*
X621995Y176498D01*
Y168942D01*
X622291Y167456D01*
X623133Y166196D01*
X624245Y165084D01*
Y152030D01*
X617330D01*
Y132450D01*
X651410D01*
Y152030D01*
X646505D01*
Y182510D01*
X646209Y183997D01*
X645367Y185257D01*
X637170Y193454D01*
Y205040D01*
X633269D01*
Y266114D01*
X643666Y276512D01*
X644590Y276129D01*
Y262460D01*
Y252460D01*
Y242460D01*
Y232460D01*
Y222460D01*
Y212460D01*
X661670D01*
Y217460D01*
Y227460D01*
Y237460D01*
Y247460D01*
Y257460D01*
Y267460D01*
Y276213D01*
X662670Y276627D01*
X663390Y275907D01*
X665110Y274914D01*
X667027Y274400D01*
X669013D01*
X670930Y274914D01*
X672650Y275907D01*
X674053Y277310D01*
X675046Y279030D01*
X675560Y280947D01*
Y282933D01*
X675046Y284850D01*
X674053Y286570D01*
X673527Y287096D01*
X674164Y287873D01*
X674943Y287352D01*
D02*
G37*
G36*
X485587Y302120D02*
X484456Y300990D01*
X482700D01*
X480439Y300384D01*
X478411Y299214D01*
X476756Y297559D01*
X475586Y295531D01*
X474980Y293270D01*
Y290930D01*
X475586Y288669D01*
X476756Y286641D01*
X478411Y284986D01*
X480439Y283816D01*
X482700Y283210D01*
X485040D01*
X486621Y283634D01*
X487621Y282897D01*
Y273450D01*
X485470D01*
Y273450D01*
X485050D01*
Y273450D01*
X470470D01*
Y269299D01*
X464746D01*
X464410Y270299D01*
X465484Y272159D01*
X466090Y274420D01*
Y276760D01*
X465484Y279021D01*
X464314Y281049D01*
X462659Y282704D01*
X461829Y283183D01*
Y288563D01*
X476386Y303120D01*
X485172D01*
X485587Y302120D01*
D02*
G37*
G36*
X468840Y331054D02*
Y319120D01*
Y308666D01*
X453927Y293753D01*
X452923Y292251D01*
X452571Y290480D01*
X452571Y290480D01*
Y283183D01*
X451741Y282704D01*
X450086Y281049D01*
X448916Y279021D01*
X448310Y276760D01*
Y274420D01*
X448916Y272159D01*
X449990Y270299D01*
X449654Y269299D01*
X414095D01*
X413681Y270299D01*
X414784Y271401D01*
X415954Y273429D01*
X416560Y275690D01*
Y278030D01*
X416127Y279647D01*
X467916Y331437D01*
X468840Y331054D01*
D02*
G37*
G36*
X704902Y270908D02*
X705293Y268941D01*
X706061Y267791D01*
Y259210D01*
X698339D01*
Y269748D01*
X697948Y271714D01*
X697178Y272866D01*
Y281810D01*
X704902D01*
Y270908D01*
D02*
G37*
G36*
X561697Y262253D02*
X562396Y261044D01*
X564051Y259389D01*
X566078Y258218D01*
X568339Y257612D01*
X570680D01*
X572941Y258218D01*
X574968Y259389D01*
X575057Y259478D01*
X575981Y259095D01*
Y225519D01*
X575173Y224711D01*
X574249Y225094D01*
Y228445D01*
X573974Y229826D01*
X573192Y230997D01*
X565137Y239052D01*
X563966Y239834D01*
X562585Y240109D01*
X546670D01*
Y249732D01*
X547536Y250232D01*
X547720Y250126D01*
X549637Y249612D01*
X551623D01*
X553540Y250126D01*
X555260Y251119D01*
X556664Y252523D01*
X557656Y254242D01*
X558170Y256160D01*
Y258145D01*
X557656Y260063D01*
X557977Y260837D01*
X558421Y260956D01*
X560449Y262126D01*
X560706Y262383D01*
X561697Y262253D01*
D02*
G37*
G36*
X513180Y264160D02*
X515520D01*
X517014Y264560D01*
X517988Y263587D01*
X519324Y262694D01*
X520900Y262381D01*
X529590D01*
Y252460D01*
Y240619D01*
X521253D01*
X521079Y240794D01*
X519051Y241964D01*
X516790Y242570D01*
X514450D01*
X512189Y241964D01*
X511275Y241437D01*
X510409Y241937D01*
Y263993D01*
X511409Y264634D01*
X513180Y264160D01*
D02*
G37*
G36*
X529590Y222460D02*
Y212460D01*
X535959D01*
X536342Y211536D01*
X530846Y206041D01*
X529732Y204374D01*
X529341Y202407D01*
Y172694D01*
X529732Y170727D01*
X530846Y169060D01*
X533741Y166165D01*
Y143620D01*
X531340D01*
Y120540D01*
X533741D01*
Y118098D01*
X526718Y111076D01*
X525604Y109409D01*
X525213Y107442D01*
Y79512D01*
X525604Y77546D01*
X526718Y75879D01*
X534733Y67864D01*
X534350Y66940D01*
X531740D01*
Y50859D01*
X473045D01*
X442729Y81174D01*
Y92912D01*
Y129421D01*
X444660D01*
Y147599D01*
X442729D01*
Y169067D01*
X448134Y174472D01*
X449248Y176139D01*
X449639Y178106D01*
Y199780D01*
X451790D01*
Y205681D01*
X460248D01*
X462215Y206072D01*
X463882Y207186D01*
X469996Y213301D01*
X476820D01*
Y209150D01*
X491400D01*
Y209150D01*
X491820D01*
Y209150D01*
X506400D01*
Y227730D01*
X506400D01*
X506064Y228541D01*
X506915Y229391D01*
X507906Y229261D01*
X508506Y228221D01*
X510161Y226566D01*
X512189Y225396D01*
X514450Y224790D01*
X516790D01*
X519051Y225396D01*
X521079Y226566D01*
X522734Y228221D01*
X523904Y230249D01*
X524476Y232381D01*
X529590D01*
Y222460D01*
D02*
G37*
G36*
X706061Y227330D02*
X706452Y225364D01*
X707566Y223696D01*
X708601Y222661D01*
Y213490D01*
X700879D01*
Y224790D01*
X700488Y226756D01*
X699374Y228424D01*
X698339Y229459D01*
Y238630D01*
X706061D01*
Y227330D01*
D02*
G37*
G36*
X571258Y289128D02*
X572346Y288401D01*
X573630Y288146D01*
X622198D01*
X625826Y284518D01*
X626914Y283791D01*
X628198Y283535D01*
X634849D01*
X635232Y282612D01*
X624496Y271876D01*
X623382Y270209D01*
X622991Y268242D01*
Y205040D01*
X572249D01*
Y210136D01*
X583013Y220900D01*
X583906Y222236D01*
X584219Y223813D01*
Y269135D01*
X583906Y270711D01*
X583013Y272047D01*
X560647Y294413D01*
X559311Y295306D01*
X557734Y295619D01*
X552800D01*
X552417Y296543D01*
X558130Y302256D01*
X571258Y289128D01*
D02*
G37*
G36*
X55125Y204254D02*
X54820Y203725D01*
X54214Y201464D01*
Y201021D01*
X49693Y196500D01*
X5139D01*
Y205120D01*
X54625D01*
X55125Y204254D01*
D02*
G37*
G36*
X316075Y190161D02*
X316084Y190130D01*
X317076Y188410D01*
X318480Y187006D01*
X320200Y186014D01*
X322117Y185500D01*
X323550D01*
Y180250D01*
X322550Y179923D01*
X320677Y181004D01*
X318416Y181610D01*
X316076D01*
X313815Y181004D01*
X311787Y179834D01*
X310132Y178179D01*
X308962Y176151D01*
X308356Y173890D01*
Y171550D01*
X308962Y169289D01*
X310132Y167261D01*
X311787Y165606D01*
X313815Y164436D01*
X316076Y163830D01*
X316933D01*
Y139446D01*
X317324Y137479D01*
X318438Y135812D01*
X329581Y124669D01*
Y105120D01*
X328580D01*
Y94118D01*
X305489D01*
Y186305D01*
X306489Y187072D01*
X307617Y186770D01*
X309603D01*
X311520Y187284D01*
X313240Y188277D01*
X314643Y189680D01*
X315002Y190302D01*
X316075Y190161D01*
D02*
G37*
G36*
X217956Y220365D02*
X218805Y220042D01*
X219282Y218890D01*
X219692Y218480D01*
X219282Y218071D01*
X218720Y216714D01*
Y215246D01*
X219282Y213890D01*
X220320Y212852D01*
X221676Y212290D01*
X222877D01*
X223378Y211948D01*
X223720Y211447D01*
Y210513D01*
X223378Y210012D01*
X222877Y209670D01*
X221676D01*
X220320Y209108D01*
X219282Y208070D01*
X218720Y206714D01*
Y205246D01*
X219282Y203890D01*
X219692Y203480D01*
X219282Y203070D01*
X218720Y201714D01*
Y200246D01*
X219282Y198890D01*
X220320Y197852D01*
X221676Y197290D01*
X223144D01*
X224500Y197852D01*
X224910Y198262D01*
X225320Y197852D01*
X226676Y197290D01*
X227721D01*
X228298Y196354D01*
X228091Y196043D01*
X227835Y194760D01*
Y175726D01*
X226835Y175296D01*
X225487Y176198D01*
X223520Y176589D01*
X220980D01*
Y177700D01*
X220374Y179961D01*
X219204Y181989D01*
X217549Y183644D01*
X215555Y184795D01*
X215256Y185013D01*
X214983Y185738D01*
X215238Y187022D01*
Y214485D01*
X215578Y214993D01*
X215833Y216276D01*
Y218463D01*
X217765Y220395D01*
X217956Y220365D01*
D02*
G37*
G36*
X61934Y191404D02*
X64274D01*
X66441Y191985D01*
X66751Y191931D01*
X67441Y191533D01*
Y179088D01*
X57884Y169531D01*
X56960Y169913D01*
Y170800D01*
X5139D01*
Y179420D01*
X56960D01*
Y189233D01*
X59723Y191996D01*
X61934Y191404D01*
D02*
G37*
G36*
X6526Y434235D02*
X8194Y433121D01*
X8691Y433022D01*
Y430798D01*
X26869D01*
X26869Y430798D01*
Y430798D01*
X27834Y430734D01*
X28897Y429672D01*
Y404114D01*
X29288Y402147D01*
X30402Y400480D01*
X56329Y374553D01*
Y325120D01*
X56720Y323153D01*
X57834Y321486D01*
X70325Y308996D01*
X71992Y307882D01*
X73958Y307491D01*
X76370D01*
Y304090D01*
X93413D01*
Y290068D01*
X93804Y288102D01*
X94918Y286434D01*
X128921Y252431D01*
Y247860D01*
X106020D01*
Y227280D01*
X110921D01*
Y221794D01*
X111313Y219827D01*
X112427Y218160D01*
X112751Y217836D01*
Y214760D01*
X107850D01*
Y194180D01*
X112751D01*
Y190480D01*
X111873Y189165D01*
X111481Y187198D01*
Y181740D01*
X106580D01*
Y161160D01*
X111481D01*
Y153564D01*
X111157Y153240D01*
X110538Y152313D01*
X109542Y152215D01*
X97864Y163893D01*
X96197Y165007D01*
X94230Y165399D01*
X69592D01*
X69210Y166322D01*
X76214Y173326D01*
X77328Y174993D01*
X77719Y176960D01*
Y193318D01*
X78202Y194040D01*
X78593Y196007D01*
Y204581D01*
X78202Y206548D01*
X77719Y207270D01*
Y211518D01*
X77328Y213484D01*
X76214Y215152D01*
X72071Y219294D01*
X70404Y220408D01*
X68438Y220799D01*
X56960D01*
Y226200D01*
X25832D01*
X25332Y227066D01*
X25556Y227455D01*
X26162Y229716D01*
Y232056D01*
X25556Y234317D01*
X24386Y236345D01*
X22731Y238000D01*
X20703Y239170D01*
X18442Y239776D01*
X16102D01*
X13841Y239170D01*
X11813Y238000D01*
X10158Y236345D01*
X8988Y234317D01*
X8382Y232056D01*
Y229716D01*
X8988Y227455D01*
X9212Y227066D01*
X8712Y226200D01*
X5139D01*
Y434316D01*
X6063Y434699D01*
X6526Y434235D01*
D02*
G37*
G36*
X470470Y254870D02*
X472621D01*
Y244348D01*
X473012Y242381D01*
X474126Y240714D01*
X478971Y235870D01*
Y227730D01*
X476820D01*
Y223579D01*
X467868D01*
X465901Y223188D01*
X464234Y222074D01*
X458120Y215959D01*
X451790D01*
Y221860D01*
X437210D01*
Y199780D01*
X439361D01*
Y180234D01*
X433957Y174830D01*
X432843Y173162D01*
X432452Y171196D01*
Y147599D01*
X430520D01*
Y129421D01*
X432452D01*
Y95041D01*
X393589Y56178D01*
X367441D01*
X366520Y56370D01*
Y65550D01*
X366520D01*
Y66470D01*
X366520D01*
Y75650D01*
X362882D01*
X362646Y75808D01*
X360680Y76199D01*
X358513D01*
Y86300D01*
X358121Y88266D01*
X357008Y89934D01*
X344328Y102613D01*
X342661Y103727D01*
X340860Y104086D01*
Y105120D01*
X339859D01*
Y126798D01*
X339468Y128764D01*
X338354Y130431D01*
X327211Y141574D01*
Y145490D01*
X344630D01*
Y207570D01*
X329723D01*
X329340Y208494D01*
X350407Y229560D01*
X351402Y229462D01*
X351977Y228602D01*
X372085Y208494D01*
X371702Y207570D01*
X370550D01*
Y145490D01*
X391630D01*
Y180027D01*
X408626D01*
X410593Y180418D01*
X412260Y181532D01*
X420134Y189406D01*
X421248Y191073D01*
X421639Y193040D01*
Y199780D01*
X423790D01*
Y221860D01*
X409210D01*
Y199780D01*
X411361D01*
Y195168D01*
X406497Y190305D01*
X391630D01*
Y207570D01*
X386067D01*
X385838Y208722D01*
X384724Y210390D01*
X360749Y234364D01*
Y245480D01*
X380900D01*
Y250131D01*
X420370D01*
X422337Y250522D01*
X424004Y251636D01*
X431389Y259021D01*
X470470D01*
Y254870D01*
D02*
G37*
G36*
X558741Y155655D02*
Y143620D01*
X556340D01*
Y120540D01*
X558741D01*
Y116428D01*
X555166Y112854D01*
X554052Y111187D01*
X553661Y109220D01*
Y101230D01*
X535491D01*
Y105314D01*
X542513Y112336D01*
X543627Y114003D01*
X544019Y115970D01*
Y120540D01*
X546420D01*
Y143620D01*
X544019D01*
Y168294D01*
X543852Y169130D01*
X544774Y169622D01*
X558741Y155655D01*
D02*
G37*
G36*
X278785Y122843D02*
Y101564D01*
X278006Y100785D01*
X276250Y101255D01*
X273909D01*
X271648Y100649D01*
X270711Y100107D01*
X269844Y100608D01*
Y115208D01*
X277861Y123225D01*
X278785Y122843D01*
D02*
G37*
G36*
X262226Y151509D02*
X263396Y149481D01*
X265051Y147826D01*
X267079Y146656D01*
X269340Y146050D01*
X271680D01*
X273941Y146656D01*
X274879Y147197D01*
X275745Y146697D01*
Y132097D01*
X263213Y119564D01*
X262371Y118304D01*
X262075Y116817D01*
Y88587D01*
X262371Y87101D01*
X263213Y85840D01*
X263410Y85644D01*
X263027Y84720D01*
X250339D01*
Y106583D01*
X253824Y110069D01*
X254938Y111736D01*
X255329Y113702D01*
Y134700D01*
X258230D01*
Y151586D01*
X262205D01*
X262226Y151509D01*
D02*
G37*
G36*
X289501Y159900D02*
Y63834D01*
X288881Y63307D01*
X287898Y63594D01*
X287684Y64391D01*
X286514Y66419D01*
X284859Y68074D01*
X283285Y68983D01*
Y75147D01*
X282989Y76634D01*
X282147Y77894D01*
X277206Y82835D01*
X277465Y83800D01*
X278511Y84081D01*
X280538Y85251D01*
X282194Y86906D01*
X283364Y88933D01*
X283970Y91194D01*
Y93535D01*
X283500Y95291D01*
X285417Y97208D01*
X286259Y98469D01*
X286555Y99955D01*
Y158368D01*
X288501Y160314D01*
X289501Y159900D01*
D02*
G37*
G36*
X235910Y65140D02*
X256561D01*
Y55749D01*
X242290D01*
Y57260D01*
X227210D01*
Y34180D01*
X233698D01*
X234060Y33180D01*
X233016Y31371D01*
X232410Y29110D01*
Y27741D01*
X231410Y27327D01*
X217290Y41447D01*
Y57260D01*
X203101D01*
X202687Y58260D01*
X214219Y69791D01*
X235910D01*
Y65140D01*
D02*
G37*
G36*
X223150Y164553D02*
Y149700D01*
Y134700D01*
X239230D01*
Y144126D01*
X240154Y144509D01*
X242150Y142513D01*
Y134700D01*
X245051D01*
Y115831D01*
X241566Y112346D01*
X240452Y110679D01*
X240061Y108712D01*
Y84720D01*
X235910D01*
Y80069D01*
X212090D01*
X210124Y79678D01*
X208456Y78564D01*
X173132Y43239D01*
X154619D01*
X154434Y43559D01*
X152779Y45214D01*
X150751Y46384D01*
X148490Y46990D01*
X146150D01*
X143889Y46384D01*
X141861Y45214D01*
X140206Y43559D01*
X139036Y41531D01*
X138430Y39270D01*
Y36930D01*
X138528Y36563D01*
X137919Y35770D01*
X134119D01*
Y39997D01*
X134288Y40249D01*
X134679Y42216D01*
Y48130D01*
X139580D01*
Y68710D01*
X134679D01*
Y71532D01*
X137914Y74767D01*
X139028Y76434D01*
X139419Y78400D01*
Y83770D01*
X144320D01*
Y104350D01*
X139419D01*
Y110998D01*
X139028Y112964D01*
X137929Y114609D01*
Y119330D01*
X142830D01*
Y139910D01*
X137929D01*
Y147478D01*
X138254Y147802D01*
X139368Y149469D01*
X139759Y151436D01*
Y161160D01*
X144660D01*
Y166311D01*
X221392D01*
X223150Y164553D01*
D02*
G37*
G36*
X301313Y84232D02*
X303279Y83841D01*
X328481D01*
Y82200D01*
X327802Y81184D01*
X327411Y79217D01*
Y76614D01*
X323264Y72468D01*
X322150Y70800D01*
X321759Y68834D01*
Y54342D01*
X322150Y52375D01*
X323264Y50708D01*
X325193Y48780D01*
X312032Y35619D01*
X296070D01*
Y39193D01*
X296314Y39421D01*
X297031Y39744D01*
X298829Y38706D01*
X301090Y38100D01*
X303430D01*
X305691Y38706D01*
X307719Y39876D01*
X309374Y41531D01*
X310544Y43559D01*
X311150Y45820D01*
Y48160D01*
X310544Y50421D01*
X309374Y52449D01*
X307719Y54104D01*
X305691Y55274D01*
X303430Y55880D01*
X301090D01*
X298829Y55274D01*
X296801Y54104D01*
X295146Y52449D01*
X294237Y50875D01*
X292526D01*
X292143Y51799D01*
X298274Y57929D01*
X299388Y59596D01*
X299779Y61563D01*
Y84197D01*
X300661Y84668D01*
X301313Y84232D01*
D02*
G37*
G36*
X44391Y48768D02*
X44782Y46802D01*
X45896Y45134D01*
X46931Y44099D01*
Y34420D01*
X39209D01*
Y46228D01*
X38818Y48194D01*
X37704Y49862D01*
X36669Y50897D01*
Y60830D01*
X44391D01*
Y48768D01*
D02*
G37*
G36*
X106389Y140834D02*
X106007Y139910D01*
X104750D01*
Y119330D01*
X109651D01*
Y112488D01*
X110043Y110521D01*
X111142Y108877D01*
Y104350D01*
X106240D01*
Y83770D01*
X111142D01*
Y80529D01*
X107906Y77294D01*
X106792Y75627D01*
X106401Y73660D01*
Y68710D01*
X101500D01*
Y48130D01*
X106401D01*
Y43875D01*
X106233Y43622D01*
X105842Y41656D01*
Y35770D01*
X100940D01*
Y33079D01*
X94929D01*
X94744Y33399D01*
X93089Y35054D01*
X91061Y36224D01*
X88800Y36830D01*
X86460D01*
X84199Y36224D01*
X82171Y35054D01*
X80516Y33399D01*
X79346Y31371D01*
X78740Y29110D01*
Y26770D01*
X79346Y24509D01*
X80516Y22481D01*
X82171Y20826D01*
X84199Y19656D01*
X86460Y19050D01*
X88800D01*
X91061Y19656D01*
X93089Y20826D01*
X94744Y22481D01*
X94929Y22801D01*
X100940D01*
Y15807D01*
X83408D01*
X71452Y27764D01*
X69784Y28878D01*
X67818Y29269D01*
X62110D01*
Y34420D01*
X57209D01*
Y46228D01*
X56818Y48194D01*
X55704Y49862D01*
X54669Y50897D01*
Y60830D01*
X59570D01*
Y81410D01*
X36669D01*
Y114554D01*
X36278Y116521D01*
X35164Y118188D01*
X34558Y118793D01*
Y149720D01*
X56960D01*
Y155121D01*
X92102D01*
X106389Y140834D01*
D02*
G37*
G36*
X24281Y116664D02*
X24672Y114698D01*
X25786Y113031D01*
X26391Y112425D01*
Y81410D01*
X21490D01*
Y60830D01*
X26391D01*
Y48768D01*
X26783Y46802D01*
X27896Y45134D01*
X28931Y44099D01*
Y34420D01*
X24030D01*
Y13840D01*
X62110D01*
Y18991D01*
X65690D01*
X77646Y7034D01*
X78987Y6139D01*
X78683Y5139D01*
X5139D01*
Y149720D01*
X24281D01*
Y116664D01*
D02*
G37*
%LPC*%
G36*
X609799Y970860D02*
X591621D01*
Y956719D01*
X594936D01*
Y953526D01*
X594810Y953454D01*
X593406Y952050D01*
X592414Y950330D01*
X591900Y948413D01*
Y946427D01*
X592414Y944510D01*
X593406Y942790D01*
X594810Y941386D01*
X596530Y940394D01*
X598447Y939880D01*
X600433D01*
X602350Y940394D01*
X604070Y941386D01*
X605474Y942790D01*
X606466Y944510D01*
X606980Y946427D01*
Y948413D01*
X606466Y950330D01*
X605474Y952050D01*
X605214Y952309D01*
Y956719D01*
X609799D01*
Y970860D01*
D02*
G37*
G36*
X346620Y897270D02*
X331540D01*
Y888224D01*
X331475Y887730D01*
Y870550D01*
X319430Y858505D01*
X314488D01*
X313311Y859184D01*
X311050Y859790D01*
X308710D01*
X306449Y859184D01*
X304421Y858014D01*
X302766Y856359D01*
X301596Y854331D01*
X300990Y852070D01*
Y849730D01*
X301596Y847469D01*
X302766Y845441D01*
X304421Y843786D01*
X306449Y842616D01*
X308710Y842010D01*
X311050D01*
X313311Y842616D01*
X314488Y843295D01*
X322580D01*
X324548Y843554D01*
X326382Y844314D01*
X327958Y845522D01*
X344457Y862022D01*
X345666Y863597D01*
X345981Y864357D01*
X346426Y865432D01*
X346685Y867400D01*
Y887730D01*
X346620Y888224D01*
Y897270D01*
D02*
G37*
G36*
X203399Y839061D02*
X185221D01*
Y824920D01*
X203399D01*
Y825789D01*
X204323Y826172D01*
X205973Y824522D01*
X205820Y823953D01*
Y821967D01*
X206334Y820050D01*
X207327Y818330D01*
X208730Y816926D01*
X210450Y815934D01*
X212367Y815420D01*
X214353D01*
X216270Y815934D01*
X217990Y816926D01*
X219394Y818330D01*
X220386Y820050D01*
X220900Y821967D01*
Y823953D01*
X220386Y825870D01*
X219394Y827590D01*
X217990Y828994D01*
X216270Y829986D01*
X214353Y830500D01*
X212367D01*
X211798Y830347D01*
X207383Y834763D01*
X206046Y835656D01*
X204470Y835969D01*
X203399D01*
Y839061D01*
D02*
G37*
G36*
X56801Y998060D02*
X53499D01*
X50310Y997205D01*
X47450Y995555D01*
X45115Y993220D01*
X43465Y990360D01*
X42610Y987171D01*
Y983869D01*
X43465Y980680D01*
X45115Y977820D01*
X47450Y975486D01*
X50310Y973835D01*
X53499Y972980D01*
X56801D01*
X59990Y973835D01*
X62690Y975393D01*
X105775D01*
X124450Y956719D01*
Y933960D01*
X146730D01*
Y971040D01*
X138771D01*
X117130Y992681D01*
X115033Y994290D01*
X112591Y995302D01*
X109970Y995647D01*
X109970Y995647D01*
X62690D01*
X59990Y997205D01*
X56801Y998060D01*
D02*
G37*
G36*
X904338Y948920D02*
X901602D01*
X898960Y948212D01*
X896590Y946844D01*
X894656Y944910D01*
X893288Y942540D01*
X892580Y939898D01*
Y937162D01*
X893288Y934520D01*
X894656Y932150D01*
X896590Y930216D01*
X897831Y929500D01*
Y927260D01*
X896590Y926544D01*
X894656Y924609D01*
X893288Y922240D01*
X892580Y919598D01*
Y916862D01*
X893288Y914219D01*
X894232Y912584D01*
X894229Y912552D01*
X893634Y911620D01*
X890419D01*
X886789Y910898D01*
X883370Y909481D01*
X880292Y907425D01*
X877675Y904808D01*
X875619Y901730D01*
X874202Y898311D01*
X873480Y894680D01*
Y890979D01*
X874202Y887349D01*
X875619Y883929D01*
X877675Y880852D01*
X880292Y878235D01*
X883370Y876178D01*
X886789Y874762D01*
X890419Y874040D01*
X894121D01*
X897751Y874762D01*
X901170Y876178D01*
X904248Y878235D01*
X906865Y880852D01*
X907464Y881749D01*
X908421Y881458D01*
Y876575D01*
X908306Y876552D01*
X905614Y875437D01*
X903192Y873818D01*
X901132Y871758D01*
X899513Y869336D01*
X898398Y866644D01*
X897830Y863787D01*
Y860873D01*
X898398Y858016D01*
X899513Y855324D01*
X901132Y852902D01*
X903192Y850842D01*
X905614Y849223D01*
X908306Y848108D01*
X911163Y847540D01*
X914077D01*
X916934Y848108D01*
X919626Y849223D01*
X922048Y850842D01*
X924108Y852902D01*
X925727Y855324D01*
X926842Y858016D01*
X927410Y860873D01*
Y863787D01*
X926842Y866644D01*
X925727Y869336D01*
X924108Y871758D01*
X922048Y873818D01*
X919626Y875437D01*
X918699Y875821D01*
Y907112D01*
X918308Y909078D01*
X917194Y910745D01*
X912878Y915061D01*
X913360Y916862D01*
Y919598D01*
X912652Y922240D01*
X911284Y924609D01*
X909350Y926544D01*
X908109Y927260D01*
Y929500D01*
X909350Y930216D01*
X911284Y932150D01*
X912652Y934520D01*
X913360Y937162D01*
Y939898D01*
X912652Y942540D01*
X911284Y944910D01*
X909350Y946844D01*
X906980Y948212D01*
X904338Y948920D01*
D02*
G37*
G36*
X880826Y838870D02*
X878314D01*
X875888Y838220D01*
X873712Y836964D01*
X871936Y835188D01*
X870680Y833012D01*
X870030Y830586D01*
Y828074D01*
X870680Y825648D01*
X871936Y823472D01*
X873712Y821696D01*
X875888Y820440D01*
X878314Y819790D01*
X880826D01*
X883252Y820440D01*
X885428Y821696D01*
X887204Y823472D01*
X888460Y825648D01*
X889110Y828074D01*
Y830586D01*
X888460Y833012D01*
X887204Y835188D01*
X885428Y836964D01*
X883252Y838220D01*
X880826Y838870D01*
D02*
G37*
G36*
X855426D02*
X852914D01*
X850488Y838220D01*
X848312Y836964D01*
X846536Y835188D01*
X845280Y833012D01*
X844630Y830586D01*
Y828074D01*
X845280Y825648D01*
X846536Y823472D01*
X848312Y821696D01*
X850488Y820440D01*
X852914Y819790D01*
X855426D01*
X857852Y820440D01*
X860028Y821696D01*
X861804Y823472D01*
X863060Y825648D01*
X863710Y828074D01*
Y830586D01*
X863060Y833012D01*
X861804Y835188D01*
X860028Y836964D01*
X857852Y838220D01*
X855426Y838870D01*
D02*
G37*
G36*
X893526Y813470D02*
X891014D01*
X888588Y812820D01*
X886412Y811564D01*
X884636Y809788D01*
X883380Y807612D01*
X882730Y805186D01*
Y802674D01*
X883380Y800247D01*
X884636Y798072D01*
X886412Y796296D01*
X888588Y795040D01*
X891014Y794390D01*
X893526D01*
X895952Y795040D01*
X898128Y796296D01*
X899904Y798072D01*
X901160Y800247D01*
X901810Y802674D01*
Y805186D01*
X901160Y807612D01*
X899904Y809788D01*
X898128Y811564D01*
X895952Y812820D01*
X893526Y813470D01*
D02*
G37*
G36*
X868126D02*
X865614D01*
X863188Y812820D01*
X861012Y811564D01*
X859236Y809788D01*
X857980Y807612D01*
X857330Y805186D01*
Y802674D01*
X857980Y800247D01*
X859236Y798072D01*
X861012Y796296D01*
X863188Y795040D01*
X865614Y794390D01*
X868126D01*
X870552Y795040D01*
X872728Y796296D01*
X874504Y798072D01*
X875760Y800247D01*
X876410Y802674D01*
Y805186D01*
X875760Y807612D01*
X874504Y809788D01*
X872728Y811564D01*
X870552Y812820D01*
X868126Y813470D01*
D02*
G37*
G36*
X843003Y601900D02*
X841017D01*
X839100Y601386D01*
X837380Y600393D01*
X835976Y598990D01*
X834984Y597270D01*
X834470Y595353D01*
Y593367D01*
X834984Y591450D01*
X835976Y589730D01*
X837380Y588326D01*
X839100Y587334D01*
X841017Y586820D01*
X843003D01*
X843003Y586820D01*
X848897Y580927D01*
X848897Y580927D01*
X850399Y579923D01*
X852170Y579571D01*
X865750D01*
Y574660D01*
X880330D01*
Y593740D01*
X865750D01*
Y588829D01*
X854087D01*
X849550Y593367D01*
X849550Y593367D01*
Y595353D01*
X849036Y597270D01*
X848044Y598990D01*
X846640Y600393D01*
X844920Y601386D01*
X843003Y601900D01*
D02*
G37*
G36*
X844450Y538480D02*
X842110D01*
X839849Y537874D01*
X837821Y536704D01*
X836166Y535049D01*
X834996Y533021D01*
X834390Y530760D01*
Y528420D01*
X834996Y526159D01*
X836166Y524131D01*
X837821Y522476D01*
X839849Y521306D01*
X842110Y520700D01*
X844450D01*
X845596Y521007D01*
X846997Y519606D01*
X848664Y518492D01*
X850630Y518101D01*
X855590D01*
Y513700D01*
X870170D01*
Y532780D01*
X855590D01*
Y528379D01*
X852759D01*
X852170Y528967D01*
Y530760D01*
X851564Y533021D01*
X850394Y535049D01*
X848739Y536704D01*
X846711Y537874D01*
X844450Y538480D01*
D02*
G37*
G36*
X898830Y593740D02*
X884250D01*
Y574660D01*
X886401D01*
Y560928D01*
X877746Y552274D01*
X876632Y550606D01*
X876241Y548640D01*
Y532780D01*
X874090D01*
Y513700D01*
X876241D01*
Y478378D01*
X838457Y440594D01*
X838100Y440690D01*
X835760D01*
X833499Y440084D01*
X831471Y438914D01*
X829816Y437259D01*
X828646Y435231D01*
X828040Y432970D01*
Y430630D01*
X828646Y428369D01*
X829816Y426341D01*
X831471Y424686D01*
X833499Y423516D01*
X835760Y422910D01*
X838100D01*
X840361Y423516D01*
X842389Y424686D01*
X844044Y426341D01*
X845214Y428369D01*
X845820Y430630D01*
Y432970D01*
X845724Y433327D01*
X885014Y472616D01*
X886128Y474283D01*
X886519Y476250D01*
Y513700D01*
X888670D01*
Y532780D01*
X886519D01*
Y546511D01*
X895174Y555166D01*
X896288Y556833D01*
X896679Y558800D01*
Y574660D01*
X898830D01*
Y593740D01*
D02*
G37*
G36*
X643613Y528130D02*
X641627D01*
X639710Y527616D01*
X637990Y526623D01*
X636586Y525220D01*
X635594Y523500D01*
X635080Y521583D01*
Y520775D01*
X527164D01*
X526734Y521520D01*
X525330Y522924D01*
X523610Y523916D01*
X521693Y524430D01*
X519707D01*
X517790Y523916D01*
X516070Y522924D01*
X514666Y521520D01*
X513674Y519800D01*
X513160Y517883D01*
Y515897D01*
X513674Y513980D01*
X514666Y512260D01*
X516070Y510857D01*
X517790Y509864D01*
X519707Y509350D01*
X521693D01*
X523610Y509864D01*
X525330Y510857D01*
X526734Y512260D01*
X527164Y513005D01*
X636901D01*
X638388Y513301D01*
X639212Y513851D01*
X639710Y513564D01*
X641627Y513050D01*
X643613D01*
X645530Y513564D01*
X647250Y514557D01*
X648653Y515960D01*
X649646Y517680D01*
X650160Y519597D01*
Y521583D01*
X649646Y523500D01*
X648653Y525220D01*
X647250Y526623D01*
X645530Y527616D01*
X643613Y528130D01*
D02*
G37*
G36*
X42109Y527489D02*
X23931D01*
Y513348D01*
X42109D01*
Y515280D01*
X45397D01*
X54805Y505872D01*
Y463806D01*
X55196Y461839D01*
X56310Y460172D01*
X67486Y448996D01*
X69153Y447882D01*
X71120Y447491D01*
X76370D01*
Y444090D01*
X101450D01*
Y461170D01*
X76370D01*
Y457769D01*
X73249D01*
X65083Y465935D01*
Y508000D01*
X64692Y509967D01*
X63578Y511634D01*
X51159Y524052D01*
X49492Y525166D01*
X47525Y525557D01*
X42109D01*
Y527489D01*
D02*
G37*
G36*
X261450Y441170D02*
X236370D01*
Y437699D01*
X234634D01*
X234634Y437700D01*
X233230Y439104D01*
X231510Y440096D01*
X229593Y440610D01*
X227607D01*
X225690Y440096D01*
X223970Y439104D01*
X222567Y437700D01*
X221574Y435980D01*
X221060Y434063D01*
Y432077D01*
X221574Y430160D01*
X222567Y428440D01*
X223970Y427037D01*
X225690Y426044D01*
X227607Y425530D01*
X229593D01*
X231510Y426044D01*
X233230Y427037D01*
X234634Y428440D01*
X234634Y428441D01*
X236370D01*
Y424090D01*
X261450D01*
Y441170D01*
D02*
G37*
G36*
X101450D02*
X76370D01*
Y424090D01*
X101450D01*
Y441170D01*
D02*
G37*
G36*
Y401170D02*
X76370D01*
Y384090D01*
X101450D01*
Y401170D01*
D02*
G37*
G36*
Y381170D02*
X76370D01*
Y364090D01*
X101450D01*
Y381170D01*
D02*
G37*
G36*
Y361170D02*
X76370D01*
Y344090D01*
X101450D01*
Y361170D01*
D02*
G37*
G36*
Y341170D02*
X76370D01*
Y324090D01*
X101450D01*
Y341170D01*
D02*
G37*
G36*
X227450Y310370D02*
X210370D01*
Y285290D01*
X227450D01*
Y310370D01*
D02*
G37*
G36*
X207450D02*
X190370D01*
Y285290D01*
X207450D01*
Y310370D01*
D02*
G37*
G36*
X187450D02*
X170370D01*
Y285290D01*
X187450D01*
Y310370D01*
D02*
G37*
G36*
X167450D02*
X150370D01*
Y285290D01*
X167450D01*
Y310370D01*
D02*
G37*
G36*
X147450D02*
X130370D01*
Y285290D01*
X147450D01*
Y310370D01*
D02*
G37*
G36*
X429138Y147599D02*
X414998D01*
Y141595D01*
X410386Y136984D01*
X409272Y135316D01*
X408881Y133350D01*
Y118554D01*
X407986Y117660D01*
X406994Y115940D01*
X406480Y114023D01*
Y112037D01*
X406994Y110120D01*
X407986Y108400D01*
X409390Y106996D01*
X411110Y106004D01*
X413027Y105490D01*
X415013D01*
X416930Y106004D01*
X418650Y106996D01*
X420053Y108400D01*
X421046Y110120D01*
X421560Y112037D01*
Y114023D01*
X421046Y115940D01*
X420053Y117660D01*
X419159Y118554D01*
Y129421D01*
X429138D01*
Y147599D01*
D02*
G37*
%LPD*%
D11*
X278010Y223640D02*
X291465Y210185D01*
X194532Y213617D02*
Y214482D01*
Y213617D02*
X199716Y208433D01*
X201961D02*
X203200Y207194D01*
X199716Y208433D02*
X201961D01*
X269329Y227600D02*
X275767D01*
X267709Y225980D02*
X269329Y227600D01*
X275767D02*
X278010Y225357D01*
X262410Y225980D02*
X267709D01*
X278010Y223640D02*
Y225357D01*
X538130Y236500D02*
X562585D01*
X570640Y228445D01*
Y218595D02*
Y228445D01*
X563130Y196500D02*
Y211085D01*
X570640Y218595D01*
X252410Y210980D02*
X257410D01*
X247410Y205980D02*
Y210980D01*
X242410D02*
X247410D01*
Y200980D02*
Y205980D01*
X271780Y184150D02*
X275590Y180340D01*
X257468Y191213D02*
X258530Y190150D01*
X259753D01*
X265753Y184150D01*
X271780D01*
X257410Y200980D02*
X257468Y200923D01*
Y191213D02*
Y200923D01*
X203200Y190500D02*
Y207194D01*
D13*
X262410Y200980D02*
X266540Y196850D01*
X272467D02*
X286480Y182837D01*
X266540Y196850D02*
X272467D01*
X254538Y203308D02*
X256866Y200980D01*
X253490Y204356D02*
X254538Y203308D01*
X688770Y608328D02*
X695958Y601140D01*
X254750Y589660D02*
X284480D01*
X254000D02*
X254750D01*
X158750Y730250D02*
X184150D01*
X162045Y586055D02*
X201163D01*
X52348Y699890D02*
X79130D01*
X717451Y699289D02*
X724955Y699555D01*
X656300Y694960D02*
X656530Y690230D01*
X724955Y699555D02*
X725698Y700298D01*
X698533Y702730D02*
X699842Y702620D01*
X710699Y699555D02*
X712713Y699289D01*
X707629Y701893D02*
X709224Y700298D01*
X709442Y700080D01*
X686489Y703474D02*
X687233Y702730D01*
X686272Y703691D02*
X686489Y703474D01*
X687233Y702730D02*
X698533Y702730D01*
X709442Y700080D02*
X710699Y699555D01*
X656300Y694960D02*
Y706867D01*
X699842Y702620D02*
X706902D01*
X712713Y699289D02*
X717451D01*
X725698Y700298D02*
X731210Y705810D01*
X652978Y710189D02*
X655556Y707611D01*
X656530Y690230D02*
X659130Y676910D01*
X706902Y702620D02*
X707629Y701893D01*
X655556Y707611D02*
X656300Y706867D01*
X507457Y642506D02*
X514645Y635318D01*
X491674Y614590D02*
X494151Y612112D01*
X505574Y642506D02*
X507457D01*
X491180Y614590D02*
X491674D01*
X494315Y653765D02*
X505574Y642506D01*
X494151Y612112D02*
X510568D01*
X514645Y633436D02*
X525900Y622180D01*
X510568Y612112D02*
X542290Y580390D01*
X488700Y617070D02*
X491180Y614590D01*
X514645Y633436D02*
Y635318D01*
X483450Y617070D02*
X488700D01*
X265306Y230370D02*
X280312D01*
X283621Y233680D02*
X285640D01*
X257410Y230980D02*
X264696D01*
X280312Y230370D02*
X283621Y233680D01*
X264696Y230980D02*
X265306Y230370D01*
X257810Y645301D02*
X259829D01*
X466370Y862050D02*
X479570D01*
X466090Y862330D02*
X466370Y862050D01*
X479570D02*
X479850Y861770D01*
X737870Y553720D02*
X738505Y553085D01*
Y516255D02*
Y553085D01*
Y516255D02*
X739140Y515620D01*
X640601Y520590D02*
X642620D01*
X636901Y516890D02*
X640601Y520590D01*
X520700Y516890D02*
X636901D01*
X494315Y669290D02*
X495300D01*
X525900Y617100D02*
X527050Y615950D01*
X525900Y617100D02*
Y622180D01*
X481330Y669290D02*
X494315D01*
Y653765D02*
Y668305D01*
X507210Y562460D02*
X507510Y562760D01*
X536261D01*
X536561Y562460D02*
X558800D01*
X536261Y562760D02*
X536561Y562460D01*
X555897Y188730D02*
X565363D01*
X554860Y206732D02*
X567870Y219742D01*
X554860Y189767D02*
Y206732D01*
Y189767D02*
X555897Y188730D01*
X483870Y584200D02*
X489070D01*
X497840Y575430D01*
Y575310D02*
Y575430D01*
X494315Y668305D02*
X495300Y669290D01*
X654050Y281940D02*
X668020D01*
X671830Y314960D02*
Y316230D01*
X651510Y336550D02*
X671830Y316230D01*
X651510Y336550D02*
Y337820D01*
X632900Y297620D02*
Y311270D01*
X632460Y297180D02*
X632900Y297620D01*
X623401Y295250D02*
X629242Y289410D01*
X641039Y294770D02*
X659863D01*
X632900Y311270D02*
X633130Y311500D01*
X629242Y289410D02*
X635678D01*
X641039Y294770D01*
X657860Y286730D02*
X659360Y288230D01*
X659863D01*
X660900Y289267D01*
X653360Y286730D02*
X657860D01*
X574377Y295250D02*
X623401D01*
X659863Y294770D02*
X660900Y293733D01*
X653130Y286500D02*
X653360Y286730D01*
X558800Y567460D02*
X583096D01*
X584480Y566076D01*
X648644Y735004D02*
X649506D01*
X650554Y733957D02*
X668953D01*
X649506Y735004D02*
X650554Y733957D01*
X118200Y787520D02*
Y803820D01*
X115570Y806450D02*
X118200Y803820D01*
X476885Y694055D02*
X477520Y694690D01*
X465455Y694055D02*
X476885D01*
X464820Y693420D02*
X465455Y694055D01*
X146900Y748030D02*
X157480D01*
X146880Y748010D02*
X146900Y748030D01*
X146880Y747640D02*
Y748010D01*
X143510Y725170D02*
X158750D01*
X467360Y612140D02*
X468145Y611355D01*
X482665D01*
X483450Y610570D01*
X139189Y718502D02*
X140292Y717400D01*
X147831Y718502D02*
X149558D01*
X131887D02*
X139189D01*
X146728Y717400D02*
X147831Y718502D01*
X140292Y717400D02*
X146728D01*
X159640Y646810D02*
Y654730D01*
Y646810D02*
X176811Y629639D01*
X158750Y655620D02*
X159640Y654730D01*
X149920Y645100D02*
X167640Y627380D01*
X176811Y629639D02*
X191770D01*
X146775Y633730D02*
X157166Y623338D01*
X160693D02*
X164422Y619610D01*
X170858D02*
X174587Y623338D01*
X164422Y619610D02*
X170858D01*
X157166Y623338D02*
X160693D01*
X149920Y645100D02*
Y674871D01*
X174587Y623338D02*
X199052D01*
X205493Y629779D01*
X339090Y660400D02*
X346710Y652780D01*
X142240Y751840D02*
Y755650D01*
X151130Y764540D01*
X464820Y775970D02*
X465735Y775055D01*
X478935D01*
X479850Y774140D01*
X358870Y646970D02*
X363220Y642620D01*
X358870Y646970D02*
Y653841D01*
X354330Y658381D02*
X358870Y653841D01*
X354330Y658381D02*
Y660400D01*
X141491Y708660D02*
X143510D01*
X139546Y706715D02*
X141491Y708660D01*
X102446Y706715D02*
X139546D01*
X94271Y714890D02*
X102446Y706715D01*
X79130Y714890D02*
X94271D01*
X91440Y694690D02*
Y699770D01*
X86320Y704890D02*
X91440Y699770D01*
X79130Y704890D02*
X86320D01*
X91440Y694690D02*
X105560Y680570D01*
X144221D01*
X79130Y709890D02*
X87670D01*
X109220Y688340D02*
X139700D01*
X87670Y709890D02*
X109220Y688340D01*
X346710Y636270D02*
Y652780D01*
X256540Y628650D02*
Y629030D01*
X242570Y643000D02*
Y660400D01*
X144221Y680570D02*
X149920Y674871D01*
X107888Y714485D02*
X127869D01*
X116880Y747640D02*
X116900Y747620D01*
Y728100D02*
X118110Y726890D01*
X116900Y728100D02*
Y747620D01*
X285142Y628650D02*
X285750D01*
X277017Y620525D02*
X285142Y628650D01*
X277017Y617377D02*
Y620525D01*
X275590Y615950D02*
X277017Y617377D01*
X137160Y749300D02*
Y770890D01*
X184150Y730250D02*
X185420Y731520D01*
X242570Y643000D02*
X256540Y629030D01*
X266129Y601039D02*
Y639000D01*
X254750Y589660D02*
X266129Y601039D01*
X259829Y645301D02*
X266129Y639000D01*
X127869Y714485D02*
X131887Y718502D01*
X149558D02*
X153150Y714910D01*
X111880Y747640D02*
Y762628D01*
X266918Y823620D02*
X267553Y824255D01*
X238760Y823620D02*
X266918D01*
X267553Y824255D02*
X277495D01*
X278130Y824890D01*
X120129Y626110D02*
X123190D01*
X115049Y621030D02*
X120129Y626110D01*
X113030Y621030D02*
X115049D01*
X102870Y633730D02*
X146775D01*
X129380Y653304D02*
X130807Y654732D01*
X135932D01*
X141880Y660680D01*
Y667140D01*
X256866Y200980D02*
X257410D01*
X247410D02*
X256866D01*
X123190Y626110D02*
X125730Y628650D01*
X127000D01*
X116840Y657339D02*
Y660400D01*
X113030Y653529D02*
X116840Y657339D01*
X113030Y651510D02*
Y653529D01*
X205493Y629779D02*
X226060D01*
X106088Y641500D02*
X107508Y640080D01*
X132952D01*
X99652Y641500D02*
X106088D01*
X98232Y640080D02*
X99652Y641500D01*
X59690Y640080D02*
X98232D01*
X207010Y731520D02*
Y733436D01*
X197693Y742753D02*
X207010Y733436D01*
X191003Y742753D02*
X197693D01*
X180207Y753550D02*
X191003Y742753D01*
X178920Y754587D02*
Y768053D01*
Y754587D02*
X179957Y753550D01*
X180207D01*
X178920Y768053D02*
X181960Y771093D01*
Y777590D01*
X186690Y782320D01*
X685800Y742950D02*
X692190Y736560D01*
X707185D01*
X733020Y776200D02*
X754380Y797560D01*
X733020Y769850D02*
Y776200D01*
X723940Y760770D02*
X733020Y769850D01*
X734671Y756351D02*
X780204Y801884D01*
X736060Y763397D02*
X777970Y805307D01*
X780204Y801884D02*
X788624D01*
X777970Y805307D02*
Y829330D01*
X788624Y801884D02*
X790670Y803930D01*
X671451Y714216D02*
Y714433D01*
Y714216D02*
X678935Y706731D01*
X696769D01*
X670010Y732900D02*
X670557D01*
X668953Y733957D02*
X670010Y732900D01*
X657530Y721917D02*
X663966D01*
X652978Y710189D02*
Y717365D01*
X657530Y721917D01*
X663966D02*
X671451Y714433D01*
X725964Y598506D02*
X746620Y577850D01*
X748030D01*
X725964Y598506D02*
Y610299D01*
X719803Y616460D02*
X725964Y610299D01*
X719300Y616460D02*
X719803D01*
X718300Y617460D02*
X719300Y616460D01*
X713800Y617460D02*
X718300D01*
X714030Y632690D02*
X725400D01*
X732790Y640080D01*
X713800Y632460D02*
X714030Y632690D01*
X742194Y711714D02*
X744220Y713740D01*
X742194Y707415D02*
Y711714D01*
X729053Y694274D02*
X742194Y707415D01*
X729053Y693518D02*
Y694274D01*
X724007Y688471D02*
X729053Y693518D01*
X724007Y685722D02*
Y688471D01*
X697432Y647460D02*
X713800D01*
X693570Y643598D02*
X697432Y647460D01*
X693570Y643212D02*
Y643598D01*
X689018Y638660D02*
X693570Y643212D01*
X686460Y636489D02*
X688632Y638660D01*
X688770Y608328D02*
Y611498D01*
X688632Y638660D02*
X689018D01*
X686460Y635332D02*
Y636489D01*
X681673Y619262D02*
Y630545D01*
X686460Y635332D01*
X682340Y617929D02*
Y618595D01*
Y617929D02*
X688770Y611498D01*
X681673Y619262D02*
X682340Y618595D01*
X709300Y602460D02*
X713800D01*
X707570Y600730D02*
X709300Y602460D01*
X707067Y600730D02*
X707570D01*
X698860Y601140D02*
X699770Y600230D01*
X706030Y599693D02*
Y600730D01*
X695958Y601140D02*
X698860D01*
X699770Y593433D02*
Y600230D01*
Y593433D02*
X706030Y599693D01*
X691300Y584963D02*
X699770Y593433D01*
X691300Y539960D02*
Y584963D01*
X660900Y289267D02*
Y293733D01*
X626120Y142240D02*
X628130Y144250D01*
Y178747D02*
Y196500D01*
X625880Y168942D02*
Y176498D01*
X628130Y178747D01*
Y144250D02*
Y166693D01*
X625880Y168942D02*
X628130Y166693D01*
X563360Y306267D02*
Y311270D01*
X563130Y311500D02*
X563360Y311270D01*
Y306267D02*
X574377Y295250D01*
X295540Y589660D02*
X300201Y584999D01*
X255791Y645301D02*
X257810D01*
X305322Y578890D02*
X308460D01*
X313690Y573660D01*
X300201Y584011D02*
X305322Y578890D01*
X342900Y574160D02*
X374650D01*
X342400Y573660D02*
X342900Y574160D01*
X313690Y573660D02*
X342400D01*
X284480Y589660D02*
X295540D01*
X253620Y589280D02*
X254000Y589660D01*
X300201Y584011D02*
Y584999D01*
X223520Y589280D02*
X253620D01*
X238760Y895491D02*
Y937230D01*
X235760Y823620D02*
X238760D01*
Y792480D02*
Y823620D01*
X215015Y802875D02*
X235760Y823620D01*
X215015Y800835D02*
Y802875D01*
X232410Y786130D02*
X238760Y792480D01*
X196500Y782320D02*
X215015Y800835D01*
X186690Y782320D02*
X196500D01*
X154940Y590910D02*
Y618490D01*
X137160D02*
X154940D01*
X204388Y589280D02*
X223520D01*
X201163Y586055D02*
X204388Y589280D01*
X157190Y590910D02*
X162045Y586055D01*
X154940Y590910D02*
X157190D01*
X57150Y760730D02*
X95392D01*
X96880Y747640D02*
Y759242D01*
X95392Y760730D02*
X96880Y759242D01*
X127000Y628650D02*
X137160Y618490D01*
X52348Y699890D02*
X57150Y699770D01*
X253490Y204356D02*
Y204900D01*
X252410Y205980D02*
X253490Y204900D01*
X252410Y205980D02*
Y210980D01*
X714887Y689499D02*
X721238Y695851D01*
X726331D02*
X738940Y708460D01*
X706030Y679693D02*
X708218Y681881D01*
X714887Y687099D02*
Y689499D01*
X708218Y681881D02*
X709669D01*
X714887Y687099D01*
X738940Y708460D02*
Y714805D01*
X721238Y695851D02*
X726331D01*
X706030Y675227D02*
Y679693D01*
X707067Y674190D02*
X707570D01*
X713570Y672690D02*
X713800Y672460D01*
X707570Y674190D02*
X709070Y672690D01*
X713570D01*
X706030Y675227D02*
X707067Y674190D01*
X745695Y726560D02*
X755321D01*
X760521Y721360D02*
X763270D01*
X755321Y726560D02*
X760521Y721360D01*
X771123Y709951D02*
X774911Y713740D01*
X786130D01*
X741436Y680861D02*
X752279Y691704D01*
X752876D01*
X733497Y680861D02*
X741436D01*
X721825Y669190D02*
X733497Y680861D01*
X713800Y667460D02*
X718300D01*
X720030Y669190D01*
X721825D01*
X763144Y694764D02*
X771123Y702742D01*
Y709951D01*
X752876Y691704D02*
X755935Y694764D01*
X763144D01*
X777240Y607581D02*
Y609600D01*
X775350Y605691D02*
X777240Y607581D01*
X770890Y593090D02*
X775350Y597550D01*
Y605691D01*
X701040Y613410D02*
X701760Y612690D01*
X713570D01*
X713800Y612460D01*
X675028Y703691D02*
X686272D01*
X671300Y694960D02*
X671530Y695190D01*
Y700194D02*
X675028Y703691D01*
X671530Y695190D02*
Y700194D01*
X731210Y705810D02*
Y709113D01*
X733867Y711769D01*
X586740Y684780D02*
Y692150D01*
Y684780D02*
X588135Y683385D01*
X720299Y762000D02*
Y772599D01*
X721360Y773660D01*
X670557Y732900D02*
X671897Y731560D01*
X707185D01*
X728940Y711843D02*
Y714805D01*
X694810Y726560D02*
X707185D01*
X694690Y726440D02*
X694810Y726560D01*
X718940Y753315D02*
X719014Y753389D01*
Y760714D02*
X720299Y762000D01*
X723940Y753315D02*
Y760770D01*
X719014Y753389D02*
Y760714D01*
X729014Y756351D02*
X729097D01*
X736060Y763313D01*
X803370Y811813D02*
X804940Y810242D01*
X736060Y763313D02*
Y763397D01*
X803370Y811813D02*
Y829330D01*
X804940Y790578D02*
Y810242D01*
X728940Y753315D02*
Y756277D01*
X729014Y756351D01*
X733940Y756277D02*
X734014Y756351D01*
X733940Y753315D02*
Y756277D01*
X734014Y756351D02*
X734671D01*
X816070Y803930D02*
X816340Y803660D01*
Y778780D02*
Y803660D01*
Y778780D02*
X816610Y778510D01*
X798830Y782320D02*
Y784468D01*
X804940Y790578D01*
X562528Y232640D02*
X567870Y227298D01*
Y219742D02*
Y227298D01*
X538130Y276500D02*
X538360Y276270D01*
X547651D01*
X554681Y269240D01*
X554990D01*
X538130Y231500D02*
X552124D01*
X553264Y232640D02*
X562528D01*
X552124Y231500D02*
X553264Y232640D01*
X568130Y185189D02*
Y192000D01*
X565363Y188730D02*
X566400Y189767D01*
Y190270D01*
X568130Y192000D01*
Y185189D02*
X572770Y180549D01*
Y177800D02*
Y180549D01*
X635000Y172720D02*
Y183772D01*
X633130Y185642D02*
X635000Y183772D01*
X633130Y185642D02*
Y192000D01*
X262448Y178426D02*
X265244Y175630D01*
X271397Y169477D02*
X279630Y161244D01*
X271397Y169477D02*
Y170287D01*
X266055Y175630D02*
X271397Y170287D01*
X256938Y178426D02*
X262448D01*
X265244Y175630D02*
X266055D01*
X282670Y99955D02*
Y159977D01*
X286480Y163787D01*
X279630Y130487D02*
Y161244D01*
X242410Y192954D02*
X256938Y178426D01*
X286480Y163787D02*
Y182837D01*
X275080Y92365D02*
X282670Y99955D01*
X265960Y116817D02*
X279630Y130487D01*
X265960Y88587D02*
Y116817D01*
Y88587D02*
X279400Y75147D01*
X242410Y192954D02*
Y200980D01*
X334720Y61040D02*
X340956Y67276D01*
Y72986D01*
X342900Y74930D01*
X279400Y60960D02*
Y75147D01*
X273478Y30560D02*
Y32578D01*
X287890Y46990D01*
X302260D01*
X242410Y235980D02*
Y240980D01*
X257410Y220980D02*
X262410D01*
X247410Y215980D02*
X252410D01*
X642620Y142240D02*
Y182510D01*
X633130Y192000D02*
X642620Y182510D01*
X633130Y192000D02*
Y196500D01*
X206122Y573280D02*
X223520D01*
X190500D02*
X206122D01*
X154940Y572410D02*
X189630D01*
X21590Y640080D02*
X59690D01*
X21590D02*
Y678180D01*
X146880Y640080D02*
Y667140D01*
X21590Y678180D02*
X45720D01*
X189630Y572410D02*
X190500Y573280D01*
X223520D02*
X253620D01*
X254000Y573660D01*
X281940D01*
X365100Y630270D02*
Y636270D01*
Y630270D02*
X374650Y620720D01*
Y589160D02*
Y620720D01*
X342900Y589160D02*
Y633070D01*
X346100Y636270D01*
X288290Y614310D02*
Y629779D01*
Y614310D02*
X312940Y589660D01*
X313690D01*
D16*
X29420Y187960D02*
D03*
D17*
Y160260D02*
D03*
Y215660D02*
D03*
D18*
X248910Y312630D02*
D03*
Y332630D02*
D03*
Y352630D02*
D03*
Y372630D02*
D03*
Y392630D02*
D03*
Y412630D02*
D03*
Y432630D02*
D03*
Y452630D02*
D03*
X88910D02*
D03*
Y412630D02*
D03*
Y432630D02*
D03*
Y392630D02*
D03*
Y372630D02*
D03*
Y352630D02*
D03*
Y332630D02*
D03*
Y312630D02*
D03*
D19*
X218910Y297830D02*
D03*
X198910D02*
D03*
X178910D02*
D03*
X158910D02*
D03*
X138910D02*
D03*
X118910D02*
D03*
D20*
X367030Y442101D02*
D03*
X238760Y895491D02*
D03*
X257810Y645301D02*
D03*
X369570Y352779D02*
D03*
X307340Y962801D02*
D03*
Y947279D02*
D03*
X238760Y879969D02*
D03*
X194310Y816469D02*
D03*
Y831991D02*
D03*
X191770Y645160D02*
D03*
Y629639D02*
D03*
X226060Y645301D02*
D03*
Y629779D02*
D03*
X257810D02*
D03*
X288290Y645301D02*
D03*
Y629779D02*
D03*
X33020Y535940D02*
D03*
Y520419D02*
D03*
X17780Y437869D02*
D03*
Y453390D02*
D03*
X356870Y505601D02*
D03*
Y490079D02*
D03*
X367030Y426579D02*
D03*
X369570Y368300D02*
D03*
X600710Y979311D02*
D03*
Y963789D02*
D03*
D21*
X479850Y861770D02*
D03*
X483450Y604070D02*
D03*
X480910Y688190D02*
D03*
X479850Y855270D02*
D03*
Y767640D02*
D03*
X421850Y848770D02*
D03*
Y835770D02*
D03*
Y842270D02*
D03*
Y761140D02*
D03*
X422910Y681690D02*
D03*
Y668690D02*
D03*
Y675190D02*
D03*
X425450Y584570D02*
D03*
Y597570D02*
D03*
Y591070D02*
D03*
X421850Y754640D02*
D03*
Y748140D02*
D03*
Y881270D02*
D03*
X479850D02*
D03*
Y874770D02*
D03*
Y868270D02*
D03*
Y848770D02*
D03*
Y842270D02*
D03*
Y835770D02*
D03*
X421850Y855270D02*
D03*
Y861770D02*
D03*
Y868270D02*
D03*
Y874770D02*
D03*
X480910Y714190D02*
D03*
Y707690D02*
D03*
Y701190D02*
D03*
Y694690D02*
D03*
Y681690D02*
D03*
Y675190D02*
D03*
Y668690D02*
D03*
X422910Y688190D02*
D03*
Y694690D02*
D03*
Y701190D02*
D03*
Y707690D02*
D03*
Y714190D02*
D03*
X483450Y630070D02*
D03*
Y623570D02*
D03*
Y617070D02*
D03*
Y610570D02*
D03*
Y597570D02*
D03*
Y591070D02*
D03*
Y584570D02*
D03*
X425450Y604070D02*
D03*
Y610570D02*
D03*
Y617070D02*
D03*
Y623570D02*
D03*
Y630070D02*
D03*
X479850Y793640D02*
D03*
Y787140D02*
D03*
Y780640D02*
D03*
Y774140D02*
D03*
Y761140D02*
D03*
Y754640D02*
D03*
Y748140D02*
D03*
X421850Y767640D02*
D03*
Y774140D02*
D03*
Y780640D02*
D03*
Y787140D02*
D03*
Y793640D02*
D03*
D22*
X713800Y557460D02*
D03*
Y562460D02*
D03*
Y567460D02*
D03*
Y572460D02*
D03*
Y577460D02*
D03*
Y582460D02*
D03*
Y587460D02*
D03*
Y592460D02*
D03*
Y597460D02*
D03*
Y602460D02*
D03*
Y607460D02*
D03*
Y612460D02*
D03*
Y617460D02*
D03*
Y622460D02*
D03*
Y627460D02*
D03*
Y632460D02*
D03*
Y637460D02*
D03*
Y642460D02*
D03*
Y647460D02*
D03*
Y652460D02*
D03*
Y657460D02*
D03*
Y662460D02*
D03*
Y667460D02*
D03*
Y672460D02*
D03*
Y677460D02*
D03*
X558800D02*
D03*
Y672460D02*
D03*
Y667460D02*
D03*
Y662460D02*
D03*
Y657460D02*
D03*
Y652460D02*
D03*
Y647460D02*
D03*
Y642460D02*
D03*
Y637460D02*
D03*
Y632460D02*
D03*
Y627460D02*
D03*
Y622460D02*
D03*
Y617460D02*
D03*
Y612460D02*
D03*
Y607460D02*
D03*
Y602460D02*
D03*
Y597460D02*
D03*
Y592460D02*
D03*
Y587460D02*
D03*
Y582460D02*
D03*
Y577460D02*
D03*
Y572460D02*
D03*
Y567460D02*
D03*
Y562460D02*
D03*
Y557460D02*
D03*
X653130Y286500D02*
D03*
X538130Y236500D02*
D03*
X653130Y291500D02*
D03*
Y281500D02*
D03*
Y276500D02*
D03*
Y271500D02*
D03*
Y266500D02*
D03*
Y261500D02*
D03*
Y256500D02*
D03*
Y251500D02*
D03*
Y246500D02*
D03*
Y241500D02*
D03*
Y236500D02*
D03*
Y231500D02*
D03*
Y226500D02*
D03*
Y221500D02*
D03*
Y216500D02*
D03*
X538130D02*
D03*
Y221500D02*
D03*
Y226500D02*
D03*
Y231500D02*
D03*
Y241500D02*
D03*
Y246500D02*
D03*
Y251500D02*
D03*
Y256500D02*
D03*
Y261500D02*
D03*
Y266500D02*
D03*
Y271500D02*
D03*
Y276500D02*
D03*
Y281500D02*
D03*
Y286500D02*
D03*
Y291500D02*
D03*
D23*
X696300Y694960D02*
D03*
X691300D02*
D03*
X686300D02*
D03*
X681300D02*
D03*
X676300D02*
D03*
X671300D02*
D03*
X666300D02*
D03*
X661300D02*
D03*
X656300D02*
D03*
X651300D02*
D03*
X646300D02*
D03*
X641300D02*
D03*
X636300D02*
D03*
X631300D02*
D03*
X626300D02*
D03*
X621300D02*
D03*
X616300D02*
D03*
X611300D02*
D03*
X606300D02*
D03*
X601300D02*
D03*
X596300D02*
D03*
X591300D02*
D03*
X586300D02*
D03*
X581300D02*
D03*
X576300D02*
D03*
Y539960D02*
D03*
X581300D02*
D03*
X586300D02*
D03*
X591300D02*
D03*
X596300D02*
D03*
X601300D02*
D03*
X606300D02*
D03*
X611300D02*
D03*
X616300D02*
D03*
X621300D02*
D03*
X626300D02*
D03*
X631300D02*
D03*
X636300D02*
D03*
X641300D02*
D03*
X646300D02*
D03*
X651300D02*
D03*
X656300D02*
D03*
X661300D02*
D03*
X666300D02*
D03*
X671300D02*
D03*
X676300D02*
D03*
X681300D02*
D03*
X686300D02*
D03*
X691300D02*
D03*
X696300D02*
D03*
X628130Y196500D02*
D03*
X563130Y311500D02*
D03*
Y196500D02*
D03*
X558130Y311500D02*
D03*
X568130D02*
D03*
X573130D02*
D03*
X578130D02*
D03*
X583130D02*
D03*
X588130D02*
D03*
X593130D02*
D03*
X598130D02*
D03*
X603130D02*
D03*
X608130D02*
D03*
X613130D02*
D03*
X618130D02*
D03*
X623130D02*
D03*
X628130D02*
D03*
X633130D02*
D03*
Y196500D02*
D03*
X623130D02*
D03*
X618130D02*
D03*
X613130D02*
D03*
X608130D02*
D03*
X603130D02*
D03*
X598130D02*
D03*
X593130D02*
D03*
X588130D02*
D03*
X583130D02*
D03*
X578130D02*
D03*
X573130D02*
D03*
X568130D02*
D03*
X558130D02*
D03*
D24*
X745695Y741560D02*
D03*
Y746560D02*
D03*
Y721560D02*
D03*
Y736560D02*
D03*
Y726560D02*
D03*
Y731560D02*
D03*
X707185Y721560D02*
D03*
Y726560D02*
D03*
Y731560D02*
D03*
Y736560D02*
D03*
Y741560D02*
D03*
D25*
X548650Y486410D02*
D03*
X545470Y454660D02*
D03*
X565150Y486410D02*
D03*
X561970Y454660D02*
D03*
X557530Y57150D02*
D03*
X542300Y91440D02*
D03*
X287730Y273130D02*
D03*
X245200Y74930D02*
D03*
X558800Y91440D02*
D03*
X541030Y57150D02*
D03*
X261700Y74930D02*
D03*
X271230Y273130D02*
D03*
D26*
X566420Y419100D02*
D03*
X541420D02*
D03*
X234750Y45720D02*
D03*
X209750D02*
D03*
X563880Y132080D02*
D03*
X538880D02*
D03*
D27*
X747620Y577850D02*
D03*
X769620Y593850D02*
D03*
Y577850D02*
D03*
X747620Y593850D02*
D03*
X675230Y981200D02*
D03*
X697230D02*
D03*
Y965200D02*
D03*
X675230D02*
D03*
X478380Y327660D02*
D03*
X500380D02*
D03*
Y311660D02*
D03*
X478380D02*
D03*
D28*
X811310Y734060D02*
D03*
X811530Y676910D02*
D03*
X810040Y617220D02*
D03*
X808990Y562610D02*
D03*
Y510540D02*
D03*
X693200Y248920D02*
D03*
X692040Y292100D02*
D03*
X695740Y203200D02*
D03*
X394410Y308690D02*
D03*
X116060Y237570D02*
D03*
X117890Y204470D02*
D03*
X116620Y171450D02*
D03*
X116280Y94060D02*
D03*
X114790Y129620D02*
D03*
X31530Y71120D02*
D03*
X111540Y58420D02*
D03*
X110980Y25480D02*
D03*
X34070Y24130D02*
D03*
X376410Y308690D02*
D03*
X826990Y562610D02*
D03*
Y510540D02*
D03*
X128980Y25480D02*
D03*
X129540Y58420D02*
D03*
X132790Y129620D02*
D03*
X134280Y94060D02*
D03*
X134620Y171450D02*
D03*
X135890Y204470D02*
D03*
X52070Y24130D02*
D03*
X49530Y71120D02*
D03*
X134060Y237570D02*
D03*
X710040Y292100D02*
D03*
X711200Y248920D02*
D03*
X713740Y203200D02*
D03*
X829310Y734060D02*
D03*
X829530Y676910D02*
D03*
X828040Y617220D02*
D03*
D29*
X750810Y668020D02*
D03*
X738110Y617220D02*
D03*
X584440Y828040D02*
D03*
X612260Y786130D02*
D03*
X484110Y218440D02*
D03*
X477760Y264160D02*
D03*
X492760D02*
D03*
X499110Y218440D02*
D03*
X753110Y617220D02*
D03*
X627260Y786130D02*
D03*
X599440Y828040D02*
D03*
X765810Y668020D02*
D03*
D30*
X647419Y833120D02*
D03*
X531849Y831850D02*
D03*
X609459Y478790D02*
D03*
X575029Y342900D02*
D03*
X437590Y138510D02*
D03*
X289000Y30560D02*
D03*
X624981Y478790D02*
D03*
X422068Y138510D02*
D03*
X662940Y833120D02*
D03*
X547370Y831850D02*
D03*
X273478Y30560D02*
D03*
X590550Y342900D02*
D03*
D31*
X574040Y919480D02*
D03*
X488950Y919112D02*
D03*
X537210D02*
D03*
X448310Y918744D02*
D03*
X574040Y937996D02*
D03*
X537210Y937628D02*
D03*
X448310Y937260D02*
D03*
X488950Y937628D02*
D03*
D32*
X891540Y584200D02*
D03*
X881380Y523240D02*
D03*
X862880D02*
D03*
X873040Y584200D02*
D03*
D33*
X803920Y453390D02*
D03*
X626120Y142240D02*
D03*
X372110Y255270D02*
D03*
X355610D02*
D03*
X642620Y142240D02*
D03*
X820420Y453390D02*
D03*
D34*
X450850Y556260D02*
D03*
X470371D02*
D03*
D35*
X444500Y210820D02*
D03*
X416500D02*
D03*
D36*
X274320Y942340D02*
D03*
X232410Y786130D02*
D03*
X186690Y782320D02*
D03*
X274320Y963340D02*
D03*
X232410Y765130D02*
D03*
X186690Y761320D02*
D03*
D37*
X278130Y824890D02*
D03*
X238760Y823620D02*
D03*
X278130Y843890D02*
D03*
X238760Y842620D02*
D03*
D38*
X284480Y589660D02*
D03*
X254000D02*
D03*
X313690Y573660D02*
D03*
X223520Y589280D02*
D03*
X187960Y588390D02*
D03*
X313690Y589660D02*
D03*
X284480Y573660D02*
D03*
X254000D02*
D03*
X223520Y573280D02*
D03*
X187960Y572390D02*
D03*
D39*
X238760Y937230D02*
D03*
Y965230D02*
D03*
D40*
X402590Y560070D02*
D03*
Y540549D02*
D03*
D41*
X342900Y574160D02*
D03*
X374650D02*
D03*
Y589160D02*
D03*
X342900D02*
D03*
D42*
X172720Y861720D02*
D03*
Y880720D02*
D03*
Y871220D02*
D03*
X150730Y861720D02*
D03*
Y871220D02*
D03*
Y880720D02*
D03*
D43*
X27590Y858505D02*
D03*
Y791005D02*
D03*
D44*
X53340Y849630D02*
D03*
Y799880D02*
D03*
D45*
X54190Y811755D02*
D03*
Y818255D02*
D03*
Y824755D02*
D03*
Y831255D02*
D03*
Y837755D02*
D03*
D46*
X27590Y836255D02*
D03*
D47*
Y809255D02*
D03*
D48*
X159630Y729890D02*
D03*
X79130Y699890D02*
D03*
X159630Y734890D02*
D03*
Y724890D02*
D03*
Y719890D02*
D03*
Y714890D02*
D03*
Y709890D02*
D03*
Y704890D02*
D03*
Y699890D02*
D03*
Y694890D02*
D03*
Y689890D02*
D03*
Y684890D02*
D03*
Y679890D02*
D03*
X79130D02*
D03*
Y684890D02*
D03*
Y689890D02*
D03*
Y694890D02*
D03*
Y704890D02*
D03*
Y709890D02*
D03*
Y714890D02*
D03*
Y719890D02*
D03*
Y724890D02*
D03*
Y729890D02*
D03*
Y734890D02*
D03*
D49*
X141880Y667140D02*
D03*
X96880Y747640D02*
D03*
X91880D02*
D03*
X101880D02*
D03*
X106880D02*
D03*
X111880D02*
D03*
X116880D02*
D03*
X121880D02*
D03*
X126880D02*
D03*
X131880D02*
D03*
X136880D02*
D03*
X141880D02*
D03*
X146880D02*
D03*
Y667140D02*
D03*
X136880D02*
D03*
X131880D02*
D03*
X126880D02*
D03*
X121880D02*
D03*
X116880D02*
D03*
X111880D02*
D03*
X106880D02*
D03*
X101880D02*
D03*
X96880D02*
D03*
X91880D02*
D03*
D50*
X154940Y590910D02*
D03*
Y572410D02*
D03*
D51*
X334720Y88980D02*
D03*
Y51040D02*
D03*
Y98980D02*
D03*
Y61040D02*
D03*
D52*
X250190Y142240D02*
D03*
X231190Y157240D02*
D03*
X250190D02*
D03*
X231190Y142240D02*
D03*
D53*
X738940Y714805D02*
D03*
X733940D02*
D03*
X713940Y753315D02*
D03*
X718940D02*
D03*
X723940D02*
D03*
X728940D02*
D03*
X733940D02*
D03*
X738940D02*
D03*
X728940Y714805D02*
D03*
X723940D02*
D03*
X718940D02*
D03*
X713940D02*
D03*
D54*
X707185Y746560D02*
D03*
D55*
X280035Y712470D02*
D03*
Y737870D02*
D03*
X362585D02*
D03*
Y712470D02*
D03*
D56*
X135590Y952500D02*
D03*
X199690D02*
D03*
D57*
X278130Y893440D02*
D03*
Y876940D02*
D03*
D58*
X306080Y887730D02*
D03*
X339080D02*
D03*
D59*
X156210Y828130D02*
D03*
Y807630D02*
D03*
X118110Y828130D02*
D03*
Y807630D02*
D03*
D60*
X365100Y636270D02*
D03*
X346100D02*
D03*
D61*
X638810Y956310D02*
D03*
Y976820D02*
D03*
D62*
X360680Y71060D02*
D03*
Y60960D02*
D03*
D63*
X381090Y176530D02*
D03*
X334090D02*
D03*
D69*
X726440Y734060D02*
D03*
D78*
X902970Y918230D02*
D03*
Y938530D02*
D03*
X767270Y918230D02*
D03*
Y938530D02*
D03*
D79*
X912620Y862330D02*
D03*
X757620D02*
D03*
D82*
X892270Y803930D02*
D03*
X879570Y829330D02*
D03*
X866870Y803930D02*
D03*
X854170Y829330D02*
D03*
X841470Y803930D02*
D03*
X828770Y829330D02*
D03*
X816070Y803930D02*
D03*
X803370Y829330D02*
D03*
X790670Y803930D02*
D03*
D83*
X777970Y829330D02*
D03*
D84*
Y892830D02*
D03*
X892270D02*
D03*
D92*
X700223Y705298D02*
G03*
X705831Y706153I2087J5132D01*
G01*
X704820Y713596D02*
G03*
X706333Y710063I-2510J-3166D01*
G01*
X711704Y709315D02*
G03*
X718781Y705475I3378J-2216D01*
G01*
X706574Y710303D02*
X706573Y710303D01*
X714149Y701638D02*
G03*
X715423Y701570I934J5461D01*
G01*
X286667Y205387D02*
X291465Y210185D01*
X275590Y200660D02*
X281940D01*
X286667Y205387D01*
X273050Y203200D02*
X275590Y200660D01*
X261470Y203250D02*
X273000D01*
X273050Y203200D01*
X259630D02*
X261420D01*
X257410Y200980D02*
X259630Y203200D01*
X261420D02*
X261470Y203250D01*
X254538Y203308D02*
Y208108D01*
X257410Y210980D01*
X246561Y233030D02*
X249460D01*
X226520Y233130D02*
X244540D01*
X247390Y235980D02*
X247410D01*
X245360Y228930D02*
Y231829D01*
X249460Y233030D02*
X249861Y233432D01*
X245360Y231829D02*
X246561Y233030D01*
X244540Y233130D02*
X247390Y235980D01*
X244460Y228030D02*
X245360Y228930D01*
X241561Y228030D02*
X244460D01*
X242389Y230980D02*
X242410D01*
X240030Y225772D02*
X240360Y226102D01*
X240030Y218440D02*
Y225772D01*
X239540Y228130D02*
X242389Y230980D01*
X240360Y226102D02*
Y226829D01*
X241561Y228030D01*
X226520Y228130D02*
X239540D01*
X250360Y225172D02*
Y226829D01*
X253219Y228030D02*
X255290Y230102D01*
X251561Y228030D02*
X253219D01*
X248218Y223030D02*
X250360Y225172D01*
X246561Y223030D02*
X248218D01*
X250360Y226829D02*
X251561Y228030D01*
X244460Y220131D02*
Y220929D01*
X243259Y218930D02*
X244460Y220131D01*
Y220929D02*
X246561Y223030D01*
X242461Y218930D02*
X243259D01*
X240030Y218440D02*
X241971D01*
X242461Y218930D01*
X711744Y718823D02*
X711997Y720146D01*
X711118Y710596D02*
X711704Y710010D01*
X696817Y706683D02*
X700223Y705298D01*
X718781Y705475D02*
X721136Y710786D01*
X711997Y720146D02*
Y720974D01*
X706866Y710596D02*
X711118D01*
X711347Y702117D02*
X714149Y701638D01*
X706016Y706305D02*
X706844D01*
X710917Y714182D02*
X711744Y718504D01*
X710583Y721560D02*
X711411D01*
X706333Y710063D02*
X706573Y710303D01*
X710331Y713596D02*
X710917Y714182D01*
X711704Y709315D02*
Y709596D01*
X711744Y718504D02*
Y718823D01*
X711704Y709596D02*
Y710010D01*
X721136Y710786D02*
Y718682D01*
X721600Y718218D01*
X724307Y702117D02*
X728940Y706750D01*
X696769Y706731D02*
X696817Y706683D01*
X705831Y706153D02*
X706016Y706305D01*
X704820Y713596D02*
X710331D01*
X706844Y706305D02*
X707430Y705719D01*
Y705302D02*
Y705719D01*
X711411Y721560D02*
X711997Y720974D01*
X715423Y701570D02*
X724307Y702117D01*
X706574Y710303D02*
X706866Y710596D01*
X711114Y702350D02*
X711347Y702117D01*
X702310Y710430D02*
X703976Y712096D01*
X713204D01*
X195580Y237490D02*
X200176Y232894D01*
X201388D01*
X201782Y233288D01*
Y238352D01*
X205883Y242452D01*
X211682D01*
X215304Y238830D01*
X224561D01*
X227410Y235980D01*
X191061Y219333D02*
X194532Y215862D01*
X203876Y217283D02*
X210706Y224113D01*
X194532Y214482D02*
Y215862D01*
X203382Y217283D02*
X203876D01*
X188580Y236579D02*
Y240389D01*
X197827Y230490D02*
X198665D01*
X203939Y242630D02*
X205261Y243952D01*
X210706Y224113D02*
X211413D01*
X187310Y230752D02*
Y235310D01*
X192791Y226333D02*
X193670D01*
X192680Y244490D02*
X198479D01*
X188580Y240389D02*
X192680Y244490D01*
X211413Y224113D02*
X214630Y227330D01*
X185791Y223434D02*
X189891Y219333D01*
X185791Y229233D02*
X187310Y230752D01*
X193670Y226333D02*
X197827Y230490D01*
X198665D02*
X199285Y229870D01*
X185791Y223434D02*
Y229233D01*
X187310Y235310D02*
X188580Y236579D01*
X198479Y244490D02*
X200340Y242630D01*
X203939D01*
X189891Y219333D02*
X191061D01*
X205261Y243952D02*
X212303D01*
X215275Y240980D01*
X222410D01*
X214630Y227330D02*
X225719D01*
X213631Y228452D02*
X214009Y228830D01*
X223301D01*
X206266Y228452D02*
X213631D01*
X205389Y229330D02*
X206266Y228452D01*
X224910Y231520D02*
X226520Y233130D01*
X224910Y230440D02*
Y231520D01*
X223301Y228830D02*
X224910Y230440D01*
X225719Y227330D02*
X226520Y228130D01*
X199285Y229870D02*
X199390D01*
X199930Y229330D01*
X205389D01*
X234950Y238760D02*
X235230Y238480D01*
X238799D01*
X239173Y238854D01*
X266770Y238830D02*
X276860Y248920D01*
X260260Y238830D02*
X266770D01*
X257410Y235980D02*
X260260Y238830D01*
X249861Y233432D02*
X252410Y235980D01*
X744220Y713740D02*
Y716280D01*
X726440Y734060D02*
X744220Y716280D01*
X715465Y707482D02*
Y708221D01*
X718940Y711696D01*
X715082Y707099D02*
X715465Y707482D01*
X718940Y711696D02*
Y714805D01*
X710382Y702350D02*
X711114D01*
X707430Y705302D02*
X710382Y702350D01*
X707185Y721560D02*
X710583D01*
X713940Y712832D02*
Y714805D01*
X728940Y706750D02*
Y711843D01*
X710294Y721560D02*
X712390Y723657D01*
Y742429D01*
X711090Y743728D02*
X712390Y742429D01*
X711090Y743728D02*
Y745763D01*
X710294Y746560D02*
X711090Y745763D01*
X707185Y746560D02*
X710294D01*
X721600Y718218D02*
X723204D01*
X723940Y717483D01*
Y714805D02*
Y717483D01*
X707185Y746560D02*
X707981Y747356D01*
X712464D01*
X713067Y747960D01*
X734659D01*
X736600Y749902D01*
X738204D01*
X738940Y750637D01*
Y753315D01*
X231499Y223180D02*
X233321D01*
X229605Y221286D02*
X231499Y223180D01*
X227716Y221286D02*
X229605D01*
D93*
X711704Y709596D02*
D03*
D94*
X257410Y230980D02*
D03*
X262410Y225980D02*
D03*
X257410Y210980D02*
D03*
Y200980D02*
D03*
X252410Y210980D02*
D03*
Y235980D02*
D03*
X247410Y210980D02*
D03*
X252410Y205980D02*
D03*
X247410D02*
D03*
Y200980D02*
D03*
X232410Y220980D02*
D03*
X222410Y240980D02*
D03*
X242410Y210980D02*
D03*
Y220980D02*
D03*
X262410Y200980D02*
D03*
X242410D02*
D03*
X232410D02*
D03*
X227410D02*
D03*
X222410D02*
D03*
X262410Y205980D02*
D03*
X257410D02*
D03*
X242410D02*
D03*
X237410D02*
D03*
X232410D02*
D03*
X227410D02*
D03*
X222410D02*
D03*
X262410Y210980D02*
D03*
X237410D02*
D03*
X232410D02*
D03*
X227410D02*
D03*
X257410Y215980D02*
D03*
X252410D02*
D03*
X247410D02*
D03*
X242410D02*
D03*
X237410D02*
D03*
X232410D02*
D03*
X227410D02*
D03*
X222410D02*
D03*
X262410Y220980D02*
D03*
X257410D02*
D03*
X252410D02*
D03*
X247410D02*
D03*
X237410D02*
D03*
X227410D02*
D03*
X222410D02*
D03*
X257410Y225980D02*
D03*
X252410D02*
D03*
X247410D02*
D03*
X242410D02*
D03*
X237410D02*
D03*
X232410D02*
D03*
X227410D02*
D03*
X252410Y230980D02*
D03*
X247410D02*
D03*
X242410D02*
D03*
X237410D02*
D03*
X232410D02*
D03*
X227410D02*
D03*
X222410D02*
D03*
X262410Y235980D02*
D03*
X257410D02*
D03*
X247410D02*
D03*
X242410D02*
D03*
X237410D02*
D03*
X232410D02*
D03*
X227410D02*
D03*
X222410D02*
D03*
X262410Y240980D02*
D03*
X257410D02*
D03*
X252410D02*
D03*
X242410D02*
D03*
X237410D02*
D03*
X227410D02*
D03*
D95*
X294110Y188304D02*
Y207173D01*
X294850Y212456D02*
Y249509D01*
X300350Y214734D02*
X300965Y214120D01*
X300350Y205636D02*
X300965Y206250D01*
X300350Y198778D02*
Y205636D01*
X300965Y206250D02*
Y214120D01*
X281480Y262880D02*
X294850Y249509D01*
X300350Y214734D02*
Y260509D01*
X295465Y208528D02*
Y211842D01*
X294850Y212456D02*
X295465Y211842D01*
X294110Y207173D02*
X295465Y208528D01*
X625348Y829056D02*
X647419D01*
X534389Y820420D02*
X584440D01*
X413876Y750824D02*
X416560Y748140D01*
X739584Y607631D02*
Y617220D01*
X693200Y69630D02*
Y227330D01*
X558400Y477917D02*
Y494903D01*
X255778Y645301D02*
Y762762D01*
X53340Y760730D02*
Y799880D01*
X38165D02*
X50040Y811755D01*
X289000Y30480D02*
X314160D01*
X241690Y163483D02*
X248387Y170180D01*
X17272Y215660D02*
Y230886D01*
X294640Y61563D02*
Y187774D01*
X294110Y188304D02*
X294640Y187774D01*
X300350Y91909D02*
Y189842D01*
X299610Y190582D02*
X300350Y189842D01*
X299610Y190582D02*
Y198038D01*
X300350Y198778D01*
X251460Y312630D02*
X274320D01*
X110980Y25480D02*
Y41656D01*
X455820Y737813D02*
X472387Y754380D01*
X455820Y689270D02*
Y703662D01*
X472387Y754380D02*
X472397Y754390D01*
X454550Y704932D02*
X455820Y703662D01*
X454550Y704932D02*
Y712388D01*
X455820Y713658D01*
Y737813D01*
X483450Y630070D02*
Y640320D01*
X478813Y644957D02*
X483450Y640320D01*
X472643Y644957D02*
X478813D01*
X284480Y570230D02*
X285050Y569660D01*
X284480Y563880D02*
Y570230D01*
X358902Y312420D02*
Y388084D01*
Y396776D02*
X359520Y396158D01*
Y388702D02*
Y396158D01*
X358902Y388084D02*
X359520Y388702D01*
X284480Y570230D02*
Y573660D01*
X281940Y572770D02*
X284480Y570230D01*
X358902Y396776D02*
Y426579D01*
X345186Y434707D02*
X353314Y426579D01*
X345186Y434707D02*
Y487285D01*
X353314Y426579D02*
X358902D01*
X347980Y490079D02*
X356870D01*
X345186Y487285D02*
X347980Y490079D01*
X356870D02*
X365873D01*
X355854Y442101D02*
Y475996D01*
Y442101D02*
X367030D01*
X227838Y358472D02*
Y401320D01*
X233680Y352630D02*
X248910D01*
X227838Y358472D02*
X233680Y352630D01*
X248910Y332630D02*
X308246D01*
X320527Y375451D02*
X321603D01*
X248910Y372630D02*
X317707D01*
X332232Y386080D02*
Y492393D01*
X321603Y375451D02*
X332232Y386080D01*
X317707Y372630D02*
X320527Y375451D01*
X308246Y332630D02*
X334264Y358648D01*
X471170Y646430D02*
X472643Y644957D01*
X544830Y176833D02*
Y197210D01*
X545740Y198120D01*
X505757Y698500D02*
X507110D01*
X503067Y701190D02*
X505757Y698500D01*
X480910Y701190D02*
X503067D01*
X496487Y728980D02*
X497840D01*
X494455Y731012D02*
X496487Y728980D01*
X477774Y731012D02*
X494455D01*
X492760Y716280D02*
X496460Y719980D01*
X506840Y725252D02*
Y740300D01*
X501568Y719980D02*
X506840Y725252D01*
X496460Y719980D02*
X501568D01*
X496570Y750570D02*
X506840Y740300D01*
X494850Y790280D02*
X501751Y783379D01*
Y775444D02*
Y783379D01*
Y775444D02*
X502708Y774488D01*
X375920Y670306D02*
X386080Y660146D01*
X375920Y670306D02*
Y712470D01*
X386080Y660146D02*
X435356D01*
X327550Y675558D02*
X328930Y676938D01*
Y632714D02*
Y666722D01*
Y676938D02*
Y787146D01*
X327550Y668102D02*
X328930Y666722D01*
X327550Y668102D02*
Y675558D01*
X110490Y764018D02*
Y777240D01*
X373744Y831960D02*
X410054Y868270D01*
X366920Y825136D02*
Y826688D01*
X372192Y831960D01*
X373744D01*
X328930Y787146D02*
X366920Y825136D01*
X410054Y868270D02*
X421850D01*
X407006Y833120D02*
X409656Y835770D01*
X407006Y767080D02*
Y833120D01*
X409656Y835770D02*
X421850D01*
X407006Y767080D02*
X412946Y761140D01*
X473792Y799698D02*
Y801260D01*
X494850Y790280D02*
Y805658D01*
X468122Y804672D02*
X474726Y798068D01*
X481248Y819260D02*
X494850Y805658D01*
X468520Y806532D02*
X473792Y801260D01*
X468520Y806532D02*
Y813988D01*
X473792Y819260D02*
X481248D01*
X473792Y799698D02*
X479850Y793640D01*
X468520Y813988D02*
X473792Y819260D01*
X468122Y804672D02*
Y847570D01*
X474726Y793640D02*
X479850D01*
X474726D02*
Y798068D01*
X451590Y868336D02*
X454914Y871660D01*
X451590Y759962D02*
X454914Y756638D01*
X451590Y759962D02*
Y868336D01*
X454914Y751840D02*
Y756638D01*
X484850Y835520D02*
X495008Y825362D01*
X510678Y830634D02*
Y843334D01*
X495008Y825362D02*
X505406D01*
X504300Y849712D02*
X510678Y843334D01*
X505406Y825362D02*
X510678Y830634D01*
X504300Y849712D02*
Y874785D01*
X491101Y887984D02*
X504300Y874785D01*
X279130Y893440D02*
X289052D01*
X307340Y947279D02*
X372618D01*
X457090Y858602D02*
X468122Y847570D01*
X457090Y866058D02*
X472052Y881020D01*
X446090Y857980D02*
Y870614D01*
X436880Y848770D02*
X446090Y857980D01*
Y870614D02*
X448310Y872834D01*
X472052Y881020D02*
X479600D01*
X454914Y871660D02*
Y880618D01*
X479600Y881020D02*
X479850Y881270D01*
X457090Y858602D02*
Y866058D01*
X448310Y872834D02*
Y918744D01*
X462280Y887984D02*
X491101D01*
X440944Y737870D02*
X454914Y751840D01*
X455820Y689270D02*
X469900Y675190D01*
X472397Y754390D02*
X476250D01*
X458360Y598751D02*
X470371Y586740D01*
X458360Y598751D02*
Y637142D01*
X435356Y660146D02*
X458360Y637142D01*
X285050Y569660D02*
X296480D01*
X306070Y560070D01*
X326390Y608330D02*
Y609220D01*
X290309Y645301D02*
X326390Y609220D01*
X288290Y645301D02*
X290309D01*
X187960Y572390D02*
X205232D01*
X66040Y820420D02*
Y822960D01*
Y820420D02*
X77470Y808990D01*
X561970Y455160D02*
Y468884D01*
Y454660D02*
Y455160D01*
X217553Y726315D02*
Y735621D01*
X199727Y748283D02*
X204891D01*
X217553Y735621D01*
X186690Y761320D02*
X199727Y748283D01*
X191770Y700532D02*
X217553Y726315D01*
X483450Y546479D02*
Y584570D01*
X477520Y540549D02*
X483450Y546479D01*
X402590Y540549D02*
X477520D01*
X475768Y531018D02*
X507210Y562460D01*
X483450Y591070D02*
X492760D01*
X666987Y974200D02*
X667230D01*
X664210Y971423D02*
X666987Y974200D01*
X674230Y981200D02*
X675230D01*
X667230Y974200D02*
X674230Y981200D01*
X664210Y960628D02*
Y971423D01*
X599440Y895858D02*
X664210Y960628D01*
X737191Y816480D02*
Y834981D01*
X699879Y779168D02*
X737191Y816480D01*
X699879Y744121D02*
Y779168D01*
X598170Y963930D02*
X600075Y962025D01*
Y948055D02*
Y962025D01*
X599440Y947420D02*
X600075Y948055D01*
X699879Y744121D02*
X701637Y742363D01*
X706381D01*
X707185Y741560D01*
X414020Y133350D02*
X419100Y138430D01*
X414020Y113030D02*
Y133350D01*
X38165Y799880D02*
X53340D01*
X548650Y472064D02*
Y486410D01*
X545470Y468884D02*
X548650Y472064D01*
X545470Y438898D02*
Y454660D01*
Y468884D01*
X541420Y434848D02*
X545470Y438898D01*
X541420Y419100D02*
Y434848D01*
Y419100D02*
X565150D01*
X746197Y721560D02*
X757503Y710254D01*
Y708384D02*
Y710254D01*
X745695Y721560D02*
X746197D01*
X902970Y917702D02*
X913560Y907112D01*
Y863270D02*
Y907112D01*
X912620Y862330D02*
X913560Y863270D01*
X902970Y918230D02*
Y938530D01*
Y917702D02*
Y918230D01*
X787400Y840486D02*
X792226Y835660D01*
Y821944D02*
Y835660D01*
X779464Y840486D02*
X787400D01*
X788480Y778033D02*
X811310Y755203D01*
Y734060D02*
Y755203D01*
X788480Y786957D02*
X800670Y799147D01*
X811310Y705578D02*
Y734060D01*
Y705578D02*
X811530Y705358D01*
X799100Y809642D02*
Y815070D01*
Y809642D02*
X800670Y808072D01*
X792226Y821944D02*
X799100Y815070D01*
X800670Y799147D02*
Y808072D01*
X788480Y778033D02*
Y786957D01*
X767270Y918230D02*
Y938530D01*
Y917702D02*
Y918230D01*
X756680Y863270D02*
X757620Y862330D01*
X756680Y907112D02*
X767270Y917702D01*
X756680Y863270D02*
Y907112D01*
X724377Y862140D02*
X724567Y862330D01*
X715613D02*
X715803Y862140D01*
X724567Y862330D02*
X733393D01*
X715803Y862140D02*
X724377D01*
X757430D02*
X757620Y862330D01*
X779464Y840486D01*
X733583Y862140D02*
X757430D01*
X733393Y862330D02*
X733583Y862140D01*
X770890Y683716D02*
X773560Y681046D01*
X811530Y676910D02*
Y705358D01*
Y665480D02*
Y676910D01*
X773560Y660027D02*
Y681046D01*
X770890Y683716D02*
Y685800D01*
X750810Y666020D02*
Y668020D01*
X811530Y647666D02*
Y665480D01*
X810040Y646176D02*
X811530Y647666D01*
X803148Y657098D02*
X811530Y665480D01*
X810040Y632206D02*
Y646176D01*
Y617220D02*
Y632206D01*
X758560Y658270D02*
X771803D01*
X773560Y660027D01*
X750810Y666020D02*
X758560Y658270D01*
X771803Y657098D02*
X803148D01*
X751096Y632206D02*
X810040D01*
X740360Y621470D02*
X751096Y632206D01*
X740360Y617996D02*
Y621470D01*
X739584Y617220D02*
X740360Y617996D01*
X669798Y862330D02*
X715613D01*
X647419Y839951D02*
X669798Y862330D01*
X647419Y829056D02*
Y833120D01*
Y821985D02*
Y829056D01*
X555612Y919480D02*
X574040D01*
X555244Y919112D02*
X555612Y919480D01*
X647419Y833120D02*
Y839951D01*
X537210Y919112D02*
X555244D01*
X643504Y818070D02*
X647419Y821985D01*
X617030Y812007D02*
X623093Y818070D01*
X613410Y817118D02*
X625348Y829056D01*
X623093Y818070D02*
X643504D01*
X620225Y796096D02*
Y800238D01*
X612260Y788130D02*
X620225Y796096D01*
X584440Y820420D02*
X587742Y817118D01*
X613410D01*
X584440Y820420D02*
Y828040D01*
X617030Y803433D02*
X620225Y800238D01*
X617030Y803433D02*
Y812007D01*
X468744Y919112D02*
X488950D01*
X537210Y878105D02*
Y919112D01*
X531849Y872744D02*
X537210Y878105D01*
X488950Y919112D02*
X537210D01*
X468376Y918744D02*
X468744Y919112D01*
X448310Y918744D02*
X468376D01*
X531849Y831850D02*
Y872744D01*
Y822960D02*
X534389Y820420D01*
X531849Y822960D02*
Y831850D01*
X421850Y848770D02*
X436880D01*
X421850Y835770D02*
Y842270D01*
Y848770D01*
X612260Y786130D02*
Y788130D01*
X421850Y754640D02*
Y761140D01*
Y748140D02*
Y754640D01*
X422910Y675190D02*
Y681690D01*
Y668690D02*
Y675190D01*
X810040Y590330D02*
Y617220D01*
X808990Y562610D02*
Y589280D01*
X810040Y590330D01*
X891540Y558800D02*
Y584200D01*
X881380Y548640D02*
X891540Y558800D01*
X881380Y523240D02*
Y548640D01*
Y476250D02*
Y523240D01*
X836930Y431800D02*
X881380Y476250D01*
X808990Y510540D02*
Y562610D01*
Y484368D02*
Y510540D01*
X803920Y479298D02*
X808990Y484368D01*
X803920Y453390D02*
Y479298D01*
X690783Y599800D02*
X695701Y594882D01*
X688700Y599800D02*
X690783D01*
X695701Y594882D02*
X698322D01*
X699770Y593433D01*
X583438Y486410D02*
X591058Y478790D01*
X565150Y486410D02*
X583438D01*
X591058Y478790D02*
X609459D01*
X803920Y423713D02*
X806450Y421184D01*
Y419100D02*
Y421184D01*
X803920Y444620D02*
Y453390D01*
Y423713D02*
Y444620D01*
X692040Y332740D02*
X803920Y444620D01*
X676910Y292100D02*
X692040D01*
Y332740D01*
X693200Y227330D02*
X695740Y224790D01*
Y203200D02*
Y224790D01*
X680720Y57150D02*
X693200Y69630D01*
X692040Y270908D02*
X693200Y269748D01*
Y248920D02*
Y269748D01*
X692040Y270908D02*
Y292100D01*
X693200Y227330D02*
Y248920D01*
X613410Y355600D02*
X676910Y292100D01*
X645887Y286000D02*
X652630D01*
X653130Y286500D01*
X580109Y355600D02*
X613410D01*
X628130Y196500D02*
Y268242D01*
X645887Y286000D01*
X557530Y57150D02*
X680720D01*
X561970Y468884D02*
X565150Y472064D01*
X575029Y350520D02*
Y380719D01*
Y350520D02*
X580109Y355600D01*
X560959Y394788D02*
X575029Y380719D01*
X556643Y496660D02*
X558400Y494903D01*
X565150Y472064D02*
Y486410D01*
X575029Y342900D02*
Y350520D01*
Y328851D02*
Y342900D01*
X568684Y323797D02*
X569974D01*
X575029Y328851D01*
X563630Y318743D02*
X568684Y323797D01*
X563630Y312000D02*
Y318743D01*
X563130Y311500D02*
X563630Y312000D01*
X450850Y555241D02*
Y556260D01*
X444329Y548720D02*
X450850Y555241D01*
X419743Y548720D02*
X444329D01*
X425450Y591070D02*
Y597570D01*
Y584570D02*
Y591070D01*
X418384Y550079D02*
X419743Y548720D01*
X554430Y473947D02*
X558400Y477917D01*
X554430Y464410D02*
X555220Y463620D01*
X540658Y496660D02*
X556643D01*
X555220Y461910D02*
Y463620D01*
Y461910D02*
X561970Y455160D01*
X547489Y394788D02*
X560959D01*
X533420Y489422D02*
X540658Y496660D01*
X533420Y408857D02*
Y489422D01*
X554430Y464410D02*
Y473947D01*
X533420Y408857D02*
X547489Y394788D01*
X554990Y45720D02*
X557530Y48260D01*
X542300Y81778D02*
Y91440D01*
Y81778D02*
X557530Y66548D01*
Y48260D02*
Y57150D01*
Y66548D01*
X484110Y218440D02*
Y237998D01*
X467868Y218440D02*
X484110D01*
X429260Y264160D02*
X477760D01*
X420370Y255270D02*
X429260Y264160D01*
X477760Y244348D02*
X484110Y237998D01*
X477760Y244348D02*
Y264160D01*
X444500Y210820D02*
X460248D01*
X467868Y218440D01*
X437590Y79046D02*
X470916Y45720D01*
X554990D01*
X437590Y171196D02*
X444500Y178106D01*
Y210820D01*
X437590Y138510D02*
Y171196D01*
Y79046D02*
Y92912D01*
Y138510D01*
X412946Y761140D02*
X421850D01*
X350520Y750824D02*
X413876D01*
X416560Y748140D02*
X421850D01*
X377444Y724154D02*
X384048Y717550D01*
X350520Y724154D02*
X377444D01*
X384048Y687382D02*
X396240Y675190D01*
X422910D01*
X384048Y687382D02*
Y717550D01*
X347726Y726948D02*
Y748030D01*
Y726948D02*
X350520Y724154D01*
X347726Y748030D02*
X350520Y750824D01*
X232410Y786130D02*
X255778Y762762D01*
Y645301D02*
X255791D01*
X408040Y584570D02*
X425450D01*
X402590Y560070D02*
Y579120D01*
X408040Y584570D01*
X395598Y560070D02*
X402590D01*
X393798Y550079D02*
X418384D01*
X393700Y560070D02*
X395598D01*
X390906Y557276D02*
X393700Y560070D01*
X381508Y574160D02*
X395598Y560070D01*
X392041Y548321D02*
X393798Y550079D01*
X392041Y532776D02*
Y548321D01*
X390906D02*
Y557276D01*
X393798Y531018D02*
X475768D01*
X394410Y308690D02*
Y335280D01*
Y274320D02*
X404570Y264160D01*
X429260D01*
X394410Y274320D02*
Y308690D01*
X392041Y532776D02*
X393798Y531018D01*
X390906Y454354D02*
X394410Y450850D01*
X390906Y454354D02*
Y532776D01*
X394410Y335280D02*
Y450850D01*
X376912Y352779D02*
X394410Y335280D01*
X374650Y574160D02*
X381508D01*
X369570Y352779D02*
X376912D01*
X274320Y312630D02*
X287730Y299220D01*
Y273130D02*
Y299220D01*
X183220Y860720D02*
X184150Y859790D01*
X167640Y861720D02*
X172720D01*
X164846Y858926D02*
X167640Y861720D01*
X172720D02*
X173720Y860720D01*
X183220D01*
X164846Y858012D02*
Y858926D01*
X55150Y934720D02*
X139224Y850646D01*
X157480D01*
X164846Y858012D01*
X27590Y858505D02*
X27840D01*
X43840D01*
X52715Y849630D02*
X53340D01*
X43840Y858505D02*
X52715Y849630D01*
X50040Y811755D02*
X54190D01*
X27590Y792755D02*
X34715Y799880D01*
X27590Y836255D02*
Y858505D01*
Y809255D02*
Y836255D01*
Y792755D02*
Y809255D01*
X172700Y588390D02*
X187960D01*
X157190Y590910D02*
X170180D01*
X172700Y588390D01*
X34715Y799880D02*
X38165D01*
X27590Y791005D02*
Y792755D01*
X372110Y255270D02*
X420370D01*
X287730Y273130D02*
X300350Y260509D01*
X333620Y87880D02*
X334720Y88980D01*
X303279D02*
X334720D01*
X333620Y80287D02*
Y87880D01*
X332550Y79217D02*
X333620Y80287D01*
X326898Y68834D02*
X332550Y74486D01*
X300350Y91909D02*
X303279Y88980D01*
X332550Y74486D02*
Y79217D01*
X395718Y51040D02*
X437590Y92912D01*
X326898Y54342D02*
X330200Y51040D01*
X334720D01*
X395718D01*
X314160Y30480D02*
X334720Y51040D01*
X326898Y54342D02*
Y68834D01*
X289000Y30480D02*
Y30560D01*
Y14224D02*
Y30480D01*
X249690Y142240D02*
X250190D01*
Y113702D02*
Y142240D01*
X245200Y108712D02*
X250190Y113702D01*
X248387Y170180D02*
X248920D01*
X241690Y150240D02*
X249690Y142240D01*
X117890Y204470D02*
Y219964D01*
Y188468D02*
Y204470D01*
X116060Y221794D02*
Y237570D01*
Y221794D02*
X117890Y219964D01*
X29420Y215660D02*
X68438D01*
X72580Y211518D01*
X17272Y215660D02*
X29420D01*
X73454Y196007D02*
Y204581D01*
X72580Y205455D02*
X73454Y204581D01*
X116620Y187198D02*
X117890Y188468D01*
X116620Y171450D02*
Y187198D01*
X72580Y195133D02*
X73454Y196007D01*
X72580Y176960D02*
Y195133D01*
Y205455D02*
Y211518D01*
X116620Y151436D02*
Y171450D01*
X241690Y150240D02*
Y163483D01*
X114790Y149606D02*
X116620Y151436D01*
X114790Y129620D02*
Y139700D01*
Y112488D02*
Y129620D01*
Y139700D02*
Y149606D01*
X116280Y94060D02*
Y110998D01*
X114790Y112488D02*
X116280Y110998D01*
X245200Y74930D02*
Y108712D01*
X175260Y38100D02*
X212090Y74930D01*
X111540Y73660D02*
X116280Y78400D01*
X212090Y74930D02*
X245200D01*
X147320Y38100D02*
X175260D01*
X116280Y78400D02*
Y94060D01*
X111540Y42216D02*
Y58420D01*
Y73660D01*
X110980Y41656D02*
X111540Y42216D01*
X55880Y160260D02*
X72580Y176960D01*
X55880Y160260D02*
X94230D01*
X114790Y139700D01*
X29420Y160260D02*
X55880D01*
X29420Y116664D02*
Y160260D01*
Y116664D02*
X31530Y114554D01*
Y71120D02*
Y114554D01*
X108520Y27940D02*
X110980Y25480D01*
X87630Y27940D02*
X108520D01*
X31530Y48768D02*
X34070Y46228D01*
Y24130D02*
Y46228D01*
X31530Y48768D02*
Y71120D01*
X843280Y529590D02*
X844280D01*
X850630Y523240D01*
X862880D01*
X745437Y596033D02*
X747620Y593850D01*
X736197Y596033D02*
X745437D01*
X729234Y624087D02*
X734877Y629730D01*
X747587Y680974D02*
X760476D01*
X743060Y676447D02*
X747587Y680974D01*
X743060Y656919D02*
Y676447D01*
X743140Y635793D02*
Y656839D01*
X743060Y656919D02*
X743140Y656839D01*
X734877Y629730D02*
X737077D01*
X743140Y635793D01*
X480910Y714190D02*
X492506D01*
X724900Y960664D02*
X726984D01*
X720999Y964565D02*
X724900Y960664D01*
X697865Y964565D02*
X720999D01*
X697230Y965200D02*
X697865Y964565D01*
X627320Y807660D02*
X627380Y807720D01*
X627320Y786190D02*
Y807660D01*
X627260Y786130D02*
X627320Y786190D01*
X478380Y327660D02*
Y341376D01*
X505460D02*
X511333Y335503D01*
Y288290D02*
Y335503D01*
X478380Y341376D02*
X505460D01*
X547230Y212000D02*
X558750Y223520D01*
X544073Y212000D02*
X547230D01*
X534480Y202407D02*
X544073Y212000D01*
X534480Y172694D02*
Y202407D01*
Y172694D02*
X538880Y168294D01*
Y132080D02*
Y168294D01*
X499110Y228854D02*
X505270Y235014D01*
Y267493D01*
X499110Y218440D02*
Y228854D01*
X492760Y264160D02*
Y283972D01*
X500380Y291592D01*
X505270Y282227D02*
X511333Y288290D01*
X544830Y176833D02*
X563880Y157783D01*
Y132080D02*
Y157783D01*
X505270Y278607D02*
Y282227D01*
X504000Y268763D02*
X505270Y267493D01*
X504000Y277337D02*
X505270Y278607D01*
X504000Y268763D02*
Y277337D01*
X236673Y17930D02*
X237013Y17590D01*
X250731D02*
X254000Y20859D01*
X233540Y17930D02*
X236673D01*
X254000Y20859D02*
Y32766D01*
X237013Y17590D02*
X250731D01*
X59280Y198821D02*
X61631D01*
X63104Y200294D01*
X48420Y187960D02*
X59280Y198821D01*
X29420Y187960D02*
X48420D01*
X283687Y50610D02*
X294640Y61563D01*
X277980Y264637D02*
Y265879D01*
X271230Y272630D02*
X277980Y265879D01*
Y264637D02*
X279738Y262880D01*
X271230Y272630D02*
Y273130D01*
X279738Y262880D02*
X281480D01*
X271844Y50610D02*
X283687D01*
X353374Y73660D02*
X355974Y71060D01*
X353374Y73660D02*
Y86300D01*
X355974Y71060D02*
X360680D01*
X209750Y41720D02*
Y45720D01*
Y41720D02*
X233540Y17930D01*
X234750Y48111D02*
X237250Y50611D01*
X258771D01*
X261700Y53540D01*
X129540Y42216D02*
Y58420D01*
X128980Y25480D02*
Y41656D01*
X129540Y42216D01*
X254000Y32766D02*
X271844Y50610D01*
X261700Y53540D02*
Y74930D01*
X629920Y956310D02*
Y964833D01*
X294357Y888135D02*
X294762Y887730D01*
X289052Y893440D02*
X294357Y888135D01*
X288798Y737870D02*
Y840740D01*
X358902Y426579D02*
X367030D01*
X278130Y893440D02*
X279130D01*
X249605Y842620D02*
X257810D01*
X59690Y640080D02*
X127360Y572410D01*
X21590Y678180D02*
X59690Y640080D01*
X98552Y290068D02*
Y312630D01*
X470371Y556260D02*
Y586740D01*
X469900Y675190D02*
X480910D01*
X451866D02*
X469900D01*
X435356Y660146D02*
X436822D01*
X362585Y737870D02*
X440944D01*
X275590Y876940D02*
Y879969D01*
X377698Y368300D02*
Y453644D01*
X255270Y452630D02*
Y546608D01*
X381090Y185166D02*
X408626D01*
X381090D02*
Y206756D01*
Y176530D02*
Y185166D01*
X110490Y764018D02*
X111880Y762628D01*
X68580Y750570D02*
X69850D01*
X21590Y703580D02*
X68580Y750570D01*
X355610Y232236D02*
X381090Y206756D01*
X355610Y232236D02*
Y255270D01*
X334720Y98980D02*
Y126798D01*
X322072Y139446D02*
X334720Y126798D01*
X322072Y139446D02*
Y167894D01*
X317246Y172720D02*
X322072Y167894D01*
X127360Y572410D02*
X154940D01*
X765810Y668020D02*
Y675640D01*
X760476Y680974D02*
X765810Y675640D01*
X132952Y640080D02*
X146880D01*
X248910Y452630D02*
X255270D01*
Y546608D02*
X268224Y559562D01*
X280035Y653556D02*
Y712470D01*
Y653556D02*
X288290Y645301D01*
X345440Y505601D02*
X356870D01*
X332232Y492393D02*
X345440Y505601D01*
X366268Y455676D02*
X375666D01*
X377698Y453644D01*
X369570Y368300D02*
X377698D01*
X358902Y312420D02*
X362632Y308690D01*
X376410D01*
X284480Y563880D02*
X332740Y515620D01*
X365760D01*
X368300Y513080D01*
Y492506D02*
Y513080D01*
X365873Y490079D02*
X368300Y492506D01*
X600710Y979311D02*
X615442D01*
X629920Y964833D01*
Y956310D02*
X638810D01*
X21590Y612648D02*
Y640080D01*
Y612648D02*
X33020Y601218D01*
Y535940D02*
Y601218D01*
X829310Y734060D02*
Y809752D01*
X816102Y822960D02*
X829310Y809752D01*
X816102Y822960D02*
Y918972D01*
X741172Y993902D02*
X816102Y918972D01*
X630033Y993902D02*
X741172D01*
X615442Y979311D02*
X630033Y993902D01*
X436822Y660146D02*
X451866Y675190D01*
X362585Y712470D02*
X375920D01*
X479850Y748140D02*
Y748140D01*
X474726Y748140D02*
X479850D01*
X474726Y734060D02*
Y748140D01*
Y734060D02*
X477774Y731012D01*
X454914Y880618D02*
X462280Y887984D01*
X820420Y304800D02*
Y453390D01*
X807720Y292100D02*
X820420Y304800D01*
X710040Y292100D02*
X807720D01*
X470371Y586740D02*
X474702Y591070D01*
X483450D01*
X231190Y157240D02*
Y163780D01*
X223520Y171450D02*
X231190Y163780D01*
X134620Y171450D02*
X223520D01*
X17780Y437869D02*
X27967D01*
X34036Y431800D01*
Y404114D02*
Y431800D01*
Y404114D02*
X61468Y376682D01*
Y325120D02*
Y376682D01*
Y325120D02*
X73958Y312630D01*
X88910D01*
X199690Y924606D02*
Y952500D01*
X163576Y888492D02*
X199690Y924606D01*
X163576Y877316D02*
Y888492D01*
X157480Y871220D02*
X163576Y877316D01*
X150730Y871220D02*
X157480D01*
X238760Y866394D02*
Y879969D01*
Y866394D02*
X239776Y865378D01*
X137160Y885800D02*
Y889000D01*
Y885800D02*
X142240Y880720D01*
X150730D01*
X275590Y876940D02*
X278130D01*
X238760Y879969D02*
X275590D01*
X408626Y185166D02*
X416500Y193040D01*
Y210820D01*
X334720Y98980D02*
X340694D01*
X353374Y86300D01*
X71120Y452630D02*
X88910D01*
X59944Y463806D02*
X71120Y452630D01*
X59944Y463806D02*
Y508000D01*
X47525Y520419D02*
X59944Y508000D01*
X33020Y520419D02*
X47525D01*
X588151Y979311D02*
X600710D01*
X574040Y965200D02*
X588151Y979311D01*
X574040Y937996D02*
Y965200D01*
X88910Y312630D02*
X98552D01*
Y290068D02*
X134060Y254560D01*
Y237570D02*
Y254560D01*
X67430Y412630D02*
X88910D01*
X53340Y426720D02*
X67430Y412630D01*
X53340Y426720D02*
Y440690D01*
X40640Y453390D02*
X53340Y440690D01*
X17780Y453390D02*
X40640D01*
X599440Y828040D02*
Y895858D01*
X20320Y535940D02*
X33020D01*
X14478Y530098D02*
X20320Y535940D01*
X14478Y469392D02*
Y530098D01*
X7112Y462026D02*
X14478Y469392D01*
X7112Y440917D02*
Y462026D01*
Y440917D02*
X10160Y437869D01*
X17780D01*
X280035Y737870D02*
X288798D01*
X285648Y843890D02*
X288798Y840740D01*
X278130Y843890D02*
X285648D01*
X52070Y24130D02*
X67818D01*
X81280Y10668D01*
X121920D01*
X128980Y17728D01*
Y25480D01*
X49530Y48768D02*
Y71120D01*
Y48768D02*
X52070Y46228D01*
Y24130D02*
Y46228D01*
X134060Y221794D02*
Y237570D01*
Y221794D02*
X135890Y219964D01*
Y204470D02*
Y219964D01*
Y188468D02*
Y204470D01*
X134620Y187198D02*
X135890Y188468D01*
X134620Y171450D02*
Y187198D01*
X134280Y78400D02*
Y94060D01*
X129540Y73660D02*
X134280Y78400D01*
X129540Y58420D02*
Y73660D01*
X134620Y151436D02*
Y171450D01*
X132790Y149606D02*
X134620Y151436D01*
X132790Y129620D02*
Y149606D01*
Y112488D02*
Y129620D01*
Y112488D02*
X134280Y110998D01*
Y94060D02*
Y110998D01*
X231190Y142240D02*
Y157240D01*
X468744Y937628D02*
X488950D01*
X468376Y937260D02*
X468744Y937628D01*
X448310Y937260D02*
X468376D01*
X488950Y937628D02*
X537210D01*
X555612Y937996D02*
X574040D01*
X555244Y937628D02*
X555612Y937996D01*
X537210Y937628D02*
X555244D01*
X826990Y485106D02*
Y510540D01*
X820420Y478536D02*
X826990Y485106D01*
X820420Y453390D02*
Y478536D01*
X828040Y590330D02*
Y615950D01*
X826990Y589280D02*
X828040Y590330D01*
X826990Y562610D02*
Y589280D01*
Y510540D02*
Y562610D01*
X829530Y647666D02*
Y676910D01*
X828040Y646176D02*
X829530Y647666D01*
X828040Y617220D02*
Y646176D01*
X829310Y705578D02*
Y734060D01*
Y705578D02*
X829530Y705358D01*
Y676910D02*
Y705358D01*
X711200Y227330D02*
Y248920D01*
Y227330D02*
X713740Y224790D01*
Y203200D02*
Y224790D01*
X710040Y270908D02*
Y292100D01*
Y270908D02*
X711200Y269748D01*
Y248920D02*
Y269748D01*
X382637Y937260D02*
X448310D01*
X372618Y947279D02*
X382637Y937260D01*
X294762Y887730D02*
X306080D01*
X259080Y843890D02*
X278130D01*
X257810Y842620D02*
X259080Y843890D01*
X280035Y712470D02*
Y737870D01*
X205232Y572390D02*
X206122Y573280D01*
X150730Y861720D02*
Y871220D01*
X225582Y965230D02*
X238760D01*
X212852Y952500D02*
X225582Y965230D01*
X199690Y952500D02*
X212852D01*
X500380Y291592D02*
Y311660D01*
X563880Y114300D02*
Y132080D01*
X558800Y109220D02*
X563880Y114300D01*
X558800Y91440D02*
Y109220D01*
X538880Y115970D02*
Y132080D01*
X530352Y107442D02*
X538880Y115970D01*
X530352Y79512D02*
Y107442D01*
Y79512D02*
X541030Y68834D01*
Y57150D02*
Y68834D01*
X232410Y708152D02*
Y765130D01*
X226060Y701802D02*
X232410Y708152D01*
X226060Y645301D02*
Y701802D01*
X191770Y645160D02*
Y700532D01*
X347552Y60960D02*
X360680D01*
X347472Y61040D02*
X347552Y60960D01*
X334720Y61040D02*
X347472D01*
X65663Y831545D02*
X65953Y831255D01*
X84037D01*
X87163Y828130D01*
X118110D01*
X78740Y845820D02*
X120077D01*
X137060Y828837D01*
Y828130D02*
Y828837D01*
Y828130D02*
X156210D01*
D96*
X661670Y694690D02*
X666300D01*
X323110Y193040D02*
X327590D01*
X258190Y282089D02*
X262480Y277799D01*
X253504Y287400D02*
X258190Y282714D01*
Y282089D02*
Y282714D01*
X262480Y265051D02*
Y277799D01*
X233680Y306599D02*
X252879Y287400D01*
X253504D01*
X209310Y235980D02*
X222410D01*
X208782Y235452D02*
X209310Y235980D01*
X493675Y638035D02*
X494376Y638736D01*
X500675D01*
X284860Y245606D02*
Y252234D01*
X262480Y265051D02*
X269151Y258380D01*
X278714D01*
X272894Y233640D02*
X284860Y245606D01*
X278714Y258380D02*
X284860Y252234D01*
X266660Y233640D02*
X272894D01*
X251460Y313690D02*
X254900Y317130D01*
X268246D01*
X273696Y322580D01*
X275590D01*
X237410Y247570D02*
X247524Y257684D01*
Y257873D01*
X477740Y708440D02*
X478790Y707390D01*
X473270Y708440D02*
X477740D01*
X473050Y708660D02*
X473270Y708440D01*
X463550Y708660D02*
X473050D01*
X237410Y240980D02*
Y247570D01*
X334010Y185420D02*
Y186620D01*
X327590Y193040D02*
X334010Y186620D01*
X349250Y391160D02*
X350520Y392430D01*
X341630Y391160D02*
X349250D01*
X233680Y306599D02*
Y340360D01*
X236220Y342900D02*
X295416D01*
X233680Y340360D02*
X236220Y342900D01*
X295416D02*
X341630Y389114D01*
Y391160D01*
X512815Y662763D02*
Y679483D01*
X515110Y681778D01*
X542630Y291500D02*
X557734D01*
X580100Y269135D01*
X558863Y278590D02*
X569509Y267943D01*
X580100Y223813D02*
Y269135D01*
X569509Y266502D02*
Y267943D01*
X515110Y681778D02*
Y701814D01*
X505460Y711200D02*
X505724D01*
X515110Y701814D01*
X504121Y712539D02*
X505460Y711200D01*
X539750Y261620D02*
X544268D01*
X548736Y257152D01*
X550630D01*
X588010Y553720D02*
Y555515D01*
X593830Y561335D01*
Y606809D01*
X591820Y608819D02*
X593830Y606809D01*
X591820Y608819D02*
Y655320D01*
X606883Y746937D02*
X632460Y721360D01*
X518945Y746937D02*
X606883D01*
X494708Y771174D02*
X518945Y746937D01*
X494708Y771174D02*
Y771571D01*
X487889Y778390D02*
X494708Y771571D01*
X487350Y778390D02*
X487889D01*
X485100Y780640D02*
X487350Y778390D01*
X479850Y780640D02*
X485100D01*
X582181Y701170D02*
X598871Y717860D01*
X603181Y708521D02*
X604520Y709860D01*
X637258Y713360D02*
X641399Y717501D01*
X615815Y717860D02*
X620315Y713360D01*
X590550Y699539D02*
X599532Y708521D01*
X641399Y717501D02*
X643293D01*
X620315Y713360D02*
X637258D01*
X598871Y717860D02*
X615815D01*
X590550Y697230D02*
Y699539D01*
X599532Y708521D02*
X603181D01*
X581300Y695600D02*
X582181Y696481D01*
Y701170D01*
X135510Y728484D02*
X140196Y733170D01*
X140368D02*
X142088Y734890D01*
X140196Y733170D02*
X140368D01*
X135510Y728312D02*
Y728484D01*
X126088Y718890D02*
X135510Y728312D01*
X98796Y734890D02*
X114796Y718890D01*
X126088D01*
X85630Y742220D02*
X91630D01*
X98230Y734890D02*
X98796D01*
X142088D02*
X159630D01*
X91440Y741680D02*
X98230Y734890D01*
X496226Y712539D02*
X504121D01*
X493756Y715010D02*
X496226Y712539D01*
X548640Y732790D02*
X549979Y731451D01*
Y725781D02*
Y731451D01*
Y725781D02*
X576300Y699460D01*
Y694960D02*
Y699460D01*
X666300Y694690D02*
Y694960D01*
X259080Y831850D02*
Y833145D01*
X249605Y842620D02*
X259080Y833145D01*
X196850Y831850D02*
X204470D01*
X213360Y822960D01*
X192840Y719890D02*
X199010Y726060D01*
Y730122D01*
X178852Y750280D02*
X199010Y730122D01*
X159630Y719890D02*
X192840D01*
X178602Y750280D02*
X178852D01*
X175650Y753232D02*
X178602Y750280D01*
X162460Y766672D02*
X175650Y753482D01*
X157710Y807630D02*
X183452D01*
X156210D02*
X157710D01*
X175650Y753232D02*
Y753482D01*
X162460Y766672D02*
Y802880D01*
X78740Y735330D02*
X85630Y742220D01*
X68130Y695140D02*
X72880D01*
X67310Y695960D02*
X68130Y695140D01*
X157710Y807630D02*
X162460Y802880D01*
X712010Y767792D02*
Y779320D01*
X729875Y797186D02*
X730624D01*
X712010Y779320D02*
X729875Y797186D01*
X712010Y767792D02*
X713940Y765862D01*
Y753315D02*
Y765862D01*
X765810Y775970D02*
X785320Y756460D01*
Y742887D02*
Y756460D01*
X778993Y736560D02*
X785320Y742887D01*
X745695Y736560D02*
X778993D01*
X660748Y712253D02*
Y714147D01*
Y712253D02*
X666300Y706701D01*
Y694960D02*
Y706701D01*
X666750Y688324D02*
Y694690D01*
Y688324D02*
X670720Y684354D01*
Y682460D02*
Y684354D01*
X726371Y661601D02*
X727710Y662940D01*
X726371Y654702D02*
Y661601D01*
X719368Y647700D02*
X726371Y654702D01*
X715010Y647700D02*
X719368D01*
X696300Y694960D02*
X698403Y692857D01*
X696300Y685508D02*
Y694960D01*
X704035Y692857D02*
X705891Y691001D01*
X698403Y692857D02*
X704035D01*
X699607Y670854D02*
Y682201D01*
X696300Y685508D02*
X699607Y682201D01*
X521065Y236500D02*
X538130D01*
X518245Y233680D02*
X521065Y236500D01*
X491405Y243840D02*
X494030D01*
X515620Y233680D02*
X518245D01*
X485563Y237998D02*
X491405Y243840D01*
X484110Y237998D02*
X485563D01*
X722630Y581960D02*
Y604665D01*
X729234Y602996D02*
X736197Y596033D01*
X720336Y606960D02*
X722630Y604665D01*
X729234Y602996D02*
Y624087D01*
X538130Y291500D02*
X542630D01*
X568130Y196500D02*
Y211842D01*
X580100Y223813D01*
X554160Y281500D02*
X557070Y278590D01*
X558863D01*
X499380Y327660D02*
X500380D01*
X490303Y318583D02*
X499380Y327660D01*
X490303Y301011D02*
Y318583D01*
X483870Y294578D02*
X490303Y301011D01*
X483870Y292100D02*
Y294578D01*
X521970Y285750D02*
X530130Y277590D01*
Y274171D02*
Y277590D01*
Y274171D02*
X531302Y273000D01*
X532130D01*
X533630Y271500D01*
X538130D01*
Y281500D02*
X554160D01*
X514350Y273050D02*
X520900Y266500D01*
X538130D01*
X578130Y311500D02*
Y319431D01*
X590550Y331851D01*
Y342900D01*
X234750Y48111D02*
X238250Y44611D01*
Y33615D02*
Y44611D01*
Y33615D02*
X241300Y30565D01*
Y27940D02*
Y30565D01*
X238760Y842620D02*
X249605D01*
X54190Y831255D02*
X54480Y831545D01*
X65663D01*
X54190Y824755D02*
X54940Y824005D01*
X63725D01*
X64770Y822960D01*
X183452Y807630D02*
X192291Y816469D01*
X194310D01*
D97*
X351360Y252300D02*
X353060Y254000D01*
X351360Y237060D02*
Y252300D01*
X308610Y194310D02*
X351360Y237060D01*
X270540Y274320D02*
X271780D01*
X266480Y278380D02*
X270540Y274320D01*
X266480Y278380D02*
Y284114D01*
X259599Y290995D02*
X266480Y284114D01*
X259599Y290995D02*
Y292619D01*
X248566Y279400D02*
X250190D01*
X244756Y275590D02*
X248566Y279400D01*
X204470Y275590D02*
X244756D01*
X485140Y623570D02*
X485390Y623320D01*
X492308D01*
X495746Y619882D01*
X497369D01*
X489335Y629535D02*
X501673D01*
X487680Y650831D02*
X499775Y638736D01*
X500675D02*
X505895D01*
X488950Y629920D02*
X489335Y629535D01*
X499775Y638736D02*
X500675D01*
X501673Y629535D02*
X502374Y630236D01*
X510874Y626715D02*
Y633757D01*
X509226Y621753D02*
X538519Y592460D01*
X509226Y621753D02*
Y625067D01*
X510874Y626715D01*
X505895Y638736D02*
X510874Y633757D01*
X228600Y433070D02*
X247650D01*
X521970Y554990D02*
X522440Y555460D01*
X532970D02*
X534970Y557460D01*
X522440Y555460D02*
X532970D01*
X534970Y557460D02*
X558800D01*
X462082Y659328D02*
X483632D01*
X461132Y660278D02*
X462082Y659328D01*
X483632D02*
X487680Y655280D01*
Y650831D02*
Y655280D01*
X499741Y661711D02*
X503800Y665769D01*
X532695Y625443D02*
X542957D01*
X499741Y658397D02*
X532695Y625443D01*
X499741Y658397D02*
Y661711D01*
X538519Y592460D02*
X558800D01*
X538769Y571890D02*
X545811D01*
X546381Y572460D02*
X558800D01*
X545811Y571890D02*
X546381Y572460D01*
X538199D02*
X538769Y571890D01*
X536635Y572460D02*
X538199D01*
X542957Y625443D02*
X543560Y624840D01*
X494030Y681565D02*
X495046D01*
X503800Y672811D01*
Y665769D02*
Y672811D01*
X646784Y730501D02*
X648678D01*
X648992Y730187D01*
X667392D01*
X641930Y735355D02*
X646784Y730501D01*
X646814Y726001D02*
X648915Y723900D01*
X644920Y726001D02*
X646814D01*
X648915Y723900D02*
X654181D01*
X643601Y727320D02*
X644920Y726001D01*
X492835Y767390D02*
X576075Y684150D01*
X480100Y767390D02*
X492835D01*
X479850Y767640D02*
X480100Y767390D01*
X581006Y684150D02*
X586776Y678380D01*
X576075Y684150D02*
X581006D01*
X394970Y601980D02*
Y631781D01*
X354921Y671830D02*
X394970Y631781D01*
X336550Y671830D02*
X354921D01*
X237490Y685800D02*
X246380Y694690D01*
Y756920D01*
X375920Y822960D02*
X377068Y824108D01*
X382148D01*
X401320Y843280D01*
X417830Y822960D02*
X419454D01*
X425804Y816610D01*
X436880D01*
X477520Y810260D02*
X489850Y797930D01*
Y790644D02*
Y797930D01*
X487846Y788640D02*
X489850Y790644D01*
X486600Y788640D02*
X487846D01*
X485100Y787140D02*
X486600Y788640D01*
X479850Y787140D02*
X485100D01*
X489156Y686440D02*
X494030Y681565D01*
X480910Y688190D02*
X486160D01*
X487910Y686440D02*
X489156D01*
X486160Y688190D02*
X487910Y686440D01*
X576300Y543960D02*
Y552916D01*
X573977Y555240D02*
X576300Y552916D01*
X573977Y555240D02*
Y556863D01*
X486410Y604520D02*
X504575D01*
X536635Y572460D01*
X461010Y763270D02*
X469900Y754380D01*
X493770Y842270D02*
X501678Y834362D01*
X479850Y842270D02*
X493770D01*
X561340Y588010D02*
X565686D01*
X568348Y590672D01*
X577972D01*
X579120Y591820D01*
X493676Y853440D02*
X495300D01*
X492097Y855020D02*
X493676Y853440D01*
X480100Y855020D02*
X492097D01*
X479850Y855270D02*
X480100Y855020D01*
X394793Y886283D02*
X395941Y885135D01*
X403928D01*
X407793Y881270D01*
X420260D01*
X52070Y680720D02*
X67310Y695960D01*
X45720Y680720D02*
X52070D01*
X45720D02*
Y708283D01*
Y678180D02*
Y680720D01*
Y708283D02*
X71577Y734140D01*
X78380D01*
X79130Y734890D01*
X420260Y881270D02*
X420370Y881380D01*
X586776Y673449D02*
X626297Y633928D01*
X661439D01*
X674158Y635928D02*
X675789Y637559D01*
X663439Y635928D02*
X674158D01*
X586776Y673449D02*
Y678380D01*
X661439Y633928D02*
X663439Y635928D01*
X638810Y977900D02*
X641350Y975360D01*
X655320D01*
X660400Y910590D02*
Y941070D01*
Y910590D02*
X679450Y891540D01*
X685800Y783590D02*
X725170Y822960D01*
X685800Y742950D02*
Y783590D01*
X681300Y791111D02*
X723320Y833131D01*
Y838045D02*
X736600Y851324D01*
X676800Y786606D02*
Y792975D01*
X641930Y751736D02*
X676800Y786606D01*
X718820Y834995D02*
Y851790D01*
X648644Y735004D02*
X681300Y767660D01*
X723320Y833131D02*
Y838045D01*
X681300Y767660D02*
Y791111D01*
X676800Y792975D02*
X718820Y834995D01*
X736600Y851324D02*
Y851790D01*
X639172Y727320D02*
X643601D01*
X604068Y762424D02*
X639172Y727320D01*
X641930Y735355D02*
Y751736D01*
X654181Y723900D02*
X655968Y725687D01*
X669179Y728400D02*
X669725D01*
X667392Y730187D02*
X669179Y728400D01*
X655968Y725687D02*
X665528D01*
X667315Y723900D02*
X667861D01*
X665528Y725687D02*
X667315Y723900D01*
X687051Y646058D02*
X693454Y652460D01*
X685427Y646058D02*
X687051D01*
X693454Y654050D02*
X696864Y657460D01*
X713800D01*
X687559Y675323D02*
Y677677D01*
X691300Y681418D02*
Y694960D01*
X677983Y654050D02*
X693454D01*
X687559Y677677D02*
X691300Y681418D01*
X774477Y746760D02*
X775970D01*
X769277Y741560D02*
X774477Y746760D01*
X745695Y741560D02*
X769277D01*
X574572Y674300D02*
X576926D01*
X571411Y677460D02*
X574572Y674300D01*
X558800Y677460D02*
X571411D01*
X713800Y592460D02*
Y597460D01*
X713300Y591960D02*
X713800Y592460D01*
X707265Y591960D02*
X713300D01*
X699770Y584465D02*
X707265Y591960D01*
X699770Y570230D02*
Y584465D01*
X609490Y419100D02*
X728980Y538590D01*
X565150Y419100D02*
X609490D01*
X697647Y624903D02*
X700091Y622460D01*
X713800D01*
X695293Y624903D02*
X697647D01*
X754368Y746580D02*
X759628Y751840D01*
X760730D01*
X745715Y746580D02*
X754368D01*
X745695Y746560D02*
X745715Y746580D01*
X565336Y671960D02*
X567300Y669996D01*
Y665481D02*
X576477Y656304D01*
X567300Y665481D02*
Y669996D01*
X559300Y671960D02*
X565336D01*
X558800Y672460D02*
X559300Y671960D01*
X624981Y478790D02*
Y480809D01*
X666300Y522128D01*
Y539960D01*
X675640Y656393D02*
X677983Y654050D01*
X675640Y663404D02*
X687559Y675323D01*
X675640Y656393D02*
Y663404D01*
X706611Y606960D02*
X720336D01*
X725367Y581960D02*
X727710Y579617D01*
X722630Y581960D02*
X725367D01*
X727710Y560334D02*
Y579617D01*
X785740Y604130D02*
Y613121D01*
X783590Y588010D02*
Y601980D01*
X780761Y618100D02*
X785740Y613121D01*
X753990Y618100D02*
X780761D01*
X753110Y617220D02*
X753990Y618100D01*
X783590Y601980D02*
X785740Y604130D01*
X685443Y628983D02*
X692658Y636199D01*
X686767Y618833D02*
X692540Y613060D01*
X697545Y636199D02*
X698693Y637347D01*
X692540Y609889D02*
X697519Y604910D01*
X685443Y620823D02*
Y628983D01*
X692658Y636199D02*
X697545D01*
X686767Y618833D02*
Y619500D01*
X685443Y620823D02*
X686767Y619500D01*
X704561Y604910D02*
X706611Y606960D01*
X692540Y609889D02*
Y613060D01*
X697519Y604910D02*
X704561D01*
X714300Y581960D02*
X722630D01*
X713800Y652960D02*
Y657460D01*
X828040Y615950D02*
X830580Y618490D01*
X845820D01*
X588135Y683385D02*
X594235D01*
X629920Y647700D01*
X842010Y594360D02*
X852170Y584200D01*
X873040D01*
X662940Y820420D02*
Y831850D01*
X659130Y816610D02*
X662940Y820420D01*
X699138Y715015D02*
X704879Y720757D01*
X692528Y714632D02*
X692910Y715015D01*
X699138D01*
X547370Y831850D02*
X548640Y833120D01*
X566420D01*
X563880Y808990D02*
X604068Y768802D01*
Y762424D02*
Y768802D01*
X667861Y723900D02*
X680720Y711041D01*
X669725Y728400D02*
X671685Y726440D01*
X694690D01*
X747602Y698534D02*
X761583D01*
X738174Y690497D02*
X739565D01*
X747602Y698534D01*
X720090Y872490D02*
Y873760D01*
X722630Y876300D01*
X675230Y923700D02*
X722630Y876300D01*
X675230Y923700D02*
Y965200D01*
X737870Y872490D02*
Y963707D01*
X720377Y981200D02*
X737870Y963707D01*
X767353Y704304D02*
Y711513D01*
X773120Y717280D01*
X761583Y698534D02*
X767353Y704304D01*
X767000Y731560D02*
X773120Y725440D01*
Y717280D02*
Y725440D01*
X745695Y731560D02*
X767000D01*
X697230Y981200D02*
X720377D01*
X707335Y539960D02*
X727710Y560334D01*
X696300Y539960D02*
X707335D01*
X713800Y582460D02*
X714300Y581960D01*
X769620Y577850D02*
X773620Y581850D01*
X777430D01*
X783590Y588010D01*
X376410Y308440D02*
Y308690D01*
X362611Y294640D02*
X376410Y308440D01*
X361950Y294640D02*
X362611D01*
X407670Y276860D02*
Y277737D01*
X476309Y346376D01*
X507531D01*
X542407Y311500D01*
X558130D01*
X477380Y311660D02*
X478380D01*
X473380Y307660D02*
X477380Y311660D01*
X473380Y306660D02*
Y307660D01*
X457200Y290480D02*
X473380Y306660D01*
X457200Y275590D02*
Y290480D01*
D98*
X194600Y186938D02*
Y210368D01*
X189629Y217583D02*
X192282Y214930D01*
Y212686D02*
X194600Y210368D01*
X192282Y212686D02*
Y214930D01*
X199204Y246240D02*
X201064Y244380D01*
X189167Y217583D02*
X189629D01*
X186830Y237304D02*
Y241114D01*
X185560Y236034D02*
X186830Y237304D01*
X201064Y244380D02*
X203214D01*
X211884Y215682D02*
X212479Y216276D01*
X185560Y231477D02*
Y236034D01*
X184041Y222709D02*
X189167Y217583D01*
X186830Y241114D02*
X191956Y246240D01*
X184041Y229958D02*
X185560Y231477D01*
X212479Y219853D02*
X217006Y224380D01*
X191956Y246240D02*
X199204D01*
X211884Y187022D02*
Y215682D01*
X212479Y216276D02*
Y219853D01*
X184041Y222709D02*
Y229958D01*
X214350Y244380D02*
X224010D01*
X213028Y245702D02*
X214350Y244380D01*
X204537Y245702D02*
X213028D01*
X203214Y244380D02*
X204537Y245702D01*
X221002Y224380D02*
X224010D01*
X219010D02*
X220006Y223384D01*
X221002Y224380D01*
X217006D02*
X219010D01*
X224010D02*
X227410Y220980D01*
X239173Y238854D02*
X240160Y239841D01*
X233358D02*
X234132D01*
X235010Y238962D01*
X226697Y246501D02*
X233358Y239841D01*
X240160D02*
Y244444D01*
X224010Y244380D02*
Y245623D01*
X224889Y246501D02*
X226697D01*
X240160Y244444D02*
X240737Y245020D01*
X248370D01*
X252410Y240980D01*
X224010Y245623D02*
X224889Y246501D01*
X252410Y240980D02*
X257410D01*
X262563Y211133D02*
X277265D01*
X278467Y209932D01*
X224010Y244380D02*
X227410Y240980D01*
X628198Y286890D02*
X636722D01*
X623588Y291500D02*
X628198Y286890D01*
X641332Y291500D02*
X653130D01*
X636722Y286890D02*
X641332Y291500D01*
X573630D02*
X623588D01*
X252410Y215980D02*
X252563Y216133D01*
X252796D01*
X256110Y219447D01*
Y219593D02*
X257410Y220893D01*
Y220980D01*
X256110Y219447D02*
Y219593D01*
X542630Y291500D02*
X558130Y307000D01*
X573630Y291500D01*
X262277Y166510D02*
Y169541D01*
X243460Y185251D02*
X249930Y178780D01*
X252482D01*
X258304Y173514D02*
X262277Y169541D01*
X255356Y175906D02*
X257425D01*
X258304Y173514D02*
Y175027D01*
X252482Y178780D02*
X255356Y175906D01*
X257425D02*
X258304Y175027D01*
X250190Y157240D02*
X252490Y154940D01*
X270510D01*
X243460Y185251D02*
Y188340D01*
X234115Y197685D02*
X243460Y188340D01*
X262410Y210980D02*
X262563Y211133D01*
X206762Y181900D02*
X212090Y176572D01*
Y176530D02*
Y176572D01*
X234115Y197685D02*
X242410Y205980D01*
Y240980D02*
X252410D01*
X231190Y194760D02*
X234115Y197685D01*
X257410Y205980D02*
X262410D01*
X194600Y186938D02*
X199638Y181900D01*
X206762D02*
X211884Y187022D01*
X199638Y181900D02*
X206762D01*
X231190Y163780D02*
Y194760D01*
D99*
X252171Y233640D02*
X266660D01*
X244896Y226365D02*
X247461Y228930D01*
X250070Y231539D02*
X252171Y233640D01*
X250070Y230741D02*
Y231539D01*
X248259Y228930D02*
X250070Y230741D01*
X247461Y228930D02*
X248259D01*
X244896Y223466D02*
Y226365D01*
X269915Y222250D02*
X270510D01*
X269015Y223150D02*
X269915Y222250D01*
X256511Y223150D02*
X269015D01*
X242410Y220980D02*
X244896Y223466D01*
X242570Y216140D02*
X244629Y218199D01*
X252528D01*
X242570Y215900D02*
Y216140D01*
X252528Y218199D02*
X254460Y220131D01*
Y221099D01*
X256511Y223150D01*
X713204Y712096D02*
X713940Y712832D01*
D100*
X259410Y240152D02*
Y241808D01*
X256821Y238219D02*
X257478D01*
X254610Y236008D02*
X256821Y238219D01*
X257478D02*
X259410Y240152D01*
X257810Y243409D02*
Y252730D01*
Y243409D02*
X259410Y241808D01*
X252438Y236008D02*
X254610D01*
X252410Y235980D02*
X252438Y236008D01*
X252410Y235980D02*
Y235980D01*
X256532Y228860D02*
X256702D01*
X255290Y230102D02*
X256532Y228860D01*
X256702D02*
X256843Y228719D01*
X234951Y218620D02*
Y221550D01*
Y218620D02*
X235362Y218210D01*
X238009D01*
X239795Y216423D01*
X259671Y228719D02*
X262410Y225980D01*
X256843Y228719D02*
X259671D01*
X232439Y218780D02*
Y220951D01*
Y218780D02*
X235149Y216070D01*
Y215413D02*
X237582Y212980D01*
X238577D01*
X235149Y215413D02*
Y216070D01*
X232410Y220980D02*
X232439Y220951D01*
X240271Y211286D02*
X242104D01*
X238577Y212980D02*
X240271Y211286D01*
X242104D02*
X242410Y210980D01*
X259410Y208979D02*
Y213350D01*
X262410Y216349D01*
X259410Y208979D02*
X262410Y205980D01*
Y216349D02*
Y220980D01*
X245410Y213980D02*
X247410Y215980D01*
X241582Y213980D02*
X245410D01*
X239795Y215766D02*
X241582Y213980D01*
X239795Y215766D02*
Y216423D01*
X233321Y223180D02*
X234951Y221550D01*
X227410Y220980D02*
X227716Y221286D01*
D101*
X291380Y887730D02*
X294762D01*
X285783Y889480D02*
X291380Y883882D01*
X307340Y890990D02*
Y947279D01*
X306080Y889730D02*
X307340Y890990D01*
X278130Y843890D02*
X291380Y857140D01*
Y883882D01*
X237260Y825120D02*
X238760Y823620D01*
X238290Y895021D02*
X238760Y895491D01*
X225711Y887192D02*
X233540Y895021D01*
X238290D01*
X184150Y859790D02*
X204200D01*
X237068Y825120D02*
X237260D01*
X225760Y836428D02*
X237068Y825120D01*
X225711Y838279D02*
Y887192D01*
Y838279D02*
X225760Y838230D01*
X204200Y859790D02*
X225711Y838279D01*
X225760Y836428D02*
Y838230D01*
X305813Y889694D02*
X306080Y889730D01*
X294357Y888135D02*
X305813Y889694D01*
X291380Y887730D02*
X294357Y888135D01*
X283090Y889480D02*
X285783D01*
X279130Y893440D02*
X283090Y889480D01*
X309880Y850900D02*
X322580D01*
X339080Y867400D01*
Y887730D01*
D102*
X239760Y939980D02*
X269760D01*
X272120Y942340D02*
X274320D01*
X238760Y937230D02*
Y938980D01*
X269760Y939980D02*
X272120Y942340D01*
X238760Y938980D02*
X239760Y939980D01*
X55150Y885815D02*
Y934720D01*
X27840Y858505D02*
X55150Y885815D01*
Y985520D02*
X109970D01*
X135590Y959900D01*
Y952500D02*
Y959900D01*
X274320Y963340D02*
X306801D01*
X307340Y962801D01*
D103*
X172720Y871220D02*
X204198D01*
X206738Y873760D01*
D104*
X55150Y934720D02*
D03*
Y985520D02*
D03*
D105*
X21590Y728980D02*
D03*
D106*
Y703580D02*
D03*
Y678180D02*
D03*
D107*
X308610Y194310D02*
D03*
X195580Y237490D02*
D03*
X323110Y193040D02*
D03*
X192791Y226333D02*
D03*
X259599Y292619D02*
D03*
X250190Y279400D02*
D03*
X204470Y275590D02*
D03*
X208782Y235452D02*
D03*
X497369Y619882D02*
D03*
X276860Y248920D02*
D03*
X502374Y630236D02*
D03*
X275590Y322580D02*
D03*
X257810Y252730D02*
D03*
X247524Y257873D02*
D03*
X463550Y708660D02*
D03*
X493675Y638035D02*
D03*
X350520Y392430D02*
D03*
X466090Y862330D02*
D03*
X228600Y433070D02*
D03*
X737870Y553720D02*
D03*
X739140Y515620D02*
D03*
X642620Y520590D02*
D03*
X520700Y516890D02*
D03*
X285640Y233680D02*
D03*
X521970Y554990D02*
D03*
X461132Y660278D02*
D03*
X497840Y575310D02*
D03*
X527050Y615950D02*
D03*
X512815Y662763D02*
D03*
X668020Y281940D02*
D03*
X671830Y314960D02*
D03*
X651510Y337820D02*
D03*
X632460Y297180D02*
D03*
X542290Y580390D02*
D03*
X507110Y698500D02*
D03*
X543560Y624840D02*
D03*
X495300Y669290D02*
D03*
X497840Y728980D02*
D03*
X550630Y257152D02*
D03*
X588010Y553720D02*
D03*
X591820Y655320D02*
D03*
X632460Y721360D02*
D03*
X502708Y774488D02*
D03*
X643293Y717501D02*
D03*
X604520Y709860D02*
D03*
X496570Y750570D02*
D03*
X394970Y601980D02*
D03*
X336550Y671830D02*
D03*
X237490Y685800D02*
D03*
X246380Y756920D02*
D03*
X375920Y822960D02*
D03*
X401320Y843280D02*
D03*
X417830Y822960D02*
D03*
X436880Y816610D02*
D03*
X477520Y810260D02*
D03*
X118200Y787520D02*
D03*
X573977Y556863D02*
D03*
X461010Y763270D02*
D03*
X501678Y834362D02*
D03*
X579120Y591820D02*
D03*
X495300Y853440D02*
D03*
X394793Y886283D02*
D03*
X464820Y693420D02*
D03*
X157480Y748030D02*
D03*
X143510Y725170D02*
D03*
X467360Y612140D02*
D03*
X158750Y655620D02*
D03*
X167640Y627380D02*
D03*
X339090Y660400D02*
D03*
X151130Y764540D02*
D03*
X464820Y775970D02*
D03*
X354330Y660400D02*
D03*
X143510Y708660D02*
D03*
X139700Y688340D02*
D03*
X242570Y660400D02*
D03*
X107888Y714485D02*
D03*
X118110Y726890D02*
D03*
X275590Y615950D02*
D03*
X137160Y770890D02*
D03*
X185420Y731520D02*
D03*
X306070Y560070D02*
D03*
X326390Y608330D02*
D03*
X505460Y711200D02*
D03*
X548640Y732790D02*
D03*
X259080Y831850D02*
D03*
X213360Y822960D02*
D03*
X77470Y808990D02*
D03*
X113030Y621030D02*
D03*
X129380Y653304D02*
D03*
X113030Y651510D02*
D03*
X102870Y633730D02*
D03*
X207010Y731520D02*
D03*
X655320Y975360D02*
D03*
X660400Y941070D02*
D03*
X679450Y891540D02*
D03*
X725170Y822960D02*
D03*
X737191Y834981D02*
D03*
X730624Y797186D02*
D03*
X599440Y947420D02*
D03*
X414020Y113030D02*
D03*
X765810Y775970D02*
D03*
X660748Y714147D02*
D03*
X670720Y682460D02*
D03*
X685427Y646058D02*
D03*
X728980Y538590D02*
D03*
X699770Y570230D02*
D03*
X727710Y662940D02*
D03*
X699607Y670854D02*
D03*
X777240Y609600D02*
D03*
X701040Y613410D02*
D03*
X698693Y637347D02*
D03*
X845820Y618490D02*
D03*
X629920Y647700D02*
D03*
X842010Y594360D02*
D03*
D108*
X203382Y217283D02*
D03*
X278467Y209932D02*
D03*
X355854Y475996D02*
D03*
X227838Y401320D02*
D03*
X471170Y646430D02*
D03*
X545740Y198120D02*
D03*
X569509Y266502D02*
D03*
X584480Y566076D02*
D03*
X110490Y777240D02*
D03*
X736600Y851790D02*
D03*
X754380Y797560D02*
D03*
X675789Y637559D02*
D03*
X775970Y746760D02*
D03*
X576926Y674300D02*
D03*
X695293Y624903D02*
D03*
X760730Y751840D02*
D03*
X576477Y656304D02*
D03*
X732790Y640080D02*
D03*
X757503Y708384D02*
D03*
X770890Y685800D02*
D03*
X724007Y685722D02*
D03*
X705891Y691001D02*
D03*
X739584Y607631D02*
D03*
X688700Y599800D02*
D03*
X836930Y431800D02*
D03*
X806450Y419100D02*
D03*
X515620Y233680D02*
D03*
X494030Y243840D02*
D03*
X57150Y760730D02*
D03*
X53340D02*
D03*
X57150Y699770D02*
D03*
X275590Y180340D02*
D03*
X258530Y190150D02*
D03*
X245039Y170090D02*
D03*
X203200Y190500D02*
D03*
X17272Y230886D02*
D03*
X147320Y38100D02*
D03*
X87630Y27940D02*
D03*
X843280Y529590D02*
D03*
X763270Y721360D02*
D03*
X786130Y713740D02*
D03*
X687559Y675323D02*
D03*
X721360Y773660D02*
D03*
X566420Y833120D02*
D03*
X563880Y808990D02*
D03*
X738174Y690497D02*
D03*
X718820Y851790D02*
D03*
X720090Y872490D02*
D03*
X737870D02*
D03*
X659130Y676910D02*
D03*
X726984Y960664D02*
D03*
X816610Y778510D02*
D03*
X798830Y782320D02*
D03*
X627380Y807720D02*
D03*
X361950Y294640D02*
D03*
X407670Y276860D02*
D03*
X558750Y223520D02*
D03*
X554990Y269240D02*
D03*
X483870Y292100D02*
D03*
X521970Y285750D02*
D03*
X572770Y177800D02*
D03*
X635000Y172720D02*
D03*
X457200Y275590D02*
D03*
X514350Y273050D02*
D03*
X241300Y27940D02*
D03*
X63104Y200294D02*
D03*
X270510Y154940D02*
D03*
X262277Y166510D02*
D03*
X212090Y176530D02*
D03*
X342900Y74930D02*
D03*
X275080Y92365D02*
D03*
X302260Y46990D02*
D03*
X279400Y60960D02*
D03*
X69850Y750570D02*
D03*
X317246Y172720D02*
D03*
X268224Y559562D02*
D03*
X328930Y632714D02*
D03*
X334264Y358648D02*
D03*
X366268Y455676D02*
D03*
X21590Y640080D02*
D03*
X477774Y731012D02*
D03*
X411988D02*
D03*
X239776Y865378D02*
D03*
X137160Y889000D02*
D03*
X78740Y845820D02*
D03*
X206738Y873760D02*
D03*
X309880Y850900D02*
D03*
D109*
X270510Y222250D02*
D03*
X715082Y707099D02*
D03*
X702310Y710430D02*
D03*
D110*
X659130Y816610D02*
D03*
D111*
X692528Y714632D02*
D03*
D112*
X680720Y711041D02*
D03*
M02*
