M48
;Layer_Color=9474304
;FILE_FORMAT=4:4
METRIC,LZ
;TYPE=PLATED
T01F00S00C0.1000
T02F00S00C0.2000
T03F00S00C0.3000
T04F00S00C0.4000
T05F00S00C0.7000
T06F00S00C0.7112
T07F00S00C0.9000
T08F00S00C1.0200
T09F00S00C1.1000
T10F00S00C1.4000
T11F00S00C1.6000
;TYPE=NON_PLATED
T12F00S00C3.2500
%
T01
X0068072Y00711041
T02
X0027051Y0022225
X0070231Y0071043
X00715082Y00707099
T03
X0065913Y0081661
T04
X00692528Y00714632
T05
X0041402Y0011303
X0055063Y00257152
X0063246Y0029718
X0066802Y0028194
X0067183Y0031496
X0065151Y0033782
X0064262Y0052059
X0073914Y0051562
X0072898Y0053859
X005207Y0051689
X0035052Y0039243
X0027559Y0032258
X00259599Y00292619
X0025019Y002794
X00247524Y00257873
X0025781Y0025273
X0027686Y0024892
X0028564Y0023368
X0030861Y0019431
X0032311Y0019304
X00208782Y00235452
X0019558Y0023749
X00192791Y00226333
X0020447Y0027559
X002286Y0043307
X0011303Y0062103
X0010287Y0063373
X0011303Y0065151
X0012938Y00653304
X001397Y0068834
X00107888Y00714485
X0011811Y0072689
X001182Y0078752
X0013716Y0077089
X0007747Y0080899
X0015113Y0076454
X0015748Y0074803
X0014351Y0072517
Y0070866
X0018542Y0073152
X0020701
X0024638Y0075692
X0023749Y006858
X0024257Y006604
X0027559Y0061595
X0032639Y0060833
X0033909Y006604
X0033655Y0067183
X0035433Y006604
X0039497Y0060198
X0046736Y0061214
X00497369Y00619882
X00502374Y00630236
X00493675Y00638035
X004953Y0066929
X00512815Y00662763
X0050711Y006985
X0050546Y007112
X0049784Y0072898
X0049657Y0075057
X00502708Y00774488
X0046482Y0077597
X0046101Y0076327
X0046355Y0070866
X0046482Y0069342
X00461132Y00660278
X0052705Y0061595
X0052197Y0055499
X0049784Y0057531
X0030607Y0056007
X0016764Y0062738
X0015875Y0065562
X0021336Y0082296
X0025908Y0083185
X0037592Y0082296
X0041783
X0043688Y0081661
X0047752Y0081026
X00501678Y00834362
X004953Y0085344
X0046609Y0086233
X0040132Y0084328
X00394793Y00886283
X0056642Y0083312
X0056388Y0080899
X0054864Y0073279
X0060452Y0070986
X0063246Y0072136
X00643293Y00717501
X00660748Y00714147
X0067072Y0068246
X00699607Y00670854
X00698693Y00637347
X00685427Y00646058
X0070104Y0061341
X0069977Y0057023
X0073787Y0055372
X0077724Y006096
X0084582Y0061849
X0084201Y0059436
X0072771Y0066294
X0062992Y006477
X0059182Y0065532
X0057912Y0059182
X00573977Y00556863
X0058801Y0055372
X0054229Y0058039
X0054356Y0062484
X00730624Y00797186
X0072517Y0082296
X00737191Y00834981
X0076581Y0077597
X0067945Y0089154
X006604Y0094107
X0065532Y0097536
X0059944Y0094742
T06
X0008763Y0002794
X0014732Y000381
X002413Y0002794
X002794Y0006096
X0027508Y00092365
X0030226Y0004699
X003429Y0007493
X0054574Y0019812
X0055875Y0022352
X0055499Y0026924
X00569509Y00266502
X0057277Y001778
X00635Y0017272
X0080645Y004191
X0083693Y004318
X0084328Y0052959
X00355854Y00475996
X00366268Y00455676
X00334264Y00358648
X0036195Y0029464
X0040767Y0027686
X004572Y0027559
X0048387Y002921
X0052197Y0028575
X0051435Y0027305
X0051562Y0023368
X0049403Y0024384
X00317246Y0017272
X0027559Y0018034
X0025853Y0019015
X00262277Y0016651
X0027051Y0015494
X00245039Y0017009
X0021209Y0017653
X002032Y001905
X00203382Y00217283
X00278467Y00209932
X00227838Y0040132
X00063104Y00200294
X00017272Y00230886
X0002159Y0064008
X0005715Y0069977
Y0076073
X0005334
X0006985Y0075057
X0011049Y0077724
X0007874Y0084582
X0013716Y00889
X00206738Y0087376
X00239776Y00865378
X0030988Y008509
X00411988Y00731012
X00477774
X0047117Y0064643
X0032893Y00632714
X00268224Y00559562
X0058448Y00566076
X00576477Y00656304
X00576926Y006743
X0065913Y0067691
X00687559Y00675323
X00705891Y00691001
X00724007Y00685722
X00738174Y00690497
X00757503Y00708384
X0076327Y0072136
X0078613Y0071374
X0077597Y0074676
X0076073Y0075184
X0075438Y0079756
X0072136Y0077366
X0071882Y0085179
X007366
X0073787Y0087249
X0072009
X0062738Y0080772
X0079883Y0078232
X0081661Y0077851
X0077089Y006858
X0073279Y0064008
X00739584Y00607631
X006887Y005998
X00695293Y00624903
X00675789Y00637559
X00726984Y00960664
T07
X0079067Y0080393
X0081607
X0084147
X0086687
X0089227
X0087957Y0082933
X0085417
X0082877
X0080337
X0077797
T08
X0076727Y0091823
X0090297
Y0093853
X0076727
T09
X0002159Y0067818
Y0070358
Y0072898
T10
X0005515Y0093472
Y0098552
T11
X0075762Y0086233
X0091262
T12
X0077797Y0089283
X0089227
M30
